%TF.GenerationSoftware,KiCad,Pcbnew,10.0.3*%
%TF.CreationDate,2026-07-13T00:47:25-06:00*%
%TF.ProjectId,punbox,70756e62-6f78-42e6-9b69-6361645f7063,0*%
%TF.SameCoordinates,Original*%
%TF.FileFunction,Paste,Top*%
%TF.FilePolarity,Positive*%
%FSLAX46Y46*%
G04 Gerber Fmt 4.6, Leading zero omitted, Abs format (unit mm)*
G04 Created by KiCad (PCBNEW 10.0.3) date 2026-07-13 00:47:25*
%MOMM*%
%LPD*%
G01*
G04 APERTURE LIST*
G04 Aperture macros list*
%AMRoundRect*
0 Rectangle with rounded corners*
0 $1 Rounding radius*
0 $2 $3 $4 $5 $6 $7 $8 $9 X,Y pos of 4 corners*
0 Add a 4 corners polygon primitive as box body*
4,1,4,$2,$3,$4,$5,$6,$7,$8,$9,$2,$3,0*
0 Add four circle primitives for the rounded corners*
1,1,$1+$1,$2,$3*
1,1,$1+$1,$4,$5*
1,1,$1+$1,$6,$7*
1,1,$1+$1,$8,$9*
0 Add four rect primitives between the rounded corners*
20,1,$1+$1,$2,$3,$4,$5,0*
20,1,$1+$1,$4,$5,$6,$7,0*
20,1,$1+$1,$6,$7,$8,$9,0*
20,1,$1+$1,$8,$9,$2,$3,0*%
G04 Aperture macros list end*
%ADD10RoundRect,0.200000X0.200000X0.275000X-0.200000X0.275000X-0.200000X-0.275000X0.200000X-0.275000X0*%
%ADD11RoundRect,0.225000X0.225000X0.250000X-0.225000X0.250000X-0.225000X-0.250000X0.225000X-0.250000X0*%
%ADD12RoundRect,0.125000X-0.125000X0.125000X-0.125000X-0.125000X0.125000X-0.125000X0.125000X0.125000X0*%
%ADD13RoundRect,0.062500X-0.062500X0.350000X-0.062500X-0.350000X0.062500X-0.350000X0.062500X0.350000X0*%
%ADD14RoundRect,0.062500X-0.350000X0.062500X-0.350000X-0.062500X0.350000X-0.062500X0.350000X0.062500X0*%
%ADD15RoundRect,0.200000X-0.200000X-0.450000X0.200000X-0.450000X0.200000X0.450000X-0.200000X0.450000X0*%
%ADD16RoundRect,0.250001X-0.799999X-1.249999X0.799999X-1.249999X0.799999X1.249999X-0.799999X1.249999X0*%
%ADD17RoundRect,0.250000X-0.550000X1.500000X-0.550000X-1.500000X0.550000X-1.500000X0.550000X1.500000X0*%
%ADD18RoundRect,0.250000X0.250000X0.475000X-0.250000X0.475000X-0.250000X-0.475000X0.250000X-0.475000X0*%
G04 APERTURE END LIST*
D10*
%TO.C,R1*%
X114325000Y-82500000D03*
X112675000Y-82500000D03*
%TD*%
%TO.C,R2*%
X122825000Y-82500000D03*
X121175000Y-82500000D03*
%TD*%
D11*
%TO.C,C2*%
X121050000Y-88000000D03*
X119500000Y-88000000D03*
%TD*%
D12*
%TO.C,U1*%
X115560000Y-86940000D03*
X114940000Y-86940000D03*
X115560000Y-87560000D03*
X114940000Y-87560000D03*
D13*
X116000000Y-85812500D03*
X115500000Y-85812500D03*
X115000000Y-85812500D03*
X114500000Y-85812500D03*
D14*
X113812500Y-86500000D03*
X113812500Y-87000000D03*
X113812500Y-87500000D03*
X113812500Y-88000000D03*
D13*
X114500000Y-88687500D03*
X115000000Y-88687500D03*
X115500000Y-88687500D03*
X116000000Y-88687500D03*
D14*
X116687500Y-88000000D03*
X116687500Y-87500000D03*
X116687500Y-87000000D03*
X116687500Y-86500000D03*
%TD*%
D15*
%TO.C,J2*%
X116125000Y-93250000D03*
X117375000Y-93250000D03*
X118625000Y-93250000D03*
X119875000Y-93250000D03*
D16*
X113575000Y-96000000D03*
X122425000Y-96000000D03*
%TD*%
D12*
%TO.C,U2*%
X124310000Y-86940000D03*
X123690000Y-86940000D03*
X124310000Y-87560000D03*
X123690000Y-87560000D03*
D13*
X124750000Y-85812500D03*
X124250000Y-85812500D03*
X123750000Y-85812500D03*
X123250000Y-85812500D03*
D14*
X122562500Y-86500000D03*
X122562500Y-87000000D03*
X122562500Y-87500000D03*
X122562500Y-88000000D03*
D13*
X123250000Y-88687500D03*
X123750000Y-88687500D03*
X124250000Y-88687500D03*
X124750000Y-88687500D03*
D14*
X125437500Y-88000000D03*
X125437500Y-87500000D03*
X125437500Y-87000000D03*
X125437500Y-86500000D03*
%TD*%
D17*
%TO.C,C5*%
X115000000Y-48200000D03*
X115000000Y-53800000D03*
%TD*%
D18*
%TO.C,C3*%
X112400000Y-86000000D03*
X110500000Y-86000000D03*
%TD*%
D11*
%TO.C,C1*%
X112400000Y-88000000D03*
X110850000Y-88000000D03*
%TD*%
D18*
%TO.C,C4*%
X121000000Y-86000000D03*
X119100000Y-86000000D03*
%TD*%
M02*
