%TF.GenerationSoftware,KiCad,Pcbnew,10.0.3*%
%TF.CreationDate,2026-07-13T00:47:25-06:00*%
%TF.ProjectId,punbox,70756e62-6f78-42e6-9b69-6361645f7063,0*%
%TF.SameCoordinates,Original*%
%TF.FileFunction,Copper,L1,Top*%
%TF.FilePolarity,Positive*%
%FSLAX46Y46*%
G04 Gerber Fmt 4.6, Leading zero omitted, Abs format (unit mm)*
G04 Created by KiCad (PCBNEW 10.0.3) date 2026-07-13 00:47:25*
%MOMM*%
%LPD*%
G01*
G04 APERTURE LIST*
G04 Aperture macros list*
%AMRoundRect*
0 Rectangle with rounded corners*
0 $1 Rounding radius*
0 $2 $3 $4 $5 $6 $7 $8 $9 X,Y pos of 4 corners*
0 Add a 4 corners polygon primitive as box body*
4,1,4,$2,$3,$4,$5,$6,$7,$8,$9,$2,$3,0*
0 Add four circle primitives for the rounded corners*
1,1,$1+$1,$2,$3*
1,1,$1+$1,$4,$5*
1,1,$1+$1,$6,$7*
1,1,$1+$1,$8,$9*
0 Add four rect primitives between the rounded corners*
20,1,$1+$1,$2,$3,$4,$5,0*
20,1,$1+$1,$4,$5,$6,$7,0*
20,1,$1+$1,$6,$7,$8,$9,0*
20,1,$1+$1,$8,$9,$2,$3,0*%
G04 Aperture macros list end*
%TA.AperFunction,SMDPad,CuDef*%
%ADD10RoundRect,0.200000X0.200000X0.275000X-0.200000X0.275000X-0.200000X-0.275000X0.200000X-0.275000X0*%
%TD*%
%TA.AperFunction,SMDPad,CuDef*%
%ADD11RoundRect,0.225000X0.225000X0.250000X-0.225000X0.250000X-0.225000X-0.250000X0.225000X-0.250000X0*%
%TD*%
%TA.AperFunction,SMDPad,CuDef*%
%ADD12RoundRect,0.062500X-0.062500X0.350000X-0.062500X-0.350000X0.062500X-0.350000X0.062500X0.350000X0*%
%TD*%
%TA.AperFunction,SMDPad,CuDef*%
%ADD13RoundRect,0.062500X-0.350000X0.062500X-0.350000X-0.062500X0.350000X-0.062500X0.350000X0.062500X0*%
%TD*%
%TA.AperFunction,HeatsinkPad*%
%ADD14R,1.230000X1.230000*%
%TD*%
%TA.AperFunction,ComponentPad*%
%ADD15RoundRect,0.250000X-0.600000X-0.750000X0.600000X-0.750000X0.600000X0.750000X-0.600000X0.750000X0*%
%TD*%
%TA.AperFunction,ComponentPad*%
%ADD16O,1.700000X2.000000*%
%TD*%
%TA.AperFunction,SMDPad,CuDef*%
%ADD17RoundRect,0.200000X-0.200000X-0.450000X0.200000X-0.450000X0.200000X0.450000X-0.200000X0.450000X0*%
%TD*%
%TA.AperFunction,SMDPad,CuDef*%
%ADD18RoundRect,0.250001X-0.799999X-1.249999X0.799999X-1.249999X0.799999X1.249999X-0.799999X1.249999X0*%
%TD*%
%TA.AperFunction,ComponentPad*%
%ADD19O,1.700000X1.700000*%
%TD*%
%TA.AperFunction,SMDPad,CuDef*%
%ADD20R,3.500000X1.700000*%
%TD*%
%TA.AperFunction,ComponentPad*%
%ADD21R,1.700000X1.700000*%
%TD*%
%TA.AperFunction,SMDPad,CuDef*%
%ADD22R,1.700000X3.500000*%
%TD*%
%TA.AperFunction,SMDPad,CuDef*%
%ADD23RoundRect,0.250000X-0.550000X1.500000X-0.550000X-1.500000X0.550000X-1.500000X0.550000X1.500000X0*%
%TD*%
%TA.AperFunction,SMDPad,CuDef*%
%ADD24RoundRect,0.250000X0.250000X0.475000X-0.250000X0.475000X-0.250000X-0.475000X0.250000X-0.475000X0*%
%TD*%
%TA.AperFunction,ViaPad*%
%ADD25C,0.800000*%
%TD*%
%TA.AperFunction,ViaPad*%
%ADD26C,0.600000*%
%TD*%
%TA.AperFunction,Conductor*%
%ADD27C,0.200000*%
%TD*%
%TA.AperFunction,Conductor*%
%ADD28C,0.500000*%
%TD*%
G04 APERTURE END LIST*
D10*
%TO.P,R1,1*%
%TO.N,U1_SD_MODE*%
X114325000Y-82500000D03*
%TO.P,R1,2*%
%TO.N,+5V*%
X112675000Y-82500000D03*
%TD*%
%TO.P,R2,1*%
%TO.N,U2_SD_MODE*%
X122825000Y-82500000D03*
%TO.P,R2,2*%
%TO.N,+5V*%
X121175000Y-82500000D03*
%TD*%
D11*
%TO.P,C2,1*%
%TO.N,+5V*%
X121050000Y-88000000D03*
%TO.P,C2,2*%
%TO.N,GND*%
X119500000Y-88000000D03*
%TD*%
D12*
%TO.P,U1,1*%
%TO.N,I2S_DIN*%
X116000000Y-85812500D03*
%TO.P,U1,2*%
%TO.N,N/C*%
X115500000Y-85812500D03*
%TO.P,U1,3*%
%TO.N,GND*%
X115000000Y-85812500D03*
%TO.P,U1,4*%
%TO.N,U1_SD_MODE*%
X114500000Y-85812500D03*
D13*
%TO.P,U1,5*%
%TO.N,N/C*%
X113812500Y-86500000D03*
%TO.P,U1,6*%
X113812500Y-87000000D03*
%TO.P,U1,7*%
%TO.N,+5V*%
X113812500Y-87500000D03*
%TO.P,U1,8*%
X113812500Y-88000000D03*
D12*
%TO.P,U1,9*%
%TO.N,N$1*%
X114500000Y-88687500D03*
%TO.P,U1,10*%
%TO.N,N$2*%
X115000000Y-88687500D03*
%TO.P,U1,11*%
%TO.N,GND*%
X115500000Y-88687500D03*
%TO.P,U1,12*%
%TO.N,N/C*%
X116000000Y-88687500D03*
D13*
%TO.P,U1,13*%
X116687500Y-88000000D03*
%TO.P,U1,14*%
%TO.N,I2S_LRCLK*%
X116687500Y-87500000D03*
%TO.P,U1,15*%
%TO.N,GND*%
X116687500Y-87000000D03*
%TO.P,U1,16*%
%TO.N,I2S_BCLK*%
X116687500Y-86500000D03*
D14*
%TO.P,U1,17*%
%TO.N,GND*%
X115250000Y-87250000D03*
%TD*%
D15*
%TO.P,J3,1*%
%TO.N,BUTTON*%
X118500000Y-73000000D03*
D16*
%TO.P,J3,2*%
%TO.N,GND*%
X121000000Y-73000000D03*
%TD*%
D17*
%TO.P,J2,1*%
%TO.N,N$1*%
X116125000Y-93250000D03*
%TO.P,J2,2*%
%TO.N,N$2*%
X117375000Y-93250000D03*
%TO.P,J2,3*%
%TO.N,N$3*%
X118625000Y-93250000D03*
%TO.P,J2,4*%
%TO.N,N$4*%
X119875000Y-93250000D03*
D18*
%TO.P,J2,MP*%
%TO.N,N/C*%
X113575000Y-96000000D03*
X122425000Y-96000000D03*
%TD*%
D19*
%TO.P,A1,1*%
%TO.N,N/C*%
X86835000Y-46870000D03*
D20*
X85935000Y-46870000D03*
D19*
%TO.P,A1,2*%
X86835000Y-49410000D03*
D20*
X85935000Y-49410000D03*
D21*
%TO.P,A1,3*%
%TO.N,GND*%
X86835000Y-51950000D03*
D20*
X85935000Y-51950000D03*
D19*
%TO.P,A1,4*%
%TO.N,N/C*%
X86835000Y-54490000D03*
D20*
X85935000Y-54490000D03*
D19*
%TO.P,A1,5*%
X86835000Y-57030000D03*
D20*
X85935000Y-57030000D03*
D19*
%TO.P,A1,6*%
X86835000Y-59570000D03*
D20*
X85935000Y-59570000D03*
D19*
%TO.P,A1,7*%
X86835000Y-62110000D03*
D20*
X85935000Y-62110000D03*
D21*
%TO.P,A1,8*%
%TO.N,GND*%
X86835000Y-64650000D03*
D20*
X85935000Y-64650000D03*
D19*
%TO.P,A1,9*%
%TO.N,BUTTON*%
X86835000Y-67190000D03*
D20*
X85935000Y-67190000D03*
D19*
%TO.P,A1,10*%
%TO.N,N/C*%
X86835000Y-69730000D03*
D20*
X85935000Y-69730000D03*
D19*
%TO.P,A1,11*%
X86835000Y-72270000D03*
D20*
X85935000Y-72270000D03*
D19*
%TO.P,A1,12*%
X86835000Y-74810000D03*
D20*
X85935000Y-74810000D03*
D21*
%TO.P,A1,13*%
%TO.N,GND*%
X86835000Y-77350000D03*
D20*
X85935000Y-77350000D03*
D19*
%TO.P,A1,14*%
%TO.N,N/C*%
X86835000Y-79890000D03*
D20*
X85935000Y-79890000D03*
D19*
%TO.P,A1,15*%
X86835000Y-82430000D03*
D20*
X85935000Y-82430000D03*
D19*
%TO.P,A1,16*%
X86835000Y-84970000D03*
D20*
X85935000Y-84970000D03*
D19*
%TO.P,A1,17*%
X86835000Y-87510000D03*
D20*
X85935000Y-87510000D03*
D21*
%TO.P,A1,18*%
%TO.N,GND*%
X86835000Y-90050000D03*
D20*
X85935000Y-90050000D03*
D19*
%TO.P,A1,19*%
%TO.N,N/C*%
X86835000Y-92590000D03*
D20*
X85935000Y-92590000D03*
D19*
%TO.P,A1,20*%
X86835000Y-95130000D03*
D20*
X85935000Y-95130000D03*
D19*
%TO.P,A1,21*%
X104615000Y-95130000D03*
D20*
X105515000Y-95130000D03*
D19*
%TO.P,A1,22*%
X104615000Y-92590000D03*
D20*
X105515000Y-92590000D03*
D21*
%TO.P,A1,23*%
%TO.N,GND*%
X104615000Y-90050000D03*
D20*
X105515000Y-90050000D03*
D19*
%TO.P,A1,24*%
%TO.N,N/C*%
X104615000Y-87510000D03*
D20*
X105515000Y-87510000D03*
D19*
%TO.P,A1,25*%
X104615000Y-84970000D03*
D20*
X105515000Y-84970000D03*
D19*
%TO.P,A1,26*%
X104615000Y-82430000D03*
D20*
X105515000Y-82430000D03*
D19*
%TO.P,A1,27*%
X104615000Y-79890000D03*
D20*
X105515000Y-79890000D03*
D21*
%TO.P,A1,28*%
%TO.N,GND*%
X104615000Y-77350000D03*
D20*
X105515000Y-77350000D03*
D19*
%TO.P,A1,29*%
%TO.N,N/C*%
X104615000Y-74810000D03*
D20*
X105515000Y-74810000D03*
D19*
%TO.P,A1,30*%
X104615000Y-72270000D03*
D20*
X105515000Y-72270000D03*
D19*
%TO.P,A1,31*%
%TO.N,I2S_DIN*%
X104615000Y-69730000D03*
D20*
X105515000Y-69730000D03*
D19*
%TO.P,A1,32*%
%TO.N,I2S_BCLK*%
X104615000Y-67190000D03*
D20*
X105515000Y-67190000D03*
D21*
%TO.P,A1,33*%
%TO.N,N/C*%
X104615000Y-64650000D03*
D20*
X105515000Y-64650000D03*
D19*
%TO.P,A1,34*%
%TO.N,I2S_LRCLK*%
X104615000Y-62110000D03*
D20*
X105515000Y-62110000D03*
D19*
%TO.P,A1,35*%
%TO.N,N/C*%
X104615000Y-59570000D03*
D20*
X105515000Y-59570000D03*
D19*
%TO.P,A1,36*%
X104615000Y-57030000D03*
D20*
X105515000Y-57030000D03*
D19*
%TO.P,A1,37*%
X104615000Y-54490000D03*
D20*
X105515000Y-54490000D03*
D21*
%TO.P,A1,38*%
%TO.N,GND*%
X104615000Y-51950000D03*
D20*
X105515000Y-51950000D03*
D19*
%TO.P,A1,39*%
%TO.N,N/C*%
X104615000Y-49410000D03*
D20*
X105515000Y-49410000D03*
D19*
%TO.P,A1,40*%
%TO.N,+5V*%
X104615000Y-46870000D03*
D20*
X105515000Y-46870000D03*
D19*
%TO.P,A1,41*%
%TO.N,N/C*%
X93185000Y-94900000D03*
D22*
X93185000Y-95800000D03*
D21*
%TO.P,A1,42*%
%TO.N,GND*%
X95725000Y-94900000D03*
D22*
X95725000Y-95800000D03*
D19*
%TO.P,A1,43*%
%TO.N,N/C*%
X98265000Y-94900000D03*
D22*
X98265000Y-95800000D03*
%TD*%
D12*
%TO.P,U2,1*%
%TO.N,I2S_DIN*%
X124750000Y-85812500D03*
%TO.P,U2,2*%
%TO.N,N/C*%
X124250000Y-85812500D03*
%TO.P,U2,3*%
%TO.N,GND*%
X123750000Y-85812500D03*
%TO.P,U2,4*%
%TO.N,U2_SD_MODE*%
X123250000Y-85812500D03*
D13*
%TO.P,U2,5*%
%TO.N,N/C*%
X122562500Y-86500000D03*
%TO.P,U2,6*%
X122562500Y-87000000D03*
%TO.P,U2,7*%
%TO.N,+5V*%
X122562500Y-87500000D03*
%TO.P,U2,8*%
X122562500Y-88000000D03*
D12*
%TO.P,U2,9*%
%TO.N,N$3*%
X123250000Y-88687500D03*
%TO.P,U2,10*%
%TO.N,N$4*%
X123750000Y-88687500D03*
%TO.P,U2,11*%
%TO.N,GND*%
X124250000Y-88687500D03*
%TO.P,U2,12*%
%TO.N,N/C*%
X124750000Y-88687500D03*
D13*
%TO.P,U2,13*%
X125437500Y-88000000D03*
%TO.P,U2,14*%
%TO.N,I2S_LRCLK*%
X125437500Y-87500000D03*
%TO.P,U2,15*%
%TO.N,GND*%
X125437500Y-87000000D03*
%TO.P,U2,16*%
%TO.N,I2S_BCLK*%
X125437500Y-86500000D03*
D14*
%TO.P,U2,17*%
%TO.N,GND*%
X124000000Y-87250000D03*
%TD*%
D23*
%TO.P,C5,1*%
%TO.N,+5V*%
X115000000Y-48200000D03*
%TO.P,C5,2*%
%TO.N,GND*%
X115000000Y-53800000D03*
%TD*%
D24*
%TO.P,C3,1*%
%TO.N,+5V*%
X112400000Y-86000000D03*
%TO.P,C3,2*%
%TO.N,GND*%
X110500000Y-86000000D03*
%TD*%
D11*
%TO.P,C1,1*%
%TO.N,+5V*%
X112400000Y-88000000D03*
%TO.P,C1,2*%
%TO.N,GND*%
X110850000Y-88000000D03*
%TD*%
D24*
%TO.P,C4,1*%
%TO.N,+5V*%
X121000000Y-86000000D03*
%TO.P,C4,2*%
%TO.N,GND*%
X119100000Y-86000000D03*
%TD*%
D25*
%TO.N,GND*%
X110000000Y-89500000D03*
D26*
X123500000Y-84500000D03*
X126500000Y-86750000D03*
X116073650Y-89599975D03*
X124500000Y-89741599D03*
X124000000Y-87250000D03*
X119000000Y-89500000D03*
X117600000Y-86536297D03*
X115400000Y-84500000D03*
X115250000Y-87250000D03*
D25*
X116500000Y-56000000D03*
D26*
%TO.N,I2S_DIN*%
X110000000Y-73000000D03*
X124750000Y-81000000D03*
X115000000Y-81000000D03*
%TO.N,I2S_LRCLK*%
X116500000Y-79750000D03*
X112000000Y-73000000D03*
X126250000Y-79750000D03*
%TO.N,I2S_BCLK*%
X111000000Y-73000000D03*
X115919052Y-80400000D03*
X125500000Y-80434313D03*
%TD*%
%TO.N,U1_SD_MODE*%
D27*
X114325000Y-85637500D02*
X114500000Y-85812500D01*
X114325000Y-82500000D02*
X114325000Y-85637500D01*
%TO.N,+5V*%
D28*
X113670000Y-46870000D02*
X115000000Y-48200000D01*
X113387500Y-88000000D02*
X113812500Y-87575000D01*
X104615000Y-46870000D02*
X113670000Y-46870000D01*
X121050000Y-86050000D02*
X121000000Y-86000000D01*
X121175000Y-79925000D02*
X121175000Y-82500000D01*
X114000000Y-76000000D02*
X112675000Y-77325000D01*
X112400000Y-88000000D02*
X113812500Y-88000000D01*
X112400000Y-86000000D02*
X112675000Y-85725000D01*
X121175000Y-82500000D02*
X121000000Y-82675000D01*
X119500000Y-47000000D02*
X120500000Y-48000000D01*
X121050000Y-88000000D02*
X122562500Y-88000000D01*
X114000000Y-71000000D02*
X114000000Y-76000000D01*
X112400000Y-88000000D02*
X113387500Y-88000000D01*
X121050000Y-88000000D02*
X122137500Y-88000000D01*
X120500000Y-48000000D02*
X120500000Y-64500000D01*
X116750000Y-78750000D02*
X120000000Y-78750000D01*
X114000000Y-76000000D02*
X116750000Y-78750000D01*
X115000000Y-48200000D02*
X116200000Y-47000000D01*
X112400000Y-88000000D02*
X112400000Y-86000000D01*
X120000000Y-78750000D02*
X121175000Y-79925000D01*
X120500000Y-64500000D02*
X114000000Y-71000000D01*
X121000000Y-82675000D02*
X121000000Y-86000000D01*
X112675000Y-77325000D02*
X112675000Y-82500000D01*
X121050000Y-88000000D02*
X121050000Y-86050000D01*
X112675000Y-85725000D02*
X112675000Y-82500000D01*
X116200000Y-47000000D02*
X119500000Y-47000000D01*
X122137500Y-88000000D02*
X122562500Y-87575000D01*
%TO.N,U2_SD_MODE*%
D27*
X122825000Y-85387500D02*
X123250000Y-85812500D01*
X122825000Y-82500000D02*
X122825000Y-85387500D01*
%TO.N,GND*%
X115500000Y-89114386D02*
X115985589Y-89599975D01*
X117136297Y-87000000D02*
X117600000Y-86536297D01*
D28*
X115000000Y-53800000D02*
X115000000Y-54500000D01*
D27*
X115400000Y-84500000D02*
X115400000Y-84700000D01*
X125437500Y-87000000D02*
X126250000Y-87000000D01*
D28*
X115000000Y-54500000D02*
X116500000Y-56000000D01*
X110850000Y-88650000D02*
X110850000Y-88000000D01*
D27*
X123750000Y-85250000D02*
X123750000Y-85812500D01*
D28*
X119000000Y-89500000D02*
X119500000Y-89000000D01*
D27*
X126250000Y-87000000D02*
X126500000Y-86750000D01*
D28*
X110500000Y-87650000D02*
X110850000Y-88000000D01*
D27*
X123500000Y-85000000D02*
X123750000Y-85250000D01*
D28*
X119100000Y-86000000D02*
X119100000Y-87600000D01*
X110000000Y-89500000D02*
X110850000Y-88650000D01*
X119500000Y-89000000D02*
X119500000Y-88000000D01*
X119100000Y-87600000D02*
X119500000Y-88000000D01*
X110500000Y-86000000D02*
X110500000Y-87650000D01*
D27*
X124250000Y-88687500D02*
X124250000Y-89491599D01*
X123500000Y-84500000D02*
X123500000Y-85000000D01*
X115985589Y-89599975D02*
X116073650Y-89599975D01*
X115400000Y-84700000D02*
X115000000Y-85100000D01*
X124250000Y-89491599D02*
X124500000Y-89741599D01*
X115000000Y-85100000D02*
X115000000Y-85812500D01*
X115500000Y-88687500D02*
X115500000Y-89114386D01*
X116687500Y-87000000D02*
X117136297Y-87000000D01*
%TO.N,I2S_DIN*%
X116000000Y-85812500D02*
X116000000Y-82000000D01*
X124750000Y-85812500D02*
X124750000Y-81000000D01*
X110000000Y-73000000D02*
X110000000Y-70750000D01*
X110000000Y-70750000D02*
X108980000Y-69730000D01*
X108980000Y-69730000D02*
X104615000Y-69730000D01*
X116000000Y-82000000D02*
X115000000Y-81000000D01*
%TO.N,N$1*%
X114500000Y-88687500D02*
X114500000Y-90500000D01*
X116125000Y-92125000D02*
X116125000Y-93250000D01*
X114500000Y-90500000D02*
X116125000Y-92125000D01*
%TO.N,N$2*%
X115915686Y-90600000D02*
X116525000Y-91209315D01*
X115000000Y-90250000D02*
X115350000Y-90600000D01*
X116525000Y-91209315D02*
X117375000Y-92059314D01*
X117375000Y-92059314D02*
X117375000Y-93250000D01*
X115350000Y-90600000D02*
X115915686Y-90600000D01*
X115000000Y-88687500D02*
X115000000Y-90250000D01*
%TO.N,I2S_LRCLK*%
X127100000Y-80600000D02*
X127100000Y-86998529D01*
X117484826Y-87500000D02*
X116687500Y-87500000D01*
X127100000Y-86998529D02*
X126598529Y-87500000D01*
X126250000Y-79750000D02*
X127100000Y-80600000D01*
X112000000Y-73000000D02*
X112000000Y-65250000D01*
X126598529Y-87500000D02*
X125437500Y-87500000D01*
X116500000Y-79750000D02*
X118200000Y-81450000D01*
X118200000Y-86784826D02*
X117484826Y-87500000D01*
X118200000Y-81450000D02*
X118200000Y-86784826D01*
X108860000Y-62110000D02*
X104615000Y-62110000D01*
X112000000Y-65250000D02*
X108860000Y-62110000D01*
%TO.N,I2S_BCLK*%
X111000000Y-69250000D02*
X108940000Y-67190000D01*
X117500000Y-85687500D02*
X116687500Y-86500000D01*
X115919052Y-80419052D02*
X117500000Y-82000000D01*
X126000000Y-85937500D02*
X126000000Y-80934313D01*
X115919052Y-80400000D02*
X115819052Y-80500000D01*
X126000000Y-80934313D02*
X125500000Y-80434313D01*
X125437500Y-86500000D02*
X126000000Y-85937500D01*
X117500000Y-82000000D02*
X117500000Y-85687500D01*
X115919052Y-80400000D02*
X115919052Y-80419052D01*
X111000000Y-73000000D02*
X111000000Y-69250000D01*
X108940000Y-67190000D02*
X104615000Y-67190000D01*
%TO.N,N$3*%
X123250000Y-90250000D02*
X123250000Y-88687500D01*
X120150000Y-90600000D02*
X122900000Y-90600000D01*
X118625000Y-92125000D02*
X120150000Y-90600000D01*
X118625000Y-93250000D02*
X118625000Y-92125000D01*
X122900000Y-90600000D02*
X123250000Y-90250000D01*
%TO.N,N$4*%
X123250000Y-91000000D02*
X121000000Y-91000000D01*
X123750000Y-90500000D02*
X123250000Y-91000000D01*
X121000000Y-91000000D02*
X119875000Y-92125000D01*
X123750000Y-88687500D02*
X123750000Y-90500000D01*
X119875000Y-92125000D02*
X119875000Y-93250000D01*
%TD*%
M02*
