M48
; DRILL file KiCad 10.0.3 date 2026-07-13T00:47:26
; FORMAT={-:-/ absolute / metric / decimal}
; #@! TF.CreationDate,2026-07-13T00:47:26-06:00
; #@! TF.GenerationSoftware,Kicad,Pcbnew,10.0.3
; #@! TF.FileFunction,MixedPlating,1,2
FMAT,2
METRIC
; #@! TA.AperFunction,Plated,PTH,ViaDrill
T1C0.300
; #@! TA.AperFunction,Plated,PTH,ViaDrill
T2C0.400
; #@! TA.AperFunction,Plated,PTH,ComponentDrill
T3C1.000
; #@! TA.AperFunction,Plated,PTH,ComponentDrill
T4C1.020
; #@! TA.AperFunction,NonPlated,NPTH,ComponentDrill
T5C1.500
; #@! TA.AperFunction,NonPlated,NPTH,ComponentDrill
T6C1.800
; #@! TA.AperFunction,NonPlated,NPTH,ComponentDrill
T7C2.700
%
G90
G05
T1
X110.0Y-73.0
X111.0Y-73.0
X112.0Y-73.0
X115.0Y-81.0
X115.25Y-87.25
X115.4Y-84.5
X115.919Y-80.4
X116.074Y-89.6
X116.5Y-79.75
X117.6Y-86.536
X119.0Y-89.5
X123.5Y-84.5
X124.0Y-87.25
X124.5Y-89.742
X124.75Y-81.0
X125.5Y-80.434
X126.25Y-79.75
X126.5Y-86.75
T2
X110.0Y-89.5
X116.5Y-56.0
T3
X118.5Y-73.0
X121.0Y-73.0
T4
X86.835Y-46.87
X86.835Y-49.41
X86.835Y-51.95
X86.835Y-54.49
X86.835Y-57.03
X86.835Y-59.57
X86.835Y-62.11
X86.835Y-64.65
X86.835Y-67.19
X86.835Y-69.73
X86.835Y-72.27
X86.835Y-74.81
X86.835Y-77.35
X86.835Y-79.89
X86.835Y-82.43
X86.835Y-84.97
X86.835Y-87.51
X86.835Y-90.05
X86.835Y-92.59
X86.835Y-95.13
X93.185Y-94.9
X95.725Y-94.9
X98.265Y-94.9
X104.615Y-46.87
X104.615Y-49.41
X104.615Y-51.95
X104.615Y-54.49
X104.615Y-57.03
X104.615Y-59.57
X104.615Y-62.11
X104.615Y-64.65
X104.615Y-67.19
X104.615Y-69.73
X104.615Y-72.27
X104.615Y-74.81
X104.615Y-77.35
X104.615Y-79.89
X104.615Y-82.43
X104.615Y-84.97
X104.615Y-87.51
X104.615Y-90.05
X104.615Y-92.59
X104.615Y-95.13
T5
X93.3Y-50.03
X98.15Y-50.03
T6
X93.0Y-47.0
X98.45Y-47.0
T7
X80.0Y-48.5
X80.0Y-97.0
X127.0Y-48.5
X127.0Y-97.0
M30
