%TF.GenerationSoftware,KiCad,Pcbnew,10.0.3*%
%TF.CreationDate,2026-07-13T00:47:25-06:00*%
%TF.ProjectId,punbox,70756e62-6f78-42e6-9b69-6361645f7063,0*%
%TF.SameCoordinates,Original*%
%TF.FileFunction,Legend,Top*%
%TF.FilePolarity,Positive*%
%FSLAX46Y46*%
G04 Gerber Fmt 4.6, Leading zero omitted, Abs format (unit mm)*
G04 Created by KiCad (PCBNEW 10.0.3) date 2026-07-13 00:47:25*
%MOMM*%
%LPD*%
G01*
G04 APERTURE LIST*
%ADD10C,0.100000*%
%ADD11C,0.150000*%
%ADD12C,0.120000*%
G04 APERTURE END LIST*
D10*
X111803884Y-60262475D02*
X111803884Y-59262475D01*
X111803884Y-59262475D02*
X112184836Y-59262475D01*
X112184836Y-59262475D02*
X112280074Y-59310094D01*
X112280074Y-59310094D02*
X112327693Y-59357713D01*
X112327693Y-59357713D02*
X112375312Y-59452951D01*
X112375312Y-59452951D02*
X112375312Y-59595808D01*
X112375312Y-59595808D02*
X112327693Y-59691046D01*
X112327693Y-59691046D02*
X112280074Y-59738665D01*
X112280074Y-59738665D02*
X112184836Y-59786284D01*
X112184836Y-59786284D02*
X111803884Y-59786284D01*
X113232455Y-59595808D02*
X113232455Y-60262475D01*
X112803884Y-59595808D02*
X112803884Y-60119617D01*
X112803884Y-60119617D02*
X112851503Y-60214856D01*
X112851503Y-60214856D02*
X112946741Y-60262475D01*
X112946741Y-60262475D02*
X113089598Y-60262475D01*
X113089598Y-60262475D02*
X113184836Y-60214856D01*
X113184836Y-60214856D02*
X113232455Y-60167236D01*
X113708646Y-59595808D02*
X113708646Y-60262475D01*
X113708646Y-59691046D02*
X113756265Y-59643427D01*
X113756265Y-59643427D02*
X113851503Y-59595808D01*
X113851503Y-59595808D02*
X113994360Y-59595808D01*
X113994360Y-59595808D02*
X114089598Y-59643427D01*
X114089598Y-59643427D02*
X114137217Y-59738665D01*
X114137217Y-59738665D02*
X114137217Y-60262475D01*
X114613408Y-60262475D02*
X114613408Y-59262475D01*
X114613408Y-59643427D02*
X114708646Y-59595808D01*
X114708646Y-59595808D02*
X114899122Y-59595808D01*
X114899122Y-59595808D02*
X114994360Y-59643427D01*
X114994360Y-59643427D02*
X115041979Y-59691046D01*
X115041979Y-59691046D02*
X115089598Y-59786284D01*
X115089598Y-59786284D02*
X115089598Y-60071998D01*
X115089598Y-60071998D02*
X115041979Y-60167236D01*
X115041979Y-60167236D02*
X114994360Y-60214856D01*
X114994360Y-60214856D02*
X114899122Y-60262475D01*
X114899122Y-60262475D02*
X114708646Y-60262475D01*
X114708646Y-60262475D02*
X114613408Y-60214856D01*
X115661027Y-60262475D02*
X115565789Y-60214856D01*
X115565789Y-60214856D02*
X115518170Y-60167236D01*
X115518170Y-60167236D02*
X115470551Y-60071998D01*
X115470551Y-60071998D02*
X115470551Y-59786284D01*
X115470551Y-59786284D02*
X115518170Y-59691046D01*
X115518170Y-59691046D02*
X115565789Y-59643427D01*
X115565789Y-59643427D02*
X115661027Y-59595808D01*
X115661027Y-59595808D02*
X115803884Y-59595808D01*
X115803884Y-59595808D02*
X115899122Y-59643427D01*
X115899122Y-59643427D02*
X115946741Y-59691046D01*
X115946741Y-59691046D02*
X115994360Y-59786284D01*
X115994360Y-59786284D02*
X115994360Y-60071998D01*
X115994360Y-60071998D02*
X115946741Y-60167236D01*
X115946741Y-60167236D02*
X115899122Y-60214856D01*
X115899122Y-60214856D02*
X115803884Y-60262475D01*
X115803884Y-60262475D02*
X115661027Y-60262475D01*
X116327694Y-60262475D02*
X116851503Y-59595808D01*
X116327694Y-59595808D02*
X116851503Y-60262475D01*
X117851504Y-59262475D02*
X118184837Y-60262475D01*
X118184837Y-60262475D02*
X118518170Y-59262475D01*
X119375313Y-60262475D02*
X118803885Y-60262475D01*
X119089599Y-60262475D02*
X119089599Y-59262475D01*
X119089599Y-59262475D02*
X118994361Y-59405332D01*
X118994361Y-59405332D02*
X118899123Y-59500570D01*
X118899123Y-59500570D02*
X118803885Y-59548189D01*
X113327694Y-61491466D02*
X114089599Y-61491466D01*
X115899122Y-61872419D02*
X115565789Y-61396228D01*
X115327694Y-61872419D02*
X115327694Y-60872419D01*
X115327694Y-60872419D02*
X115708646Y-60872419D01*
X115708646Y-60872419D02*
X115803884Y-60920038D01*
X115803884Y-60920038D02*
X115851503Y-60967657D01*
X115851503Y-60967657D02*
X115899122Y-61062895D01*
X115899122Y-61062895D02*
X115899122Y-61205752D01*
X115899122Y-61205752D02*
X115851503Y-61300990D01*
X115851503Y-61300990D02*
X115803884Y-61348609D01*
X115803884Y-61348609D02*
X115708646Y-61396228D01*
X115708646Y-61396228D02*
X115327694Y-61396228D01*
X116232456Y-61205752D02*
X116470551Y-61872419D01*
X116708646Y-61205752D02*
X116470551Y-61872419D01*
X116470551Y-61872419D02*
X116375313Y-62110514D01*
X116375313Y-62110514D02*
X116327694Y-62158133D01*
X116327694Y-62158133D02*
X116232456Y-62205752D01*
X117518170Y-61872419D02*
X117518170Y-61348609D01*
X117518170Y-61348609D02*
X117470551Y-61253371D01*
X117470551Y-61253371D02*
X117375313Y-61205752D01*
X117375313Y-61205752D02*
X117184837Y-61205752D01*
X117184837Y-61205752D02*
X117089599Y-61253371D01*
X117518170Y-61824800D02*
X117422932Y-61872419D01*
X117422932Y-61872419D02*
X117184837Y-61872419D01*
X117184837Y-61872419D02*
X117089599Y-61824800D01*
X117089599Y-61824800D02*
X117041980Y-61729561D01*
X117041980Y-61729561D02*
X117041980Y-61634323D01*
X117041980Y-61634323D02*
X117089599Y-61539085D01*
X117089599Y-61539085D02*
X117184837Y-61491466D01*
X117184837Y-61491466D02*
X117422932Y-61491466D01*
X117422932Y-61491466D02*
X117518170Y-61443847D01*
X117994361Y-61205752D02*
X117994361Y-61872419D01*
X117994361Y-61300990D02*
X118041980Y-61253371D01*
X118041980Y-61253371D02*
X118137218Y-61205752D01*
X118137218Y-61205752D02*
X118280075Y-61205752D01*
X118280075Y-61205752D02*
X118375313Y-61253371D01*
X118375313Y-61253371D02*
X118422932Y-61348609D01*
X118422932Y-61348609D02*
X118422932Y-61872419D01*
D11*
X113833333Y-81454819D02*
X113500000Y-80978628D01*
X113261905Y-81454819D02*
X113261905Y-80454819D01*
X113261905Y-80454819D02*
X113642857Y-80454819D01*
X113642857Y-80454819D02*
X113738095Y-80502438D01*
X113738095Y-80502438D02*
X113785714Y-80550057D01*
X113785714Y-80550057D02*
X113833333Y-80645295D01*
X113833333Y-80645295D02*
X113833333Y-80788152D01*
X113833333Y-80788152D02*
X113785714Y-80883390D01*
X113785714Y-80883390D02*
X113738095Y-80931009D01*
X113738095Y-80931009D02*
X113642857Y-80978628D01*
X113642857Y-80978628D02*
X113261905Y-80978628D01*
X114785714Y-81454819D02*
X114214286Y-81454819D01*
X114500000Y-81454819D02*
X114500000Y-80454819D01*
X114500000Y-80454819D02*
X114404762Y-80597676D01*
X114404762Y-80597676D02*
X114309524Y-80692914D01*
X114309524Y-80692914D02*
X114214286Y-80740533D01*
X122833333Y-81454819D02*
X122500000Y-80978628D01*
X122261905Y-81454819D02*
X122261905Y-80454819D01*
X122261905Y-80454819D02*
X122642857Y-80454819D01*
X122642857Y-80454819D02*
X122738095Y-80502438D01*
X122738095Y-80502438D02*
X122785714Y-80550057D01*
X122785714Y-80550057D02*
X122833333Y-80645295D01*
X122833333Y-80645295D02*
X122833333Y-80788152D01*
X122833333Y-80788152D02*
X122785714Y-80883390D01*
X122785714Y-80883390D02*
X122738095Y-80931009D01*
X122738095Y-80931009D02*
X122642857Y-80978628D01*
X122642857Y-80978628D02*
X122261905Y-80978628D01*
X123214286Y-80550057D02*
X123261905Y-80502438D01*
X123261905Y-80502438D02*
X123357143Y-80454819D01*
X123357143Y-80454819D02*
X123595238Y-80454819D01*
X123595238Y-80454819D02*
X123690476Y-80502438D01*
X123690476Y-80502438D02*
X123738095Y-80550057D01*
X123738095Y-80550057D02*
X123785714Y-80645295D01*
X123785714Y-80645295D02*
X123785714Y-80740533D01*
X123785714Y-80740533D02*
X123738095Y-80883390D01*
X123738095Y-80883390D02*
X123166667Y-81454819D01*
X123166667Y-81454819D02*
X123785714Y-81454819D01*
X120333333Y-89789580D02*
X120285714Y-89837200D01*
X120285714Y-89837200D02*
X120142857Y-89884819D01*
X120142857Y-89884819D02*
X120047619Y-89884819D01*
X120047619Y-89884819D02*
X119904762Y-89837200D01*
X119904762Y-89837200D02*
X119809524Y-89741961D01*
X119809524Y-89741961D02*
X119761905Y-89646723D01*
X119761905Y-89646723D02*
X119714286Y-89456247D01*
X119714286Y-89456247D02*
X119714286Y-89313390D01*
X119714286Y-89313390D02*
X119761905Y-89122914D01*
X119761905Y-89122914D02*
X119809524Y-89027676D01*
X119809524Y-89027676D02*
X119904762Y-88932438D01*
X119904762Y-88932438D02*
X120047619Y-88884819D01*
X120047619Y-88884819D02*
X120142857Y-88884819D01*
X120142857Y-88884819D02*
X120285714Y-88932438D01*
X120285714Y-88932438D02*
X120333333Y-88980057D01*
X120714286Y-88980057D02*
X120761905Y-88932438D01*
X120761905Y-88932438D02*
X120857143Y-88884819D01*
X120857143Y-88884819D02*
X121095238Y-88884819D01*
X121095238Y-88884819D02*
X121190476Y-88932438D01*
X121190476Y-88932438D02*
X121238095Y-88980057D01*
X121238095Y-88980057D02*
X121285714Y-89075295D01*
X121285714Y-89075295D02*
X121285714Y-89170533D01*
X121285714Y-89170533D02*
X121238095Y-89313390D01*
X121238095Y-89313390D02*
X120666667Y-89884819D01*
X120666667Y-89884819D02*
X121285714Y-89884819D01*
X117504819Y-89261904D02*
X118314342Y-89261904D01*
X118314342Y-89261904D02*
X118409580Y-89214285D01*
X118409580Y-89214285D02*
X118457200Y-89166666D01*
X118457200Y-89166666D02*
X118504819Y-89071428D01*
X118504819Y-89071428D02*
X118504819Y-88880952D01*
X118504819Y-88880952D02*
X118457200Y-88785714D01*
X118457200Y-88785714D02*
X118409580Y-88738095D01*
X118409580Y-88738095D02*
X118314342Y-88690476D01*
X118314342Y-88690476D02*
X117504819Y-88690476D01*
X118504819Y-87690476D02*
X118504819Y-88261904D01*
X118504819Y-87976190D02*
X117504819Y-87976190D01*
X117504819Y-87976190D02*
X117647676Y-88071428D01*
X117647676Y-88071428D02*
X117742914Y-88166666D01*
X117742914Y-88166666D02*
X117790533Y-88261904D01*
X119416666Y-68904819D02*
X119416666Y-69619104D01*
X119416666Y-69619104D02*
X119369047Y-69761961D01*
X119369047Y-69761961D02*
X119273809Y-69857200D01*
X119273809Y-69857200D02*
X119130952Y-69904819D01*
X119130952Y-69904819D02*
X119035714Y-69904819D01*
X119797619Y-68904819D02*
X120416666Y-68904819D01*
X120416666Y-68904819D02*
X120083333Y-69285771D01*
X120083333Y-69285771D02*
X120226190Y-69285771D01*
X120226190Y-69285771D02*
X120321428Y-69333390D01*
X120321428Y-69333390D02*
X120369047Y-69381009D01*
X120369047Y-69381009D02*
X120416666Y-69476247D01*
X120416666Y-69476247D02*
X120416666Y-69714342D01*
X120416666Y-69714342D02*
X120369047Y-69809580D01*
X120369047Y-69809580D02*
X120321428Y-69857200D01*
X120321428Y-69857200D02*
X120226190Y-69904819D01*
X120226190Y-69904819D02*
X119940476Y-69904819D01*
X119940476Y-69904819D02*
X119845238Y-69857200D01*
X119845238Y-69857200D02*
X119797619Y-69809580D01*
X117666666Y-90854819D02*
X117666666Y-91569104D01*
X117666666Y-91569104D02*
X117619047Y-91711961D01*
X117619047Y-91711961D02*
X117523809Y-91807200D01*
X117523809Y-91807200D02*
X117380952Y-91854819D01*
X117380952Y-91854819D02*
X117285714Y-91854819D01*
X118095238Y-90950057D02*
X118142857Y-90902438D01*
X118142857Y-90902438D02*
X118238095Y-90854819D01*
X118238095Y-90854819D02*
X118476190Y-90854819D01*
X118476190Y-90854819D02*
X118571428Y-90902438D01*
X118571428Y-90902438D02*
X118619047Y-90950057D01*
X118619047Y-90950057D02*
X118666666Y-91045295D01*
X118666666Y-91045295D02*
X118666666Y-91140533D01*
X118666666Y-91140533D02*
X118619047Y-91283390D01*
X118619047Y-91283390D02*
X118047619Y-91854819D01*
X118047619Y-91854819D02*
X118666666Y-91854819D01*
X95010714Y-71169104D02*
X95486904Y-71169104D01*
X94915476Y-71454819D02*
X95248809Y-70454819D01*
X95248809Y-70454819D02*
X95582142Y-71454819D01*
X96439285Y-71454819D02*
X95867857Y-71454819D01*
X96153571Y-71454819D02*
X96153571Y-70454819D01*
X96153571Y-70454819D02*
X96058333Y-70597676D01*
X96058333Y-70597676D02*
X95963095Y-70692914D01*
X95963095Y-70692914D02*
X95867857Y-70740533D01*
X81568998Y-82820868D02*
X81488185Y-82847805D01*
X81488185Y-82847805D02*
X81407373Y-82928618D01*
X81407373Y-82928618D02*
X81353498Y-83036367D01*
X81353498Y-83036367D02*
X81353498Y-83144117D01*
X81353498Y-83144117D02*
X81380436Y-83224929D01*
X81380436Y-83224929D02*
X81461248Y-83359616D01*
X81461248Y-83359616D02*
X81542060Y-83440428D01*
X81542060Y-83440428D02*
X81676747Y-83521241D01*
X81676747Y-83521241D02*
X81757560Y-83548178D01*
X81757560Y-83548178D02*
X81865309Y-83548178D01*
X81865309Y-83548178D02*
X81973059Y-83494303D01*
X81973059Y-83494303D02*
X82026934Y-83440428D01*
X82026934Y-83440428D02*
X82080808Y-83332679D01*
X82080808Y-83332679D02*
X82080808Y-83278804D01*
X82080808Y-83278804D02*
X81892247Y-83090242D01*
X81892247Y-83090242D02*
X81784497Y-83197992D01*
X82377120Y-83090242D02*
X81811434Y-82524557D01*
X81811434Y-82524557D02*
X82026934Y-82309057D01*
X82026934Y-82309057D02*
X82107746Y-82282120D01*
X82107746Y-82282120D02*
X82161621Y-82282120D01*
X82161621Y-82282120D02*
X82242433Y-82309057D01*
X82242433Y-82309057D02*
X82323245Y-82389870D01*
X82323245Y-82389870D02*
X82350182Y-82470682D01*
X82350182Y-82470682D02*
X82350182Y-82524557D01*
X82350182Y-82524557D02*
X82323245Y-82605369D01*
X82323245Y-82605369D02*
X82107746Y-82820868D01*
X83239117Y-82228245D02*
X82915868Y-82551494D01*
X83077492Y-82389870D02*
X82511807Y-81824184D01*
X82511807Y-81824184D02*
X82538744Y-81958871D01*
X82538744Y-81958871D02*
X82538744Y-82066621D01*
X82538744Y-82066621D02*
X82511807Y-82147433D01*
X83777865Y-81689497D02*
X83454616Y-82012746D01*
X83616240Y-81851121D02*
X83050555Y-81285436D01*
X83050555Y-81285436D02*
X83077492Y-81420123D01*
X83077492Y-81420123D02*
X83077492Y-81527873D01*
X83077492Y-81527873D02*
X83050555Y-81608685D01*
X81568998Y-85360868D02*
X81488185Y-85387805D01*
X81488185Y-85387805D02*
X81407373Y-85468618D01*
X81407373Y-85468618D02*
X81353498Y-85576367D01*
X81353498Y-85576367D02*
X81353498Y-85684117D01*
X81353498Y-85684117D02*
X81380436Y-85764929D01*
X81380436Y-85764929D02*
X81461248Y-85899616D01*
X81461248Y-85899616D02*
X81542060Y-85980428D01*
X81542060Y-85980428D02*
X81676747Y-86061241D01*
X81676747Y-86061241D02*
X81757560Y-86088178D01*
X81757560Y-86088178D02*
X81865309Y-86088178D01*
X81865309Y-86088178D02*
X81973059Y-86034303D01*
X81973059Y-86034303D02*
X82026934Y-85980428D01*
X82026934Y-85980428D02*
X82080808Y-85872679D01*
X82080808Y-85872679D02*
X82080808Y-85818804D01*
X82080808Y-85818804D02*
X81892247Y-85630242D01*
X81892247Y-85630242D02*
X81784497Y-85737992D01*
X82377120Y-85630242D02*
X81811434Y-85064557D01*
X81811434Y-85064557D02*
X82026934Y-84849057D01*
X82026934Y-84849057D02*
X82107746Y-84822120D01*
X82107746Y-84822120D02*
X82161621Y-84822120D01*
X82161621Y-84822120D02*
X82242433Y-84849057D01*
X82242433Y-84849057D02*
X82323245Y-84929870D01*
X82323245Y-84929870D02*
X82350182Y-85010682D01*
X82350182Y-85010682D02*
X82350182Y-85064557D01*
X82350182Y-85064557D02*
X82323245Y-85145369D01*
X82323245Y-85145369D02*
X82107746Y-85360868D01*
X83239117Y-84768245D02*
X82915868Y-85091494D01*
X83077492Y-84929870D02*
X82511807Y-84364184D01*
X82511807Y-84364184D02*
X82538744Y-84498871D01*
X82538744Y-84498871D02*
X82538744Y-84606621D01*
X82538744Y-84606621D02*
X82511807Y-84687433D01*
X82942805Y-84040935D02*
X82942805Y-83987060D01*
X82942805Y-83987060D02*
X82969743Y-83906248D01*
X82969743Y-83906248D02*
X83104430Y-83771561D01*
X83104430Y-83771561D02*
X83185242Y-83744624D01*
X83185242Y-83744624D02*
X83239117Y-83744624D01*
X83239117Y-83744624D02*
X83319929Y-83771561D01*
X83319929Y-83771561D02*
X83373804Y-83825436D01*
X83373804Y-83825436D02*
X83427679Y-83933186D01*
X83427679Y-83933186D02*
X83427679Y-84579683D01*
X83427679Y-84579683D02*
X83777865Y-84229497D01*
X81668998Y-92980868D02*
X81588185Y-93007805D01*
X81588185Y-93007805D02*
X81507373Y-93088618D01*
X81507373Y-93088618D02*
X81453498Y-93196367D01*
X81453498Y-93196367D02*
X81453498Y-93304117D01*
X81453498Y-93304117D02*
X81480436Y-93384929D01*
X81480436Y-93384929D02*
X81561248Y-93519616D01*
X81561248Y-93519616D02*
X81642060Y-93600428D01*
X81642060Y-93600428D02*
X81776747Y-93681241D01*
X81776747Y-93681241D02*
X81857560Y-93708178D01*
X81857560Y-93708178D02*
X81965309Y-93708178D01*
X81965309Y-93708178D02*
X82073059Y-93654303D01*
X82073059Y-93654303D02*
X82126934Y-93600428D01*
X82126934Y-93600428D02*
X82180808Y-93492679D01*
X82180808Y-93492679D02*
X82180808Y-93438804D01*
X82180808Y-93438804D02*
X81992247Y-93250242D01*
X81992247Y-93250242D02*
X81884497Y-93357992D01*
X82477120Y-93250242D02*
X81911434Y-92684557D01*
X81911434Y-92684557D02*
X82126934Y-92469057D01*
X82126934Y-92469057D02*
X82207746Y-92442120D01*
X82207746Y-92442120D02*
X82261621Y-92442120D01*
X82261621Y-92442120D02*
X82342433Y-92469057D01*
X82342433Y-92469057D02*
X82423245Y-92549870D01*
X82423245Y-92549870D02*
X82450182Y-92630682D01*
X82450182Y-92630682D02*
X82450182Y-92684557D01*
X82450182Y-92684557D02*
X82423245Y-92765369D01*
X82423245Y-92765369D02*
X82207746Y-92980868D01*
X83339117Y-92388245D02*
X83015868Y-92711494D01*
X83177492Y-92549870D02*
X82611807Y-91984184D01*
X82611807Y-91984184D02*
X82638744Y-92118871D01*
X82638744Y-92118871D02*
X82638744Y-92226621D01*
X82638744Y-92226621D02*
X82611807Y-92307433D01*
X83446866Y-91526248D02*
X83823990Y-91903372D01*
X83096680Y-91445436D02*
X83366054Y-91984184D01*
X83366054Y-91984184D02*
X83716240Y-91633998D01*
X81714998Y-80280868D02*
X81634185Y-80307805D01*
X81634185Y-80307805D02*
X81553373Y-80388618D01*
X81553373Y-80388618D02*
X81499498Y-80496367D01*
X81499498Y-80496367D02*
X81499498Y-80604117D01*
X81499498Y-80604117D02*
X81526436Y-80684929D01*
X81526436Y-80684929D02*
X81607248Y-80819616D01*
X81607248Y-80819616D02*
X81688060Y-80900428D01*
X81688060Y-80900428D02*
X81822747Y-80981241D01*
X81822747Y-80981241D02*
X81903560Y-81008178D01*
X81903560Y-81008178D02*
X82011309Y-81008178D01*
X82011309Y-81008178D02*
X82119059Y-80954303D01*
X82119059Y-80954303D02*
X82172934Y-80900428D01*
X82172934Y-80900428D02*
X82226808Y-80792679D01*
X82226808Y-80792679D02*
X82226808Y-80738804D01*
X82226808Y-80738804D02*
X82038247Y-80550242D01*
X82038247Y-80550242D02*
X81930497Y-80657992D01*
X82523120Y-80550242D02*
X81957434Y-79984557D01*
X81957434Y-79984557D02*
X82172934Y-79769057D01*
X82172934Y-79769057D02*
X82253746Y-79742120D01*
X82253746Y-79742120D02*
X82307621Y-79742120D01*
X82307621Y-79742120D02*
X82388433Y-79769057D01*
X82388433Y-79769057D02*
X82469245Y-79849870D01*
X82469245Y-79849870D02*
X82496182Y-79930682D01*
X82496182Y-79930682D02*
X82496182Y-79984557D01*
X82496182Y-79984557D02*
X82469245Y-80065369D01*
X82469245Y-80065369D02*
X82253746Y-80280868D01*
X83385117Y-79688245D02*
X83061868Y-80011494D01*
X83223492Y-79849870D02*
X82657807Y-79284184D01*
X82657807Y-79284184D02*
X82684744Y-79418871D01*
X82684744Y-79418871D02*
X82684744Y-79526621D01*
X82684744Y-79526621D02*
X82657807Y-79607433D01*
X83169618Y-78772373D02*
X83223492Y-78718499D01*
X83223492Y-78718499D02*
X83304305Y-78691561D01*
X83304305Y-78691561D02*
X83358179Y-78691561D01*
X83358179Y-78691561D02*
X83438992Y-78718499D01*
X83438992Y-78718499D02*
X83573679Y-78799311D01*
X83573679Y-78799311D02*
X83708366Y-78933998D01*
X83708366Y-78933998D02*
X83789178Y-79068685D01*
X83789178Y-79068685D02*
X83816115Y-79149497D01*
X83816115Y-79149497D02*
X83816115Y-79203372D01*
X83816115Y-79203372D02*
X83789178Y-79284184D01*
X83789178Y-79284184D02*
X83735303Y-79338059D01*
X83735303Y-79338059D02*
X83654491Y-79364996D01*
X83654491Y-79364996D02*
X83600616Y-79364996D01*
X83600616Y-79364996D02*
X83519804Y-79338059D01*
X83519804Y-79338059D02*
X83385117Y-79257247D01*
X83385117Y-79257247D02*
X83250430Y-79122560D01*
X83250430Y-79122560D02*
X83169618Y-78987873D01*
X83169618Y-78987873D02*
X83142680Y-78907060D01*
X83142680Y-78907060D02*
X83142680Y-78853186D01*
X83142680Y-78853186D02*
X83169618Y-78772373D01*
X81714998Y-87900868D02*
X81634185Y-87927805D01*
X81634185Y-87927805D02*
X81553373Y-88008618D01*
X81553373Y-88008618D02*
X81499498Y-88116367D01*
X81499498Y-88116367D02*
X81499498Y-88224117D01*
X81499498Y-88224117D02*
X81526436Y-88304929D01*
X81526436Y-88304929D02*
X81607248Y-88439616D01*
X81607248Y-88439616D02*
X81688060Y-88520428D01*
X81688060Y-88520428D02*
X81822747Y-88601241D01*
X81822747Y-88601241D02*
X81903560Y-88628178D01*
X81903560Y-88628178D02*
X82011309Y-88628178D01*
X82011309Y-88628178D02*
X82119059Y-88574303D01*
X82119059Y-88574303D02*
X82172934Y-88520428D01*
X82172934Y-88520428D02*
X82226808Y-88412679D01*
X82226808Y-88412679D02*
X82226808Y-88358804D01*
X82226808Y-88358804D02*
X82038247Y-88170242D01*
X82038247Y-88170242D02*
X81930497Y-88277992D01*
X82523120Y-88170242D02*
X81957434Y-87604557D01*
X81957434Y-87604557D02*
X82172934Y-87389057D01*
X82172934Y-87389057D02*
X82253746Y-87362120D01*
X82253746Y-87362120D02*
X82307621Y-87362120D01*
X82307621Y-87362120D02*
X82388433Y-87389057D01*
X82388433Y-87389057D02*
X82469245Y-87469870D01*
X82469245Y-87469870D02*
X82496182Y-87550682D01*
X82496182Y-87550682D02*
X82496182Y-87604557D01*
X82496182Y-87604557D02*
X82469245Y-87685369D01*
X82469245Y-87685369D02*
X82253746Y-87900868D01*
X83385117Y-87308245D02*
X83061868Y-87631494D01*
X83223492Y-87469870D02*
X82657807Y-86904184D01*
X82657807Y-86904184D02*
X82684744Y-87038871D01*
X82684744Y-87038871D02*
X82684744Y-87146621D01*
X82684744Y-87146621D02*
X82657807Y-87227433D01*
X83007993Y-86553998D02*
X83358179Y-86203812D01*
X83358179Y-86203812D02*
X83385117Y-86607873D01*
X83385117Y-86607873D02*
X83465929Y-86527060D01*
X83465929Y-86527060D02*
X83546741Y-86500123D01*
X83546741Y-86500123D02*
X83600616Y-86500123D01*
X83600616Y-86500123D02*
X83681428Y-86527060D01*
X83681428Y-86527060D02*
X83816115Y-86661747D01*
X83816115Y-86661747D02*
X83843053Y-86742560D01*
X83843053Y-86742560D02*
X83843053Y-86796434D01*
X83843053Y-86796434D02*
X83816115Y-86877247D01*
X83816115Y-86877247D02*
X83654491Y-87038871D01*
X83654491Y-87038871D02*
X83573679Y-87065808D01*
X83573679Y-87065808D02*
X83519804Y-87065808D01*
X81714998Y-95520868D02*
X81634185Y-95547805D01*
X81634185Y-95547805D02*
X81553373Y-95628618D01*
X81553373Y-95628618D02*
X81499498Y-95736367D01*
X81499498Y-95736367D02*
X81499498Y-95844117D01*
X81499498Y-95844117D02*
X81526436Y-95924929D01*
X81526436Y-95924929D02*
X81607248Y-96059616D01*
X81607248Y-96059616D02*
X81688060Y-96140428D01*
X81688060Y-96140428D02*
X81822747Y-96221241D01*
X81822747Y-96221241D02*
X81903560Y-96248178D01*
X81903560Y-96248178D02*
X82011309Y-96248178D01*
X82011309Y-96248178D02*
X82119059Y-96194303D01*
X82119059Y-96194303D02*
X82172934Y-96140428D01*
X82172934Y-96140428D02*
X82226808Y-96032679D01*
X82226808Y-96032679D02*
X82226808Y-95978804D01*
X82226808Y-95978804D02*
X82038247Y-95790242D01*
X82038247Y-95790242D02*
X81930497Y-95897992D01*
X82523120Y-95790242D02*
X81957434Y-95224557D01*
X81957434Y-95224557D02*
X82172934Y-95009057D01*
X82172934Y-95009057D02*
X82253746Y-94982120D01*
X82253746Y-94982120D02*
X82307621Y-94982120D01*
X82307621Y-94982120D02*
X82388433Y-95009057D01*
X82388433Y-95009057D02*
X82469245Y-95089870D01*
X82469245Y-95089870D02*
X82496182Y-95170682D01*
X82496182Y-95170682D02*
X82496182Y-95224557D01*
X82496182Y-95224557D02*
X82469245Y-95305369D01*
X82469245Y-95305369D02*
X82253746Y-95520868D01*
X83385117Y-94928245D02*
X83061868Y-95251494D01*
X83223492Y-95089870D02*
X82657807Y-94524184D01*
X82657807Y-94524184D02*
X82684744Y-94658871D01*
X82684744Y-94658871D02*
X82684744Y-94766621D01*
X82684744Y-94766621D02*
X82657807Y-94847433D01*
X83331242Y-93850749D02*
X83061868Y-94120123D01*
X83061868Y-94120123D02*
X83304305Y-94416434D01*
X83304305Y-94416434D02*
X83304305Y-94362560D01*
X83304305Y-94362560D02*
X83331242Y-94281747D01*
X83331242Y-94281747D02*
X83465929Y-94147060D01*
X83465929Y-94147060D02*
X83546741Y-94120123D01*
X83546741Y-94120123D02*
X83600616Y-94120123D01*
X83600616Y-94120123D02*
X83681428Y-94147060D01*
X83681428Y-94147060D02*
X83816115Y-94281747D01*
X83816115Y-94281747D02*
X83843053Y-94362560D01*
X83843053Y-94362560D02*
X83843053Y-94416434D01*
X83843053Y-94416434D02*
X83816115Y-94497247D01*
X83816115Y-94497247D02*
X83681428Y-94631934D01*
X83681428Y-94631934D02*
X83600616Y-94658871D01*
X83600616Y-94658871D02*
X83546741Y-94658871D01*
X82138372Y-49521494D02*
X82057560Y-49548431D01*
X82057560Y-49548431D02*
X81976748Y-49629243D01*
X81976748Y-49629243D02*
X81922873Y-49736993D01*
X81922873Y-49736993D02*
X81922873Y-49844742D01*
X81922873Y-49844742D02*
X81949810Y-49925555D01*
X81949810Y-49925555D02*
X82030623Y-50060242D01*
X82030623Y-50060242D02*
X82111435Y-50141054D01*
X82111435Y-50141054D02*
X82246122Y-50221866D01*
X82246122Y-50221866D02*
X82326934Y-50248803D01*
X82326934Y-50248803D02*
X82434684Y-50248803D01*
X82434684Y-50248803D02*
X82542433Y-50194929D01*
X82542433Y-50194929D02*
X82596308Y-50141054D01*
X82596308Y-50141054D02*
X82650183Y-50033304D01*
X82650183Y-50033304D02*
X82650183Y-49979429D01*
X82650183Y-49979429D02*
X82461621Y-49790868D01*
X82461621Y-49790868D02*
X82353871Y-49898617D01*
X82946494Y-49790868D02*
X82380809Y-49225182D01*
X82380809Y-49225182D02*
X82596308Y-49009683D01*
X82596308Y-49009683D02*
X82677120Y-48982746D01*
X82677120Y-48982746D02*
X82730995Y-48982746D01*
X82730995Y-48982746D02*
X82811807Y-49009683D01*
X82811807Y-49009683D02*
X82892619Y-49090495D01*
X82892619Y-49090495D02*
X82919557Y-49171307D01*
X82919557Y-49171307D02*
X82919557Y-49225182D01*
X82919557Y-49225182D02*
X82892619Y-49305994D01*
X82892619Y-49305994D02*
X82677120Y-49521494D01*
X83808491Y-48928871D02*
X83485242Y-49252120D01*
X83646867Y-49090495D02*
X83081181Y-48524810D01*
X83081181Y-48524810D02*
X83108119Y-48659497D01*
X83108119Y-48659497D02*
X83108119Y-48767246D01*
X83108119Y-48767246D02*
X83081181Y-48848059D01*
X82138372Y-54611494D02*
X82057560Y-54638431D01*
X82057560Y-54638431D02*
X81976748Y-54719243D01*
X81976748Y-54719243D02*
X81922873Y-54826993D01*
X81922873Y-54826993D02*
X81922873Y-54934742D01*
X81922873Y-54934742D02*
X81949810Y-55015555D01*
X81949810Y-55015555D02*
X82030623Y-55150242D01*
X82030623Y-55150242D02*
X82111435Y-55231054D01*
X82111435Y-55231054D02*
X82246122Y-55311866D01*
X82246122Y-55311866D02*
X82326934Y-55338803D01*
X82326934Y-55338803D02*
X82434684Y-55338803D01*
X82434684Y-55338803D02*
X82542433Y-55284929D01*
X82542433Y-55284929D02*
X82596308Y-55231054D01*
X82596308Y-55231054D02*
X82650183Y-55123304D01*
X82650183Y-55123304D02*
X82650183Y-55069429D01*
X82650183Y-55069429D02*
X82461621Y-54880868D01*
X82461621Y-54880868D02*
X82353871Y-54988617D01*
X82946494Y-54880868D02*
X82380809Y-54315182D01*
X82380809Y-54315182D02*
X82596308Y-54099683D01*
X82596308Y-54099683D02*
X82677120Y-54072746D01*
X82677120Y-54072746D02*
X82730995Y-54072746D01*
X82730995Y-54072746D02*
X82811807Y-54099683D01*
X82811807Y-54099683D02*
X82892619Y-54180495D01*
X82892619Y-54180495D02*
X82919557Y-54261307D01*
X82919557Y-54261307D02*
X82919557Y-54315182D01*
X82919557Y-54315182D02*
X82892619Y-54395994D01*
X82892619Y-54395994D02*
X82677120Y-54611494D01*
X82973432Y-53830309D02*
X82973432Y-53776434D01*
X82973432Y-53776434D02*
X83000369Y-53695622D01*
X83000369Y-53695622D02*
X83135056Y-53560935D01*
X83135056Y-53560935D02*
X83215868Y-53533998D01*
X83215868Y-53533998D02*
X83269743Y-53533998D01*
X83269743Y-53533998D02*
X83350555Y-53560935D01*
X83350555Y-53560935D02*
X83404430Y-53614810D01*
X83404430Y-53614810D02*
X83458305Y-53722559D01*
X83458305Y-53722559D02*
X83458305Y-54369057D01*
X83458305Y-54369057D02*
X83808491Y-54018871D01*
X82238372Y-46991494D02*
X82157560Y-47018431D01*
X82157560Y-47018431D02*
X82076748Y-47099243D01*
X82076748Y-47099243D02*
X82022873Y-47206993D01*
X82022873Y-47206993D02*
X82022873Y-47314742D01*
X82022873Y-47314742D02*
X82049810Y-47395555D01*
X82049810Y-47395555D02*
X82130623Y-47530242D01*
X82130623Y-47530242D02*
X82211435Y-47611054D01*
X82211435Y-47611054D02*
X82346122Y-47691866D01*
X82346122Y-47691866D02*
X82426934Y-47718803D01*
X82426934Y-47718803D02*
X82534684Y-47718803D01*
X82534684Y-47718803D02*
X82642433Y-47664929D01*
X82642433Y-47664929D02*
X82696308Y-47611054D01*
X82696308Y-47611054D02*
X82750183Y-47503304D01*
X82750183Y-47503304D02*
X82750183Y-47449429D01*
X82750183Y-47449429D02*
X82561621Y-47260868D01*
X82561621Y-47260868D02*
X82453871Y-47368617D01*
X83046494Y-47260868D02*
X82480809Y-46695182D01*
X82480809Y-46695182D02*
X82696308Y-46479683D01*
X82696308Y-46479683D02*
X82777120Y-46452746D01*
X82777120Y-46452746D02*
X82830995Y-46452746D01*
X82830995Y-46452746D02*
X82911807Y-46479683D01*
X82911807Y-46479683D02*
X82992619Y-46560495D01*
X82992619Y-46560495D02*
X83019557Y-46641307D01*
X83019557Y-46641307D02*
X83019557Y-46695182D01*
X83019557Y-46695182D02*
X82992619Y-46775994D01*
X82992619Y-46775994D02*
X82777120Y-46991494D01*
X83154244Y-46021747D02*
X83208119Y-45967872D01*
X83208119Y-45967872D02*
X83288931Y-45940935D01*
X83288931Y-45940935D02*
X83342806Y-45940935D01*
X83342806Y-45940935D02*
X83423618Y-45967872D01*
X83423618Y-45967872D02*
X83558305Y-46048685D01*
X83558305Y-46048685D02*
X83692992Y-46183372D01*
X83692992Y-46183372D02*
X83773804Y-46318059D01*
X83773804Y-46318059D02*
X83800741Y-46398871D01*
X83800741Y-46398871D02*
X83800741Y-46452746D01*
X83800741Y-46452746D02*
X83773804Y-46533558D01*
X83773804Y-46533558D02*
X83719929Y-46587433D01*
X83719929Y-46587433D02*
X83639117Y-46614370D01*
X83639117Y-46614370D02*
X83585242Y-46614370D01*
X83585242Y-46614370D02*
X83504430Y-46587433D01*
X83504430Y-46587433D02*
X83369743Y-46506620D01*
X83369743Y-46506620D02*
X83235056Y-46371933D01*
X83235056Y-46371933D02*
X83154244Y-46237246D01*
X83154244Y-46237246D02*
X83127306Y-46156434D01*
X83127306Y-46156434D02*
X83127306Y-46102559D01*
X83127306Y-46102559D02*
X83154244Y-46021747D01*
X82211435Y-52098431D02*
X82130623Y-52125368D01*
X82130623Y-52125368D02*
X82049811Y-52206180D01*
X82049811Y-52206180D02*
X81995936Y-52313930D01*
X81995936Y-52313930D02*
X81995936Y-52421680D01*
X81995936Y-52421680D02*
X82022873Y-52502492D01*
X82022873Y-52502492D02*
X82103685Y-52637179D01*
X82103685Y-52637179D02*
X82184498Y-52717991D01*
X82184498Y-52717991D02*
X82319185Y-52798803D01*
X82319185Y-52798803D02*
X82399997Y-52825741D01*
X82399997Y-52825741D02*
X82507746Y-52825741D01*
X82507746Y-52825741D02*
X82615496Y-52771866D01*
X82615496Y-52771866D02*
X82669371Y-52717991D01*
X82669371Y-52717991D02*
X82723246Y-52610241D01*
X82723246Y-52610241D02*
X82723246Y-52556367D01*
X82723246Y-52556367D02*
X82534684Y-52367805D01*
X82534684Y-52367805D02*
X82426934Y-52475554D01*
X83019557Y-52367805D02*
X82453872Y-51802119D01*
X82453872Y-51802119D02*
X83342806Y-52044556D01*
X83342806Y-52044556D02*
X82777120Y-51478871D01*
X83612180Y-51775182D02*
X83046494Y-51209497D01*
X83046494Y-51209497D02*
X83181181Y-51074810D01*
X83181181Y-51074810D02*
X83288931Y-51020935D01*
X83288931Y-51020935D02*
X83396680Y-51020935D01*
X83396680Y-51020935D02*
X83477493Y-51047872D01*
X83477493Y-51047872D02*
X83612180Y-51128685D01*
X83612180Y-51128685D02*
X83692992Y-51209497D01*
X83692992Y-51209497D02*
X83773804Y-51344184D01*
X83773804Y-51344184D02*
X83800741Y-51424996D01*
X83800741Y-51424996D02*
X83800741Y-51532746D01*
X83800741Y-51532746D02*
X83746867Y-51640495D01*
X83746867Y-51640495D02*
X83612180Y-51775182D01*
X82238372Y-57151494D02*
X82157560Y-57178431D01*
X82157560Y-57178431D02*
X82076748Y-57259243D01*
X82076748Y-57259243D02*
X82022873Y-57366993D01*
X82022873Y-57366993D02*
X82022873Y-57474742D01*
X82022873Y-57474742D02*
X82049810Y-57555555D01*
X82049810Y-57555555D02*
X82130623Y-57690242D01*
X82130623Y-57690242D02*
X82211435Y-57771054D01*
X82211435Y-57771054D02*
X82346122Y-57851866D01*
X82346122Y-57851866D02*
X82426934Y-57878803D01*
X82426934Y-57878803D02*
X82534684Y-57878803D01*
X82534684Y-57878803D02*
X82642433Y-57824929D01*
X82642433Y-57824929D02*
X82696308Y-57771054D01*
X82696308Y-57771054D02*
X82750183Y-57663304D01*
X82750183Y-57663304D02*
X82750183Y-57609429D01*
X82750183Y-57609429D02*
X82561621Y-57420868D01*
X82561621Y-57420868D02*
X82453871Y-57528617D01*
X83046494Y-57420868D02*
X82480809Y-56855182D01*
X82480809Y-56855182D02*
X82696308Y-56639683D01*
X82696308Y-56639683D02*
X82777120Y-56612746D01*
X82777120Y-56612746D02*
X82830995Y-56612746D01*
X82830995Y-56612746D02*
X82911807Y-56639683D01*
X82911807Y-56639683D02*
X82992619Y-56720495D01*
X82992619Y-56720495D02*
X83019557Y-56801307D01*
X83019557Y-56801307D02*
X83019557Y-56855182D01*
X83019557Y-56855182D02*
X82992619Y-56935994D01*
X82992619Y-56935994D02*
X82777120Y-57151494D01*
X82992619Y-56343372D02*
X83342806Y-55993185D01*
X83342806Y-55993185D02*
X83369743Y-56397246D01*
X83369743Y-56397246D02*
X83450555Y-56316434D01*
X83450555Y-56316434D02*
X83531367Y-56289497D01*
X83531367Y-56289497D02*
X83585242Y-56289497D01*
X83585242Y-56289497D02*
X83666054Y-56316434D01*
X83666054Y-56316434D02*
X83800741Y-56451121D01*
X83800741Y-56451121D02*
X83827679Y-56531933D01*
X83827679Y-56531933D02*
X83827679Y-56585808D01*
X83827679Y-56585808D02*
X83800741Y-56666620D01*
X83800741Y-56666620D02*
X83639117Y-56828245D01*
X83639117Y-56828245D02*
X83558305Y-56855182D01*
X83558305Y-56855182D02*
X83504430Y-56855182D01*
X82238372Y-59691494D02*
X82157560Y-59718431D01*
X82157560Y-59718431D02*
X82076748Y-59799243D01*
X82076748Y-59799243D02*
X82022873Y-59906993D01*
X82022873Y-59906993D02*
X82022873Y-60014742D01*
X82022873Y-60014742D02*
X82049810Y-60095555D01*
X82049810Y-60095555D02*
X82130623Y-60230242D01*
X82130623Y-60230242D02*
X82211435Y-60311054D01*
X82211435Y-60311054D02*
X82346122Y-60391866D01*
X82346122Y-60391866D02*
X82426934Y-60418803D01*
X82426934Y-60418803D02*
X82534684Y-60418803D01*
X82534684Y-60418803D02*
X82642433Y-60364929D01*
X82642433Y-60364929D02*
X82696308Y-60311054D01*
X82696308Y-60311054D02*
X82750183Y-60203304D01*
X82750183Y-60203304D02*
X82750183Y-60149429D01*
X82750183Y-60149429D02*
X82561621Y-59960868D01*
X82561621Y-59960868D02*
X82453871Y-60068617D01*
X83046494Y-59960868D02*
X82480809Y-59395182D01*
X82480809Y-59395182D02*
X82696308Y-59179683D01*
X82696308Y-59179683D02*
X82777120Y-59152746D01*
X82777120Y-59152746D02*
X82830995Y-59152746D01*
X82830995Y-59152746D02*
X82911807Y-59179683D01*
X82911807Y-59179683D02*
X82992619Y-59260495D01*
X82992619Y-59260495D02*
X83019557Y-59341307D01*
X83019557Y-59341307D02*
X83019557Y-59395182D01*
X83019557Y-59395182D02*
X82992619Y-59475994D01*
X82992619Y-59475994D02*
X82777120Y-59691494D01*
X83477493Y-58775622D02*
X83854616Y-59152746D01*
X83127306Y-58694810D02*
X83396680Y-59233558D01*
X83396680Y-59233558D02*
X83746867Y-58883372D01*
X82238372Y-62231494D02*
X82157560Y-62258431D01*
X82157560Y-62258431D02*
X82076748Y-62339243D01*
X82076748Y-62339243D02*
X82022873Y-62446993D01*
X82022873Y-62446993D02*
X82022873Y-62554742D01*
X82022873Y-62554742D02*
X82049810Y-62635555D01*
X82049810Y-62635555D02*
X82130623Y-62770242D01*
X82130623Y-62770242D02*
X82211435Y-62851054D01*
X82211435Y-62851054D02*
X82346122Y-62931866D01*
X82346122Y-62931866D02*
X82426934Y-62958803D01*
X82426934Y-62958803D02*
X82534684Y-62958803D01*
X82534684Y-62958803D02*
X82642433Y-62904929D01*
X82642433Y-62904929D02*
X82696308Y-62851054D01*
X82696308Y-62851054D02*
X82750183Y-62743304D01*
X82750183Y-62743304D02*
X82750183Y-62689429D01*
X82750183Y-62689429D02*
X82561621Y-62500868D01*
X82561621Y-62500868D02*
X82453871Y-62608617D01*
X83046494Y-62500868D02*
X82480809Y-61935182D01*
X82480809Y-61935182D02*
X82696308Y-61719683D01*
X82696308Y-61719683D02*
X82777120Y-61692746D01*
X82777120Y-61692746D02*
X82830995Y-61692746D01*
X82830995Y-61692746D02*
X82911807Y-61719683D01*
X82911807Y-61719683D02*
X82992619Y-61800495D01*
X82992619Y-61800495D02*
X83019557Y-61881307D01*
X83019557Y-61881307D02*
X83019557Y-61935182D01*
X83019557Y-61935182D02*
X82992619Y-62015994D01*
X82992619Y-62015994D02*
X82777120Y-62231494D01*
X83315868Y-61100123D02*
X83046494Y-61369497D01*
X83046494Y-61369497D02*
X83288931Y-61665808D01*
X83288931Y-61665808D02*
X83288931Y-61611933D01*
X83288931Y-61611933D02*
X83315868Y-61531121D01*
X83315868Y-61531121D02*
X83450555Y-61396434D01*
X83450555Y-61396434D02*
X83531367Y-61369497D01*
X83531367Y-61369497D02*
X83585242Y-61369497D01*
X83585242Y-61369497D02*
X83666054Y-61396434D01*
X83666054Y-61396434D02*
X83800741Y-61531121D01*
X83800741Y-61531121D02*
X83827679Y-61611933D01*
X83827679Y-61611933D02*
X83827679Y-61665808D01*
X83827679Y-61665808D02*
X83800741Y-61746620D01*
X83800741Y-61746620D02*
X83666054Y-61881307D01*
X83666054Y-61881307D02*
X83585242Y-61908245D01*
X83585242Y-61908245D02*
X83531367Y-61908245D01*
X82211435Y-64798431D02*
X82130623Y-64825368D01*
X82130623Y-64825368D02*
X82049811Y-64906180D01*
X82049811Y-64906180D02*
X81995936Y-65013930D01*
X81995936Y-65013930D02*
X81995936Y-65121680D01*
X81995936Y-65121680D02*
X82022873Y-65202492D01*
X82022873Y-65202492D02*
X82103685Y-65337179D01*
X82103685Y-65337179D02*
X82184498Y-65417991D01*
X82184498Y-65417991D02*
X82319185Y-65498803D01*
X82319185Y-65498803D02*
X82399997Y-65525741D01*
X82399997Y-65525741D02*
X82507746Y-65525741D01*
X82507746Y-65525741D02*
X82615496Y-65471866D01*
X82615496Y-65471866D02*
X82669371Y-65417991D01*
X82669371Y-65417991D02*
X82723246Y-65310241D01*
X82723246Y-65310241D02*
X82723246Y-65256367D01*
X82723246Y-65256367D02*
X82534684Y-65067805D01*
X82534684Y-65067805D02*
X82426934Y-65175554D01*
X83019557Y-65067805D02*
X82453872Y-64502119D01*
X82453872Y-64502119D02*
X83342806Y-64744556D01*
X83342806Y-64744556D02*
X82777120Y-64178871D01*
X83612180Y-64475182D02*
X83046494Y-63909497D01*
X83046494Y-63909497D02*
X83181181Y-63774810D01*
X83181181Y-63774810D02*
X83288931Y-63720935D01*
X83288931Y-63720935D02*
X83396680Y-63720935D01*
X83396680Y-63720935D02*
X83477493Y-63747872D01*
X83477493Y-63747872D02*
X83612180Y-63828685D01*
X83612180Y-63828685D02*
X83692992Y-63909497D01*
X83692992Y-63909497D02*
X83773804Y-64044184D01*
X83773804Y-64044184D02*
X83800741Y-64124996D01*
X83800741Y-64124996D02*
X83800741Y-64232746D01*
X83800741Y-64232746D02*
X83746867Y-64340495D01*
X83746867Y-64340495D02*
X83612180Y-64475182D01*
X82238372Y-67311494D02*
X82157560Y-67338431D01*
X82157560Y-67338431D02*
X82076748Y-67419243D01*
X82076748Y-67419243D02*
X82022873Y-67526993D01*
X82022873Y-67526993D02*
X82022873Y-67634742D01*
X82022873Y-67634742D02*
X82049810Y-67715555D01*
X82049810Y-67715555D02*
X82130623Y-67850242D01*
X82130623Y-67850242D02*
X82211435Y-67931054D01*
X82211435Y-67931054D02*
X82346122Y-68011866D01*
X82346122Y-68011866D02*
X82426934Y-68038803D01*
X82426934Y-68038803D02*
X82534684Y-68038803D01*
X82534684Y-68038803D02*
X82642433Y-67984929D01*
X82642433Y-67984929D02*
X82696308Y-67931054D01*
X82696308Y-67931054D02*
X82750183Y-67823304D01*
X82750183Y-67823304D02*
X82750183Y-67769429D01*
X82750183Y-67769429D02*
X82561621Y-67580868D01*
X82561621Y-67580868D02*
X82453871Y-67688617D01*
X83046494Y-67580868D02*
X82480809Y-67015182D01*
X82480809Y-67015182D02*
X82696308Y-66799683D01*
X82696308Y-66799683D02*
X82777120Y-66772746D01*
X82777120Y-66772746D02*
X82830995Y-66772746D01*
X82830995Y-66772746D02*
X82911807Y-66799683D01*
X82911807Y-66799683D02*
X82992619Y-66880495D01*
X82992619Y-66880495D02*
X83019557Y-66961307D01*
X83019557Y-66961307D02*
X83019557Y-67015182D01*
X83019557Y-67015182D02*
X82992619Y-67095994D01*
X82992619Y-67095994D02*
X82777120Y-67311494D01*
X83288931Y-66207060D02*
X83181181Y-66314810D01*
X83181181Y-66314810D02*
X83154244Y-66395622D01*
X83154244Y-66395622D02*
X83154244Y-66449497D01*
X83154244Y-66449497D02*
X83181181Y-66584184D01*
X83181181Y-66584184D02*
X83261993Y-66718871D01*
X83261993Y-66718871D02*
X83477493Y-66934370D01*
X83477493Y-66934370D02*
X83558305Y-66961307D01*
X83558305Y-66961307D02*
X83612180Y-66961307D01*
X83612180Y-66961307D02*
X83692992Y-66934370D01*
X83692992Y-66934370D02*
X83800741Y-66826620D01*
X83800741Y-66826620D02*
X83827679Y-66745808D01*
X83827679Y-66745808D02*
X83827679Y-66691933D01*
X83827679Y-66691933D02*
X83800741Y-66611121D01*
X83800741Y-66611121D02*
X83666054Y-66476434D01*
X83666054Y-66476434D02*
X83585242Y-66449497D01*
X83585242Y-66449497D02*
X83531367Y-66449497D01*
X83531367Y-66449497D02*
X83450555Y-66476434D01*
X83450555Y-66476434D02*
X83342806Y-66584184D01*
X83342806Y-66584184D02*
X83315868Y-66664996D01*
X83315868Y-66664996D02*
X83315868Y-66718871D01*
X83315868Y-66718871D02*
X83342806Y-66799683D01*
X82238372Y-72391494D02*
X82157560Y-72418431D01*
X82157560Y-72418431D02*
X82076748Y-72499243D01*
X82076748Y-72499243D02*
X82022873Y-72606993D01*
X82022873Y-72606993D02*
X82022873Y-72714742D01*
X82022873Y-72714742D02*
X82049810Y-72795555D01*
X82049810Y-72795555D02*
X82130623Y-72930242D01*
X82130623Y-72930242D02*
X82211435Y-73011054D01*
X82211435Y-73011054D02*
X82346122Y-73091866D01*
X82346122Y-73091866D02*
X82426934Y-73118803D01*
X82426934Y-73118803D02*
X82534684Y-73118803D01*
X82534684Y-73118803D02*
X82642433Y-73064929D01*
X82642433Y-73064929D02*
X82696308Y-73011054D01*
X82696308Y-73011054D02*
X82750183Y-72903304D01*
X82750183Y-72903304D02*
X82750183Y-72849429D01*
X82750183Y-72849429D02*
X82561621Y-72660868D01*
X82561621Y-72660868D02*
X82453871Y-72768617D01*
X83046494Y-72660868D02*
X82480809Y-72095182D01*
X82480809Y-72095182D02*
X82696308Y-71879683D01*
X82696308Y-71879683D02*
X82777120Y-71852746D01*
X82777120Y-71852746D02*
X82830995Y-71852746D01*
X82830995Y-71852746D02*
X82911807Y-71879683D01*
X82911807Y-71879683D02*
X82992619Y-71960495D01*
X82992619Y-71960495D02*
X83019557Y-72041307D01*
X83019557Y-72041307D02*
X83019557Y-72095182D01*
X83019557Y-72095182D02*
X82992619Y-72175994D01*
X82992619Y-72175994D02*
X82777120Y-72391494D01*
X83369743Y-71691121D02*
X83288931Y-71718059D01*
X83288931Y-71718059D02*
X83235056Y-71718059D01*
X83235056Y-71718059D02*
X83154244Y-71691121D01*
X83154244Y-71691121D02*
X83127306Y-71664184D01*
X83127306Y-71664184D02*
X83100369Y-71583372D01*
X83100369Y-71583372D02*
X83100369Y-71529497D01*
X83100369Y-71529497D02*
X83127306Y-71448685D01*
X83127306Y-71448685D02*
X83235056Y-71340935D01*
X83235056Y-71340935D02*
X83315868Y-71313998D01*
X83315868Y-71313998D02*
X83369743Y-71313998D01*
X83369743Y-71313998D02*
X83450555Y-71340935D01*
X83450555Y-71340935D02*
X83477493Y-71367872D01*
X83477493Y-71367872D02*
X83504430Y-71448685D01*
X83504430Y-71448685D02*
X83504430Y-71502559D01*
X83504430Y-71502559D02*
X83477493Y-71583372D01*
X83477493Y-71583372D02*
X83369743Y-71691121D01*
X83369743Y-71691121D02*
X83342806Y-71771933D01*
X83342806Y-71771933D02*
X83342806Y-71825808D01*
X83342806Y-71825808D02*
X83369743Y-71906620D01*
X83369743Y-71906620D02*
X83477493Y-72014370D01*
X83477493Y-72014370D02*
X83558305Y-72041307D01*
X83558305Y-72041307D02*
X83612180Y-72041307D01*
X83612180Y-72041307D02*
X83692992Y-72014370D01*
X83692992Y-72014370D02*
X83800741Y-71906620D01*
X83800741Y-71906620D02*
X83827679Y-71825808D01*
X83827679Y-71825808D02*
X83827679Y-71771933D01*
X83827679Y-71771933D02*
X83800741Y-71691121D01*
X83800741Y-71691121D02*
X83692992Y-71583372D01*
X83692992Y-71583372D02*
X83612180Y-71556434D01*
X83612180Y-71556434D02*
X83558305Y-71556434D01*
X83558305Y-71556434D02*
X83477493Y-71583372D01*
X82238372Y-74931494D02*
X82157560Y-74958431D01*
X82157560Y-74958431D02*
X82076748Y-75039243D01*
X82076748Y-75039243D02*
X82022873Y-75146993D01*
X82022873Y-75146993D02*
X82022873Y-75254742D01*
X82022873Y-75254742D02*
X82049810Y-75335555D01*
X82049810Y-75335555D02*
X82130623Y-75470242D01*
X82130623Y-75470242D02*
X82211435Y-75551054D01*
X82211435Y-75551054D02*
X82346122Y-75631866D01*
X82346122Y-75631866D02*
X82426934Y-75658803D01*
X82426934Y-75658803D02*
X82534684Y-75658803D01*
X82534684Y-75658803D02*
X82642433Y-75604929D01*
X82642433Y-75604929D02*
X82696308Y-75551054D01*
X82696308Y-75551054D02*
X82750183Y-75443304D01*
X82750183Y-75443304D02*
X82750183Y-75389429D01*
X82750183Y-75389429D02*
X82561621Y-75200868D01*
X82561621Y-75200868D02*
X82453871Y-75308617D01*
X83046494Y-75200868D02*
X82480809Y-74635182D01*
X82480809Y-74635182D02*
X82696308Y-74419683D01*
X82696308Y-74419683D02*
X82777120Y-74392746D01*
X82777120Y-74392746D02*
X82830995Y-74392746D01*
X82830995Y-74392746D02*
X82911807Y-74419683D01*
X82911807Y-74419683D02*
X82992619Y-74500495D01*
X82992619Y-74500495D02*
X83019557Y-74581307D01*
X83019557Y-74581307D02*
X83019557Y-74635182D01*
X83019557Y-74635182D02*
X82992619Y-74715994D01*
X82992619Y-74715994D02*
X82777120Y-74931494D01*
X83639117Y-74608245D02*
X83746867Y-74500495D01*
X83746867Y-74500495D02*
X83773804Y-74419683D01*
X83773804Y-74419683D02*
X83773804Y-74365808D01*
X83773804Y-74365808D02*
X83746867Y-74231121D01*
X83746867Y-74231121D02*
X83666054Y-74096434D01*
X83666054Y-74096434D02*
X83450555Y-73880935D01*
X83450555Y-73880935D02*
X83369743Y-73853998D01*
X83369743Y-73853998D02*
X83315868Y-73853998D01*
X83315868Y-73853998D02*
X83235056Y-73880935D01*
X83235056Y-73880935D02*
X83127306Y-73988685D01*
X83127306Y-73988685D02*
X83100369Y-74069497D01*
X83100369Y-74069497D02*
X83100369Y-74123372D01*
X83100369Y-74123372D02*
X83127306Y-74204184D01*
X83127306Y-74204184D02*
X83261993Y-74338871D01*
X83261993Y-74338871D02*
X83342806Y-74365808D01*
X83342806Y-74365808D02*
X83396680Y-74365808D01*
X83396680Y-74365808D02*
X83477493Y-74338871D01*
X83477493Y-74338871D02*
X83585242Y-74231121D01*
X83585242Y-74231121D02*
X83612180Y-74150309D01*
X83612180Y-74150309D02*
X83612180Y-74096434D01*
X83612180Y-74096434D02*
X83585242Y-74015622D01*
X82211435Y-77498431D02*
X82130623Y-77525368D01*
X82130623Y-77525368D02*
X82049811Y-77606180D01*
X82049811Y-77606180D02*
X81995936Y-77713930D01*
X81995936Y-77713930D02*
X81995936Y-77821680D01*
X81995936Y-77821680D02*
X82022873Y-77902492D01*
X82022873Y-77902492D02*
X82103685Y-78037179D01*
X82103685Y-78037179D02*
X82184498Y-78117991D01*
X82184498Y-78117991D02*
X82319185Y-78198803D01*
X82319185Y-78198803D02*
X82399997Y-78225741D01*
X82399997Y-78225741D02*
X82507746Y-78225741D01*
X82507746Y-78225741D02*
X82615496Y-78171866D01*
X82615496Y-78171866D02*
X82669371Y-78117991D01*
X82669371Y-78117991D02*
X82723246Y-78010241D01*
X82723246Y-78010241D02*
X82723246Y-77956367D01*
X82723246Y-77956367D02*
X82534684Y-77767805D01*
X82534684Y-77767805D02*
X82426934Y-77875554D01*
X83019557Y-77767805D02*
X82453872Y-77202119D01*
X82453872Y-77202119D02*
X83342806Y-77444556D01*
X83342806Y-77444556D02*
X82777120Y-76878871D01*
X83612180Y-77175182D02*
X83046494Y-76609497D01*
X83046494Y-76609497D02*
X83181181Y-76474810D01*
X83181181Y-76474810D02*
X83288931Y-76420935D01*
X83288931Y-76420935D02*
X83396680Y-76420935D01*
X83396680Y-76420935D02*
X83477493Y-76447872D01*
X83477493Y-76447872D02*
X83612180Y-76528685D01*
X83612180Y-76528685D02*
X83692992Y-76609497D01*
X83692992Y-76609497D02*
X83773804Y-76744184D01*
X83773804Y-76744184D02*
X83800741Y-76824996D01*
X83800741Y-76824996D02*
X83800741Y-76932746D01*
X83800741Y-76932746D02*
X83746867Y-77040495D01*
X83746867Y-77040495D02*
X83612180Y-77175182D01*
X82211435Y-90198431D02*
X82130623Y-90225368D01*
X82130623Y-90225368D02*
X82049811Y-90306180D01*
X82049811Y-90306180D02*
X81995936Y-90413930D01*
X81995936Y-90413930D02*
X81995936Y-90521680D01*
X81995936Y-90521680D02*
X82022873Y-90602492D01*
X82022873Y-90602492D02*
X82103685Y-90737179D01*
X82103685Y-90737179D02*
X82184498Y-90817991D01*
X82184498Y-90817991D02*
X82319185Y-90898803D01*
X82319185Y-90898803D02*
X82399997Y-90925741D01*
X82399997Y-90925741D02*
X82507746Y-90925741D01*
X82507746Y-90925741D02*
X82615496Y-90871866D01*
X82615496Y-90871866D02*
X82669371Y-90817991D01*
X82669371Y-90817991D02*
X82723246Y-90710241D01*
X82723246Y-90710241D02*
X82723246Y-90656367D01*
X82723246Y-90656367D02*
X82534684Y-90467805D01*
X82534684Y-90467805D02*
X82426934Y-90575554D01*
X83019557Y-90467805D02*
X82453872Y-89902119D01*
X82453872Y-89902119D02*
X83342806Y-90144556D01*
X83342806Y-90144556D02*
X82777120Y-89578871D01*
X83612180Y-89875182D02*
X83046494Y-89309497D01*
X83046494Y-89309497D02*
X83181181Y-89174810D01*
X83181181Y-89174810D02*
X83288931Y-89120935D01*
X83288931Y-89120935D02*
X83396680Y-89120935D01*
X83396680Y-89120935D02*
X83477493Y-89147872D01*
X83477493Y-89147872D02*
X83612180Y-89228685D01*
X83612180Y-89228685D02*
X83692992Y-89309497D01*
X83692992Y-89309497D02*
X83773804Y-89444184D01*
X83773804Y-89444184D02*
X83800741Y-89524996D01*
X83800741Y-89524996D02*
X83800741Y-89632746D01*
X83800741Y-89632746D02*
X83746867Y-89740495D01*
X83746867Y-89740495D02*
X83612180Y-89875182D01*
X82338372Y-69821494D02*
X82257560Y-69848431D01*
X82257560Y-69848431D02*
X82176748Y-69929243D01*
X82176748Y-69929243D02*
X82122873Y-70036993D01*
X82122873Y-70036993D02*
X82122873Y-70144742D01*
X82122873Y-70144742D02*
X82149810Y-70225555D01*
X82149810Y-70225555D02*
X82230623Y-70360242D01*
X82230623Y-70360242D02*
X82311435Y-70441054D01*
X82311435Y-70441054D02*
X82446122Y-70521866D01*
X82446122Y-70521866D02*
X82526934Y-70548803D01*
X82526934Y-70548803D02*
X82634684Y-70548803D01*
X82634684Y-70548803D02*
X82742433Y-70494929D01*
X82742433Y-70494929D02*
X82796308Y-70441054D01*
X82796308Y-70441054D02*
X82850183Y-70333304D01*
X82850183Y-70333304D02*
X82850183Y-70279429D01*
X82850183Y-70279429D02*
X82661621Y-70090868D01*
X82661621Y-70090868D02*
X82553871Y-70198617D01*
X83146494Y-70090868D02*
X82580809Y-69525182D01*
X82580809Y-69525182D02*
X82796308Y-69309683D01*
X82796308Y-69309683D02*
X82877120Y-69282746D01*
X82877120Y-69282746D02*
X82930995Y-69282746D01*
X82930995Y-69282746D02*
X83011807Y-69309683D01*
X83011807Y-69309683D02*
X83092619Y-69390495D01*
X83092619Y-69390495D02*
X83119557Y-69471307D01*
X83119557Y-69471307D02*
X83119557Y-69525182D01*
X83119557Y-69525182D02*
X83092619Y-69605994D01*
X83092619Y-69605994D02*
X82877120Y-69821494D01*
X83092619Y-69013372D02*
X83469743Y-68636248D01*
X83469743Y-68636248D02*
X83792992Y-69444370D01*
X88215475Y-97524200D02*
X88329761Y-97562295D01*
X88329761Y-97562295D02*
X88520237Y-97562295D01*
X88520237Y-97562295D02*
X88596428Y-97524200D01*
X88596428Y-97524200D02*
X88634523Y-97486104D01*
X88634523Y-97486104D02*
X88672618Y-97409914D01*
X88672618Y-97409914D02*
X88672618Y-97333723D01*
X88672618Y-97333723D02*
X88634523Y-97257533D01*
X88634523Y-97257533D02*
X88596428Y-97219438D01*
X88596428Y-97219438D02*
X88520237Y-97181342D01*
X88520237Y-97181342D02*
X88367856Y-97143247D01*
X88367856Y-97143247D02*
X88291666Y-97105152D01*
X88291666Y-97105152D02*
X88253571Y-97067057D01*
X88253571Y-97067057D02*
X88215475Y-96990866D01*
X88215475Y-96990866D02*
X88215475Y-96914676D01*
X88215475Y-96914676D02*
X88253571Y-96838485D01*
X88253571Y-96838485D02*
X88291666Y-96800390D01*
X88291666Y-96800390D02*
X88367856Y-96762295D01*
X88367856Y-96762295D02*
X88558333Y-96762295D01*
X88558333Y-96762295D02*
X88672618Y-96800390D01*
X88939285Y-96762295D02*
X89129761Y-97562295D01*
X89129761Y-97562295D02*
X89282142Y-96990866D01*
X89282142Y-96990866D02*
X89434523Y-97562295D01*
X89434523Y-97562295D02*
X89625000Y-96762295D01*
X90386905Y-97486104D02*
X90348809Y-97524200D01*
X90348809Y-97524200D02*
X90234524Y-97562295D01*
X90234524Y-97562295D02*
X90158333Y-97562295D01*
X90158333Y-97562295D02*
X90044047Y-97524200D01*
X90044047Y-97524200D02*
X89967857Y-97448009D01*
X89967857Y-97448009D02*
X89929762Y-97371819D01*
X89929762Y-97371819D02*
X89891666Y-97219438D01*
X89891666Y-97219438D02*
X89891666Y-97105152D01*
X89891666Y-97105152D02*
X89929762Y-96952771D01*
X89929762Y-96952771D02*
X89967857Y-96876580D01*
X89967857Y-96876580D02*
X90044047Y-96800390D01*
X90044047Y-96800390D02*
X90158333Y-96762295D01*
X90158333Y-96762295D02*
X90234524Y-96762295D01*
X90234524Y-96762295D02*
X90348809Y-96800390D01*
X90348809Y-96800390D02*
X90386905Y-96838485D01*
X91110714Y-97562295D02*
X90729762Y-97562295D01*
X90729762Y-97562295D02*
X90729762Y-96762295D01*
X91377381Y-97562295D02*
X91377381Y-96762295D01*
X91834524Y-97562295D02*
X91491666Y-97105152D01*
X91834524Y-96762295D02*
X91377381Y-97219438D01*
X99629761Y-97524200D02*
X99744047Y-97562295D01*
X99744047Y-97562295D02*
X99934523Y-97562295D01*
X99934523Y-97562295D02*
X100010714Y-97524200D01*
X100010714Y-97524200D02*
X100048809Y-97486104D01*
X100048809Y-97486104D02*
X100086904Y-97409914D01*
X100086904Y-97409914D02*
X100086904Y-97333723D01*
X100086904Y-97333723D02*
X100048809Y-97257533D01*
X100048809Y-97257533D02*
X100010714Y-97219438D01*
X100010714Y-97219438D02*
X99934523Y-97181342D01*
X99934523Y-97181342D02*
X99782142Y-97143247D01*
X99782142Y-97143247D02*
X99705952Y-97105152D01*
X99705952Y-97105152D02*
X99667857Y-97067057D01*
X99667857Y-97067057D02*
X99629761Y-96990866D01*
X99629761Y-96990866D02*
X99629761Y-96914676D01*
X99629761Y-96914676D02*
X99667857Y-96838485D01*
X99667857Y-96838485D02*
X99705952Y-96800390D01*
X99705952Y-96800390D02*
X99782142Y-96762295D01*
X99782142Y-96762295D02*
X99972619Y-96762295D01*
X99972619Y-96762295D02*
X100086904Y-96800390D01*
X100353571Y-96762295D02*
X100544047Y-97562295D01*
X100544047Y-97562295D02*
X100696428Y-96990866D01*
X100696428Y-96990866D02*
X100848809Y-97562295D01*
X100848809Y-97562295D02*
X101039286Y-96762295D01*
X101344048Y-97562295D02*
X101344048Y-96762295D01*
X101344048Y-96762295D02*
X101534524Y-96762295D01*
X101534524Y-96762295D02*
X101648810Y-96800390D01*
X101648810Y-96800390D02*
X101725000Y-96876580D01*
X101725000Y-96876580D02*
X101763095Y-96952771D01*
X101763095Y-96952771D02*
X101801191Y-97105152D01*
X101801191Y-97105152D02*
X101801191Y-97219438D01*
X101801191Y-97219438D02*
X101763095Y-97371819D01*
X101763095Y-97371819D02*
X101725000Y-97448009D01*
X101725000Y-97448009D02*
X101648810Y-97524200D01*
X101648810Y-97524200D02*
X101534524Y-97562295D01*
X101534524Y-97562295D02*
X101344048Y-97562295D01*
X102144048Y-97562295D02*
X102144048Y-96762295D01*
X102677381Y-96762295D02*
X102829762Y-96762295D01*
X102829762Y-96762295D02*
X102905952Y-96800390D01*
X102905952Y-96800390D02*
X102982143Y-96876580D01*
X102982143Y-96876580D02*
X103020238Y-97028961D01*
X103020238Y-97028961D02*
X103020238Y-97295628D01*
X103020238Y-97295628D02*
X102982143Y-97448009D01*
X102982143Y-97448009D02*
X102905952Y-97524200D01*
X102905952Y-97524200D02*
X102829762Y-97562295D01*
X102829762Y-97562295D02*
X102677381Y-97562295D01*
X102677381Y-97562295D02*
X102601190Y-97524200D01*
X102601190Y-97524200D02*
X102525000Y-97448009D01*
X102525000Y-97448009D02*
X102486904Y-97295628D01*
X102486904Y-97295628D02*
X102486904Y-97028961D01*
X102486904Y-97028961D02*
X102525000Y-96876580D01*
X102525000Y-96876580D02*
X102601190Y-96800390D01*
X102601190Y-96800390D02*
X102677381Y-96762295D01*
X107811435Y-52098431D02*
X107730623Y-52125368D01*
X107730623Y-52125368D02*
X107649811Y-52206180D01*
X107649811Y-52206180D02*
X107595936Y-52313930D01*
X107595936Y-52313930D02*
X107595936Y-52421680D01*
X107595936Y-52421680D02*
X107622873Y-52502492D01*
X107622873Y-52502492D02*
X107703685Y-52637179D01*
X107703685Y-52637179D02*
X107784498Y-52717991D01*
X107784498Y-52717991D02*
X107919185Y-52798803D01*
X107919185Y-52798803D02*
X107999997Y-52825741D01*
X107999997Y-52825741D02*
X108107746Y-52825741D01*
X108107746Y-52825741D02*
X108215496Y-52771866D01*
X108215496Y-52771866D02*
X108269371Y-52717991D01*
X108269371Y-52717991D02*
X108323246Y-52610241D01*
X108323246Y-52610241D02*
X108323246Y-52556367D01*
X108323246Y-52556367D02*
X108134684Y-52367805D01*
X108134684Y-52367805D02*
X108026934Y-52475554D01*
X108619557Y-52367805D02*
X108053872Y-51802119D01*
X108053872Y-51802119D02*
X108942806Y-52044556D01*
X108942806Y-52044556D02*
X108377120Y-51478871D01*
X109212180Y-51775182D02*
X108646494Y-51209497D01*
X108646494Y-51209497D02*
X108781181Y-51074810D01*
X108781181Y-51074810D02*
X108888931Y-51020935D01*
X108888931Y-51020935D02*
X108996680Y-51020935D01*
X108996680Y-51020935D02*
X109077493Y-51047872D01*
X109077493Y-51047872D02*
X109212180Y-51128685D01*
X109212180Y-51128685D02*
X109292992Y-51209497D01*
X109292992Y-51209497D02*
X109373804Y-51344184D01*
X109373804Y-51344184D02*
X109400741Y-51424996D01*
X109400741Y-51424996D02*
X109400741Y-51532746D01*
X109400741Y-51532746D02*
X109346867Y-51640495D01*
X109346867Y-51640495D02*
X109212180Y-51775182D01*
X107811435Y-77498431D02*
X107730623Y-77525368D01*
X107730623Y-77525368D02*
X107649811Y-77606180D01*
X107649811Y-77606180D02*
X107595936Y-77713930D01*
X107595936Y-77713930D02*
X107595936Y-77821680D01*
X107595936Y-77821680D02*
X107622873Y-77902492D01*
X107622873Y-77902492D02*
X107703685Y-78037179D01*
X107703685Y-78037179D02*
X107784498Y-78117991D01*
X107784498Y-78117991D02*
X107919185Y-78198803D01*
X107919185Y-78198803D02*
X107999997Y-78225741D01*
X107999997Y-78225741D02*
X108107746Y-78225741D01*
X108107746Y-78225741D02*
X108215496Y-78171866D01*
X108215496Y-78171866D02*
X108269371Y-78117991D01*
X108269371Y-78117991D02*
X108323246Y-78010241D01*
X108323246Y-78010241D02*
X108323246Y-77956367D01*
X108323246Y-77956367D02*
X108134684Y-77767805D01*
X108134684Y-77767805D02*
X108026934Y-77875554D01*
X108619557Y-77767805D02*
X108053872Y-77202119D01*
X108053872Y-77202119D02*
X108942806Y-77444556D01*
X108942806Y-77444556D02*
X108377120Y-76878871D01*
X109212180Y-77175182D02*
X108646494Y-76609497D01*
X108646494Y-76609497D02*
X108781181Y-76474810D01*
X108781181Y-76474810D02*
X108888931Y-76420935D01*
X108888931Y-76420935D02*
X108996680Y-76420935D01*
X108996680Y-76420935D02*
X109077493Y-76447872D01*
X109077493Y-76447872D02*
X109212180Y-76528685D01*
X109212180Y-76528685D02*
X109292992Y-76609497D01*
X109292992Y-76609497D02*
X109373804Y-76744184D01*
X109373804Y-76744184D02*
X109400741Y-76824996D01*
X109400741Y-76824996D02*
X109400741Y-76932746D01*
X109400741Y-76932746D02*
X109346867Y-77040495D01*
X109346867Y-77040495D02*
X109212180Y-77175182D01*
X107811435Y-90198431D02*
X107730623Y-90225368D01*
X107730623Y-90225368D02*
X107649811Y-90306180D01*
X107649811Y-90306180D02*
X107595936Y-90413930D01*
X107595936Y-90413930D02*
X107595936Y-90521680D01*
X107595936Y-90521680D02*
X107622873Y-90602492D01*
X107622873Y-90602492D02*
X107703685Y-90737179D01*
X107703685Y-90737179D02*
X107784498Y-90817991D01*
X107784498Y-90817991D02*
X107919185Y-90898803D01*
X107919185Y-90898803D02*
X107999997Y-90925741D01*
X107999997Y-90925741D02*
X108107746Y-90925741D01*
X108107746Y-90925741D02*
X108215496Y-90871866D01*
X108215496Y-90871866D02*
X108269371Y-90817991D01*
X108269371Y-90817991D02*
X108323246Y-90710241D01*
X108323246Y-90710241D02*
X108323246Y-90656367D01*
X108323246Y-90656367D02*
X108134684Y-90467805D01*
X108134684Y-90467805D02*
X108026934Y-90575554D01*
X108619557Y-90467805D02*
X108053872Y-89902119D01*
X108053872Y-89902119D02*
X108942806Y-90144556D01*
X108942806Y-90144556D02*
X108377120Y-89578871D01*
X109212180Y-89875182D02*
X108646494Y-89309497D01*
X108646494Y-89309497D02*
X108781181Y-89174810D01*
X108781181Y-89174810D02*
X108888931Y-89120935D01*
X108888931Y-89120935D02*
X108996680Y-89120935D01*
X108996680Y-89120935D02*
X109077493Y-89147872D01*
X109077493Y-89147872D02*
X109212180Y-89228685D01*
X109212180Y-89228685D02*
X109292992Y-89309497D01*
X109292992Y-89309497D02*
X109373804Y-89444184D01*
X109373804Y-89444184D02*
X109400741Y-89524996D01*
X109400741Y-89524996D02*
X109400741Y-89632746D01*
X109400741Y-89632746D02*
X109346867Y-89740495D01*
X109346867Y-89740495D02*
X109212180Y-89875182D01*
X107615123Y-57490868D02*
X107965309Y-57140682D01*
X107965309Y-57140682D02*
X107992247Y-57544743D01*
X107992247Y-57544743D02*
X108073059Y-57463931D01*
X108073059Y-57463931D02*
X108153871Y-57436993D01*
X108153871Y-57436993D02*
X108207746Y-57436993D01*
X108207746Y-57436993D02*
X108288558Y-57463931D01*
X108288558Y-57463931D02*
X108423245Y-57598618D01*
X108423245Y-57598618D02*
X108450182Y-57679430D01*
X108450182Y-57679430D02*
X108450182Y-57733305D01*
X108450182Y-57733305D02*
X108423245Y-57814117D01*
X108423245Y-57814117D02*
X108261621Y-57975741D01*
X108261621Y-57975741D02*
X108180808Y-58002679D01*
X108180808Y-58002679D02*
X108126934Y-58002679D01*
X108126934Y-56979057D02*
X108881181Y-57356181D01*
X108881181Y-57356181D02*
X108504057Y-56601934D01*
X108638744Y-56467247D02*
X108988930Y-56117061D01*
X108988930Y-56117061D02*
X109015868Y-56521122D01*
X109015868Y-56521122D02*
X109096680Y-56440309D01*
X109096680Y-56440309D02*
X109177492Y-56413372D01*
X109177492Y-56413372D02*
X109231367Y-56413372D01*
X109231367Y-56413372D02*
X109312179Y-56440309D01*
X109312179Y-56440309D02*
X109446866Y-56574996D01*
X109446866Y-56574996D02*
X109473804Y-56655809D01*
X109473804Y-56655809D02*
X109473804Y-56709683D01*
X109473804Y-56709683D02*
X109446866Y-56790496D01*
X109446866Y-56790496D02*
X109285242Y-56952120D01*
X109285242Y-56952120D02*
X109204430Y-56979057D01*
X109204430Y-56979057D02*
X109150555Y-56979057D01*
X108563651Y-72943710D02*
X108105716Y-72862898D01*
X108240403Y-73266959D02*
X107674717Y-72701274D01*
X107674717Y-72701274D02*
X107890216Y-72485775D01*
X107890216Y-72485775D02*
X107971029Y-72458837D01*
X107971029Y-72458837D02*
X108024903Y-72458837D01*
X108024903Y-72458837D02*
X108105716Y-72485775D01*
X108105716Y-72485775D02*
X108186528Y-72566587D01*
X108186528Y-72566587D02*
X108213465Y-72647399D01*
X108213465Y-72647399D02*
X108213465Y-72701274D01*
X108213465Y-72701274D02*
X108186528Y-72782086D01*
X108186528Y-72782086D02*
X107971029Y-72997585D01*
X108240403Y-72135588D02*
X108698338Y-72593524D01*
X108698338Y-72593524D02*
X108779151Y-72620462D01*
X108779151Y-72620462D02*
X108833025Y-72620462D01*
X108833025Y-72620462D02*
X108913838Y-72593524D01*
X108913838Y-72593524D02*
X109021587Y-72485775D01*
X109021587Y-72485775D02*
X109048525Y-72404962D01*
X109048525Y-72404962D02*
X109048525Y-72351088D01*
X109048525Y-72351088D02*
X109021587Y-72270275D01*
X109021587Y-72270275D02*
X108563651Y-71812340D01*
X109398711Y-72108651D02*
X108833025Y-71542966D01*
X108833025Y-71542966D02*
X109721959Y-71785402D01*
X109721959Y-71785402D02*
X109156274Y-71219717D01*
X107822998Y-62246868D02*
X107742185Y-62273805D01*
X107742185Y-62273805D02*
X107661373Y-62354618D01*
X107661373Y-62354618D02*
X107607498Y-62462367D01*
X107607498Y-62462367D02*
X107607498Y-62570117D01*
X107607498Y-62570117D02*
X107634436Y-62650929D01*
X107634436Y-62650929D02*
X107715248Y-62785616D01*
X107715248Y-62785616D02*
X107796060Y-62866428D01*
X107796060Y-62866428D02*
X107930747Y-62947241D01*
X107930747Y-62947241D02*
X108011560Y-62974178D01*
X108011560Y-62974178D02*
X108119309Y-62974178D01*
X108119309Y-62974178D02*
X108227059Y-62920303D01*
X108227059Y-62920303D02*
X108280934Y-62866428D01*
X108280934Y-62866428D02*
X108334808Y-62758679D01*
X108334808Y-62758679D02*
X108334808Y-62704804D01*
X108334808Y-62704804D02*
X108146247Y-62516242D01*
X108146247Y-62516242D02*
X108038497Y-62623992D01*
X108631120Y-62516242D02*
X108065434Y-61950557D01*
X108065434Y-61950557D02*
X108280934Y-61735057D01*
X108280934Y-61735057D02*
X108361746Y-61708120D01*
X108361746Y-61708120D02*
X108415621Y-61708120D01*
X108415621Y-61708120D02*
X108496433Y-61735057D01*
X108496433Y-61735057D02*
X108577245Y-61815870D01*
X108577245Y-61815870D02*
X108604182Y-61896682D01*
X108604182Y-61896682D02*
X108604182Y-61950557D01*
X108604182Y-61950557D02*
X108577245Y-62031369D01*
X108577245Y-62031369D02*
X108361746Y-62246868D01*
X108658057Y-61465683D02*
X108658057Y-61411809D01*
X108658057Y-61411809D02*
X108684995Y-61330996D01*
X108684995Y-61330996D02*
X108819682Y-61196309D01*
X108819682Y-61196309D02*
X108900494Y-61169372D01*
X108900494Y-61169372D02*
X108954369Y-61169372D01*
X108954369Y-61169372D02*
X109035181Y-61196309D01*
X109035181Y-61196309D02*
X109089056Y-61250184D01*
X109089056Y-61250184D02*
X109142930Y-61357934D01*
X109142930Y-61357934D02*
X109142930Y-62004431D01*
X109142930Y-62004431D02*
X109493117Y-61654245D01*
X109493117Y-61007747D02*
X109412305Y-61034685D01*
X109412305Y-61034685D02*
X109358430Y-61034685D01*
X109358430Y-61034685D02*
X109277618Y-61007747D01*
X109277618Y-61007747D02*
X109250680Y-60980810D01*
X109250680Y-60980810D02*
X109223743Y-60899998D01*
X109223743Y-60899998D02*
X109223743Y-60846123D01*
X109223743Y-60846123D02*
X109250680Y-60765311D01*
X109250680Y-60765311D02*
X109358430Y-60657561D01*
X109358430Y-60657561D02*
X109439242Y-60630624D01*
X109439242Y-60630624D02*
X109493117Y-60630624D01*
X109493117Y-60630624D02*
X109573929Y-60657561D01*
X109573929Y-60657561D02*
X109600866Y-60684499D01*
X109600866Y-60684499D02*
X109627804Y-60765311D01*
X109627804Y-60765311D02*
X109627804Y-60819186D01*
X109627804Y-60819186D02*
X109600866Y-60899998D01*
X109600866Y-60899998D02*
X109493117Y-61007747D01*
X109493117Y-61007747D02*
X109466179Y-61088560D01*
X109466179Y-61088560D02*
X109466179Y-61142434D01*
X109466179Y-61142434D02*
X109493117Y-61223247D01*
X109493117Y-61223247D02*
X109600866Y-61330996D01*
X109600866Y-61330996D02*
X109681679Y-61357934D01*
X109681679Y-61357934D02*
X109735553Y-61357934D01*
X109735553Y-61357934D02*
X109816366Y-61330996D01*
X109816366Y-61330996D02*
X109924115Y-61223247D01*
X109924115Y-61223247D02*
X109951053Y-61142434D01*
X109951053Y-61142434D02*
X109951053Y-61088560D01*
X109951053Y-61088560D02*
X109924115Y-61007747D01*
X109924115Y-61007747D02*
X109816366Y-60899998D01*
X109816366Y-60899998D02*
X109735553Y-60873060D01*
X109735553Y-60873060D02*
X109681679Y-60873060D01*
X109681679Y-60873060D02*
X109600866Y-60899998D01*
X107876873Y-65741240D02*
X108146247Y-65471866D01*
X107984623Y-65956739D02*
X107607499Y-65202492D01*
X107607499Y-65202492D02*
X108361746Y-65579615D01*
X108307871Y-64555994D02*
X108227059Y-64582932D01*
X108227059Y-64582932D02*
X108146247Y-64663744D01*
X108146247Y-64663744D02*
X108092372Y-64771494D01*
X108092372Y-64771494D02*
X108092372Y-64879243D01*
X108092372Y-64879243D02*
X108119310Y-64960055D01*
X108119310Y-64960055D02*
X108200122Y-65094742D01*
X108200122Y-65094742D02*
X108280934Y-65175555D01*
X108280934Y-65175555D02*
X108415621Y-65256367D01*
X108415621Y-65256367D02*
X108496433Y-65283304D01*
X108496433Y-65283304D02*
X108604183Y-65283304D01*
X108604183Y-65283304D02*
X108711932Y-65229429D01*
X108711932Y-65229429D02*
X108765807Y-65175555D01*
X108765807Y-65175555D02*
X108819682Y-65067805D01*
X108819682Y-65067805D02*
X108819682Y-65013930D01*
X108819682Y-65013930D02*
X108631120Y-64825368D01*
X108631120Y-64825368D02*
X108523371Y-64933118D01*
X109115993Y-64825368D02*
X108550308Y-64259683D01*
X108550308Y-64259683D02*
X109439242Y-64502120D01*
X109439242Y-64502120D02*
X108873557Y-63936434D01*
X109708616Y-64232746D02*
X109142931Y-63667060D01*
X109142931Y-63667060D02*
X109277618Y-63532373D01*
X109277618Y-63532373D02*
X109385367Y-63478498D01*
X109385367Y-63478498D02*
X109493117Y-63478498D01*
X109493117Y-63478498D02*
X109573929Y-63505436D01*
X109573929Y-63505436D02*
X109708616Y-63586248D01*
X109708616Y-63586248D02*
X109789428Y-63667060D01*
X109789428Y-63667060D02*
X109870241Y-63801747D01*
X109870241Y-63801747D02*
X109897178Y-63882560D01*
X109897178Y-63882560D02*
X109897178Y-63990309D01*
X109897178Y-63990309D02*
X109843303Y-64098059D01*
X109843303Y-64098059D02*
X109708616Y-64232746D01*
X107822998Y-67590868D02*
X107742185Y-67617805D01*
X107742185Y-67617805D02*
X107661373Y-67698618D01*
X107661373Y-67698618D02*
X107607498Y-67806367D01*
X107607498Y-67806367D02*
X107607498Y-67914117D01*
X107607498Y-67914117D02*
X107634436Y-67994929D01*
X107634436Y-67994929D02*
X107715248Y-68129616D01*
X107715248Y-68129616D02*
X107796060Y-68210428D01*
X107796060Y-68210428D02*
X107930747Y-68291241D01*
X107930747Y-68291241D02*
X108011560Y-68318178D01*
X108011560Y-68318178D02*
X108119309Y-68318178D01*
X108119309Y-68318178D02*
X108227059Y-68264303D01*
X108227059Y-68264303D02*
X108280934Y-68210428D01*
X108280934Y-68210428D02*
X108334808Y-68102679D01*
X108334808Y-68102679D02*
X108334808Y-68048804D01*
X108334808Y-68048804D02*
X108146247Y-67860242D01*
X108146247Y-67860242D02*
X108038497Y-67967992D01*
X108631120Y-67860242D02*
X108065434Y-67294557D01*
X108065434Y-67294557D02*
X108280934Y-67079057D01*
X108280934Y-67079057D02*
X108361746Y-67052120D01*
X108361746Y-67052120D02*
X108415621Y-67052120D01*
X108415621Y-67052120D02*
X108496433Y-67079057D01*
X108496433Y-67079057D02*
X108577245Y-67159870D01*
X108577245Y-67159870D02*
X108604182Y-67240682D01*
X108604182Y-67240682D02*
X108604182Y-67294557D01*
X108604182Y-67294557D02*
X108577245Y-67375369D01*
X108577245Y-67375369D02*
X108361746Y-67590868D01*
X108658057Y-66809683D02*
X108658057Y-66755809D01*
X108658057Y-66755809D02*
X108684995Y-66674996D01*
X108684995Y-66674996D02*
X108819682Y-66540309D01*
X108819682Y-66540309D02*
X108900494Y-66513372D01*
X108900494Y-66513372D02*
X108954369Y-66513372D01*
X108954369Y-66513372D02*
X109035181Y-66540309D01*
X109035181Y-66540309D02*
X109089056Y-66594184D01*
X109089056Y-66594184D02*
X109142930Y-66701934D01*
X109142930Y-66701934D02*
X109142930Y-67348431D01*
X109142930Y-67348431D02*
X109493117Y-66998245D01*
X109115993Y-66243998D02*
X109493117Y-65866874D01*
X109493117Y-65866874D02*
X109816366Y-66674996D01*
X107822998Y-70120868D02*
X107742185Y-70147805D01*
X107742185Y-70147805D02*
X107661373Y-70228618D01*
X107661373Y-70228618D02*
X107607498Y-70336367D01*
X107607498Y-70336367D02*
X107607498Y-70444117D01*
X107607498Y-70444117D02*
X107634436Y-70524929D01*
X107634436Y-70524929D02*
X107715248Y-70659616D01*
X107715248Y-70659616D02*
X107796060Y-70740428D01*
X107796060Y-70740428D02*
X107930747Y-70821241D01*
X107930747Y-70821241D02*
X108011560Y-70848178D01*
X108011560Y-70848178D02*
X108119309Y-70848178D01*
X108119309Y-70848178D02*
X108227059Y-70794303D01*
X108227059Y-70794303D02*
X108280934Y-70740428D01*
X108280934Y-70740428D02*
X108334808Y-70632679D01*
X108334808Y-70632679D02*
X108334808Y-70578804D01*
X108334808Y-70578804D02*
X108146247Y-70390242D01*
X108146247Y-70390242D02*
X108038497Y-70497992D01*
X108631120Y-70390242D02*
X108065434Y-69824557D01*
X108065434Y-69824557D02*
X108280934Y-69609057D01*
X108280934Y-69609057D02*
X108361746Y-69582120D01*
X108361746Y-69582120D02*
X108415621Y-69582120D01*
X108415621Y-69582120D02*
X108496433Y-69609057D01*
X108496433Y-69609057D02*
X108577245Y-69689870D01*
X108577245Y-69689870D02*
X108604182Y-69770682D01*
X108604182Y-69770682D02*
X108604182Y-69824557D01*
X108604182Y-69824557D02*
X108577245Y-69905369D01*
X108577245Y-69905369D02*
X108361746Y-70120868D01*
X108658057Y-69339683D02*
X108658057Y-69285809D01*
X108658057Y-69285809D02*
X108684995Y-69204996D01*
X108684995Y-69204996D02*
X108819682Y-69070309D01*
X108819682Y-69070309D02*
X108900494Y-69043372D01*
X108900494Y-69043372D02*
X108954369Y-69043372D01*
X108954369Y-69043372D02*
X109035181Y-69070309D01*
X109035181Y-69070309D02*
X109089056Y-69124184D01*
X109089056Y-69124184D02*
X109142930Y-69231934D01*
X109142930Y-69231934D02*
X109142930Y-69878431D01*
X109142930Y-69878431D02*
X109493117Y-69528245D01*
X109412305Y-68477686D02*
X109304555Y-68585436D01*
X109304555Y-68585436D02*
X109277618Y-68666248D01*
X109277618Y-68666248D02*
X109277618Y-68720123D01*
X109277618Y-68720123D02*
X109304555Y-68854810D01*
X109304555Y-68854810D02*
X109385367Y-68989497D01*
X109385367Y-68989497D02*
X109600866Y-69204996D01*
X109600866Y-69204996D02*
X109681679Y-69231934D01*
X109681679Y-69231934D02*
X109735553Y-69231934D01*
X109735553Y-69231934D02*
X109816366Y-69204996D01*
X109816366Y-69204996D02*
X109924115Y-69097247D01*
X109924115Y-69097247D02*
X109951053Y-69016434D01*
X109951053Y-69016434D02*
X109951053Y-68962560D01*
X109951053Y-68962560D02*
X109924115Y-68881747D01*
X109924115Y-68881747D02*
X109789428Y-68747060D01*
X109789428Y-68747060D02*
X109708616Y-68720123D01*
X109708616Y-68720123D02*
X109654741Y-68720123D01*
X109654741Y-68720123D02*
X109573929Y-68747060D01*
X109573929Y-68747060D02*
X109466179Y-68854810D01*
X109466179Y-68854810D02*
X109439242Y-68935622D01*
X109439242Y-68935622D02*
X109439242Y-68989497D01*
X109439242Y-68989497D02*
X109466179Y-69070309D01*
X107822998Y-75200868D02*
X107742185Y-75227805D01*
X107742185Y-75227805D02*
X107661373Y-75308618D01*
X107661373Y-75308618D02*
X107607498Y-75416367D01*
X107607498Y-75416367D02*
X107607498Y-75524117D01*
X107607498Y-75524117D02*
X107634436Y-75604929D01*
X107634436Y-75604929D02*
X107715248Y-75739616D01*
X107715248Y-75739616D02*
X107796060Y-75820428D01*
X107796060Y-75820428D02*
X107930747Y-75901241D01*
X107930747Y-75901241D02*
X108011560Y-75928178D01*
X108011560Y-75928178D02*
X108119309Y-75928178D01*
X108119309Y-75928178D02*
X108227059Y-75874303D01*
X108227059Y-75874303D02*
X108280934Y-75820428D01*
X108280934Y-75820428D02*
X108334808Y-75712679D01*
X108334808Y-75712679D02*
X108334808Y-75658804D01*
X108334808Y-75658804D02*
X108146247Y-75470242D01*
X108146247Y-75470242D02*
X108038497Y-75577992D01*
X108631120Y-75470242D02*
X108065434Y-74904557D01*
X108065434Y-74904557D02*
X108280934Y-74689057D01*
X108280934Y-74689057D02*
X108361746Y-74662120D01*
X108361746Y-74662120D02*
X108415621Y-74662120D01*
X108415621Y-74662120D02*
X108496433Y-74689057D01*
X108496433Y-74689057D02*
X108577245Y-74769870D01*
X108577245Y-74769870D02*
X108604182Y-74850682D01*
X108604182Y-74850682D02*
X108604182Y-74904557D01*
X108604182Y-74904557D02*
X108577245Y-74985369D01*
X108577245Y-74985369D02*
X108361746Y-75200868D01*
X108658057Y-74419683D02*
X108658057Y-74365809D01*
X108658057Y-74365809D02*
X108684995Y-74284996D01*
X108684995Y-74284996D02*
X108819682Y-74150309D01*
X108819682Y-74150309D02*
X108900494Y-74123372D01*
X108900494Y-74123372D02*
X108954369Y-74123372D01*
X108954369Y-74123372D02*
X109035181Y-74150309D01*
X109035181Y-74150309D02*
X109089056Y-74204184D01*
X109089056Y-74204184D02*
X109142930Y-74311934D01*
X109142930Y-74311934D02*
X109142930Y-74958431D01*
X109142930Y-74958431D02*
X109493117Y-74608245D01*
X109196805Y-73880935D02*
X109196805Y-73827060D01*
X109196805Y-73827060D02*
X109223743Y-73746248D01*
X109223743Y-73746248D02*
X109358430Y-73611561D01*
X109358430Y-73611561D02*
X109439242Y-73584624D01*
X109439242Y-73584624D02*
X109493117Y-73584624D01*
X109493117Y-73584624D02*
X109573929Y-73611561D01*
X109573929Y-73611561D02*
X109627804Y-73665436D01*
X109627804Y-73665436D02*
X109681679Y-73773186D01*
X109681679Y-73773186D02*
X109681679Y-74419683D01*
X109681679Y-74419683D02*
X110031865Y-74069497D01*
X107822998Y-80290868D02*
X107742185Y-80317805D01*
X107742185Y-80317805D02*
X107661373Y-80398618D01*
X107661373Y-80398618D02*
X107607498Y-80506367D01*
X107607498Y-80506367D02*
X107607498Y-80614117D01*
X107607498Y-80614117D02*
X107634436Y-80694929D01*
X107634436Y-80694929D02*
X107715248Y-80829616D01*
X107715248Y-80829616D02*
X107796060Y-80910428D01*
X107796060Y-80910428D02*
X107930747Y-80991241D01*
X107930747Y-80991241D02*
X108011560Y-81018178D01*
X108011560Y-81018178D02*
X108119309Y-81018178D01*
X108119309Y-81018178D02*
X108227059Y-80964303D01*
X108227059Y-80964303D02*
X108280934Y-80910428D01*
X108280934Y-80910428D02*
X108334808Y-80802679D01*
X108334808Y-80802679D02*
X108334808Y-80748804D01*
X108334808Y-80748804D02*
X108146247Y-80560242D01*
X108146247Y-80560242D02*
X108038497Y-80667992D01*
X108631120Y-80560242D02*
X108065434Y-79994557D01*
X108065434Y-79994557D02*
X108280934Y-79779057D01*
X108280934Y-79779057D02*
X108361746Y-79752120D01*
X108361746Y-79752120D02*
X108415621Y-79752120D01*
X108415621Y-79752120D02*
X108496433Y-79779057D01*
X108496433Y-79779057D02*
X108577245Y-79859870D01*
X108577245Y-79859870D02*
X108604182Y-79940682D01*
X108604182Y-79940682D02*
X108604182Y-79994557D01*
X108604182Y-79994557D02*
X108577245Y-80075369D01*
X108577245Y-80075369D02*
X108361746Y-80290868D01*
X108658057Y-79509683D02*
X108658057Y-79455809D01*
X108658057Y-79455809D02*
X108684995Y-79374996D01*
X108684995Y-79374996D02*
X108819682Y-79240309D01*
X108819682Y-79240309D02*
X108900494Y-79213372D01*
X108900494Y-79213372D02*
X108954369Y-79213372D01*
X108954369Y-79213372D02*
X109035181Y-79240309D01*
X109035181Y-79240309D02*
X109089056Y-79294184D01*
X109089056Y-79294184D02*
X109142930Y-79401934D01*
X109142930Y-79401934D02*
X109142930Y-80048431D01*
X109142930Y-80048431D02*
X109493117Y-79698245D01*
X110031865Y-79159497D02*
X109708616Y-79482746D01*
X109870240Y-79321121D02*
X109304555Y-78755436D01*
X109304555Y-78755436D02*
X109331492Y-78890123D01*
X109331492Y-78890123D02*
X109331492Y-78997873D01*
X109331492Y-78997873D02*
X109304555Y-79078685D01*
X107822998Y-82820868D02*
X107742185Y-82847805D01*
X107742185Y-82847805D02*
X107661373Y-82928618D01*
X107661373Y-82928618D02*
X107607498Y-83036367D01*
X107607498Y-83036367D02*
X107607498Y-83144117D01*
X107607498Y-83144117D02*
X107634436Y-83224929D01*
X107634436Y-83224929D02*
X107715248Y-83359616D01*
X107715248Y-83359616D02*
X107796060Y-83440428D01*
X107796060Y-83440428D02*
X107930747Y-83521241D01*
X107930747Y-83521241D02*
X108011560Y-83548178D01*
X108011560Y-83548178D02*
X108119309Y-83548178D01*
X108119309Y-83548178D02*
X108227059Y-83494303D01*
X108227059Y-83494303D02*
X108280934Y-83440428D01*
X108280934Y-83440428D02*
X108334808Y-83332679D01*
X108334808Y-83332679D02*
X108334808Y-83278804D01*
X108334808Y-83278804D02*
X108146247Y-83090242D01*
X108146247Y-83090242D02*
X108038497Y-83197992D01*
X108631120Y-83090242D02*
X108065434Y-82524557D01*
X108065434Y-82524557D02*
X108280934Y-82309057D01*
X108280934Y-82309057D02*
X108361746Y-82282120D01*
X108361746Y-82282120D02*
X108415621Y-82282120D01*
X108415621Y-82282120D02*
X108496433Y-82309057D01*
X108496433Y-82309057D02*
X108577245Y-82389870D01*
X108577245Y-82389870D02*
X108604182Y-82470682D01*
X108604182Y-82470682D02*
X108604182Y-82524557D01*
X108604182Y-82524557D02*
X108577245Y-82605369D01*
X108577245Y-82605369D02*
X108361746Y-82820868D01*
X108658057Y-82039683D02*
X108658057Y-81985809D01*
X108658057Y-81985809D02*
X108684995Y-81904996D01*
X108684995Y-81904996D02*
X108819682Y-81770309D01*
X108819682Y-81770309D02*
X108900494Y-81743372D01*
X108900494Y-81743372D02*
X108954369Y-81743372D01*
X108954369Y-81743372D02*
X109035181Y-81770309D01*
X109035181Y-81770309D02*
X109089056Y-81824184D01*
X109089056Y-81824184D02*
X109142930Y-81931934D01*
X109142930Y-81931934D02*
X109142930Y-82578431D01*
X109142930Y-82578431D02*
X109493117Y-82228245D01*
X109277618Y-81312373D02*
X109331492Y-81258499D01*
X109331492Y-81258499D02*
X109412305Y-81231561D01*
X109412305Y-81231561D02*
X109466179Y-81231561D01*
X109466179Y-81231561D02*
X109546992Y-81258499D01*
X109546992Y-81258499D02*
X109681679Y-81339311D01*
X109681679Y-81339311D02*
X109816366Y-81473998D01*
X109816366Y-81473998D02*
X109897178Y-81608685D01*
X109897178Y-81608685D02*
X109924115Y-81689497D01*
X109924115Y-81689497D02*
X109924115Y-81743372D01*
X109924115Y-81743372D02*
X109897178Y-81824184D01*
X109897178Y-81824184D02*
X109843303Y-81878059D01*
X109843303Y-81878059D02*
X109762491Y-81904996D01*
X109762491Y-81904996D02*
X109708616Y-81904996D01*
X109708616Y-81904996D02*
X109627804Y-81878059D01*
X109627804Y-81878059D02*
X109493117Y-81797247D01*
X109493117Y-81797247D02*
X109358430Y-81662560D01*
X109358430Y-81662560D02*
X109277618Y-81527873D01*
X109277618Y-81527873D02*
X109250680Y-81447060D01*
X109250680Y-81447060D02*
X109250680Y-81393186D01*
X109250680Y-81393186D02*
X109277618Y-81312373D01*
X107822998Y-85360868D02*
X107742185Y-85387805D01*
X107742185Y-85387805D02*
X107661373Y-85468618D01*
X107661373Y-85468618D02*
X107607498Y-85576367D01*
X107607498Y-85576367D02*
X107607498Y-85684117D01*
X107607498Y-85684117D02*
X107634436Y-85764929D01*
X107634436Y-85764929D02*
X107715248Y-85899616D01*
X107715248Y-85899616D02*
X107796060Y-85980428D01*
X107796060Y-85980428D02*
X107930747Y-86061241D01*
X107930747Y-86061241D02*
X108011560Y-86088178D01*
X108011560Y-86088178D02*
X108119309Y-86088178D01*
X108119309Y-86088178D02*
X108227059Y-86034303D01*
X108227059Y-86034303D02*
X108280934Y-85980428D01*
X108280934Y-85980428D02*
X108334808Y-85872679D01*
X108334808Y-85872679D02*
X108334808Y-85818804D01*
X108334808Y-85818804D02*
X108146247Y-85630242D01*
X108146247Y-85630242D02*
X108038497Y-85737992D01*
X108631120Y-85630242D02*
X108065434Y-85064557D01*
X108065434Y-85064557D02*
X108280934Y-84849057D01*
X108280934Y-84849057D02*
X108361746Y-84822120D01*
X108361746Y-84822120D02*
X108415621Y-84822120D01*
X108415621Y-84822120D02*
X108496433Y-84849057D01*
X108496433Y-84849057D02*
X108577245Y-84929870D01*
X108577245Y-84929870D02*
X108604182Y-85010682D01*
X108604182Y-85010682D02*
X108604182Y-85064557D01*
X108604182Y-85064557D02*
X108577245Y-85145369D01*
X108577245Y-85145369D02*
X108361746Y-85360868D01*
X109493117Y-84768245D02*
X109169868Y-85091494D01*
X109331492Y-84929870D02*
X108765807Y-84364184D01*
X108765807Y-84364184D02*
X108792744Y-84498871D01*
X108792744Y-84498871D02*
X108792744Y-84606621D01*
X108792744Y-84606621D02*
X108765807Y-84687433D01*
X109762491Y-84498871D02*
X109870240Y-84391121D01*
X109870240Y-84391121D02*
X109897178Y-84310309D01*
X109897178Y-84310309D02*
X109897178Y-84256434D01*
X109897178Y-84256434D02*
X109870240Y-84121747D01*
X109870240Y-84121747D02*
X109789428Y-83987060D01*
X109789428Y-83987060D02*
X109573929Y-83771561D01*
X109573929Y-83771561D02*
X109493117Y-83744624D01*
X109493117Y-83744624D02*
X109439242Y-83744624D01*
X109439242Y-83744624D02*
X109358430Y-83771561D01*
X109358430Y-83771561D02*
X109250680Y-83879311D01*
X109250680Y-83879311D02*
X109223743Y-83960123D01*
X109223743Y-83960123D02*
X109223743Y-84013998D01*
X109223743Y-84013998D02*
X109250680Y-84094810D01*
X109250680Y-84094810D02*
X109385367Y-84229497D01*
X109385367Y-84229497D02*
X109466179Y-84256434D01*
X109466179Y-84256434D02*
X109520054Y-84256434D01*
X109520054Y-84256434D02*
X109600866Y-84229497D01*
X109600866Y-84229497D02*
X109708616Y-84121747D01*
X109708616Y-84121747D02*
X109735553Y-84040935D01*
X109735553Y-84040935D02*
X109735553Y-83987060D01*
X109735553Y-83987060D02*
X109708616Y-83906248D01*
X107822998Y-87900868D02*
X107742185Y-87927805D01*
X107742185Y-87927805D02*
X107661373Y-88008618D01*
X107661373Y-88008618D02*
X107607498Y-88116367D01*
X107607498Y-88116367D02*
X107607498Y-88224117D01*
X107607498Y-88224117D02*
X107634436Y-88304929D01*
X107634436Y-88304929D02*
X107715248Y-88439616D01*
X107715248Y-88439616D02*
X107796060Y-88520428D01*
X107796060Y-88520428D02*
X107930747Y-88601241D01*
X107930747Y-88601241D02*
X108011560Y-88628178D01*
X108011560Y-88628178D02*
X108119309Y-88628178D01*
X108119309Y-88628178D02*
X108227059Y-88574303D01*
X108227059Y-88574303D02*
X108280934Y-88520428D01*
X108280934Y-88520428D02*
X108334808Y-88412679D01*
X108334808Y-88412679D02*
X108334808Y-88358804D01*
X108334808Y-88358804D02*
X108146247Y-88170242D01*
X108146247Y-88170242D02*
X108038497Y-88277992D01*
X108631120Y-88170242D02*
X108065434Y-87604557D01*
X108065434Y-87604557D02*
X108280934Y-87389057D01*
X108280934Y-87389057D02*
X108361746Y-87362120D01*
X108361746Y-87362120D02*
X108415621Y-87362120D01*
X108415621Y-87362120D02*
X108496433Y-87389057D01*
X108496433Y-87389057D02*
X108577245Y-87469870D01*
X108577245Y-87469870D02*
X108604182Y-87550682D01*
X108604182Y-87550682D02*
X108604182Y-87604557D01*
X108604182Y-87604557D02*
X108577245Y-87685369D01*
X108577245Y-87685369D02*
X108361746Y-87900868D01*
X109493117Y-87308245D02*
X109169868Y-87631494D01*
X109331492Y-87469870D02*
X108765807Y-86904184D01*
X108765807Y-86904184D02*
X108792744Y-87038871D01*
X108792744Y-87038871D02*
X108792744Y-87146621D01*
X108792744Y-87146621D02*
X108765807Y-87227433D01*
X109493117Y-86661747D02*
X109412305Y-86688685D01*
X109412305Y-86688685D02*
X109358430Y-86688685D01*
X109358430Y-86688685D02*
X109277618Y-86661747D01*
X109277618Y-86661747D02*
X109250680Y-86634810D01*
X109250680Y-86634810D02*
X109223743Y-86553998D01*
X109223743Y-86553998D02*
X109223743Y-86500123D01*
X109223743Y-86500123D02*
X109250680Y-86419311D01*
X109250680Y-86419311D02*
X109358430Y-86311561D01*
X109358430Y-86311561D02*
X109439242Y-86284624D01*
X109439242Y-86284624D02*
X109493117Y-86284624D01*
X109493117Y-86284624D02*
X109573929Y-86311561D01*
X109573929Y-86311561D02*
X109600866Y-86338499D01*
X109600866Y-86338499D02*
X109627804Y-86419311D01*
X109627804Y-86419311D02*
X109627804Y-86473186D01*
X109627804Y-86473186D02*
X109600866Y-86553998D01*
X109600866Y-86553998D02*
X109493117Y-86661747D01*
X109493117Y-86661747D02*
X109466179Y-86742560D01*
X109466179Y-86742560D02*
X109466179Y-86796434D01*
X109466179Y-86796434D02*
X109493117Y-86877247D01*
X109493117Y-86877247D02*
X109600866Y-86984996D01*
X109600866Y-86984996D02*
X109681679Y-87011934D01*
X109681679Y-87011934D02*
X109735553Y-87011934D01*
X109735553Y-87011934D02*
X109816366Y-86984996D01*
X109816366Y-86984996D02*
X109924115Y-86877247D01*
X109924115Y-86877247D02*
X109951053Y-86796434D01*
X109951053Y-86796434D02*
X109951053Y-86742560D01*
X109951053Y-86742560D02*
X109924115Y-86661747D01*
X109924115Y-86661747D02*
X109816366Y-86553998D01*
X109816366Y-86553998D02*
X109735553Y-86527060D01*
X109735553Y-86527060D02*
X109681679Y-86527060D01*
X109681679Y-86527060D02*
X109600866Y-86553998D01*
X107822998Y-92980868D02*
X107742185Y-93007805D01*
X107742185Y-93007805D02*
X107661373Y-93088618D01*
X107661373Y-93088618D02*
X107607498Y-93196367D01*
X107607498Y-93196367D02*
X107607498Y-93304117D01*
X107607498Y-93304117D02*
X107634436Y-93384929D01*
X107634436Y-93384929D02*
X107715248Y-93519616D01*
X107715248Y-93519616D02*
X107796060Y-93600428D01*
X107796060Y-93600428D02*
X107930747Y-93681241D01*
X107930747Y-93681241D02*
X108011560Y-93708178D01*
X108011560Y-93708178D02*
X108119309Y-93708178D01*
X108119309Y-93708178D02*
X108227059Y-93654303D01*
X108227059Y-93654303D02*
X108280934Y-93600428D01*
X108280934Y-93600428D02*
X108334808Y-93492679D01*
X108334808Y-93492679D02*
X108334808Y-93438804D01*
X108334808Y-93438804D02*
X108146247Y-93250242D01*
X108146247Y-93250242D02*
X108038497Y-93357992D01*
X108631120Y-93250242D02*
X108065434Y-92684557D01*
X108065434Y-92684557D02*
X108280934Y-92469057D01*
X108280934Y-92469057D02*
X108361746Y-92442120D01*
X108361746Y-92442120D02*
X108415621Y-92442120D01*
X108415621Y-92442120D02*
X108496433Y-92469057D01*
X108496433Y-92469057D02*
X108577245Y-92549870D01*
X108577245Y-92549870D02*
X108604182Y-92630682D01*
X108604182Y-92630682D02*
X108604182Y-92684557D01*
X108604182Y-92684557D02*
X108577245Y-92765369D01*
X108577245Y-92765369D02*
X108361746Y-92980868D01*
X109493117Y-92388245D02*
X109169868Y-92711494D01*
X109331492Y-92549870D02*
X108765807Y-91984184D01*
X108765807Y-91984184D02*
X108792744Y-92118871D01*
X108792744Y-92118871D02*
X108792744Y-92226621D01*
X108792744Y-92226621D02*
X108765807Y-92307433D01*
X109115993Y-91633998D02*
X109493117Y-91256874D01*
X109493117Y-91256874D02*
X109816366Y-92064996D01*
X107822998Y-95520868D02*
X107742185Y-95547805D01*
X107742185Y-95547805D02*
X107661373Y-95628618D01*
X107661373Y-95628618D02*
X107607498Y-95736367D01*
X107607498Y-95736367D02*
X107607498Y-95844117D01*
X107607498Y-95844117D02*
X107634436Y-95924929D01*
X107634436Y-95924929D02*
X107715248Y-96059616D01*
X107715248Y-96059616D02*
X107796060Y-96140428D01*
X107796060Y-96140428D02*
X107930747Y-96221241D01*
X107930747Y-96221241D02*
X108011560Y-96248178D01*
X108011560Y-96248178D02*
X108119309Y-96248178D01*
X108119309Y-96248178D02*
X108227059Y-96194303D01*
X108227059Y-96194303D02*
X108280934Y-96140428D01*
X108280934Y-96140428D02*
X108334808Y-96032679D01*
X108334808Y-96032679D02*
X108334808Y-95978804D01*
X108334808Y-95978804D02*
X108146247Y-95790242D01*
X108146247Y-95790242D02*
X108038497Y-95897992D01*
X108631120Y-95790242D02*
X108065434Y-95224557D01*
X108065434Y-95224557D02*
X108280934Y-95009057D01*
X108280934Y-95009057D02*
X108361746Y-94982120D01*
X108361746Y-94982120D02*
X108415621Y-94982120D01*
X108415621Y-94982120D02*
X108496433Y-95009057D01*
X108496433Y-95009057D02*
X108577245Y-95089870D01*
X108577245Y-95089870D02*
X108604182Y-95170682D01*
X108604182Y-95170682D02*
X108604182Y-95224557D01*
X108604182Y-95224557D02*
X108577245Y-95305369D01*
X108577245Y-95305369D02*
X108361746Y-95520868D01*
X109493117Y-94928245D02*
X109169868Y-95251494D01*
X109331492Y-95089870D02*
X108765807Y-94524184D01*
X108765807Y-94524184D02*
X108792744Y-94658871D01*
X108792744Y-94658871D02*
X108792744Y-94766621D01*
X108792744Y-94766621D02*
X108765807Y-94847433D01*
X109412305Y-93877686D02*
X109304555Y-93985436D01*
X109304555Y-93985436D02*
X109277618Y-94066248D01*
X109277618Y-94066248D02*
X109277618Y-94120123D01*
X109277618Y-94120123D02*
X109304555Y-94254810D01*
X109304555Y-94254810D02*
X109385367Y-94389497D01*
X109385367Y-94389497D02*
X109600866Y-94604996D01*
X109600866Y-94604996D02*
X109681679Y-94631934D01*
X109681679Y-94631934D02*
X109735553Y-94631934D01*
X109735553Y-94631934D02*
X109816366Y-94604996D01*
X109816366Y-94604996D02*
X109924115Y-94497247D01*
X109924115Y-94497247D02*
X109951053Y-94416434D01*
X109951053Y-94416434D02*
X109951053Y-94362560D01*
X109951053Y-94362560D02*
X109924115Y-94281747D01*
X109924115Y-94281747D02*
X109789428Y-94147060D01*
X109789428Y-94147060D02*
X109708616Y-94120123D01*
X109708616Y-94120123D02*
X109654741Y-94120123D01*
X109654741Y-94120123D02*
X109573929Y-94147060D01*
X109573929Y-94147060D02*
X109466179Y-94254810D01*
X109466179Y-94254810D02*
X109439242Y-94335622D01*
X109439242Y-94335622D02*
X109439242Y-94389497D01*
X109439242Y-94389497D02*
X109466179Y-94470309D01*
X107645749Y-50070242D02*
X108399996Y-50447366D01*
X108399996Y-50447366D02*
X108022873Y-49693118D01*
X108723245Y-50070242D02*
X108830995Y-50016367D01*
X108830995Y-50016367D02*
X108965682Y-49881680D01*
X108965682Y-49881680D02*
X108992619Y-49800868D01*
X108992619Y-49800868D02*
X108992619Y-49746993D01*
X108992619Y-49746993D02*
X108965682Y-49666181D01*
X108965682Y-49666181D02*
X108911807Y-49612306D01*
X108911807Y-49612306D02*
X108830995Y-49585369D01*
X108830995Y-49585369D02*
X108777120Y-49585369D01*
X108777120Y-49585369D02*
X108696308Y-49612306D01*
X108696308Y-49612306D02*
X108561621Y-49693118D01*
X108561621Y-49693118D02*
X108480808Y-49720056D01*
X108480808Y-49720056D02*
X108426934Y-49720056D01*
X108426934Y-49720056D02*
X108346121Y-49693118D01*
X108346121Y-49693118D02*
X108292247Y-49639244D01*
X108292247Y-49639244D02*
X108265309Y-49558431D01*
X108265309Y-49558431D02*
X108265309Y-49504557D01*
X108265309Y-49504557D02*
X108292247Y-49423744D01*
X108292247Y-49423744D02*
X108426934Y-49289057D01*
X108426934Y-49289057D02*
X108534683Y-49235183D01*
X109154244Y-49154370D02*
X109423618Y-49423744D01*
X108669370Y-49046621D02*
X109154244Y-49154370D01*
X109154244Y-49154370D02*
X109046494Y-48669497D01*
X109746866Y-49046621D02*
X109854616Y-48992746D01*
X109854616Y-48992746D02*
X109989303Y-48858059D01*
X109989303Y-48858059D02*
X110016240Y-48777247D01*
X110016240Y-48777247D02*
X110016240Y-48723372D01*
X110016240Y-48723372D02*
X109989303Y-48642560D01*
X109989303Y-48642560D02*
X109935428Y-48588685D01*
X109935428Y-48588685D02*
X109854616Y-48561748D01*
X109854616Y-48561748D02*
X109800741Y-48561748D01*
X109800741Y-48561748D02*
X109719929Y-48588685D01*
X109719929Y-48588685D02*
X109585242Y-48669497D01*
X109585242Y-48669497D02*
X109504430Y-48696435D01*
X109504430Y-48696435D02*
X109450555Y-48696435D01*
X109450555Y-48696435D02*
X109369743Y-48669497D01*
X109369743Y-48669497D02*
X109315868Y-48615622D01*
X109315868Y-48615622D02*
X109288930Y-48534810D01*
X109288930Y-48534810D02*
X109288930Y-48480935D01*
X109288930Y-48480935D02*
X109315868Y-48400123D01*
X109315868Y-48400123D02*
X109450555Y-48265436D01*
X109450555Y-48265436D02*
X109558304Y-48211561D01*
X107678406Y-47527585D02*
X108432653Y-47904709D01*
X108432653Y-47904709D02*
X108055529Y-47150462D01*
X108702027Y-47042712D02*
X108809776Y-46988838D01*
X108809776Y-46988838D02*
X108863651Y-46988838D01*
X108863651Y-46988838D02*
X108944463Y-47015775D01*
X108944463Y-47015775D02*
X109025276Y-47096587D01*
X109025276Y-47096587D02*
X109052213Y-47177399D01*
X109052213Y-47177399D02*
X109052213Y-47231274D01*
X109052213Y-47231274D02*
X109025276Y-47312086D01*
X109025276Y-47312086D02*
X108809776Y-47527586D01*
X108809776Y-47527586D02*
X108244091Y-46961900D01*
X108244091Y-46961900D02*
X108432653Y-46773338D01*
X108432653Y-46773338D02*
X108513465Y-46746401D01*
X108513465Y-46746401D02*
X108567340Y-46746401D01*
X108567340Y-46746401D02*
X108648152Y-46773338D01*
X108648152Y-46773338D02*
X108702027Y-46827213D01*
X108702027Y-46827213D02*
X108728964Y-46908025D01*
X108728964Y-46908025D02*
X108728964Y-46961900D01*
X108728964Y-46961900D02*
X108702027Y-47042712D01*
X108702027Y-47042712D02*
X108513465Y-47231274D01*
X108809776Y-46396215D02*
X109267712Y-46854151D01*
X109267712Y-46854151D02*
X109348524Y-46881088D01*
X109348524Y-46881088D02*
X109402399Y-46881088D01*
X109402399Y-46881088D02*
X109483211Y-46854151D01*
X109483211Y-46854151D02*
X109590961Y-46746401D01*
X109590961Y-46746401D02*
X109617898Y-46665589D01*
X109617898Y-46665589D02*
X109617898Y-46611714D01*
X109617898Y-46611714D02*
X109590961Y-46530902D01*
X109590961Y-46530902D02*
X109133025Y-46072966D01*
X109914210Y-46369277D02*
X110021959Y-46315403D01*
X110021959Y-46315403D02*
X110156646Y-46180716D01*
X110156646Y-46180716D02*
X110183584Y-46099903D01*
X110183584Y-46099903D02*
X110183584Y-46046029D01*
X110183584Y-46046029D02*
X110156646Y-45965216D01*
X110156646Y-45965216D02*
X110102771Y-45911342D01*
X110102771Y-45911342D02*
X110021959Y-45884404D01*
X110021959Y-45884404D02*
X109968084Y-45884404D01*
X109968084Y-45884404D02*
X109887272Y-45911342D01*
X109887272Y-45911342D02*
X109752585Y-45992154D01*
X109752585Y-45992154D02*
X109671773Y-46019091D01*
X109671773Y-46019091D02*
X109617898Y-46019091D01*
X109617898Y-46019091D02*
X109537086Y-45992154D01*
X109537086Y-45992154D02*
X109483211Y-45938279D01*
X109483211Y-45938279D02*
X109456274Y-45857467D01*
X109456274Y-45857467D02*
X109456274Y-45803592D01*
X109456274Y-45803592D02*
X109483211Y-45722780D01*
X109483211Y-45722780D02*
X109617898Y-45588093D01*
X109617898Y-45588093D02*
X109725648Y-45534218D01*
X107647407Y-54958584D02*
X107997593Y-54608398D01*
X107997593Y-54608398D02*
X108024531Y-55012459D01*
X108024531Y-55012459D02*
X108105343Y-54931646D01*
X108105343Y-54931646D02*
X108186155Y-54904709D01*
X108186155Y-54904709D02*
X108240030Y-54904709D01*
X108240030Y-54904709D02*
X108320842Y-54931646D01*
X108320842Y-54931646D02*
X108455529Y-55066333D01*
X108455529Y-55066333D02*
X108482467Y-55147146D01*
X108482467Y-55147146D02*
X108482467Y-55201020D01*
X108482467Y-55201020D02*
X108455529Y-55281833D01*
X108455529Y-55281833D02*
X108293905Y-55443457D01*
X108293905Y-55443457D02*
X108213093Y-55470394D01*
X108213093Y-55470394D02*
X108159218Y-55470394D01*
X108159218Y-54446773D02*
X108913465Y-54823897D01*
X108913465Y-54823897D02*
X108536342Y-54069649D01*
X108671028Y-53934963D02*
X109021215Y-53584776D01*
X109021215Y-53584776D02*
X109048152Y-53988837D01*
X109048152Y-53988837D02*
X109128964Y-53908025D01*
X109128964Y-53908025D02*
X109209776Y-53881088D01*
X109209776Y-53881088D02*
X109263651Y-53881088D01*
X109263651Y-53881088D02*
X109344464Y-53908025D01*
X109344464Y-53908025D02*
X109479151Y-54042712D01*
X109479151Y-54042712D02*
X109506088Y-54123524D01*
X109506088Y-54123524D02*
X109506088Y-54177399D01*
X109506088Y-54177399D02*
X109479151Y-54258211D01*
X109479151Y-54258211D02*
X109317526Y-54419836D01*
X109317526Y-54419836D02*
X109236714Y-54446773D01*
X109236714Y-54446773D02*
X109182839Y-54446773D01*
X109748525Y-54096587D02*
X110179523Y-53665588D01*
X109964024Y-53180715D02*
X110152586Y-52992153D01*
X110529709Y-53207652D02*
X110260335Y-53477026D01*
X110260335Y-53477026D02*
X109694650Y-52911341D01*
X109694650Y-52911341D02*
X109964024Y-52641967D01*
X110772146Y-52965215D02*
X110206461Y-52399530D01*
X110206461Y-52399530D02*
X111095395Y-52641967D01*
X111095395Y-52641967D02*
X110529710Y-52076281D01*
X107880064Y-60534049D02*
X108149438Y-60264675D01*
X107987813Y-60749549D02*
X107610690Y-59995301D01*
X107610690Y-59995301D02*
X108364937Y-60372425D01*
X108553499Y-60183863D02*
X107987813Y-59618178D01*
X107987813Y-59618178D02*
X108122500Y-59483491D01*
X108122500Y-59483491D02*
X108230250Y-59429616D01*
X108230250Y-59429616D02*
X108337999Y-59429616D01*
X108337999Y-59429616D02*
X108418812Y-59456553D01*
X108418812Y-59456553D02*
X108553499Y-59537366D01*
X108553499Y-59537366D02*
X108634311Y-59618178D01*
X108634311Y-59618178D02*
X108715123Y-59752865D01*
X108715123Y-59752865D02*
X108742060Y-59833677D01*
X108742060Y-59833677D02*
X108742060Y-59941427D01*
X108742060Y-59941427D02*
X108688186Y-60049176D01*
X108688186Y-60049176D02*
X108553499Y-60183863D01*
X109388558Y-59241054D02*
X109388558Y-59294929D01*
X109388558Y-59294929D02*
X109334683Y-59402679D01*
X109334683Y-59402679D02*
X109280808Y-59456553D01*
X109280808Y-59456553D02*
X109173059Y-59510428D01*
X109173059Y-59510428D02*
X109065309Y-59510428D01*
X109065309Y-59510428D02*
X108984497Y-59483491D01*
X108984497Y-59483491D02*
X108849810Y-59402679D01*
X108849810Y-59402679D02*
X108768998Y-59321866D01*
X108768998Y-59321866D02*
X108688186Y-59187179D01*
X108688186Y-59187179D02*
X108661248Y-59106367D01*
X108661248Y-59106367D02*
X108661248Y-58998618D01*
X108661248Y-58998618D02*
X108715123Y-58890868D01*
X108715123Y-58890868D02*
X108768998Y-58836993D01*
X108768998Y-58836993D02*
X108876747Y-58783118D01*
X108876747Y-58783118D02*
X108930622Y-58783118D01*
X109604057Y-59241054D02*
X110035056Y-58810056D01*
X109469370Y-58136621D02*
X110223618Y-58513744D01*
X110223618Y-58513744D02*
X109846494Y-57759497D01*
X110923990Y-57813372D02*
X110466054Y-57732560D01*
X110600741Y-58136621D02*
X110035056Y-57570935D01*
X110035056Y-57570935D02*
X110250555Y-57355436D01*
X110250555Y-57355436D02*
X110331367Y-57328499D01*
X110331367Y-57328499D02*
X110385242Y-57328499D01*
X110385242Y-57328499D02*
X110466054Y-57355436D01*
X110466054Y-57355436D02*
X110546866Y-57436248D01*
X110546866Y-57436248D02*
X110573804Y-57517061D01*
X110573804Y-57517061D02*
X110573804Y-57570935D01*
X110573804Y-57570935D02*
X110546866Y-57651748D01*
X110546866Y-57651748D02*
X110331367Y-57867247D01*
X110870115Y-57274624D02*
X111058677Y-57086062D01*
X111435800Y-57301561D02*
X111166426Y-57570935D01*
X111166426Y-57570935D02*
X110600741Y-57005250D01*
X110600741Y-57005250D02*
X110870115Y-56735876D01*
X111570488Y-56574251D02*
X111381926Y-56762813D01*
X111678237Y-57059125D02*
X111112552Y-56493439D01*
X111112552Y-56493439D02*
X111381926Y-56224065D01*
X126254819Y-89261904D02*
X127064342Y-89261904D01*
X127064342Y-89261904D02*
X127159580Y-89214285D01*
X127159580Y-89214285D02*
X127207200Y-89166666D01*
X127207200Y-89166666D02*
X127254819Y-89071428D01*
X127254819Y-89071428D02*
X127254819Y-88880952D01*
X127254819Y-88880952D02*
X127207200Y-88785714D01*
X127207200Y-88785714D02*
X127159580Y-88738095D01*
X127159580Y-88738095D02*
X127064342Y-88690476D01*
X127064342Y-88690476D02*
X126254819Y-88690476D01*
X126350057Y-88261904D02*
X126302438Y-88214285D01*
X126302438Y-88214285D02*
X126254819Y-88119047D01*
X126254819Y-88119047D02*
X126254819Y-87880952D01*
X126254819Y-87880952D02*
X126302438Y-87785714D01*
X126302438Y-87785714D02*
X126350057Y-87738095D01*
X126350057Y-87738095D02*
X126445295Y-87690476D01*
X126445295Y-87690476D02*
X126540533Y-87690476D01*
X126540533Y-87690476D02*
X126683390Y-87738095D01*
X126683390Y-87738095D02*
X127254819Y-88309523D01*
X127254819Y-88309523D02*
X127254819Y-87690476D01*
X119709580Y-51166666D02*
X119757200Y-51214285D01*
X119757200Y-51214285D02*
X119804819Y-51357142D01*
X119804819Y-51357142D02*
X119804819Y-51452380D01*
X119804819Y-51452380D02*
X119757200Y-51595237D01*
X119757200Y-51595237D02*
X119661961Y-51690475D01*
X119661961Y-51690475D02*
X119566723Y-51738094D01*
X119566723Y-51738094D02*
X119376247Y-51785713D01*
X119376247Y-51785713D02*
X119233390Y-51785713D01*
X119233390Y-51785713D02*
X119042914Y-51738094D01*
X119042914Y-51738094D02*
X118947676Y-51690475D01*
X118947676Y-51690475D02*
X118852438Y-51595237D01*
X118852438Y-51595237D02*
X118804819Y-51452380D01*
X118804819Y-51452380D02*
X118804819Y-51357142D01*
X118804819Y-51357142D02*
X118852438Y-51214285D01*
X118852438Y-51214285D02*
X118900057Y-51166666D01*
X118804819Y-50261904D02*
X118804819Y-50738094D01*
X118804819Y-50738094D02*
X119281009Y-50785713D01*
X119281009Y-50785713D02*
X119233390Y-50738094D01*
X119233390Y-50738094D02*
X119185771Y-50642856D01*
X119185771Y-50642856D02*
X119185771Y-50404761D01*
X119185771Y-50404761D02*
X119233390Y-50309523D01*
X119233390Y-50309523D02*
X119281009Y-50261904D01*
X119281009Y-50261904D02*
X119376247Y-50214285D01*
X119376247Y-50214285D02*
X119614342Y-50214285D01*
X119614342Y-50214285D02*
X119709580Y-50261904D01*
X119709580Y-50261904D02*
X119757200Y-50309523D01*
X119757200Y-50309523D02*
X119804819Y-50404761D01*
X119804819Y-50404761D02*
X119804819Y-50642856D01*
X119804819Y-50642856D02*
X119757200Y-50738094D01*
X119757200Y-50738094D02*
X119709580Y-50785713D01*
X110833333Y-84859580D02*
X110785714Y-84907200D01*
X110785714Y-84907200D02*
X110642857Y-84954819D01*
X110642857Y-84954819D02*
X110547619Y-84954819D01*
X110547619Y-84954819D02*
X110404762Y-84907200D01*
X110404762Y-84907200D02*
X110309524Y-84811961D01*
X110309524Y-84811961D02*
X110261905Y-84716723D01*
X110261905Y-84716723D02*
X110214286Y-84526247D01*
X110214286Y-84526247D02*
X110214286Y-84383390D01*
X110214286Y-84383390D02*
X110261905Y-84192914D01*
X110261905Y-84192914D02*
X110309524Y-84097676D01*
X110309524Y-84097676D02*
X110404762Y-84002438D01*
X110404762Y-84002438D02*
X110547619Y-83954819D01*
X110547619Y-83954819D02*
X110642857Y-83954819D01*
X110642857Y-83954819D02*
X110785714Y-84002438D01*
X110785714Y-84002438D02*
X110833333Y-84050057D01*
X111166667Y-83954819D02*
X111785714Y-83954819D01*
X111785714Y-83954819D02*
X111452381Y-84335771D01*
X111452381Y-84335771D02*
X111595238Y-84335771D01*
X111595238Y-84335771D02*
X111690476Y-84383390D01*
X111690476Y-84383390D02*
X111738095Y-84431009D01*
X111738095Y-84431009D02*
X111785714Y-84526247D01*
X111785714Y-84526247D02*
X111785714Y-84764342D01*
X111785714Y-84764342D02*
X111738095Y-84859580D01*
X111738095Y-84859580D02*
X111690476Y-84907200D01*
X111690476Y-84907200D02*
X111595238Y-84954819D01*
X111595238Y-84954819D02*
X111309524Y-84954819D01*
X111309524Y-84954819D02*
X111214286Y-84907200D01*
X111214286Y-84907200D02*
X111166667Y-84859580D01*
X111833333Y-89789580D02*
X111785714Y-89837200D01*
X111785714Y-89837200D02*
X111642857Y-89884819D01*
X111642857Y-89884819D02*
X111547619Y-89884819D01*
X111547619Y-89884819D02*
X111404762Y-89837200D01*
X111404762Y-89837200D02*
X111309524Y-89741961D01*
X111309524Y-89741961D02*
X111261905Y-89646723D01*
X111261905Y-89646723D02*
X111214286Y-89456247D01*
X111214286Y-89456247D02*
X111214286Y-89313390D01*
X111214286Y-89313390D02*
X111261905Y-89122914D01*
X111261905Y-89122914D02*
X111309524Y-89027676D01*
X111309524Y-89027676D02*
X111404762Y-88932438D01*
X111404762Y-88932438D02*
X111547619Y-88884819D01*
X111547619Y-88884819D02*
X111642857Y-88884819D01*
X111642857Y-88884819D02*
X111785714Y-88932438D01*
X111785714Y-88932438D02*
X111833333Y-88980057D01*
X112785714Y-89884819D02*
X112214286Y-89884819D01*
X112500000Y-89884819D02*
X112500000Y-88884819D01*
X112500000Y-88884819D02*
X112404762Y-89027676D01*
X112404762Y-89027676D02*
X112309524Y-89122914D01*
X112309524Y-89122914D02*
X112214286Y-89170533D01*
X119333333Y-84859580D02*
X119285714Y-84907200D01*
X119285714Y-84907200D02*
X119142857Y-84954819D01*
X119142857Y-84954819D02*
X119047619Y-84954819D01*
X119047619Y-84954819D02*
X118904762Y-84907200D01*
X118904762Y-84907200D02*
X118809524Y-84811961D01*
X118809524Y-84811961D02*
X118761905Y-84716723D01*
X118761905Y-84716723D02*
X118714286Y-84526247D01*
X118714286Y-84526247D02*
X118714286Y-84383390D01*
X118714286Y-84383390D02*
X118761905Y-84192914D01*
X118761905Y-84192914D02*
X118809524Y-84097676D01*
X118809524Y-84097676D02*
X118904762Y-84002438D01*
X118904762Y-84002438D02*
X119047619Y-83954819D01*
X119047619Y-83954819D02*
X119142857Y-83954819D01*
X119142857Y-83954819D02*
X119285714Y-84002438D01*
X119285714Y-84002438D02*
X119333333Y-84050057D01*
X120190476Y-84288152D02*
X120190476Y-84954819D01*
X119952381Y-83907200D02*
X119714286Y-84621485D01*
X119714286Y-84621485D02*
X120333333Y-84621485D01*
%TO.C,R1*%
D12*
X113737258Y-81977500D02*
X113262742Y-81977500D01*
X113737258Y-83022500D02*
X113262742Y-83022500D01*
%TO.C,R2*%
X122237258Y-81977500D02*
X121762742Y-81977500D01*
X122237258Y-83022500D02*
X121762742Y-83022500D01*
%TO.C,C2*%
X120415580Y-87490000D02*
X120134420Y-87490000D01*
X120415580Y-88510000D02*
X120134420Y-88510000D01*
%TO.C,U1*%
X113640000Y-85640000D02*
X114115000Y-85640000D01*
X113640000Y-86115000D02*
X113640000Y-85640000D01*
X113640000Y-88860000D02*
X113640000Y-88385000D01*
X114115000Y-88860000D02*
X113640000Y-88860000D01*
X116385000Y-85640000D02*
X116860000Y-85640000D01*
X116860000Y-85640000D02*
X116860000Y-86115000D01*
X116860000Y-88385000D02*
X116860000Y-88860000D01*
X116860000Y-88860000D02*
X116385000Y-88860000D01*
X116000000Y-85130000D02*
X115760000Y-84800000D01*
X116240000Y-84800000D01*
X116000000Y-85130000D01*
G36*
X116000000Y-85130000D02*
G01*
X115760000Y-84800000D01*
X116240000Y-84800000D01*
X116000000Y-85130000D01*
G37*
%TO.C,J3*%
X115650000Y-70250000D02*
X115650000Y-71500000D01*
X115950000Y-72800000D02*
X116700000Y-72800000D01*
X116700000Y-72800000D02*
X116700000Y-75750000D01*
X116700000Y-75750000D02*
X119750000Y-75750000D01*
X116900000Y-70250000D02*
X115650000Y-70250000D01*
X122800000Y-72800000D02*
X122800000Y-75750000D01*
X122800000Y-75750000D02*
X119750000Y-75750000D01*
X123550000Y-72800000D02*
X122800000Y-72800000D01*
X115940000Y-70540000D02*
X123560000Y-70540000D01*
X123560000Y-76510000D01*
X115940000Y-76510000D01*
X115940000Y-70540000D01*
X115950000Y-70550000D02*
X117750000Y-70550000D01*
X117750000Y-71300000D01*
X115950000Y-71300000D01*
X115950000Y-70550000D01*
X119250000Y-70550000D02*
X120250000Y-70550000D01*
X120250000Y-71300000D01*
X119250000Y-71300000D01*
X119250000Y-70550000D01*
X121750000Y-70550000D02*
X123550000Y-70550000D01*
X123550000Y-71300000D01*
X121750000Y-71300000D01*
X121750000Y-70550000D01*
%TO.C,J2*%
X114515000Y-93290000D02*
X115465000Y-93290000D01*
X114515000Y-94240000D02*
X114515000Y-93290000D01*
X114885000Y-97210000D02*
X121115000Y-97210000D01*
X115465000Y-93290000D02*
X115465000Y-92600000D01*
X121485000Y-93290000D02*
X120535000Y-93290000D01*
X121485000Y-94240000D02*
X121485000Y-93290000D01*
%TO.C,A1*%
X85225000Y-45500000D02*
X85225000Y-45800000D01*
X85225000Y-45500000D02*
X106225000Y-45500000D01*
X85225000Y-47900000D02*
X85225000Y-48300000D01*
X85225000Y-48167000D02*
X88232000Y-48167000D01*
X85225000Y-50500000D02*
X85225000Y-50900000D01*
X85225000Y-53000000D02*
X85225000Y-53400000D01*
X85225000Y-55600000D02*
X85225000Y-56000000D01*
X85225000Y-58100000D02*
X85225000Y-58500000D01*
X85225000Y-60600000D02*
X85225000Y-61000000D01*
X85225000Y-63200000D02*
X85225000Y-63600000D01*
X85225000Y-65700000D02*
X85225000Y-66100000D01*
X85225000Y-68300000D02*
X85225000Y-68700000D01*
X85225000Y-70800000D02*
X85225000Y-71200000D01*
X85225000Y-73300000D02*
X85225000Y-73700000D01*
X85225000Y-75900000D02*
X85225000Y-76300000D01*
X85225000Y-78400000D02*
X85225000Y-78800000D01*
X85225000Y-81000000D02*
X85225000Y-81400000D01*
X85225000Y-83500000D02*
X85225000Y-83900000D01*
X85225000Y-86100000D02*
X85225000Y-86500000D01*
X85225000Y-88600000D02*
X85225000Y-89000000D01*
X85225000Y-91100000D02*
X85225000Y-91500000D01*
X85225000Y-93700000D02*
X85225000Y-94100000D01*
X88232000Y-48167000D02*
X88232000Y-45500000D01*
X92025000Y-96500000D02*
X85225000Y-96500000D01*
X94225000Y-96500000D02*
X94625000Y-96500000D01*
X96825000Y-96500000D02*
X97225000Y-96500000D01*
X106225000Y-45500000D02*
X106225000Y-45800000D01*
X106225000Y-47900000D02*
X106225000Y-48300000D01*
X106225000Y-50500000D02*
X106225000Y-50900000D01*
X106225000Y-53000000D02*
X106225000Y-53400000D01*
X106225000Y-55600000D02*
X106225000Y-56000000D01*
X106225000Y-58100000D02*
X106225000Y-58500000D01*
X106225000Y-60600000D02*
X106225000Y-61000000D01*
X106225000Y-63200000D02*
X106225000Y-63600000D01*
X106225000Y-65700000D02*
X106225000Y-66100000D01*
X106225000Y-68300000D02*
X106225000Y-68700000D01*
X106225000Y-70800000D02*
X106225000Y-71200000D01*
X106225000Y-73300000D02*
X106225000Y-73700000D01*
X106225000Y-75900000D02*
X106225000Y-76300000D01*
X106225000Y-78400000D02*
X106225000Y-78800000D01*
X106225000Y-81000000D02*
X106225000Y-81400000D01*
X106225000Y-83500000D02*
X106225000Y-83900000D01*
X106225000Y-86100000D02*
X106225000Y-86500000D01*
X106225000Y-88600000D02*
X106225000Y-89000000D01*
X106225000Y-91100000D02*
X106225000Y-91500000D01*
X106225000Y-93700000D02*
X106225000Y-94100000D01*
X106225000Y-96500000D02*
X99425000Y-96500000D01*
%TO.C,U2*%
X122390000Y-85640000D02*
X122865000Y-85640000D01*
X122390000Y-86115000D02*
X122390000Y-85640000D01*
X122390000Y-88860000D02*
X122390000Y-88385000D01*
X122865000Y-88860000D02*
X122390000Y-88860000D01*
X125135000Y-85640000D02*
X125610000Y-85640000D01*
X125610000Y-85640000D02*
X125610000Y-86115000D01*
X125610000Y-88385000D02*
X125610000Y-88860000D01*
X125610000Y-88860000D02*
X125135000Y-88860000D01*
X124750000Y-85130000D02*
X124510000Y-84800000D01*
X124990000Y-84800000D01*
X124750000Y-85130000D01*
G36*
X124750000Y-85130000D02*
G01*
X124510000Y-84800000D01*
X124990000Y-84800000D01*
X124750000Y-85130000D01*
G37*
%TO.C,C5*%
X111590000Y-48654437D02*
X111590000Y-54410000D01*
X111590000Y-54410000D02*
X113940000Y-54410000D01*
X112654437Y-47590000D02*
X111590000Y-48654437D01*
X112654437Y-47590000D02*
X113940000Y-47590000D01*
X116847500Y-46562500D02*
X116847500Y-47350000D01*
X117241250Y-46956250D02*
X116453750Y-46956250D01*
X117345563Y-47590000D02*
X116060000Y-47590000D01*
X117345563Y-47590000D02*
X118410000Y-48654437D01*
X118410000Y-48654437D02*
X118410000Y-54410000D01*
X118410000Y-54410000D02*
X116060000Y-54410000D01*
%TO.C,C3*%
X111711252Y-85265000D02*
X111188748Y-85265000D01*
X111711252Y-86735000D02*
X111188748Y-86735000D01*
%TO.C,C1*%
X111765580Y-87490000D02*
X111484420Y-87490000D01*
X111765580Y-88510000D02*
X111484420Y-88510000D01*
%TO.C,C4*%
X120311252Y-85265000D02*
X119788748Y-85265000D01*
X120311252Y-86735000D02*
X119788748Y-86735000D01*
%TD*%
M02*
