%TF.GenerationSoftware,KiCad,Pcbnew,10.0.3*%
%TF.CreationDate,2026-07-13T00:47:25-06:00*%
%TF.ProjectId,punbox,70756e62-6f78-42e6-9b69-6361645f7063,0*%
%TF.SameCoordinates,Original*%
%TF.FileFunction,Copper,L2,Bot*%
%TF.FilePolarity,Positive*%
%FSLAX46Y46*%
G04 Gerber Fmt 4.6, Leading zero omitted, Abs format (unit mm)*
G04 Created by KiCad (PCBNEW 10.0.3) date 2026-07-13 00:47:25*
%MOMM*%
%LPD*%
G01*
G04 APERTURE LIST*
G04 Aperture macros list*
%AMRoundRect*
0 Rectangle with rounded corners*
0 $1 Rounding radius*
0 $2 $3 $4 $5 $6 $7 $8 $9 X,Y pos of 4 corners*
0 Add a 4 corners polygon primitive as box body*
4,1,4,$2,$3,$4,$5,$6,$7,$8,$9,$2,$3,0*
0 Add four circle primitives for the rounded corners*
1,1,$1+$1,$2,$3*
1,1,$1+$1,$4,$5*
1,1,$1+$1,$6,$7*
1,1,$1+$1,$8,$9*
0 Add four rect primitives between the rounded corners*
20,1,$1+$1,$2,$3,$4,$5,0*
20,1,$1+$1,$4,$5,$6,$7,0*
20,1,$1+$1,$6,$7,$8,$9,0*
20,1,$1+$1,$8,$9,$2,$3,0*%
G04 Aperture macros list end*
%TA.AperFunction,ComponentPad*%
%ADD10RoundRect,0.250000X-0.600000X-0.750000X0.600000X-0.750000X0.600000X0.750000X-0.600000X0.750000X0*%
%TD*%
%TA.AperFunction,ComponentPad*%
%ADD11O,1.700000X2.000000*%
%TD*%
%TA.AperFunction,ComponentPad*%
%ADD12O,1.700000X1.700000*%
%TD*%
%TA.AperFunction,ComponentPad*%
%ADD13R,1.700000X1.700000*%
%TD*%
%TA.AperFunction,ViaPad*%
%ADD14C,0.800000*%
%TD*%
%TA.AperFunction,ViaPad*%
%ADD15C,0.600000*%
%TD*%
%TA.AperFunction,Conductor*%
%ADD16C,0.200000*%
%TD*%
G04 APERTURE END LIST*
D10*
%TO.P,J3,1*%
%TO.N,BUTTON*%
X118500000Y-73000000D03*
D11*
%TO.P,J3,2*%
%TO.N,GND*%
X121000000Y-73000000D03*
%TD*%
D12*
%TO.P,A1,1*%
%TO.N,N/C*%
X86835000Y-46870000D03*
%TO.P,A1,2*%
X86835000Y-49410000D03*
D13*
%TO.P,A1,3*%
%TO.N,GND*%
X86835000Y-51950000D03*
D12*
%TO.P,A1,4*%
%TO.N,N/C*%
X86835000Y-54490000D03*
%TO.P,A1,5*%
X86835000Y-57030000D03*
%TO.P,A1,6*%
X86835000Y-59570000D03*
%TO.P,A1,7*%
X86835000Y-62110000D03*
D13*
%TO.P,A1,8*%
%TO.N,GND*%
X86835000Y-64650000D03*
D12*
%TO.P,A1,9*%
%TO.N,BUTTON*%
X86835000Y-67190000D03*
%TO.P,A1,10*%
%TO.N,N/C*%
X86835000Y-69730000D03*
%TO.P,A1,11*%
X86835000Y-72270000D03*
%TO.P,A1,12*%
X86835000Y-74810000D03*
D13*
%TO.P,A1,13*%
%TO.N,GND*%
X86835000Y-77350000D03*
D12*
%TO.P,A1,14*%
%TO.N,N/C*%
X86835000Y-79890000D03*
%TO.P,A1,15*%
X86835000Y-82430000D03*
%TO.P,A1,16*%
X86835000Y-84970000D03*
%TO.P,A1,17*%
X86835000Y-87510000D03*
D13*
%TO.P,A1,18*%
%TO.N,GND*%
X86835000Y-90050000D03*
D12*
%TO.P,A1,19*%
%TO.N,N/C*%
X86835000Y-92590000D03*
%TO.P,A1,20*%
X86835000Y-95130000D03*
%TO.P,A1,21*%
X104615000Y-95130000D03*
%TO.P,A1,22*%
X104615000Y-92590000D03*
D13*
%TO.P,A1,23*%
%TO.N,GND*%
X104615000Y-90050000D03*
D12*
%TO.P,A1,24*%
%TO.N,N/C*%
X104615000Y-87510000D03*
%TO.P,A1,25*%
X104615000Y-84970000D03*
%TO.P,A1,26*%
X104615000Y-82430000D03*
%TO.P,A1,27*%
X104615000Y-79890000D03*
D13*
%TO.P,A1,28*%
%TO.N,GND*%
X104615000Y-77350000D03*
D12*
%TO.P,A1,29*%
%TO.N,N/C*%
X104615000Y-74810000D03*
%TO.P,A1,30*%
X104615000Y-72270000D03*
%TO.P,A1,31*%
%TO.N,I2S_DIN*%
X104615000Y-69730000D03*
%TO.P,A1,32*%
%TO.N,I2S_BCLK*%
X104615000Y-67190000D03*
D13*
%TO.P,A1,33*%
%TO.N,N/C*%
X104615000Y-64650000D03*
D12*
%TO.P,A1,34*%
%TO.N,I2S_LRCLK*%
X104615000Y-62110000D03*
%TO.P,A1,35*%
%TO.N,N/C*%
X104615000Y-59570000D03*
%TO.P,A1,36*%
X104615000Y-57030000D03*
%TO.P,A1,37*%
X104615000Y-54490000D03*
D13*
%TO.P,A1,38*%
%TO.N,GND*%
X104615000Y-51950000D03*
D12*
%TO.P,A1,39*%
%TO.N,N/C*%
X104615000Y-49410000D03*
%TO.P,A1,40*%
%TO.N,+5V*%
X104615000Y-46870000D03*
%TO.P,A1,41*%
%TO.N,N/C*%
X93185000Y-94900000D03*
D13*
%TO.P,A1,42*%
%TO.N,GND*%
X95725000Y-94900000D03*
D12*
%TO.P,A1,43*%
%TO.N,N/C*%
X98265000Y-94900000D03*
%TD*%
D14*
%TO.N,GND*%
X110000000Y-89500000D03*
D15*
X123500000Y-84500000D03*
X126500000Y-86750000D03*
X116073650Y-89599975D03*
X124500000Y-89741599D03*
X124000000Y-87250000D03*
X119000000Y-89500000D03*
X117600000Y-86536297D03*
X115400000Y-84500000D03*
X115250000Y-87250000D03*
D14*
X116500000Y-56000000D03*
D15*
%TO.N,I2S_DIN*%
X110000000Y-73000000D03*
X124750000Y-81000000D03*
X115000000Y-81000000D03*
%TO.N,I2S_LRCLK*%
X116500000Y-79750000D03*
X112000000Y-73000000D03*
X126250000Y-79750000D03*
%TO.N,I2S_BCLK*%
X111000000Y-73000000D03*
X115919052Y-80400000D03*
X125500000Y-80434313D03*
%TD*%
%TO.N,I2S_DIN*%
D16*
X115000000Y-81000000D02*
X110000000Y-76000000D01*
X110000000Y-76000000D02*
X110000000Y-73000000D01*
X115000000Y-81000000D02*
X124750000Y-81000000D01*
%TO.N,I2S_LRCLK*%
X112000000Y-73000000D02*
X112000000Y-76000000D01*
X115750000Y-79750000D02*
X126250000Y-79750000D01*
X112000000Y-76000000D02*
X115750000Y-79750000D01*
%TO.N,I2S_BCLK*%
X111000000Y-73000000D02*
X111000000Y-76250000D01*
X115150000Y-80400000D02*
X125465687Y-80400000D01*
X111000000Y-76250000D02*
X115150000Y-80400000D01*
X125465687Y-80400000D02*
X125500000Y-80434313D01*
%TO.N,BUTTON*%
X86835000Y-67190000D02*
X87985000Y-66040000D01*
X116040000Y-66040000D02*
X118500000Y-68500000D01*
X118500000Y-68500000D02*
X118500000Y-73000000D01*
X87985000Y-66040000D02*
X116040000Y-66040000D01*
%TD*%
%TA.AperFunction,Conductor*%
%TO.N,GND*%
G36*
X85627020Y-46020185D02*
G01*
X85672775Y-46072989D01*
X85682719Y-46142147D01*
X85670466Y-46180795D01*
X85583444Y-46351585D01*
X85517753Y-46553760D01*
X85495052Y-46697091D01*
X85484500Y-46763713D01*
X85484500Y-46976287D01*
X85517754Y-47186243D01*
X85570555Y-47348748D01*
X85583444Y-47388414D01*
X85679951Y-47577820D01*
X85804890Y-47749786D01*
X85955213Y-47900109D01*
X86127182Y-48025050D01*
X86135946Y-48029516D01*
X86186742Y-48077491D01*
X86203536Y-48145312D01*
X86180998Y-48211447D01*
X86135946Y-48250484D01*
X86127182Y-48254949D01*
X85955213Y-48379890D01*
X85804890Y-48530213D01*
X85679951Y-48702179D01*
X85583444Y-48891585D01*
X85517753Y-49093760D01*
X85514487Y-49114383D01*
X85484500Y-49303713D01*
X85484500Y-49516287D01*
X85489835Y-49549970D01*
X85517753Y-49726239D01*
X85517753Y-49726241D01*
X85517754Y-49726243D01*
X85570439Y-49888391D01*
X85583444Y-49928414D01*
X85679951Y-50117820D01*
X85804890Y-50289786D01*
X85918818Y-50403714D01*
X85952303Y-50465037D01*
X85947319Y-50534729D01*
X85905447Y-50590662D01*
X85874471Y-50607577D01*
X85742912Y-50656646D01*
X85742906Y-50656649D01*
X85627812Y-50742809D01*
X85627809Y-50742812D01*
X85541649Y-50857906D01*
X85541645Y-50857913D01*
X85491403Y-50992620D01*
X85491401Y-50992627D01*
X85485000Y-51052155D01*
X85485000Y-51700000D01*
X86390440Y-51700000D01*
X86359755Y-51753147D01*
X86325000Y-51882857D01*
X86325000Y-52017143D01*
X86359755Y-52146853D01*
X86390440Y-52200000D01*
X85485000Y-52200000D01*
X85485000Y-52847844D01*
X85491401Y-52907372D01*
X85491403Y-52907379D01*
X85541645Y-53042086D01*
X85541649Y-53042093D01*
X85627809Y-53157187D01*
X85627812Y-53157190D01*
X85742906Y-53243350D01*
X85742913Y-53243354D01*
X85874470Y-53292422D01*
X85930404Y-53334293D01*
X85954821Y-53399758D01*
X85939969Y-53468031D01*
X85918819Y-53496285D01*
X85804889Y-53610215D01*
X85679951Y-53782179D01*
X85583444Y-53971585D01*
X85517753Y-54173760D01*
X85484500Y-54383713D01*
X85484500Y-54596286D01*
X85517753Y-54806239D01*
X85583444Y-55008414D01*
X85679951Y-55197820D01*
X85804890Y-55369786D01*
X85955213Y-55520109D01*
X86127182Y-55645050D01*
X86135946Y-55649516D01*
X86186742Y-55697491D01*
X86203536Y-55765312D01*
X86180998Y-55831447D01*
X86135946Y-55870484D01*
X86127182Y-55874949D01*
X85955213Y-55999890D01*
X85804890Y-56150213D01*
X85679951Y-56322179D01*
X85583444Y-56511585D01*
X85517753Y-56713760D01*
X85484500Y-56923713D01*
X85484500Y-57136286D01*
X85517753Y-57346239D01*
X85583444Y-57548414D01*
X85679951Y-57737820D01*
X85804890Y-57909786D01*
X85955213Y-58060109D01*
X86127182Y-58185050D01*
X86135946Y-58189516D01*
X86186742Y-58237491D01*
X86203536Y-58305312D01*
X86180998Y-58371447D01*
X86135946Y-58410484D01*
X86127182Y-58414949D01*
X85955213Y-58539890D01*
X85804890Y-58690213D01*
X85679951Y-58862179D01*
X85583444Y-59051585D01*
X85517753Y-59253760D01*
X85484500Y-59463713D01*
X85484500Y-59676286D01*
X85517753Y-59886239D01*
X85583444Y-60088414D01*
X85679951Y-60277820D01*
X85804890Y-60449786D01*
X85955213Y-60600109D01*
X86127182Y-60725050D01*
X86135946Y-60729516D01*
X86186742Y-60777491D01*
X86203536Y-60845312D01*
X86180998Y-60911447D01*
X86135946Y-60950484D01*
X86127182Y-60954949D01*
X85955213Y-61079890D01*
X85804890Y-61230213D01*
X85679951Y-61402179D01*
X85583444Y-61591585D01*
X85517753Y-61793760D01*
X85484500Y-62003713D01*
X85484500Y-62216286D01*
X85517753Y-62426239D01*
X85583444Y-62628414D01*
X85679951Y-62817820D01*
X85804890Y-62989786D01*
X85918818Y-63103714D01*
X85952303Y-63165037D01*
X85947319Y-63234729D01*
X85905447Y-63290662D01*
X85874471Y-63307577D01*
X85742912Y-63356646D01*
X85742906Y-63356649D01*
X85627812Y-63442809D01*
X85627809Y-63442812D01*
X85541649Y-63557906D01*
X85541645Y-63557913D01*
X85491403Y-63692620D01*
X85491401Y-63692627D01*
X85485000Y-63752155D01*
X85485000Y-64400000D01*
X86390440Y-64400000D01*
X86359755Y-64453147D01*
X86325000Y-64582857D01*
X86325000Y-64717143D01*
X86359755Y-64846853D01*
X86390440Y-64900000D01*
X85485000Y-64900000D01*
X85485000Y-65547844D01*
X85491401Y-65607372D01*
X85491403Y-65607379D01*
X85541645Y-65742086D01*
X85541649Y-65742093D01*
X85627809Y-65857187D01*
X85627812Y-65857190D01*
X85742906Y-65943350D01*
X85742913Y-65943354D01*
X85874470Y-65992422D01*
X85930404Y-66034293D01*
X85954821Y-66099758D01*
X85939969Y-66168031D01*
X85918819Y-66196285D01*
X85804889Y-66310215D01*
X85679951Y-66482179D01*
X85583444Y-66671585D01*
X85517753Y-66873760D01*
X85484500Y-67083713D01*
X85484500Y-67296286D01*
X85517753Y-67506239D01*
X85583444Y-67708414D01*
X85679951Y-67897820D01*
X85804890Y-68069786D01*
X85955213Y-68220109D01*
X86127182Y-68345050D01*
X86135946Y-68349516D01*
X86186742Y-68397491D01*
X86203536Y-68465312D01*
X86180998Y-68531447D01*
X86135946Y-68570484D01*
X86127182Y-68574949D01*
X85955213Y-68699890D01*
X85804890Y-68850213D01*
X85679951Y-69022179D01*
X85583444Y-69211585D01*
X85517753Y-69413760D01*
X85484500Y-69623713D01*
X85484500Y-69836286D01*
X85517753Y-70046239D01*
X85583444Y-70248414D01*
X85679951Y-70437820D01*
X85804890Y-70609786D01*
X85955213Y-70760109D01*
X86127182Y-70885050D01*
X86135946Y-70889516D01*
X86186742Y-70937491D01*
X86203536Y-71005312D01*
X86180998Y-71071447D01*
X86135946Y-71110484D01*
X86127182Y-71114949D01*
X85955213Y-71239890D01*
X85804890Y-71390213D01*
X85679951Y-71562179D01*
X85583444Y-71751585D01*
X85517753Y-71953760D01*
X85484500Y-72163713D01*
X85484500Y-72376286D01*
X85509458Y-72533869D01*
X85517754Y-72586243D01*
X85576324Y-72766503D01*
X85583444Y-72788414D01*
X85679951Y-72977820D01*
X85804890Y-73149786D01*
X85955213Y-73300109D01*
X86127182Y-73425050D01*
X86135946Y-73429516D01*
X86186742Y-73477491D01*
X86203536Y-73545312D01*
X86180998Y-73611447D01*
X86135946Y-73650484D01*
X86127182Y-73654949D01*
X85955213Y-73779890D01*
X85804890Y-73930213D01*
X85679951Y-74102179D01*
X85583444Y-74291585D01*
X85517753Y-74493760D01*
X85484500Y-74703713D01*
X85484500Y-74916286D01*
X85517753Y-75126239D01*
X85583444Y-75328414D01*
X85679951Y-75517820D01*
X85804890Y-75689786D01*
X85918818Y-75803714D01*
X85952303Y-75865037D01*
X85947319Y-75934729D01*
X85905447Y-75990662D01*
X85874471Y-76007577D01*
X85742912Y-76056646D01*
X85742906Y-76056649D01*
X85627812Y-76142809D01*
X85627809Y-76142812D01*
X85541649Y-76257906D01*
X85541645Y-76257913D01*
X85491403Y-76392620D01*
X85491401Y-76392627D01*
X85485000Y-76452155D01*
X85485000Y-77100000D01*
X86390440Y-77100000D01*
X86359755Y-77153147D01*
X86325000Y-77282857D01*
X86325000Y-77417143D01*
X86359755Y-77546853D01*
X86390440Y-77600000D01*
X85485000Y-77600000D01*
X85485000Y-78247844D01*
X85491401Y-78307372D01*
X85491403Y-78307379D01*
X85541645Y-78442086D01*
X85541649Y-78442093D01*
X85627809Y-78557187D01*
X85627812Y-78557190D01*
X85742906Y-78643350D01*
X85742913Y-78643354D01*
X85874470Y-78692422D01*
X85930404Y-78734293D01*
X85954821Y-78799758D01*
X85939969Y-78868031D01*
X85918819Y-78896285D01*
X85804889Y-79010215D01*
X85679951Y-79182179D01*
X85583444Y-79371585D01*
X85517753Y-79573760D01*
X85502327Y-79671158D01*
X85484500Y-79783713D01*
X85484500Y-79996287D01*
X85517754Y-80206243D01*
X85571543Y-80371789D01*
X85583444Y-80408414D01*
X85679951Y-80597820D01*
X85804890Y-80769786D01*
X85955213Y-80920109D01*
X86127182Y-81045050D01*
X86135946Y-81049516D01*
X86186742Y-81097491D01*
X86203536Y-81165312D01*
X86180998Y-81231447D01*
X86135946Y-81270484D01*
X86127182Y-81274949D01*
X85955213Y-81399890D01*
X85804890Y-81550213D01*
X85679951Y-81722179D01*
X85583444Y-81911585D01*
X85517753Y-82113760D01*
X85484500Y-82323713D01*
X85484500Y-82536286D01*
X85517753Y-82746239D01*
X85583444Y-82948414D01*
X85679951Y-83137820D01*
X85804890Y-83309786D01*
X85955213Y-83460109D01*
X86127182Y-83585050D01*
X86135946Y-83589516D01*
X86186742Y-83637491D01*
X86203536Y-83705312D01*
X86180998Y-83771447D01*
X86135946Y-83810484D01*
X86127182Y-83814949D01*
X85955213Y-83939890D01*
X85804890Y-84090213D01*
X85679951Y-84262179D01*
X85583444Y-84451585D01*
X85517753Y-84653760D01*
X85484500Y-84863713D01*
X85484500Y-85076286D01*
X85517753Y-85286239D01*
X85583444Y-85488414D01*
X85679951Y-85677820D01*
X85804890Y-85849786D01*
X85955213Y-86000109D01*
X86127182Y-86125050D01*
X86135946Y-86129516D01*
X86186742Y-86177491D01*
X86203536Y-86245312D01*
X86180998Y-86311447D01*
X86135946Y-86350484D01*
X86127182Y-86354949D01*
X85955213Y-86479890D01*
X85804890Y-86630213D01*
X85679951Y-86802179D01*
X85583444Y-86991585D01*
X85517753Y-87193760D01*
X85484500Y-87403713D01*
X85484500Y-87616286D01*
X85517753Y-87826239D01*
X85583444Y-88028414D01*
X85679951Y-88217820D01*
X85804890Y-88389786D01*
X85918818Y-88503714D01*
X85952303Y-88565037D01*
X85947319Y-88634729D01*
X85905447Y-88690662D01*
X85874471Y-88707577D01*
X85742912Y-88756646D01*
X85742906Y-88756649D01*
X85627812Y-88842809D01*
X85627809Y-88842812D01*
X85541649Y-88957906D01*
X85541645Y-88957913D01*
X85491403Y-89092620D01*
X85491401Y-89092627D01*
X85485000Y-89152155D01*
X85485000Y-89800000D01*
X86390440Y-89800000D01*
X86359755Y-89853147D01*
X86325000Y-89982857D01*
X86325000Y-90117143D01*
X86359755Y-90246853D01*
X86390440Y-90300000D01*
X85485000Y-90300000D01*
X85485000Y-90947844D01*
X85491401Y-91007372D01*
X85491403Y-91007379D01*
X85541645Y-91142086D01*
X85541649Y-91142093D01*
X85627809Y-91257187D01*
X85627812Y-91257190D01*
X85742906Y-91343350D01*
X85742913Y-91343354D01*
X85874470Y-91392422D01*
X85930404Y-91434293D01*
X85954821Y-91499758D01*
X85939969Y-91568031D01*
X85918819Y-91596285D01*
X85804889Y-91710215D01*
X85679951Y-91882179D01*
X85583444Y-92071585D01*
X85517753Y-92273760D01*
X85484500Y-92483713D01*
X85484500Y-92696286D01*
X85517753Y-92906239D01*
X85583444Y-93108414D01*
X85679951Y-93297820D01*
X85804890Y-93469786D01*
X85955213Y-93620109D01*
X86127182Y-93745050D01*
X86135946Y-93749516D01*
X86186742Y-93797491D01*
X86203536Y-93865312D01*
X86180998Y-93931447D01*
X86135946Y-93970484D01*
X86127182Y-93974949D01*
X85955213Y-94099890D01*
X85804890Y-94250213D01*
X85679951Y-94422179D01*
X85583444Y-94611585D01*
X85517753Y-94813760D01*
X85484500Y-95023713D01*
X85484500Y-95236286D01*
X85516592Y-95438910D01*
X85517754Y-95446243D01*
X85577828Y-95631132D01*
X85583444Y-95648414D01*
X85679951Y-95837820D01*
X85804890Y-96009786D01*
X85955213Y-96160109D01*
X86127179Y-96285048D01*
X86127181Y-96285049D01*
X86127184Y-96285051D01*
X86316588Y-96381557D01*
X86518757Y-96447246D01*
X86728713Y-96480500D01*
X86728714Y-96480500D01*
X86941286Y-96480500D01*
X86941287Y-96480500D01*
X87151243Y-96447246D01*
X87353412Y-96381557D01*
X87542816Y-96285051D01*
X87599872Y-96243598D01*
X87714786Y-96160109D01*
X87714788Y-96160106D01*
X87714792Y-96160104D01*
X87865104Y-96009792D01*
X87865106Y-96009788D01*
X87865109Y-96009786D01*
X87990048Y-95837820D01*
X87990047Y-95837820D01*
X87990051Y-95837816D01*
X88086557Y-95648412D01*
X88152246Y-95446243D01*
X88185500Y-95236287D01*
X88185500Y-95023713D01*
X88152246Y-94813757D01*
X88145733Y-94793713D01*
X91834500Y-94793713D01*
X91834500Y-95006286D01*
X91867263Y-95213147D01*
X91867754Y-95216243D01*
X91874266Y-95236286D01*
X91933444Y-95418414D01*
X92029951Y-95607820D01*
X92154890Y-95779786D01*
X92305213Y-95930109D01*
X92477179Y-96055048D01*
X92477181Y-96055049D01*
X92477184Y-96055051D01*
X92666588Y-96151557D01*
X92868757Y-96217246D01*
X93078713Y-96250500D01*
X93078714Y-96250500D01*
X93291286Y-96250500D01*
X93291287Y-96250500D01*
X93501243Y-96217246D01*
X93703412Y-96151557D01*
X93892816Y-96055051D01*
X93979478Y-95992088D01*
X94064784Y-95930110D01*
X94064784Y-95930109D01*
X94064792Y-95930104D01*
X94178717Y-95816178D01*
X94240036Y-95782696D01*
X94309728Y-95787680D01*
X94365662Y-95829551D01*
X94382577Y-95860528D01*
X94431646Y-95992088D01*
X94431649Y-95992093D01*
X94517809Y-96107187D01*
X94517812Y-96107190D01*
X94632906Y-96193350D01*
X94632913Y-96193354D01*
X94767620Y-96243596D01*
X94767627Y-96243598D01*
X94827155Y-96249999D01*
X94827172Y-96250000D01*
X95475000Y-96250000D01*
X95475000Y-95344560D01*
X95528147Y-95375245D01*
X95657857Y-95410000D01*
X95792143Y-95410000D01*
X95921853Y-95375245D01*
X95975000Y-95344560D01*
X95975000Y-96250000D01*
X96622828Y-96250000D01*
X96622844Y-96249999D01*
X96682372Y-96243598D01*
X96682379Y-96243596D01*
X96817086Y-96193354D01*
X96817093Y-96193350D01*
X96932187Y-96107190D01*
X96932190Y-96107187D01*
X97018350Y-95992093D01*
X97018354Y-95992086D01*
X97067422Y-95860529D01*
X97109293Y-95804595D01*
X97174757Y-95780178D01*
X97243030Y-95795030D01*
X97271285Y-95816181D01*
X97385213Y-95930109D01*
X97557179Y-96055048D01*
X97557181Y-96055049D01*
X97557184Y-96055051D01*
X97746588Y-96151557D01*
X97948757Y-96217246D01*
X98158713Y-96250500D01*
X98158714Y-96250500D01*
X98371286Y-96250500D01*
X98371287Y-96250500D01*
X98581243Y-96217246D01*
X98783412Y-96151557D01*
X98972816Y-96055051D01*
X99035110Y-96009792D01*
X99144786Y-95930109D01*
X99144788Y-95930106D01*
X99144792Y-95930104D01*
X99295104Y-95779792D01*
X99295106Y-95779788D01*
X99295109Y-95779786D01*
X99420048Y-95607820D01*
X99420047Y-95607820D01*
X99420051Y-95607816D01*
X99516557Y-95418412D01*
X99582246Y-95216243D01*
X99615500Y-95006287D01*
X99615500Y-94793713D01*
X99582246Y-94583757D01*
X99516557Y-94381588D01*
X99420051Y-94192184D01*
X99420049Y-94192181D01*
X99420048Y-94192179D01*
X99295109Y-94020213D01*
X99144786Y-93869890D01*
X98972820Y-93744951D01*
X98783414Y-93648444D01*
X98783413Y-93648443D01*
X98783412Y-93648443D01*
X98581243Y-93582754D01*
X98581241Y-93582753D01*
X98581240Y-93582753D01*
X98419957Y-93557208D01*
X98371287Y-93549500D01*
X98158713Y-93549500D01*
X98110042Y-93557208D01*
X97948760Y-93582753D01*
X97746585Y-93648444D01*
X97557179Y-93744951D01*
X97385215Y-93869889D01*
X97271285Y-93983819D01*
X97209962Y-94017303D01*
X97140270Y-94012319D01*
X97084337Y-93970447D01*
X97067422Y-93939470D01*
X97018354Y-93807913D01*
X97018350Y-93807906D01*
X96932190Y-93692812D01*
X96932187Y-93692809D01*
X96817093Y-93606649D01*
X96817086Y-93606645D01*
X96682379Y-93556403D01*
X96682372Y-93556401D01*
X96622844Y-93550000D01*
X95975000Y-93550000D01*
X95975000Y-94455439D01*
X95921853Y-94424755D01*
X95792143Y-94390000D01*
X95657857Y-94390000D01*
X95528147Y-94424755D01*
X95475000Y-94455439D01*
X95475000Y-93550000D01*
X94827155Y-93550000D01*
X94767627Y-93556401D01*
X94767620Y-93556403D01*
X94632913Y-93606645D01*
X94632906Y-93606649D01*
X94517812Y-93692809D01*
X94517809Y-93692812D01*
X94431649Y-93807906D01*
X94431646Y-93807912D01*
X94382577Y-93939471D01*
X94340705Y-93995404D01*
X94275241Y-94019821D01*
X94206968Y-94004969D01*
X94178714Y-93983818D01*
X94064786Y-93869890D01*
X93892820Y-93744951D01*
X93703414Y-93648444D01*
X93703413Y-93648443D01*
X93703412Y-93648443D01*
X93501243Y-93582754D01*
X93501241Y-93582753D01*
X93501240Y-93582753D01*
X93339957Y-93557208D01*
X93291287Y-93549500D01*
X93078713Y-93549500D01*
X93030042Y-93557208D01*
X92868760Y-93582753D01*
X92666585Y-93648444D01*
X92477179Y-93744951D01*
X92305213Y-93869890D01*
X92154890Y-94020213D01*
X92029951Y-94192179D01*
X91933444Y-94381585D01*
X91933443Y-94381587D01*
X91933443Y-94381588D01*
X91919417Y-94424755D01*
X91867753Y-94583760D01*
X91834500Y-94793713D01*
X88145733Y-94793713D01*
X88086557Y-94611588D01*
X87990051Y-94422184D01*
X87990049Y-94422181D01*
X87990048Y-94422179D01*
X87865109Y-94250213D01*
X87714786Y-94099890D01*
X87542820Y-93974951D01*
X87542115Y-93974591D01*
X87534054Y-93970485D01*
X87483259Y-93922512D01*
X87466463Y-93854692D01*
X87488999Y-93788556D01*
X87534054Y-93749515D01*
X87542816Y-93745051D01*
X87564789Y-93729086D01*
X87714786Y-93620109D01*
X87714788Y-93620106D01*
X87714792Y-93620104D01*
X87865104Y-93469792D01*
X87865106Y-93469788D01*
X87865109Y-93469786D01*
X87990048Y-93297820D01*
X87990047Y-93297820D01*
X87990051Y-93297816D01*
X88086557Y-93108412D01*
X88152246Y-92906243D01*
X88185500Y-92696287D01*
X88185500Y-92483713D01*
X88152246Y-92273757D01*
X88086557Y-92071588D01*
X87990051Y-91882184D01*
X87990049Y-91882181D01*
X87990048Y-91882179D01*
X87865109Y-91710213D01*
X87751181Y-91596285D01*
X87717696Y-91534962D01*
X87722680Y-91465270D01*
X87764552Y-91409337D01*
X87795529Y-91392422D01*
X87927086Y-91343354D01*
X87927093Y-91343350D01*
X88042187Y-91257190D01*
X88042190Y-91257187D01*
X88128350Y-91142093D01*
X88128354Y-91142086D01*
X88178596Y-91007379D01*
X88178598Y-91007372D01*
X88184999Y-90947844D01*
X88185000Y-90947827D01*
X88185000Y-90300000D01*
X87279560Y-90300000D01*
X87310245Y-90246853D01*
X87345000Y-90117143D01*
X87345000Y-89982857D01*
X87310245Y-89853147D01*
X87279560Y-89800000D01*
X88185000Y-89800000D01*
X88185000Y-89152172D01*
X88184999Y-89152155D01*
X88178598Y-89092627D01*
X88178596Y-89092620D01*
X88128354Y-88957913D01*
X88128350Y-88957906D01*
X88042190Y-88842812D01*
X88042187Y-88842809D01*
X87927093Y-88756649D01*
X87927088Y-88756646D01*
X87795528Y-88707577D01*
X87739595Y-88665705D01*
X87715178Y-88600241D01*
X87730030Y-88531968D01*
X87751175Y-88503720D01*
X87865104Y-88389792D01*
X87990051Y-88217816D01*
X88086557Y-88028412D01*
X88152246Y-87826243D01*
X88185500Y-87616287D01*
X88185500Y-87403713D01*
X88152246Y-87193757D01*
X88086557Y-86991588D01*
X87990051Y-86802184D01*
X87990049Y-86802181D01*
X87990048Y-86802179D01*
X87865109Y-86630213D01*
X87714786Y-86479890D01*
X87542820Y-86354951D01*
X87542115Y-86354591D01*
X87534054Y-86350485D01*
X87483259Y-86302512D01*
X87466463Y-86234692D01*
X87488999Y-86168556D01*
X87534054Y-86129515D01*
X87542816Y-86125051D01*
X87564789Y-86109086D01*
X87714786Y-86000109D01*
X87714788Y-86000106D01*
X87714792Y-86000104D01*
X87865104Y-85849792D01*
X87865106Y-85849788D01*
X87865109Y-85849786D01*
X87990048Y-85677820D01*
X87990047Y-85677820D01*
X87990051Y-85677816D01*
X88086557Y-85488412D01*
X88152246Y-85286243D01*
X88185500Y-85076287D01*
X88185500Y-84863713D01*
X88152246Y-84653757D01*
X88086557Y-84451588D01*
X87990051Y-84262184D01*
X87990049Y-84262181D01*
X87990048Y-84262179D01*
X87865109Y-84090213D01*
X87714786Y-83939890D01*
X87542820Y-83814951D01*
X87542115Y-83814591D01*
X87534054Y-83810485D01*
X87483259Y-83762512D01*
X87466463Y-83694692D01*
X87488999Y-83628556D01*
X87534054Y-83589515D01*
X87542816Y-83585051D01*
X87564789Y-83569086D01*
X87714786Y-83460109D01*
X87714788Y-83460106D01*
X87714792Y-83460104D01*
X87865104Y-83309792D01*
X87865106Y-83309788D01*
X87865109Y-83309786D01*
X87990048Y-83137820D01*
X87990047Y-83137820D01*
X87990051Y-83137816D01*
X88086557Y-82948412D01*
X88152246Y-82746243D01*
X88185500Y-82536287D01*
X88185500Y-82323713D01*
X88152246Y-82113757D01*
X88086557Y-81911588D01*
X87990051Y-81722184D01*
X87990049Y-81722181D01*
X87990048Y-81722179D01*
X87865109Y-81550213D01*
X87714786Y-81399890D01*
X87542820Y-81274951D01*
X87542115Y-81274591D01*
X87534054Y-81270485D01*
X87483259Y-81222512D01*
X87466463Y-81154692D01*
X87488999Y-81088556D01*
X87534054Y-81049515D01*
X87542816Y-81045051D01*
X87584646Y-81014660D01*
X87714786Y-80920109D01*
X87714788Y-80920106D01*
X87714792Y-80920104D01*
X87865104Y-80769792D01*
X87865106Y-80769788D01*
X87865109Y-80769786D01*
X87990048Y-80597820D01*
X87990047Y-80597820D01*
X87990051Y-80597816D01*
X88086557Y-80408412D01*
X88152246Y-80206243D01*
X88185500Y-79996287D01*
X88185500Y-79783713D01*
X88152246Y-79573757D01*
X88086557Y-79371588D01*
X87990051Y-79182184D01*
X87990049Y-79182181D01*
X87990048Y-79182179D01*
X87865109Y-79010213D01*
X87751181Y-78896285D01*
X87717696Y-78834962D01*
X87722680Y-78765270D01*
X87764552Y-78709337D01*
X87795529Y-78692422D01*
X87927086Y-78643354D01*
X87927093Y-78643350D01*
X88042187Y-78557190D01*
X88042190Y-78557187D01*
X88128350Y-78442093D01*
X88128354Y-78442086D01*
X88178596Y-78307379D01*
X88178598Y-78307372D01*
X88184999Y-78247844D01*
X88185000Y-78247827D01*
X88185000Y-77600000D01*
X87279560Y-77600000D01*
X87310245Y-77546853D01*
X87345000Y-77417143D01*
X87345000Y-77282857D01*
X87310245Y-77153147D01*
X87279560Y-77100000D01*
X88185000Y-77100000D01*
X88185000Y-76452172D01*
X88184999Y-76452155D01*
X88178598Y-76392627D01*
X88178596Y-76392620D01*
X88128354Y-76257913D01*
X88128350Y-76257906D01*
X88042190Y-76142812D01*
X88042187Y-76142809D01*
X87927093Y-76056649D01*
X87927088Y-76056646D01*
X87795528Y-76007577D01*
X87739595Y-75965705D01*
X87715178Y-75900241D01*
X87730030Y-75831968D01*
X87751175Y-75803720D01*
X87865104Y-75689792D01*
X87990051Y-75517816D01*
X88086557Y-75328412D01*
X88152246Y-75126243D01*
X88185500Y-74916287D01*
X88185500Y-74703713D01*
X88152246Y-74493757D01*
X88086557Y-74291588D01*
X87990051Y-74102184D01*
X87990049Y-74102181D01*
X87990048Y-74102179D01*
X87865109Y-73930213D01*
X87714786Y-73779890D01*
X87542820Y-73654951D01*
X87542115Y-73654591D01*
X87534054Y-73650485D01*
X87483259Y-73602512D01*
X87466463Y-73534692D01*
X87488999Y-73468556D01*
X87534054Y-73429515D01*
X87542816Y-73425051D01*
X87605954Y-73379179D01*
X87714786Y-73300109D01*
X87714788Y-73300106D01*
X87714792Y-73300104D01*
X87865104Y-73149792D01*
X87865106Y-73149788D01*
X87865109Y-73149786D01*
X87990048Y-72977820D01*
X87990047Y-72977820D01*
X87990051Y-72977816D01*
X88086557Y-72788412D01*
X88152246Y-72586243D01*
X88185500Y-72376287D01*
X88185500Y-72163713D01*
X88152246Y-71953757D01*
X88086557Y-71751588D01*
X87990051Y-71562184D01*
X87990049Y-71562181D01*
X87990048Y-71562179D01*
X87865109Y-71390213D01*
X87714786Y-71239890D01*
X87542820Y-71114951D01*
X87542115Y-71114591D01*
X87534054Y-71110485D01*
X87483259Y-71062512D01*
X87466463Y-70994692D01*
X87488999Y-70928556D01*
X87534054Y-70889515D01*
X87542816Y-70885051D01*
X87564789Y-70869086D01*
X87714786Y-70760109D01*
X87714788Y-70760106D01*
X87714792Y-70760104D01*
X87865104Y-70609792D01*
X87865106Y-70609788D01*
X87865109Y-70609786D01*
X87990048Y-70437820D01*
X87990047Y-70437820D01*
X87990051Y-70437816D01*
X88086557Y-70248412D01*
X88152246Y-70046243D01*
X88185500Y-69836287D01*
X88185500Y-69623713D01*
X88152246Y-69413757D01*
X88086557Y-69211588D01*
X87990051Y-69022184D01*
X87990049Y-69022181D01*
X87990048Y-69022179D01*
X87865109Y-68850213D01*
X87714786Y-68699890D01*
X87542820Y-68574951D01*
X87542115Y-68574591D01*
X87534054Y-68570485D01*
X87483259Y-68522512D01*
X87466463Y-68454692D01*
X87488999Y-68388556D01*
X87534054Y-68349515D01*
X87542816Y-68345051D01*
X87564789Y-68329086D01*
X87714786Y-68220109D01*
X87714788Y-68220106D01*
X87714792Y-68220104D01*
X87865104Y-68069792D01*
X87865106Y-68069788D01*
X87865109Y-68069786D01*
X87990048Y-67897820D01*
X87990047Y-67897820D01*
X87990051Y-67897816D01*
X88086557Y-67708412D01*
X88152246Y-67506243D01*
X88185500Y-67296287D01*
X88185500Y-67083713D01*
X88152246Y-66873757D01*
X88138507Y-66831476D01*
X88138072Y-66816262D01*
X88132754Y-66802000D01*
X88137094Y-66782049D01*
X88136511Y-66761637D01*
X88144601Y-66747547D01*
X88147608Y-66733727D01*
X88168757Y-66705477D01*
X88185861Y-66688373D01*
X88197420Y-66676816D01*
X88258744Y-66643333D01*
X88285098Y-66640500D01*
X103202873Y-66640500D01*
X103269912Y-66660185D01*
X103315667Y-66712989D01*
X103325611Y-66782147D01*
X103320805Y-66802813D01*
X103299080Y-66869673D01*
X103297753Y-66873760D01*
X103264500Y-67083713D01*
X103264500Y-67296286D01*
X103297753Y-67506239D01*
X103363444Y-67708414D01*
X103459951Y-67897820D01*
X103584890Y-68069786D01*
X103735213Y-68220109D01*
X103907182Y-68345050D01*
X103915946Y-68349516D01*
X103966742Y-68397491D01*
X103983536Y-68465312D01*
X103960998Y-68531447D01*
X103915946Y-68570484D01*
X103907182Y-68574949D01*
X103735213Y-68699890D01*
X103584890Y-68850213D01*
X103459951Y-69022179D01*
X103363444Y-69211585D01*
X103297753Y-69413760D01*
X103264500Y-69623713D01*
X103264500Y-69836286D01*
X103297753Y-70046239D01*
X103363444Y-70248414D01*
X103459951Y-70437820D01*
X103584890Y-70609786D01*
X103735213Y-70760109D01*
X103907182Y-70885050D01*
X103915946Y-70889516D01*
X103966742Y-70937491D01*
X103983536Y-71005312D01*
X103960998Y-71071447D01*
X103915946Y-71110484D01*
X103907182Y-71114949D01*
X103735213Y-71239890D01*
X103584890Y-71390213D01*
X103459951Y-71562179D01*
X103363444Y-71751585D01*
X103297753Y-71953760D01*
X103264500Y-72163713D01*
X103264500Y-72376286D01*
X103289458Y-72533869D01*
X103297754Y-72586243D01*
X103356324Y-72766503D01*
X103363444Y-72788414D01*
X103459951Y-72977820D01*
X103584890Y-73149786D01*
X103735213Y-73300109D01*
X103907182Y-73425050D01*
X103915946Y-73429516D01*
X103966742Y-73477491D01*
X103983536Y-73545312D01*
X103960998Y-73611447D01*
X103915946Y-73650484D01*
X103907182Y-73654949D01*
X103735213Y-73779890D01*
X103584890Y-73930213D01*
X103459951Y-74102179D01*
X103363444Y-74291585D01*
X103297753Y-74493760D01*
X103264500Y-74703713D01*
X103264500Y-74916286D01*
X103297753Y-75126239D01*
X103363444Y-75328414D01*
X103459951Y-75517820D01*
X103584890Y-75689786D01*
X103698818Y-75803714D01*
X103732303Y-75865037D01*
X103727319Y-75934729D01*
X103685447Y-75990662D01*
X103654471Y-76007577D01*
X103522912Y-76056646D01*
X103522906Y-76056649D01*
X103407812Y-76142809D01*
X103407809Y-76142812D01*
X103321649Y-76257906D01*
X103321645Y-76257913D01*
X103271403Y-76392620D01*
X103271401Y-76392627D01*
X103265000Y-76452155D01*
X103265000Y-77100000D01*
X104170440Y-77100000D01*
X104139755Y-77153147D01*
X104105000Y-77282857D01*
X104105000Y-77417143D01*
X104139755Y-77546853D01*
X104170440Y-77600000D01*
X103265000Y-77600000D01*
X103265000Y-78247844D01*
X103271401Y-78307372D01*
X103271403Y-78307379D01*
X103321645Y-78442086D01*
X103321649Y-78442093D01*
X103407809Y-78557187D01*
X103407812Y-78557190D01*
X103522906Y-78643350D01*
X103522913Y-78643354D01*
X103654470Y-78692422D01*
X103710404Y-78734293D01*
X103734821Y-78799758D01*
X103719969Y-78868031D01*
X103698819Y-78896285D01*
X103584889Y-79010215D01*
X103459951Y-79182179D01*
X103363444Y-79371585D01*
X103297753Y-79573760D01*
X103282327Y-79671158D01*
X103264500Y-79783713D01*
X103264500Y-79996287D01*
X103297754Y-80206243D01*
X103351543Y-80371789D01*
X103363444Y-80408414D01*
X103459951Y-80597820D01*
X103584890Y-80769786D01*
X103735213Y-80920109D01*
X103907182Y-81045050D01*
X103915946Y-81049516D01*
X103966742Y-81097491D01*
X103983536Y-81165312D01*
X103960998Y-81231447D01*
X103915946Y-81270484D01*
X103907182Y-81274949D01*
X103735213Y-81399890D01*
X103584890Y-81550213D01*
X103459951Y-81722179D01*
X103363444Y-81911585D01*
X103297753Y-82113760D01*
X103264500Y-82323713D01*
X103264500Y-82536286D01*
X103297753Y-82746239D01*
X103363444Y-82948414D01*
X103459951Y-83137820D01*
X103584890Y-83309786D01*
X103735213Y-83460109D01*
X103907182Y-83585050D01*
X103915946Y-83589516D01*
X103966742Y-83637491D01*
X103983536Y-83705312D01*
X103960998Y-83771447D01*
X103915946Y-83810484D01*
X103907182Y-83814949D01*
X103735213Y-83939890D01*
X103584890Y-84090213D01*
X103459951Y-84262179D01*
X103363444Y-84451585D01*
X103297753Y-84653760D01*
X103264500Y-84863713D01*
X103264500Y-85076286D01*
X103297753Y-85286239D01*
X103363444Y-85488414D01*
X103459951Y-85677820D01*
X103584890Y-85849786D01*
X103735213Y-86000109D01*
X103907182Y-86125050D01*
X103915946Y-86129516D01*
X103966742Y-86177491D01*
X103983536Y-86245312D01*
X103960998Y-86311447D01*
X103915946Y-86350484D01*
X103907182Y-86354949D01*
X103735213Y-86479890D01*
X103584890Y-86630213D01*
X103459951Y-86802179D01*
X103363444Y-86991585D01*
X103297753Y-87193760D01*
X103264500Y-87403713D01*
X103264500Y-87616286D01*
X103297753Y-87826239D01*
X103363444Y-88028414D01*
X103459951Y-88217820D01*
X103584890Y-88389786D01*
X103698818Y-88503714D01*
X103732303Y-88565037D01*
X103727319Y-88634729D01*
X103685447Y-88690662D01*
X103654471Y-88707577D01*
X103522912Y-88756646D01*
X103522906Y-88756649D01*
X103407812Y-88842809D01*
X103407809Y-88842812D01*
X103321649Y-88957906D01*
X103321645Y-88957913D01*
X103271403Y-89092620D01*
X103271401Y-89092627D01*
X103265000Y-89152155D01*
X103265000Y-89800000D01*
X104170440Y-89800000D01*
X104139755Y-89853147D01*
X104105000Y-89982857D01*
X104105000Y-90117143D01*
X104139755Y-90246853D01*
X104170440Y-90300000D01*
X103265000Y-90300000D01*
X103265000Y-90947844D01*
X103271401Y-91007372D01*
X103271403Y-91007379D01*
X103321645Y-91142086D01*
X103321649Y-91142093D01*
X103407809Y-91257187D01*
X103407812Y-91257190D01*
X103522906Y-91343350D01*
X103522913Y-91343354D01*
X103654470Y-91392422D01*
X103710404Y-91434293D01*
X103734821Y-91499758D01*
X103719969Y-91568031D01*
X103698819Y-91596285D01*
X103584889Y-91710215D01*
X103459951Y-91882179D01*
X103363444Y-92071585D01*
X103297753Y-92273760D01*
X103264500Y-92483713D01*
X103264500Y-92696286D01*
X103297753Y-92906239D01*
X103363444Y-93108414D01*
X103459951Y-93297820D01*
X103584890Y-93469786D01*
X103735213Y-93620109D01*
X103907182Y-93745050D01*
X103915946Y-93749516D01*
X103966742Y-93797491D01*
X103983536Y-93865312D01*
X103960998Y-93931447D01*
X103915946Y-93970484D01*
X103907182Y-93974949D01*
X103735213Y-94099890D01*
X103584890Y-94250213D01*
X103459951Y-94422179D01*
X103363444Y-94611585D01*
X103297753Y-94813760D01*
X103264500Y-95023713D01*
X103264500Y-95236286D01*
X103296592Y-95438910D01*
X103297754Y-95446243D01*
X103357828Y-95631132D01*
X103363444Y-95648414D01*
X103459951Y-95837820D01*
X103584890Y-96009786D01*
X103735213Y-96160109D01*
X103907179Y-96285048D01*
X103907181Y-96285049D01*
X103907184Y-96285051D01*
X104096588Y-96381557D01*
X104298757Y-96447246D01*
X104508713Y-96480500D01*
X104508714Y-96480500D01*
X104721286Y-96480500D01*
X104721287Y-96480500D01*
X104931243Y-96447246D01*
X105133412Y-96381557D01*
X105322816Y-96285051D01*
X105379872Y-96243598D01*
X105494786Y-96160109D01*
X105494788Y-96160106D01*
X105494792Y-96160104D01*
X105645104Y-96009792D01*
X105645106Y-96009788D01*
X105645109Y-96009786D01*
X105770048Y-95837820D01*
X105770047Y-95837820D01*
X105770051Y-95837816D01*
X105866557Y-95648412D01*
X105932246Y-95446243D01*
X105965500Y-95236287D01*
X105965500Y-95023713D01*
X105932246Y-94813757D01*
X105866557Y-94611588D01*
X105770051Y-94422184D01*
X105770049Y-94422181D01*
X105770048Y-94422179D01*
X105645109Y-94250213D01*
X105494786Y-94099890D01*
X105322820Y-93974951D01*
X105322115Y-93974591D01*
X105314054Y-93970485D01*
X105263259Y-93922512D01*
X105246463Y-93854692D01*
X105268999Y-93788556D01*
X105314054Y-93749515D01*
X105322816Y-93745051D01*
X105344789Y-93729086D01*
X105494786Y-93620109D01*
X105494788Y-93620106D01*
X105494792Y-93620104D01*
X105645104Y-93469792D01*
X105645106Y-93469788D01*
X105645109Y-93469786D01*
X105770048Y-93297820D01*
X105770047Y-93297820D01*
X105770051Y-93297816D01*
X105866557Y-93108412D01*
X105932246Y-92906243D01*
X105965500Y-92696287D01*
X105965500Y-92483713D01*
X105932246Y-92273757D01*
X105866557Y-92071588D01*
X105770051Y-91882184D01*
X105770049Y-91882181D01*
X105770048Y-91882179D01*
X105645109Y-91710213D01*
X105531181Y-91596285D01*
X105497696Y-91534962D01*
X105502680Y-91465270D01*
X105544552Y-91409337D01*
X105575529Y-91392422D01*
X105707086Y-91343354D01*
X105707093Y-91343350D01*
X105822187Y-91257190D01*
X105822190Y-91257187D01*
X105908350Y-91142093D01*
X105908354Y-91142086D01*
X105958596Y-91007379D01*
X105958598Y-91007372D01*
X105964999Y-90947844D01*
X105965000Y-90947827D01*
X105965000Y-90300000D01*
X105059560Y-90300000D01*
X105090245Y-90246853D01*
X105125000Y-90117143D01*
X105125000Y-89982857D01*
X105090245Y-89853147D01*
X105059560Y-89800000D01*
X105965000Y-89800000D01*
X105965000Y-89152172D01*
X105964999Y-89152155D01*
X105958598Y-89092627D01*
X105958596Y-89092620D01*
X105908354Y-88957913D01*
X105908350Y-88957906D01*
X105822190Y-88842812D01*
X105822187Y-88842809D01*
X105707093Y-88756649D01*
X105707088Y-88756646D01*
X105575528Y-88707577D01*
X105519595Y-88665705D01*
X105495178Y-88600241D01*
X105510030Y-88531968D01*
X105531175Y-88503720D01*
X105645104Y-88389792D01*
X105770051Y-88217816D01*
X105866557Y-88028412D01*
X105932246Y-87826243D01*
X105965500Y-87616287D01*
X105965500Y-87403713D01*
X105932246Y-87193757D01*
X105866557Y-86991588D01*
X105770051Y-86802184D01*
X105770049Y-86802181D01*
X105770048Y-86802179D01*
X105645109Y-86630213D01*
X105494786Y-86479890D01*
X105322820Y-86354951D01*
X105322115Y-86354591D01*
X105314054Y-86350485D01*
X105263259Y-86302512D01*
X105246463Y-86234692D01*
X105268999Y-86168556D01*
X105314054Y-86129515D01*
X105322816Y-86125051D01*
X105344789Y-86109086D01*
X105494786Y-86000109D01*
X105494788Y-86000106D01*
X105494792Y-86000104D01*
X105645104Y-85849792D01*
X105645106Y-85849788D01*
X105645109Y-85849786D01*
X105770048Y-85677820D01*
X105770047Y-85677820D01*
X105770051Y-85677816D01*
X105866557Y-85488412D01*
X105932246Y-85286243D01*
X105965500Y-85076287D01*
X105965500Y-84863713D01*
X105932246Y-84653757D01*
X105866557Y-84451588D01*
X105770051Y-84262184D01*
X105770049Y-84262181D01*
X105770048Y-84262179D01*
X105645109Y-84090213D01*
X105494786Y-83939890D01*
X105322820Y-83814951D01*
X105322115Y-83814591D01*
X105314054Y-83810485D01*
X105263259Y-83762512D01*
X105246463Y-83694692D01*
X105268999Y-83628556D01*
X105314054Y-83589515D01*
X105322816Y-83585051D01*
X105344789Y-83569086D01*
X105494786Y-83460109D01*
X105494788Y-83460106D01*
X105494792Y-83460104D01*
X105645104Y-83309792D01*
X105645106Y-83309788D01*
X105645109Y-83309786D01*
X105770048Y-83137820D01*
X105770047Y-83137820D01*
X105770051Y-83137816D01*
X105866557Y-82948412D01*
X105932246Y-82746243D01*
X105965500Y-82536287D01*
X105965500Y-82323713D01*
X105932246Y-82113757D01*
X105866557Y-81911588D01*
X105770051Y-81722184D01*
X105770049Y-81722181D01*
X105770048Y-81722179D01*
X105645109Y-81550213D01*
X105494786Y-81399890D01*
X105322820Y-81274951D01*
X105322115Y-81274591D01*
X105314054Y-81270485D01*
X105263259Y-81222512D01*
X105246463Y-81154692D01*
X105268999Y-81088556D01*
X105314054Y-81049515D01*
X105322816Y-81045051D01*
X105364646Y-81014660D01*
X105494786Y-80920109D01*
X105494788Y-80920106D01*
X105494792Y-80920104D01*
X105645104Y-80769792D01*
X105645106Y-80769788D01*
X105645109Y-80769786D01*
X105770048Y-80597820D01*
X105770047Y-80597820D01*
X105770051Y-80597816D01*
X105866557Y-80408412D01*
X105932246Y-80206243D01*
X105965500Y-79996287D01*
X105965500Y-79783713D01*
X105932246Y-79573757D01*
X105866557Y-79371588D01*
X105770051Y-79182184D01*
X105770049Y-79182181D01*
X105770048Y-79182179D01*
X105645109Y-79010213D01*
X105531181Y-78896285D01*
X105497696Y-78834962D01*
X105502680Y-78765270D01*
X105544552Y-78709337D01*
X105575529Y-78692422D01*
X105707086Y-78643354D01*
X105707093Y-78643350D01*
X105822187Y-78557190D01*
X105822190Y-78557187D01*
X105908350Y-78442093D01*
X105908354Y-78442086D01*
X105958596Y-78307379D01*
X105958598Y-78307372D01*
X105964999Y-78247844D01*
X105965000Y-78247827D01*
X105965000Y-77600000D01*
X105059560Y-77600000D01*
X105090245Y-77546853D01*
X105125000Y-77417143D01*
X105125000Y-77282857D01*
X105090245Y-77153147D01*
X105059560Y-77100000D01*
X105965000Y-77100000D01*
X105965000Y-76452172D01*
X105964999Y-76452155D01*
X105958598Y-76392627D01*
X105958596Y-76392620D01*
X105908354Y-76257913D01*
X105908350Y-76257906D01*
X105822190Y-76142812D01*
X105822187Y-76142809D01*
X105707093Y-76056649D01*
X105707088Y-76056646D01*
X105575528Y-76007577D01*
X105519595Y-75965705D01*
X105495178Y-75900241D01*
X105510030Y-75831968D01*
X105531175Y-75803720D01*
X105645104Y-75689792D01*
X105770051Y-75517816D01*
X105866557Y-75328412D01*
X105932246Y-75126243D01*
X105965500Y-74916287D01*
X105965500Y-74703713D01*
X105932246Y-74493757D01*
X105866557Y-74291588D01*
X105770051Y-74102184D01*
X105770049Y-74102181D01*
X105770048Y-74102179D01*
X105645109Y-73930213D01*
X105494786Y-73779890D01*
X105322820Y-73654951D01*
X105322115Y-73654591D01*
X105314054Y-73650485D01*
X105263259Y-73602512D01*
X105246463Y-73534692D01*
X105268999Y-73468556D01*
X105314054Y-73429515D01*
X105322816Y-73425051D01*
X105385954Y-73379179D01*
X105494786Y-73300109D01*
X105494788Y-73300106D01*
X105494792Y-73300104D01*
X105645104Y-73149792D01*
X105645106Y-73149788D01*
X105645109Y-73149786D01*
X105770048Y-72977820D01*
X105770047Y-72977820D01*
X105770051Y-72977816D01*
X105798922Y-72921153D01*
X109199500Y-72921153D01*
X109199500Y-73078846D01*
X109230261Y-73233489D01*
X109230264Y-73233501D01*
X109290602Y-73379172D01*
X109290609Y-73379185D01*
X109378602Y-73510874D01*
X109399480Y-73577551D01*
X109399500Y-73579765D01*
X109399500Y-75913330D01*
X109399499Y-75913348D01*
X109399499Y-76079054D01*
X109399498Y-76079054D01*
X109416582Y-76142812D01*
X109440423Y-76231785D01*
X109455508Y-76257913D01*
X109469358Y-76281900D01*
X109469359Y-76281904D01*
X109469360Y-76281904D01*
X109519479Y-76368714D01*
X109519481Y-76368717D01*
X109638349Y-76487585D01*
X109638355Y-76487590D01*
X114165425Y-81014660D01*
X114198910Y-81075983D01*
X114199361Y-81078149D01*
X114230261Y-81233491D01*
X114230264Y-81233501D01*
X114290602Y-81379172D01*
X114290609Y-81379185D01*
X114378210Y-81510288D01*
X114378213Y-81510292D01*
X114489707Y-81621786D01*
X114489711Y-81621789D01*
X114620814Y-81709390D01*
X114620827Y-81709397D01*
X114766498Y-81769735D01*
X114766503Y-81769737D01*
X114921153Y-81800499D01*
X114921156Y-81800500D01*
X114921158Y-81800500D01*
X115078844Y-81800500D01*
X115078845Y-81800499D01*
X115233497Y-81769737D01*
X115379179Y-81709394D01*
X115379185Y-81709390D01*
X115510875Y-81621398D01*
X115577553Y-81600520D01*
X115579766Y-81600500D01*
X124170234Y-81600500D01*
X124237273Y-81620185D01*
X124239125Y-81621398D01*
X124370814Y-81709390D01*
X124370827Y-81709397D01*
X124516498Y-81769735D01*
X124516503Y-81769737D01*
X124671153Y-81800499D01*
X124671156Y-81800500D01*
X124671158Y-81800500D01*
X124828844Y-81800500D01*
X124828845Y-81800499D01*
X124983497Y-81769737D01*
X125129179Y-81709394D01*
X125260289Y-81621789D01*
X125371789Y-81510289D01*
X125459394Y-81379179D01*
X125488472Y-81308977D01*
X125532312Y-81254574D01*
X125578842Y-81234813D01*
X125733497Y-81204050D01*
X125879179Y-81143707D01*
X126010289Y-81056102D01*
X126121789Y-80944602D01*
X126209394Y-80813492D01*
X126269737Y-80667810D01*
X126275434Y-80639168D01*
X126307818Y-80577260D01*
X126368533Y-80542685D01*
X126372848Y-80541746D01*
X126483497Y-80519737D01*
X126629179Y-80459394D01*
X126760289Y-80371789D01*
X126871789Y-80260289D01*
X126959394Y-80129179D01*
X127019737Y-79983497D01*
X127050500Y-79828842D01*
X127050500Y-79671158D01*
X127050500Y-79671155D01*
X127050499Y-79671153D01*
X127031126Y-79573760D01*
X127019737Y-79516503D01*
X126959712Y-79371588D01*
X126959397Y-79370827D01*
X126959390Y-79370814D01*
X126871789Y-79239711D01*
X126871786Y-79239707D01*
X126760292Y-79128213D01*
X126760288Y-79128210D01*
X126629185Y-79040609D01*
X126629172Y-79040602D01*
X126483501Y-78980264D01*
X126483489Y-78980261D01*
X126328845Y-78949500D01*
X126328842Y-78949500D01*
X126171158Y-78949500D01*
X126171155Y-78949500D01*
X126016510Y-78980261D01*
X126016498Y-78980264D01*
X125870827Y-79040602D01*
X125870814Y-79040609D01*
X125739125Y-79128602D01*
X125672447Y-79149480D01*
X125670234Y-79149500D01*
X117079766Y-79149500D01*
X117012727Y-79129815D01*
X117010875Y-79128602D01*
X116879185Y-79040609D01*
X116879172Y-79040602D01*
X116733501Y-78980264D01*
X116733489Y-78980261D01*
X116578845Y-78949500D01*
X116578842Y-78949500D01*
X116421158Y-78949500D01*
X116421155Y-78949500D01*
X116266510Y-78980261D01*
X116266498Y-78980264D01*
X116120827Y-79040602D01*
X116120814Y-79040609D01*
X116066972Y-79076586D01*
X116000294Y-79097464D01*
X115932914Y-79078979D01*
X115910400Y-79061165D01*
X112636819Y-75787584D01*
X112603334Y-75726261D01*
X112600500Y-75699903D01*
X112600500Y-73579765D01*
X112620185Y-73512726D01*
X112621398Y-73510874D01*
X112709390Y-73379185D01*
X112709390Y-73379184D01*
X112709394Y-73379179D01*
X112769737Y-73233497D01*
X112800500Y-73078842D01*
X112800500Y-72921158D01*
X112800500Y-72921155D01*
X112800499Y-72921153D01*
X112769738Y-72766510D01*
X112769737Y-72766503D01*
X112760314Y-72743753D01*
X112709397Y-72620827D01*
X112709390Y-72620814D01*
X112621789Y-72489711D01*
X112621786Y-72489707D01*
X112510292Y-72378213D01*
X112510288Y-72378210D01*
X112379185Y-72290609D01*
X112379172Y-72290602D01*
X112233501Y-72230264D01*
X112233489Y-72230261D01*
X112078845Y-72199500D01*
X112078842Y-72199500D01*
X111921158Y-72199500D01*
X111921155Y-72199500D01*
X111766510Y-72230261D01*
X111766498Y-72230264D01*
X111620827Y-72290602D01*
X111620814Y-72290609D01*
X111568891Y-72325304D01*
X111502214Y-72346182D01*
X111434833Y-72327698D01*
X111431109Y-72325304D01*
X111379185Y-72290609D01*
X111379172Y-72290602D01*
X111233501Y-72230264D01*
X111233489Y-72230261D01*
X111078845Y-72199500D01*
X111078842Y-72199500D01*
X110921158Y-72199500D01*
X110921155Y-72199500D01*
X110766510Y-72230261D01*
X110766498Y-72230264D01*
X110620827Y-72290602D01*
X110620814Y-72290609D01*
X110568891Y-72325304D01*
X110502214Y-72346182D01*
X110434833Y-72327698D01*
X110431109Y-72325304D01*
X110379185Y-72290609D01*
X110379172Y-72290602D01*
X110233501Y-72230264D01*
X110233489Y-72230261D01*
X110078845Y-72199500D01*
X110078842Y-72199500D01*
X109921158Y-72199500D01*
X109921155Y-72199500D01*
X109766510Y-72230261D01*
X109766498Y-72230264D01*
X109620827Y-72290602D01*
X109620814Y-72290609D01*
X109489711Y-72378210D01*
X109489707Y-72378213D01*
X109378213Y-72489707D01*
X109378210Y-72489711D01*
X109290609Y-72620814D01*
X109290602Y-72620827D01*
X109230264Y-72766498D01*
X109230261Y-72766510D01*
X109199500Y-72921153D01*
X105798922Y-72921153D01*
X105866557Y-72788412D01*
X105932246Y-72586243D01*
X105965500Y-72376287D01*
X105965500Y-72163713D01*
X105932246Y-71953757D01*
X105866557Y-71751588D01*
X105770051Y-71562184D01*
X105770049Y-71562181D01*
X105770048Y-71562179D01*
X105645109Y-71390213D01*
X105494786Y-71239890D01*
X105322820Y-71114951D01*
X105322115Y-71114591D01*
X105314054Y-71110485D01*
X105263259Y-71062512D01*
X105246463Y-70994692D01*
X105268999Y-70928556D01*
X105314054Y-70889515D01*
X105322816Y-70885051D01*
X105344789Y-70869086D01*
X105494786Y-70760109D01*
X105494788Y-70760106D01*
X105494792Y-70760104D01*
X105645104Y-70609792D01*
X105645106Y-70609788D01*
X105645109Y-70609786D01*
X105770048Y-70437820D01*
X105770047Y-70437820D01*
X105770051Y-70437816D01*
X105866557Y-70248412D01*
X105932246Y-70046243D01*
X105965500Y-69836287D01*
X105965500Y-69623713D01*
X105932246Y-69413757D01*
X105866557Y-69211588D01*
X105770051Y-69022184D01*
X105770049Y-69022181D01*
X105770048Y-69022179D01*
X105645109Y-68850213D01*
X105494786Y-68699890D01*
X105322820Y-68574951D01*
X105322115Y-68574591D01*
X105314054Y-68570485D01*
X105263259Y-68522512D01*
X105246463Y-68454692D01*
X105268999Y-68388556D01*
X105314054Y-68349515D01*
X105322816Y-68345051D01*
X105344789Y-68329086D01*
X105494786Y-68220109D01*
X105494788Y-68220106D01*
X105494792Y-68220104D01*
X105645104Y-68069792D01*
X105645106Y-68069788D01*
X105645109Y-68069786D01*
X105770048Y-67897820D01*
X105770047Y-67897820D01*
X105770051Y-67897816D01*
X105866557Y-67708412D01*
X105932246Y-67506243D01*
X105965500Y-67296287D01*
X105965500Y-67083713D01*
X105932246Y-66873757D01*
X105909195Y-66802816D01*
X105907201Y-66732977D01*
X105943281Y-66673144D01*
X106005982Y-66642316D01*
X106027127Y-66640500D01*
X115739903Y-66640500D01*
X115806942Y-66660185D01*
X115827584Y-66676819D01*
X117863181Y-68712416D01*
X117896666Y-68773739D01*
X117899500Y-68800097D01*
X117899500Y-71382465D01*
X117879815Y-71449504D01*
X117827011Y-71495259D01*
X117788102Y-71505823D01*
X117747202Y-71510001D01*
X117747200Y-71510001D01*
X117580668Y-71565185D01*
X117580663Y-71565187D01*
X117431342Y-71657289D01*
X117307289Y-71781342D01*
X117215187Y-71930663D01*
X117215185Y-71930668D01*
X117210180Y-71945772D01*
X117160001Y-72097203D01*
X117160001Y-72097204D01*
X117160000Y-72097204D01*
X117149500Y-72199983D01*
X117149500Y-73800001D01*
X117149501Y-73800018D01*
X117160000Y-73902796D01*
X117160001Y-73902799D01*
X117194031Y-74005493D01*
X117215186Y-74069334D01*
X117307288Y-74218656D01*
X117431344Y-74342712D01*
X117580666Y-74434814D01*
X117747203Y-74489999D01*
X117849991Y-74500500D01*
X119150008Y-74500499D01*
X119252797Y-74489999D01*
X119419334Y-74434814D01*
X119568656Y-74342712D01*
X119692712Y-74218656D01*
X119784814Y-74069334D01*
X119784814Y-74069331D01*
X119788448Y-74063441D01*
X119840395Y-74016716D01*
X119909358Y-74005493D01*
X119973440Y-74033336D01*
X119981668Y-74040856D01*
X120120535Y-74179723D01*
X120120540Y-74179727D01*
X120292442Y-74304620D01*
X120481782Y-74401095D01*
X120683871Y-74466757D01*
X120750000Y-74477231D01*
X120750000Y-73433012D01*
X120807007Y-73465925D01*
X120934174Y-73500000D01*
X121065826Y-73500000D01*
X121192993Y-73465925D01*
X121250000Y-73433012D01*
X121250000Y-74477230D01*
X121316126Y-74466757D01*
X121316129Y-74466757D01*
X121518217Y-74401095D01*
X121707557Y-74304620D01*
X121879459Y-74179727D01*
X121879464Y-74179723D01*
X122029723Y-74029464D01*
X122029727Y-74029459D01*
X122154620Y-73857557D01*
X122251095Y-73668217D01*
X122316757Y-73466130D01*
X122316757Y-73466127D01*
X122350000Y-73256246D01*
X122350000Y-73250000D01*
X121433012Y-73250000D01*
X121465925Y-73192993D01*
X121500000Y-73065826D01*
X121500000Y-72934174D01*
X121465925Y-72807007D01*
X121433012Y-72750000D01*
X122350000Y-72750000D01*
X122350000Y-72743753D01*
X122316757Y-72533872D01*
X122316757Y-72533869D01*
X122251095Y-72331782D01*
X122154620Y-72142442D01*
X122029727Y-71970540D01*
X122029723Y-71970535D01*
X121879464Y-71820276D01*
X121879459Y-71820272D01*
X121707557Y-71695379D01*
X121518215Y-71598903D01*
X121316124Y-71533241D01*
X121250000Y-71522768D01*
X121250000Y-72566988D01*
X121192993Y-72534075D01*
X121065826Y-72500000D01*
X120934174Y-72500000D01*
X120807007Y-72534075D01*
X120750000Y-72566988D01*
X120750000Y-71522768D01*
X120749999Y-71522768D01*
X120683875Y-71533241D01*
X120481784Y-71598903D01*
X120292442Y-71695379D01*
X120120541Y-71820271D01*
X119981668Y-71959144D01*
X119920345Y-71992628D01*
X119850653Y-71987644D01*
X119794720Y-71945772D01*
X119788448Y-71936558D01*
X119692712Y-71781344D01*
X119568657Y-71657289D01*
X119568656Y-71657288D01*
X119419334Y-71565186D01*
X119252797Y-71510001D01*
X119252795Y-71510000D01*
X119211896Y-71505822D01*
X119147205Y-71479425D01*
X119107054Y-71422244D01*
X119100500Y-71382464D01*
X119100500Y-68420945D01*
X119100500Y-68420943D01*
X119059577Y-68268216D01*
X119031800Y-68220104D01*
X118980524Y-68131290D01*
X118980521Y-68131286D01*
X118980520Y-68131284D01*
X118868716Y-68019480D01*
X118868715Y-68019479D01*
X118864385Y-68015149D01*
X118864374Y-68015139D01*
X116527590Y-65678355D01*
X116527588Y-65678352D01*
X116408717Y-65559481D01*
X116408716Y-65559480D01*
X116321904Y-65509360D01*
X116321904Y-65509359D01*
X116321900Y-65509358D01*
X116271785Y-65480423D01*
X116119057Y-65439499D01*
X115960943Y-65439499D01*
X115953347Y-65439499D01*
X115953331Y-65439500D01*
X106089500Y-65439500D01*
X106022461Y-65419815D01*
X105976706Y-65367011D01*
X105965500Y-65315500D01*
X105965499Y-63752129D01*
X105965498Y-63752123D01*
X105965497Y-63752116D01*
X105959091Y-63692517D01*
X105908884Y-63557906D01*
X105908797Y-63557671D01*
X105908793Y-63557664D01*
X105822547Y-63442455D01*
X105822544Y-63442452D01*
X105707335Y-63356206D01*
X105707328Y-63356202D01*
X105575917Y-63307189D01*
X105519983Y-63265318D01*
X105495566Y-63199853D01*
X105510418Y-63131580D01*
X105531563Y-63103332D01*
X105645104Y-62989792D01*
X105770051Y-62817816D01*
X105866557Y-62628412D01*
X105932246Y-62426243D01*
X105965500Y-62216287D01*
X105965500Y-62003713D01*
X105932246Y-61793757D01*
X105866557Y-61591588D01*
X105770051Y-61402184D01*
X105770049Y-61402181D01*
X105770048Y-61402179D01*
X105645109Y-61230213D01*
X105494786Y-61079890D01*
X105322820Y-60954951D01*
X105322115Y-60954591D01*
X105314054Y-60950485D01*
X105263259Y-60902512D01*
X105246463Y-60834692D01*
X105268999Y-60768556D01*
X105314054Y-60729515D01*
X105322816Y-60725051D01*
X105344789Y-60709086D01*
X105494786Y-60600109D01*
X105494788Y-60600106D01*
X105494792Y-60600104D01*
X105645104Y-60449792D01*
X105645106Y-60449788D01*
X105645109Y-60449786D01*
X105770048Y-60277820D01*
X105770047Y-60277820D01*
X105770051Y-60277816D01*
X105866557Y-60088412D01*
X105932246Y-59886243D01*
X105965500Y-59676287D01*
X105965500Y-59463713D01*
X105932246Y-59253757D01*
X105866557Y-59051588D01*
X105770051Y-58862184D01*
X105770049Y-58862181D01*
X105770048Y-58862179D01*
X105645109Y-58690213D01*
X105494786Y-58539890D01*
X105322820Y-58414951D01*
X105322115Y-58414591D01*
X105314054Y-58410485D01*
X105263259Y-58362512D01*
X105246463Y-58294692D01*
X105268999Y-58228556D01*
X105314054Y-58189515D01*
X105322816Y-58185051D01*
X105344789Y-58169086D01*
X105494786Y-58060109D01*
X105494788Y-58060106D01*
X105494792Y-58060104D01*
X105645104Y-57909792D01*
X105645106Y-57909788D01*
X105645109Y-57909786D01*
X105770048Y-57737820D01*
X105770047Y-57737820D01*
X105770051Y-57737816D01*
X105866557Y-57548412D01*
X105932246Y-57346243D01*
X105965500Y-57136287D01*
X105965500Y-56923713D01*
X105932246Y-56713757D01*
X105866557Y-56511588D01*
X105770051Y-56322184D01*
X105770049Y-56322181D01*
X105770048Y-56322179D01*
X105645109Y-56150213D01*
X105494786Y-55999890D01*
X105322820Y-55874951D01*
X105322115Y-55874591D01*
X105314054Y-55870485D01*
X105263259Y-55822512D01*
X105246463Y-55754692D01*
X105268999Y-55688556D01*
X105314054Y-55649515D01*
X105322816Y-55645051D01*
X105344789Y-55629086D01*
X105494786Y-55520109D01*
X105494788Y-55520106D01*
X105494792Y-55520104D01*
X105645104Y-55369792D01*
X105645106Y-55369788D01*
X105645109Y-55369786D01*
X105770048Y-55197820D01*
X105770047Y-55197820D01*
X105770051Y-55197816D01*
X105866557Y-55008412D01*
X105932246Y-54806243D01*
X105965500Y-54596287D01*
X105965500Y-54383713D01*
X105932246Y-54173757D01*
X105866557Y-53971588D01*
X105770051Y-53782184D01*
X105770049Y-53782181D01*
X105770048Y-53782179D01*
X105645109Y-53610213D01*
X105531181Y-53496285D01*
X105497696Y-53434962D01*
X105502680Y-53365270D01*
X105544552Y-53309337D01*
X105575529Y-53292422D01*
X105707086Y-53243354D01*
X105707093Y-53243350D01*
X105822187Y-53157190D01*
X105822190Y-53157187D01*
X105908350Y-53042093D01*
X105908354Y-53042086D01*
X105958596Y-52907379D01*
X105958598Y-52907372D01*
X105964999Y-52847844D01*
X105965000Y-52847827D01*
X105965000Y-52200000D01*
X105059560Y-52200000D01*
X105090245Y-52146853D01*
X105125000Y-52017143D01*
X105125000Y-51882857D01*
X105090245Y-51753147D01*
X105059560Y-51700000D01*
X105965000Y-51700000D01*
X105965000Y-51052172D01*
X105964999Y-51052155D01*
X105958598Y-50992627D01*
X105958596Y-50992620D01*
X105908354Y-50857913D01*
X105908350Y-50857906D01*
X105822190Y-50742812D01*
X105822187Y-50742809D01*
X105707093Y-50656649D01*
X105707088Y-50656646D01*
X105575528Y-50607577D01*
X105519595Y-50565705D01*
X105495178Y-50500241D01*
X105510030Y-50431968D01*
X105531175Y-50403720D01*
X105645104Y-50289792D01*
X105770051Y-50117816D01*
X105866557Y-49928412D01*
X105932246Y-49726243D01*
X105965500Y-49516287D01*
X105965500Y-49303713D01*
X105932246Y-49093757D01*
X105866557Y-48891588D01*
X105770051Y-48702184D01*
X105770049Y-48702181D01*
X105770048Y-48702179D01*
X105645109Y-48530213D01*
X105494786Y-48379890D01*
X105486731Y-48374038D01*
X125399500Y-48374038D01*
X125399500Y-48625962D01*
X125423818Y-48779500D01*
X125438910Y-48874785D01*
X125516760Y-49114383D01*
X125568207Y-49215352D01*
X125613229Y-49303713D01*
X125631132Y-49338848D01*
X125779201Y-49542649D01*
X125779205Y-49542654D01*
X125957345Y-49720794D01*
X125957350Y-49720798D01*
X126135117Y-49849952D01*
X126161155Y-49868870D01*
X126304184Y-49941747D01*
X126385616Y-49983239D01*
X126385618Y-49983239D01*
X126385621Y-49983241D01*
X126625215Y-50061090D01*
X126874038Y-50100500D01*
X126874039Y-50100500D01*
X127125961Y-50100500D01*
X127125962Y-50100500D01*
X127374785Y-50061090D01*
X127614379Y-49983241D01*
X127838845Y-49868870D01*
X128042656Y-49720793D01*
X128220793Y-49542656D01*
X128368870Y-49338845D01*
X128483241Y-49114379D01*
X128561090Y-48874785D01*
X128600500Y-48625962D01*
X128600500Y-48374038D01*
X128561090Y-48125215D01*
X128483241Y-47885621D01*
X128483239Y-47885618D01*
X128483239Y-47885616D01*
X128441747Y-47804184D01*
X128368870Y-47661155D01*
X128279107Y-47537606D01*
X128220798Y-47457350D01*
X128220794Y-47457345D01*
X128042654Y-47279205D01*
X128042649Y-47279201D01*
X127838848Y-47131132D01*
X127838847Y-47131131D01*
X127838845Y-47131130D01*
X127768747Y-47095413D01*
X127614383Y-47016760D01*
X127374785Y-46938910D01*
X127125962Y-46899500D01*
X126874038Y-46899500D01*
X126749626Y-46919205D01*
X126625214Y-46938910D01*
X126385616Y-47016760D01*
X126161151Y-47131132D01*
X125957350Y-47279201D01*
X125957345Y-47279205D01*
X125779205Y-47457345D01*
X125779201Y-47457350D01*
X125631132Y-47661151D01*
X125516760Y-47885616D01*
X125438910Y-48125214D01*
X125438910Y-48125215D01*
X125399500Y-48374038D01*
X105486731Y-48374038D01*
X105322820Y-48254951D01*
X105322115Y-48254591D01*
X105314054Y-48250485D01*
X105263259Y-48202512D01*
X105246463Y-48134692D01*
X105268999Y-48068556D01*
X105314054Y-48029515D01*
X105322816Y-48025051D01*
X105344789Y-48009086D01*
X105494786Y-47900109D01*
X105494788Y-47900106D01*
X105494792Y-47900104D01*
X105645104Y-47749792D01*
X105645106Y-47749788D01*
X105645109Y-47749786D01*
X105770048Y-47577820D01*
X105770047Y-47577820D01*
X105770051Y-47577816D01*
X105866557Y-47388412D01*
X105932246Y-47186243D01*
X105965500Y-46976287D01*
X105965500Y-46763713D01*
X105932246Y-46553757D01*
X105866557Y-46351588D01*
X105779534Y-46180795D01*
X105766638Y-46112125D01*
X105792914Y-46047385D01*
X105850021Y-46007128D01*
X105890019Y-46000500D01*
X127934108Y-46000500D01*
X127995572Y-46000500D01*
X128004418Y-46000816D01*
X128204561Y-46015130D01*
X128222063Y-46017647D01*
X128413795Y-46059355D01*
X128430760Y-46064336D01*
X128614611Y-46132909D01*
X128630694Y-46140253D01*
X128735322Y-46197385D01*
X128802908Y-46234290D01*
X128817791Y-46243855D01*
X128974864Y-46361438D01*
X128988235Y-46373024D01*
X129126975Y-46511764D01*
X129138561Y-46525135D01*
X129256144Y-46682208D01*
X129265709Y-46697091D01*
X129359743Y-46869300D01*
X129367093Y-46885394D01*
X129435661Y-47069234D01*
X129440645Y-47086209D01*
X129482351Y-47277931D01*
X129484869Y-47295442D01*
X129499184Y-47495580D01*
X129499500Y-47504427D01*
X129499500Y-97995572D01*
X129499184Y-98004419D01*
X129484869Y-98204557D01*
X129482351Y-98222068D01*
X129440645Y-98413790D01*
X129435661Y-98430765D01*
X129367093Y-98614605D01*
X129359743Y-98630699D01*
X129265709Y-98802908D01*
X129256144Y-98817791D01*
X129138561Y-98974864D01*
X129126975Y-98988235D01*
X128988235Y-99126975D01*
X128974864Y-99138561D01*
X128817791Y-99256144D01*
X128802908Y-99265709D01*
X128630699Y-99359743D01*
X128614605Y-99367093D01*
X128430765Y-99435661D01*
X128413790Y-99440645D01*
X128222068Y-99482351D01*
X128204557Y-99484869D01*
X128023779Y-99497799D01*
X128004417Y-99499184D01*
X127995572Y-99499500D01*
X79004428Y-99499500D01*
X78995582Y-99499184D01*
X78973622Y-99497613D01*
X78795442Y-99484869D01*
X78777931Y-99482351D01*
X78586209Y-99440645D01*
X78569234Y-99435661D01*
X78385394Y-99367093D01*
X78369300Y-99359743D01*
X78197091Y-99265709D01*
X78182208Y-99256144D01*
X78025135Y-99138561D01*
X78011764Y-99126975D01*
X77873024Y-98988235D01*
X77861438Y-98974864D01*
X77743855Y-98817791D01*
X77734290Y-98802908D01*
X77640256Y-98630699D01*
X77632909Y-98614611D01*
X77564336Y-98430760D01*
X77559354Y-98413790D01*
X77549582Y-98368870D01*
X77517647Y-98222063D01*
X77515130Y-98204556D01*
X77500816Y-98004418D01*
X77500500Y-97995572D01*
X77500500Y-96874038D01*
X78399500Y-96874038D01*
X78399500Y-97125961D01*
X78438910Y-97374785D01*
X78516760Y-97614383D01*
X78631132Y-97838848D01*
X78779201Y-98042649D01*
X78779205Y-98042654D01*
X78957345Y-98220794D01*
X78957350Y-98220798D01*
X79135117Y-98349952D01*
X79161155Y-98368870D01*
X79249316Y-98413790D01*
X79385616Y-98483239D01*
X79385618Y-98483239D01*
X79385621Y-98483241D01*
X79625215Y-98561090D01*
X79874038Y-98600500D01*
X79874039Y-98600500D01*
X80125961Y-98600500D01*
X80125962Y-98600500D01*
X80374785Y-98561090D01*
X80614379Y-98483241D01*
X80838845Y-98368870D01*
X81042656Y-98220793D01*
X81220793Y-98042656D01*
X81368870Y-97838845D01*
X81483241Y-97614379D01*
X81561090Y-97374785D01*
X81600500Y-97125962D01*
X81600500Y-96874038D01*
X125399500Y-96874038D01*
X125399500Y-97125961D01*
X125438910Y-97374785D01*
X125516760Y-97614383D01*
X125631132Y-97838848D01*
X125779201Y-98042649D01*
X125779205Y-98042654D01*
X125957345Y-98220794D01*
X125957350Y-98220798D01*
X126135117Y-98349952D01*
X126161155Y-98368870D01*
X126249316Y-98413790D01*
X126385616Y-98483239D01*
X126385618Y-98483239D01*
X126385621Y-98483241D01*
X126625215Y-98561090D01*
X126874038Y-98600500D01*
X126874039Y-98600500D01*
X127125961Y-98600500D01*
X127125962Y-98600500D01*
X127374785Y-98561090D01*
X127614379Y-98483241D01*
X127838845Y-98368870D01*
X128042656Y-98220793D01*
X128220793Y-98042656D01*
X128368870Y-97838845D01*
X128483241Y-97614379D01*
X128561090Y-97374785D01*
X128600500Y-97125962D01*
X128600500Y-96874038D01*
X128561090Y-96625215D01*
X128483241Y-96385621D01*
X128483239Y-96385618D01*
X128483239Y-96385616D01*
X128431998Y-96285051D01*
X128368870Y-96161155D01*
X128258899Y-96009792D01*
X128220798Y-95957350D01*
X128220794Y-95957345D01*
X128042654Y-95779205D01*
X128042649Y-95779201D01*
X127838848Y-95631132D01*
X127838847Y-95631131D01*
X127838845Y-95631130D01*
X127768747Y-95595413D01*
X127614383Y-95516760D01*
X127374785Y-95438910D01*
X127245379Y-95418414D01*
X127125962Y-95399500D01*
X126874038Y-95399500D01*
X126754633Y-95418412D01*
X126625214Y-95438910D01*
X126385616Y-95516760D01*
X126161151Y-95631132D01*
X125957350Y-95779201D01*
X125957345Y-95779205D01*
X125779205Y-95957345D01*
X125779201Y-95957350D01*
X125631132Y-96161151D01*
X125516760Y-96385616D01*
X125438910Y-96625214D01*
X125399500Y-96874038D01*
X81600500Y-96874038D01*
X81561090Y-96625215D01*
X81483241Y-96385621D01*
X81483239Y-96385618D01*
X81483239Y-96385616D01*
X81431998Y-96285051D01*
X81368870Y-96161155D01*
X81258899Y-96009792D01*
X81220798Y-95957350D01*
X81220794Y-95957345D01*
X81042654Y-95779205D01*
X81042649Y-95779201D01*
X80838848Y-95631132D01*
X80838847Y-95631131D01*
X80838845Y-95631130D01*
X80768747Y-95595413D01*
X80614383Y-95516760D01*
X80374785Y-95438910D01*
X80245379Y-95418414D01*
X80125962Y-95399500D01*
X79874038Y-95399500D01*
X79754633Y-95418412D01*
X79625214Y-95438910D01*
X79385616Y-95516760D01*
X79161151Y-95631132D01*
X78957350Y-95779201D01*
X78957345Y-95779205D01*
X78779205Y-95957345D01*
X78779201Y-95957350D01*
X78631132Y-96161151D01*
X78516760Y-96385616D01*
X78438910Y-96625214D01*
X78399500Y-96874038D01*
X77500500Y-96874038D01*
X77500500Y-48374038D01*
X78399500Y-48374038D01*
X78399500Y-48625962D01*
X78423818Y-48779500D01*
X78438910Y-48874785D01*
X78516760Y-49114383D01*
X78568207Y-49215352D01*
X78613229Y-49303713D01*
X78631132Y-49338848D01*
X78779201Y-49542649D01*
X78779205Y-49542654D01*
X78957345Y-49720794D01*
X78957350Y-49720798D01*
X79135117Y-49849952D01*
X79161155Y-49868870D01*
X79304184Y-49941747D01*
X79385616Y-49983239D01*
X79385618Y-49983239D01*
X79385621Y-49983241D01*
X79625215Y-50061090D01*
X79874038Y-50100500D01*
X79874039Y-50100500D01*
X80125961Y-50100500D01*
X80125962Y-50100500D01*
X80374785Y-50061090D01*
X80614379Y-49983241D01*
X80838845Y-49868870D01*
X81042656Y-49720793D01*
X81220793Y-49542656D01*
X81368870Y-49338845D01*
X81483241Y-49114379D01*
X81561090Y-48874785D01*
X81600500Y-48625962D01*
X81600500Y-48374038D01*
X81561090Y-48125215D01*
X81483241Y-47885621D01*
X81483239Y-47885618D01*
X81483239Y-47885616D01*
X81441747Y-47804184D01*
X81368870Y-47661155D01*
X81279107Y-47537606D01*
X81220798Y-47457350D01*
X81220794Y-47457345D01*
X81042654Y-47279205D01*
X81042649Y-47279201D01*
X80838848Y-47131132D01*
X80838847Y-47131131D01*
X80838845Y-47131130D01*
X80768747Y-47095413D01*
X80614383Y-47016760D01*
X80374785Y-46938910D01*
X80125962Y-46899500D01*
X79874038Y-46899500D01*
X79749626Y-46919205D01*
X79625214Y-46938910D01*
X79385616Y-47016760D01*
X79161151Y-47131132D01*
X78957350Y-47279201D01*
X78957345Y-47279205D01*
X78779205Y-47457345D01*
X78779201Y-47457350D01*
X78631132Y-47661151D01*
X78516760Y-47885616D01*
X78438910Y-48125214D01*
X78438910Y-48125215D01*
X78399500Y-48374038D01*
X77500500Y-48374038D01*
X77500500Y-47504427D01*
X77500816Y-47495581D01*
X77515130Y-47295443D01*
X77515131Y-47295434D01*
X77517646Y-47277938D01*
X77559356Y-47086200D01*
X77564335Y-47069242D01*
X77632911Y-46885382D01*
X77640251Y-46869310D01*
X77734294Y-46697083D01*
X77743850Y-46682214D01*
X77861443Y-46525128D01*
X77873017Y-46511771D01*
X78011771Y-46373017D01*
X78025128Y-46361443D01*
X78182214Y-46243850D01*
X78197083Y-46234294D01*
X78369310Y-46140251D01*
X78385382Y-46132911D01*
X78569242Y-46064335D01*
X78586200Y-46059356D01*
X78777938Y-46017646D01*
X78795436Y-46015130D01*
X78995582Y-46000816D01*
X79004428Y-46000500D01*
X79065892Y-46000500D01*
X85559981Y-46000500D01*
X85627020Y-46020185D01*
G37*
%TD.AperFunction*%
%TA.AperFunction,Conductor*%
G36*
X91818741Y-46020185D02*
G01*
X91864496Y-46072989D01*
X91874440Y-46142147D01*
X91852020Y-46197385D01*
X91802187Y-46265974D01*
X91702104Y-46462393D01*
X91702103Y-46462396D01*
X91633985Y-46672047D01*
X91599500Y-46889778D01*
X91599500Y-47110221D01*
X91633985Y-47327952D01*
X91702103Y-47537603D01*
X91702104Y-47537606D01*
X91802187Y-47734025D01*
X91931752Y-47912358D01*
X91931756Y-47912363D01*
X92087636Y-48068243D01*
X92087641Y-48068247D01*
X92166052Y-48125215D01*
X92265978Y-48197815D01*
X92369346Y-48250484D01*
X92462393Y-48297895D01*
X92462396Y-48297896D01*
X92567221Y-48331955D01*
X92672049Y-48366015D01*
X92889778Y-48400500D01*
X92889779Y-48400500D01*
X93110221Y-48400500D01*
X93110222Y-48400500D01*
X93327951Y-48366015D01*
X93537606Y-48297895D01*
X93734022Y-48197815D01*
X93912365Y-48068242D01*
X94068242Y-47912365D01*
X94197815Y-47734022D01*
X94297895Y-47537606D01*
X94366015Y-47327951D01*
X94400500Y-47110222D01*
X94400500Y-46889778D01*
X94366015Y-46672049D01*
X94327580Y-46553757D01*
X94297896Y-46462396D01*
X94297895Y-46462393D01*
X94241434Y-46351585D01*
X94197815Y-46265978D01*
X94177880Y-46238540D01*
X94147980Y-46197385D01*
X94124500Y-46131579D01*
X94140326Y-46063525D01*
X94190431Y-46014830D01*
X94248298Y-46000500D01*
X97201702Y-46000500D01*
X97268741Y-46020185D01*
X97314496Y-46072989D01*
X97324440Y-46142147D01*
X97302020Y-46197385D01*
X97252187Y-46265974D01*
X97152104Y-46462393D01*
X97152103Y-46462396D01*
X97083985Y-46672047D01*
X97049500Y-46889778D01*
X97049500Y-47110221D01*
X97083985Y-47327952D01*
X97152103Y-47537603D01*
X97152104Y-47537606D01*
X97252187Y-47734025D01*
X97381752Y-47912358D01*
X97381756Y-47912363D01*
X97537636Y-48068243D01*
X97537641Y-48068247D01*
X97616052Y-48125215D01*
X97715978Y-48197815D01*
X97819346Y-48250484D01*
X97912393Y-48297895D01*
X97912396Y-48297896D01*
X98017221Y-48331955D01*
X98122049Y-48366015D01*
X98339778Y-48400500D01*
X98339779Y-48400500D01*
X98560221Y-48400500D01*
X98560222Y-48400500D01*
X98777951Y-48366015D01*
X98987606Y-48297895D01*
X99184022Y-48197815D01*
X99362365Y-48068242D01*
X99518242Y-47912365D01*
X99647815Y-47734022D01*
X99747895Y-47537606D01*
X99816015Y-47327951D01*
X99850500Y-47110222D01*
X99850500Y-46889778D01*
X99816015Y-46672049D01*
X99777580Y-46553757D01*
X99747896Y-46462396D01*
X99747895Y-46462393D01*
X99691434Y-46351585D01*
X99647815Y-46265978D01*
X99627880Y-46238540D01*
X99597980Y-46197385D01*
X99574500Y-46131579D01*
X99590326Y-46063525D01*
X99640431Y-46014830D01*
X99698298Y-46000500D01*
X103339981Y-46000500D01*
X103407020Y-46020185D01*
X103452775Y-46072989D01*
X103462719Y-46142147D01*
X103450466Y-46180795D01*
X103363444Y-46351585D01*
X103297753Y-46553760D01*
X103275052Y-46697091D01*
X103264500Y-46763713D01*
X103264500Y-46976287D01*
X103297754Y-47186243D01*
X103350555Y-47348748D01*
X103363444Y-47388414D01*
X103459951Y-47577820D01*
X103584890Y-47749786D01*
X103735213Y-47900109D01*
X103907182Y-48025050D01*
X103915946Y-48029516D01*
X103966742Y-48077491D01*
X103983536Y-48145312D01*
X103960998Y-48211447D01*
X103915946Y-48250484D01*
X103907182Y-48254949D01*
X103735213Y-48379890D01*
X103584890Y-48530213D01*
X103459951Y-48702179D01*
X103363444Y-48891585D01*
X103297753Y-49093760D01*
X103294487Y-49114383D01*
X103264500Y-49303713D01*
X103264500Y-49516287D01*
X103269835Y-49549970D01*
X103297753Y-49726239D01*
X103297753Y-49726241D01*
X103297754Y-49726243D01*
X103350439Y-49888391D01*
X103363444Y-49928414D01*
X103459951Y-50117820D01*
X103584890Y-50289786D01*
X103698818Y-50403714D01*
X103732303Y-50465037D01*
X103727319Y-50534729D01*
X103685447Y-50590662D01*
X103654471Y-50607577D01*
X103522912Y-50656646D01*
X103522906Y-50656649D01*
X103407812Y-50742809D01*
X103407809Y-50742812D01*
X103321649Y-50857906D01*
X103321645Y-50857913D01*
X103271403Y-50992620D01*
X103271401Y-50992627D01*
X103265000Y-51052155D01*
X103265000Y-51700000D01*
X104170440Y-51700000D01*
X104139755Y-51753147D01*
X104105000Y-51882857D01*
X104105000Y-52017143D01*
X104139755Y-52146853D01*
X104170440Y-52200000D01*
X103265000Y-52200000D01*
X103265000Y-52847844D01*
X103271401Y-52907372D01*
X103271403Y-52907379D01*
X103321645Y-53042086D01*
X103321649Y-53042093D01*
X103407809Y-53157187D01*
X103407812Y-53157190D01*
X103522906Y-53243350D01*
X103522913Y-53243354D01*
X103654470Y-53292422D01*
X103710404Y-53334293D01*
X103734821Y-53399758D01*
X103719969Y-53468031D01*
X103698819Y-53496285D01*
X103584889Y-53610215D01*
X103459951Y-53782179D01*
X103363444Y-53971585D01*
X103297753Y-54173760D01*
X103264500Y-54383713D01*
X103264500Y-54596286D01*
X103297753Y-54806239D01*
X103363444Y-55008414D01*
X103459951Y-55197820D01*
X103584890Y-55369786D01*
X103735213Y-55520109D01*
X103907182Y-55645050D01*
X103915946Y-55649516D01*
X103966742Y-55697491D01*
X103983536Y-55765312D01*
X103960998Y-55831447D01*
X103915946Y-55870484D01*
X103907182Y-55874949D01*
X103735213Y-55999890D01*
X103584890Y-56150213D01*
X103459951Y-56322179D01*
X103363444Y-56511585D01*
X103297753Y-56713760D01*
X103264500Y-56923713D01*
X103264500Y-57136286D01*
X103297753Y-57346239D01*
X103363444Y-57548414D01*
X103459951Y-57737820D01*
X103584890Y-57909786D01*
X103735213Y-58060109D01*
X103907182Y-58185050D01*
X103915946Y-58189516D01*
X103966742Y-58237491D01*
X103983536Y-58305312D01*
X103960998Y-58371447D01*
X103915946Y-58410484D01*
X103907182Y-58414949D01*
X103735213Y-58539890D01*
X103584890Y-58690213D01*
X103459951Y-58862179D01*
X103363444Y-59051585D01*
X103297753Y-59253760D01*
X103264500Y-59463713D01*
X103264500Y-59676286D01*
X103297753Y-59886239D01*
X103363444Y-60088414D01*
X103459951Y-60277820D01*
X103584890Y-60449786D01*
X103735213Y-60600109D01*
X103907182Y-60725050D01*
X103915946Y-60729516D01*
X103966742Y-60777491D01*
X103983536Y-60845312D01*
X103960998Y-60911447D01*
X103915946Y-60950484D01*
X103907182Y-60954949D01*
X103735213Y-61079890D01*
X103584890Y-61230213D01*
X103459951Y-61402179D01*
X103363444Y-61591585D01*
X103297753Y-61793760D01*
X103264500Y-62003713D01*
X103264500Y-62216286D01*
X103297753Y-62426239D01*
X103363444Y-62628414D01*
X103459951Y-62817820D01*
X103584890Y-62989786D01*
X103698430Y-63103326D01*
X103731915Y-63164649D01*
X103726931Y-63234341D01*
X103685059Y-63290274D01*
X103654083Y-63307189D01*
X103522669Y-63356203D01*
X103522664Y-63356206D01*
X103407455Y-63442452D01*
X103407452Y-63442455D01*
X103321206Y-63557664D01*
X103321202Y-63557671D01*
X103270908Y-63692517D01*
X103264501Y-63752116D01*
X103264500Y-63752127D01*
X103264500Y-64582857D01*
X103264501Y-65315500D01*
X103244816Y-65382539D01*
X103192013Y-65428294D01*
X103140501Y-65439500D01*
X88309000Y-65439500D01*
X88241961Y-65419815D01*
X88196206Y-65367011D01*
X88185000Y-65315500D01*
X88185000Y-64900000D01*
X87279560Y-64900000D01*
X87310245Y-64846853D01*
X87345000Y-64717143D01*
X87345000Y-64582857D01*
X87310245Y-64453147D01*
X87279560Y-64400000D01*
X88185000Y-64400000D01*
X88185000Y-63752172D01*
X88184999Y-63752155D01*
X88178598Y-63692627D01*
X88178596Y-63692620D01*
X88128354Y-63557913D01*
X88128350Y-63557906D01*
X88042190Y-63442812D01*
X88042187Y-63442809D01*
X87927093Y-63356649D01*
X87927088Y-63356646D01*
X87795528Y-63307577D01*
X87739595Y-63265705D01*
X87715178Y-63200241D01*
X87730030Y-63131968D01*
X87751175Y-63103720D01*
X87865104Y-62989792D01*
X87990051Y-62817816D01*
X88086557Y-62628412D01*
X88152246Y-62426243D01*
X88185500Y-62216287D01*
X88185500Y-62003713D01*
X88152246Y-61793757D01*
X88086557Y-61591588D01*
X87990051Y-61402184D01*
X87990049Y-61402181D01*
X87990048Y-61402179D01*
X87865109Y-61230213D01*
X87714786Y-61079890D01*
X87542820Y-60954951D01*
X87542115Y-60954591D01*
X87534054Y-60950485D01*
X87483259Y-60902512D01*
X87466463Y-60834692D01*
X87488999Y-60768556D01*
X87534054Y-60729515D01*
X87542816Y-60725051D01*
X87564789Y-60709086D01*
X87714786Y-60600109D01*
X87714788Y-60600106D01*
X87714792Y-60600104D01*
X87865104Y-60449792D01*
X87865106Y-60449788D01*
X87865109Y-60449786D01*
X87990048Y-60277820D01*
X87990047Y-60277820D01*
X87990051Y-60277816D01*
X88086557Y-60088412D01*
X88152246Y-59886243D01*
X88185500Y-59676287D01*
X88185500Y-59463713D01*
X88152246Y-59253757D01*
X88086557Y-59051588D01*
X87990051Y-58862184D01*
X87990049Y-58862181D01*
X87990048Y-58862179D01*
X87865109Y-58690213D01*
X87714786Y-58539890D01*
X87542820Y-58414951D01*
X87542115Y-58414591D01*
X87534054Y-58410485D01*
X87483259Y-58362512D01*
X87466463Y-58294692D01*
X87488999Y-58228556D01*
X87534054Y-58189515D01*
X87542816Y-58185051D01*
X87564789Y-58169086D01*
X87714786Y-58060109D01*
X87714788Y-58060106D01*
X87714792Y-58060104D01*
X87865104Y-57909792D01*
X87865106Y-57909788D01*
X87865109Y-57909786D01*
X87990048Y-57737820D01*
X87990047Y-57737820D01*
X87990051Y-57737816D01*
X88086557Y-57548412D01*
X88152246Y-57346243D01*
X88185500Y-57136287D01*
X88185500Y-56923713D01*
X88152246Y-56713757D01*
X88086557Y-56511588D01*
X87990051Y-56322184D01*
X87990049Y-56322181D01*
X87990048Y-56322179D01*
X87865109Y-56150213D01*
X87714786Y-55999890D01*
X87542820Y-55874951D01*
X87542115Y-55874591D01*
X87534054Y-55870485D01*
X87483259Y-55822512D01*
X87466463Y-55754692D01*
X87488999Y-55688556D01*
X87534054Y-55649515D01*
X87542816Y-55645051D01*
X87564789Y-55629086D01*
X87714786Y-55520109D01*
X87714788Y-55520106D01*
X87714792Y-55520104D01*
X87865104Y-55369792D01*
X87865106Y-55369788D01*
X87865109Y-55369786D01*
X87990048Y-55197820D01*
X87990047Y-55197820D01*
X87990051Y-55197816D01*
X88086557Y-55008412D01*
X88152246Y-54806243D01*
X88185500Y-54596287D01*
X88185500Y-54383713D01*
X88152246Y-54173757D01*
X88086557Y-53971588D01*
X87990051Y-53782184D01*
X87990049Y-53782181D01*
X87990048Y-53782179D01*
X87865109Y-53610213D01*
X87751181Y-53496285D01*
X87717696Y-53434962D01*
X87722680Y-53365270D01*
X87764552Y-53309337D01*
X87795529Y-53292422D01*
X87927086Y-53243354D01*
X87927093Y-53243350D01*
X88042187Y-53157190D01*
X88042190Y-53157187D01*
X88128350Y-53042093D01*
X88128354Y-53042086D01*
X88178596Y-52907379D01*
X88178598Y-52907372D01*
X88184999Y-52847844D01*
X88185000Y-52847827D01*
X88185000Y-52200000D01*
X87279560Y-52200000D01*
X87310245Y-52146853D01*
X87345000Y-52017143D01*
X87345000Y-51882857D01*
X87310245Y-51753147D01*
X87279560Y-51700000D01*
X88185000Y-51700000D01*
X88185000Y-51052172D01*
X88184999Y-51052155D01*
X88178598Y-50992627D01*
X88178596Y-50992620D01*
X88128354Y-50857913D01*
X88128350Y-50857906D01*
X88042190Y-50742812D01*
X88042187Y-50742809D01*
X87927093Y-50656649D01*
X87927088Y-50656646D01*
X87795528Y-50607577D01*
X87739595Y-50565705D01*
X87715178Y-50500241D01*
X87730030Y-50431968D01*
X87751175Y-50403720D01*
X87865104Y-50289792D01*
X87990051Y-50117816D01*
X88084944Y-49931577D01*
X92049500Y-49931577D01*
X92049500Y-50128422D01*
X92080290Y-50322826D01*
X92141117Y-50510029D01*
X92215824Y-50656649D01*
X92230476Y-50685405D01*
X92346172Y-50844646D01*
X92485354Y-50983828D01*
X92644595Y-51099524D01*
X92727455Y-51141743D01*
X92819970Y-51188882D01*
X92819972Y-51188882D01*
X92819975Y-51188884D01*
X92920317Y-51221487D01*
X93007173Y-51249709D01*
X93201578Y-51280500D01*
X93201583Y-51280500D01*
X93398422Y-51280500D01*
X93592826Y-51249709D01*
X93780025Y-51188884D01*
X93955405Y-51099524D01*
X94114646Y-50983828D01*
X94253828Y-50844646D01*
X94369524Y-50685405D01*
X94458884Y-50510025D01*
X94519709Y-50322826D01*
X94524942Y-50289784D01*
X94550500Y-50128422D01*
X94550500Y-49931577D01*
X96899500Y-49931577D01*
X96899500Y-50128422D01*
X96930290Y-50322826D01*
X96991117Y-50510029D01*
X97065824Y-50656649D01*
X97080476Y-50685405D01*
X97196172Y-50844646D01*
X97335354Y-50983828D01*
X97494595Y-51099524D01*
X97577455Y-51141743D01*
X97669970Y-51188882D01*
X97669972Y-51188882D01*
X97669975Y-51188884D01*
X97770317Y-51221487D01*
X97857173Y-51249709D01*
X98051578Y-51280500D01*
X98051583Y-51280500D01*
X98248422Y-51280500D01*
X98442826Y-51249709D01*
X98630025Y-51188884D01*
X98805405Y-51099524D01*
X98964646Y-50983828D01*
X99103828Y-50844646D01*
X99219524Y-50685405D01*
X99308884Y-50510025D01*
X99369709Y-50322826D01*
X99374942Y-50289784D01*
X99400500Y-50128422D01*
X99400500Y-49931577D01*
X99369709Y-49737173D01*
X99308882Y-49549970D01*
X99219523Y-49374594D01*
X99193552Y-49338848D01*
X99103828Y-49215354D01*
X98964646Y-49076172D01*
X98805405Y-48960476D01*
X98630029Y-48871117D01*
X98442826Y-48810290D01*
X98248422Y-48779500D01*
X98248417Y-48779500D01*
X98051583Y-48779500D01*
X98051578Y-48779500D01*
X97857173Y-48810290D01*
X97669970Y-48871117D01*
X97494594Y-48960476D01*
X97403741Y-49026485D01*
X97335354Y-49076172D01*
X97335352Y-49076174D01*
X97335351Y-49076174D01*
X97196174Y-49215351D01*
X97196174Y-49215352D01*
X97196172Y-49215354D01*
X97146485Y-49283741D01*
X97080476Y-49374594D01*
X96991117Y-49549970D01*
X96930290Y-49737173D01*
X96899500Y-49931577D01*
X94550500Y-49931577D01*
X94519709Y-49737173D01*
X94458882Y-49549970D01*
X94369523Y-49374594D01*
X94343552Y-49338848D01*
X94253828Y-49215354D01*
X94114646Y-49076172D01*
X93955405Y-48960476D01*
X93780029Y-48871117D01*
X93592826Y-48810290D01*
X93398422Y-48779500D01*
X93398417Y-48779500D01*
X93201583Y-48779500D01*
X93201578Y-48779500D01*
X93007173Y-48810290D01*
X92819970Y-48871117D01*
X92644594Y-48960476D01*
X92553741Y-49026485D01*
X92485354Y-49076172D01*
X92485352Y-49076174D01*
X92485351Y-49076174D01*
X92346174Y-49215351D01*
X92346174Y-49215352D01*
X92346172Y-49215354D01*
X92296485Y-49283741D01*
X92230476Y-49374594D01*
X92141117Y-49549970D01*
X92080290Y-49737173D01*
X92049500Y-49931577D01*
X88084944Y-49931577D01*
X88086557Y-49928412D01*
X88152246Y-49726243D01*
X88185500Y-49516287D01*
X88185500Y-49303713D01*
X88152246Y-49093757D01*
X88086557Y-48891588D01*
X87990051Y-48702184D01*
X87990049Y-48702181D01*
X87990048Y-48702179D01*
X87865109Y-48530213D01*
X87714786Y-48379890D01*
X87542820Y-48254951D01*
X87542115Y-48254591D01*
X87534054Y-48250485D01*
X87483259Y-48202512D01*
X87466463Y-48134692D01*
X87488999Y-48068556D01*
X87534054Y-48029515D01*
X87542816Y-48025051D01*
X87564789Y-48009086D01*
X87714786Y-47900109D01*
X87714788Y-47900106D01*
X87714792Y-47900104D01*
X87865104Y-47749792D01*
X87865106Y-47749788D01*
X87865109Y-47749786D01*
X87990048Y-47577820D01*
X87990047Y-47577820D01*
X87990051Y-47577816D01*
X88086557Y-47388412D01*
X88152246Y-47186243D01*
X88185500Y-46976287D01*
X88185500Y-46763713D01*
X88152246Y-46553757D01*
X88086557Y-46351588D01*
X87999534Y-46180795D01*
X87986638Y-46112125D01*
X88012914Y-46047385D01*
X88070021Y-46007128D01*
X88110019Y-46000500D01*
X91751702Y-46000500D01*
X91818741Y-46020185D01*
G37*
%TD.AperFunction*%
%TD*%
M02*
