%TF.GenerationSoftware,KiCad,Pcbnew,10.0.3*%
%TF.CreationDate,2026-07-13T00:47:25-06:00*%
%TF.ProjectId,punbox,70756e62-6f78-42e6-9b69-6361645f7063,0*%
%TF.SameCoordinates,Original*%
%TF.FileFunction,AssemblyDrawing,Top*%
%FSLAX46Y46*%
G04 Gerber Fmt 4.6, Leading zero omitted, Abs format (unit mm)*
G04 Created by KiCad (PCBNEW 10.0.3) date 2026-07-13 00:47:25*
%MOMM*%
%LPD*%
G01*
G04 APERTURE LIST*
%ADD10C,0.150000*%
%ADD11C,0.060000*%
%ADD12C,0.110000*%
%ADD13C,0.080000*%
%ADD14C,0.100000*%
%ADD15C,0.120000*%
G04 APERTURE END LIST*
D10*
X112428571Y-84454819D02*
X111857143Y-84454819D01*
X112142857Y-84454819D02*
X112142857Y-83454819D01*
X112142857Y-83454819D02*
X112047619Y-83597676D01*
X112047619Y-83597676D02*
X111952381Y-83692914D01*
X111952381Y-83692914D02*
X111857143Y-83740533D01*
X113047619Y-83454819D02*
X113142857Y-83454819D01*
X113142857Y-83454819D02*
X113238095Y-83502438D01*
X113238095Y-83502438D02*
X113285714Y-83550057D01*
X113285714Y-83550057D02*
X113333333Y-83645295D01*
X113333333Y-83645295D02*
X113380952Y-83835771D01*
X113380952Y-83835771D02*
X113380952Y-84073866D01*
X113380952Y-84073866D02*
X113333333Y-84264342D01*
X113333333Y-84264342D02*
X113285714Y-84359580D01*
X113285714Y-84359580D02*
X113238095Y-84407200D01*
X113238095Y-84407200D02*
X113142857Y-84454819D01*
X113142857Y-84454819D02*
X113047619Y-84454819D01*
X113047619Y-84454819D02*
X112952381Y-84407200D01*
X112952381Y-84407200D02*
X112904762Y-84359580D01*
X112904762Y-84359580D02*
X112857143Y-84264342D01*
X112857143Y-84264342D02*
X112809524Y-84073866D01*
X112809524Y-84073866D02*
X112809524Y-83835771D01*
X112809524Y-83835771D02*
X112857143Y-83645295D01*
X112857143Y-83645295D02*
X112904762Y-83550057D01*
X112904762Y-83550057D02*
X112952381Y-83502438D01*
X112952381Y-83502438D02*
X113047619Y-83454819D01*
X114000000Y-83454819D02*
X114095238Y-83454819D01*
X114095238Y-83454819D02*
X114190476Y-83502438D01*
X114190476Y-83502438D02*
X114238095Y-83550057D01*
X114238095Y-83550057D02*
X114285714Y-83645295D01*
X114285714Y-83645295D02*
X114333333Y-83835771D01*
X114333333Y-83835771D02*
X114333333Y-84073866D01*
X114333333Y-84073866D02*
X114285714Y-84264342D01*
X114285714Y-84264342D02*
X114238095Y-84359580D01*
X114238095Y-84359580D02*
X114190476Y-84407200D01*
X114190476Y-84407200D02*
X114095238Y-84454819D01*
X114095238Y-84454819D02*
X114000000Y-84454819D01*
X114000000Y-84454819D02*
X113904762Y-84407200D01*
X113904762Y-84407200D02*
X113857143Y-84359580D01*
X113857143Y-84359580D02*
X113809524Y-84264342D01*
X113809524Y-84264342D02*
X113761905Y-84073866D01*
X113761905Y-84073866D02*
X113761905Y-83835771D01*
X113761905Y-83835771D02*
X113809524Y-83645295D01*
X113809524Y-83645295D02*
X113857143Y-83550057D01*
X113857143Y-83550057D02*
X113904762Y-83502438D01*
X113904762Y-83502438D02*
X114000000Y-83454819D01*
X114761905Y-84454819D02*
X114761905Y-83454819D01*
X114857143Y-84073866D02*
X115142857Y-84454819D01*
X115142857Y-83788152D02*
X114761905Y-84169104D01*
D11*
X113433333Y-82681927D02*
X113300000Y-82491451D01*
X113204762Y-82681927D02*
X113204762Y-82281927D01*
X113204762Y-82281927D02*
X113357143Y-82281927D01*
X113357143Y-82281927D02*
X113395238Y-82300975D01*
X113395238Y-82300975D02*
X113414285Y-82320022D01*
X113414285Y-82320022D02*
X113433333Y-82358118D01*
X113433333Y-82358118D02*
X113433333Y-82415260D01*
X113433333Y-82415260D02*
X113414285Y-82453356D01*
X113414285Y-82453356D02*
X113395238Y-82472403D01*
X113395238Y-82472403D02*
X113357143Y-82491451D01*
X113357143Y-82491451D02*
X113204762Y-82491451D01*
X113814285Y-82681927D02*
X113585714Y-82681927D01*
X113700000Y-82681927D02*
X113700000Y-82281927D01*
X113700000Y-82281927D02*
X113661904Y-82339070D01*
X113661904Y-82339070D02*
X113623809Y-82377165D01*
X113623809Y-82377165D02*
X113585714Y-82396213D01*
D10*
X117166667Y-52604819D02*
X117166667Y-51604819D01*
X117166667Y-51604819D02*
X117500000Y-52319104D01*
X117500000Y-52319104D02*
X117833333Y-51604819D01*
X117833333Y-51604819D02*
X117833333Y-52604819D01*
X118452381Y-52604819D02*
X118357143Y-52557200D01*
X118357143Y-52557200D02*
X118309524Y-52509580D01*
X118309524Y-52509580D02*
X118261905Y-52414342D01*
X118261905Y-52414342D02*
X118261905Y-52128628D01*
X118261905Y-52128628D02*
X118309524Y-52033390D01*
X118309524Y-52033390D02*
X118357143Y-51985771D01*
X118357143Y-51985771D02*
X118452381Y-51938152D01*
X118452381Y-51938152D02*
X118595238Y-51938152D01*
X118595238Y-51938152D02*
X118690476Y-51985771D01*
X118690476Y-51985771D02*
X118738095Y-52033390D01*
X118738095Y-52033390D02*
X118785714Y-52128628D01*
X118785714Y-52128628D02*
X118785714Y-52414342D01*
X118785714Y-52414342D02*
X118738095Y-52509580D01*
X118738095Y-52509580D02*
X118690476Y-52557200D01*
X118690476Y-52557200D02*
X118595238Y-52604819D01*
X118595238Y-52604819D02*
X118452381Y-52604819D01*
X119642857Y-51938152D02*
X119642857Y-52604819D01*
X119214286Y-51938152D02*
X119214286Y-52461961D01*
X119214286Y-52461961D02*
X119261905Y-52557200D01*
X119261905Y-52557200D02*
X119357143Y-52604819D01*
X119357143Y-52604819D02*
X119500000Y-52604819D01*
X119500000Y-52604819D02*
X119595238Y-52557200D01*
X119595238Y-52557200D02*
X119642857Y-52509580D01*
X120119048Y-51938152D02*
X120119048Y-52604819D01*
X120119048Y-52033390D02*
X120166667Y-51985771D01*
X120166667Y-51985771D02*
X120261905Y-51938152D01*
X120261905Y-51938152D02*
X120404762Y-51938152D01*
X120404762Y-51938152D02*
X120500000Y-51985771D01*
X120500000Y-51985771D02*
X120547619Y-52081009D01*
X120547619Y-52081009D02*
X120547619Y-52604819D01*
X120880953Y-51938152D02*
X121261905Y-51938152D01*
X121023810Y-51604819D02*
X121023810Y-52461961D01*
X121023810Y-52461961D02*
X121071429Y-52557200D01*
X121071429Y-52557200D02*
X121166667Y-52604819D01*
X121166667Y-52604819D02*
X121261905Y-52604819D01*
X121595239Y-52604819D02*
X121595239Y-51938152D01*
X121595239Y-51604819D02*
X121547620Y-51652438D01*
X121547620Y-51652438D02*
X121595239Y-51700057D01*
X121595239Y-51700057D02*
X121642858Y-51652438D01*
X121642858Y-51652438D02*
X121595239Y-51604819D01*
X121595239Y-51604819D02*
X121595239Y-51700057D01*
X122071429Y-51938152D02*
X122071429Y-52604819D01*
X122071429Y-52033390D02*
X122119048Y-51985771D01*
X122119048Y-51985771D02*
X122214286Y-51938152D01*
X122214286Y-51938152D02*
X122357143Y-51938152D01*
X122357143Y-51938152D02*
X122452381Y-51985771D01*
X122452381Y-51985771D02*
X122500000Y-52081009D01*
X122500000Y-52081009D02*
X122500000Y-52604819D01*
X123404762Y-51938152D02*
X123404762Y-52747676D01*
X123404762Y-52747676D02*
X123357143Y-52842914D01*
X123357143Y-52842914D02*
X123309524Y-52890533D01*
X123309524Y-52890533D02*
X123214286Y-52938152D01*
X123214286Y-52938152D02*
X123071429Y-52938152D01*
X123071429Y-52938152D02*
X122976191Y-52890533D01*
X123404762Y-52557200D02*
X123309524Y-52604819D01*
X123309524Y-52604819D02*
X123119048Y-52604819D01*
X123119048Y-52604819D02*
X123023810Y-52557200D01*
X123023810Y-52557200D02*
X122976191Y-52509580D01*
X122976191Y-52509580D02*
X122928572Y-52414342D01*
X122928572Y-52414342D02*
X122928572Y-52128628D01*
X122928572Y-52128628D02*
X122976191Y-52033390D01*
X122976191Y-52033390D02*
X123023810Y-51985771D01*
X123023810Y-51985771D02*
X123119048Y-51938152D01*
X123119048Y-51938152D02*
X123309524Y-51938152D01*
X123309524Y-51938152D02*
X123404762Y-51985771D01*
X123880953Y-52604819D02*
X123880953Y-51604819D01*
X123880953Y-52081009D02*
X124452381Y-52081009D01*
X124452381Y-52604819D02*
X124452381Y-51604819D01*
X125071429Y-52604819D02*
X124976191Y-52557200D01*
X124976191Y-52557200D02*
X124928572Y-52509580D01*
X124928572Y-52509580D02*
X124880953Y-52414342D01*
X124880953Y-52414342D02*
X124880953Y-52128628D01*
X124880953Y-52128628D02*
X124928572Y-52033390D01*
X124928572Y-52033390D02*
X124976191Y-51985771D01*
X124976191Y-51985771D02*
X125071429Y-51938152D01*
X125071429Y-51938152D02*
X125214286Y-51938152D01*
X125214286Y-51938152D02*
X125309524Y-51985771D01*
X125309524Y-51985771D02*
X125357143Y-52033390D01*
X125357143Y-52033390D02*
X125404762Y-52128628D01*
X125404762Y-52128628D02*
X125404762Y-52414342D01*
X125404762Y-52414342D02*
X125357143Y-52509580D01*
X125357143Y-52509580D02*
X125309524Y-52557200D01*
X125309524Y-52557200D02*
X125214286Y-52604819D01*
X125214286Y-52604819D02*
X125071429Y-52604819D01*
X125976191Y-52604819D02*
X125880953Y-52557200D01*
X125880953Y-52557200D02*
X125833334Y-52461961D01*
X125833334Y-52461961D02*
X125833334Y-51604819D01*
X126738096Y-52557200D02*
X126642858Y-52604819D01*
X126642858Y-52604819D02*
X126452382Y-52604819D01*
X126452382Y-52604819D02*
X126357144Y-52557200D01*
X126357144Y-52557200D02*
X126309525Y-52461961D01*
X126309525Y-52461961D02*
X126309525Y-52081009D01*
X126309525Y-52081009D02*
X126357144Y-51985771D01*
X126357144Y-51985771D02*
X126452382Y-51938152D01*
X126452382Y-51938152D02*
X126642858Y-51938152D01*
X126642858Y-51938152D02*
X126738096Y-51985771D01*
X126738096Y-51985771D02*
X126785715Y-52081009D01*
X126785715Y-52081009D02*
X126785715Y-52176247D01*
X126785715Y-52176247D02*
X126309525Y-52271485D01*
X126976192Y-52700057D02*
X127738096Y-52700057D01*
X127928573Y-51700057D02*
X127976192Y-51652438D01*
X127976192Y-51652438D02*
X128071430Y-51604819D01*
X128071430Y-51604819D02*
X128309525Y-51604819D01*
X128309525Y-51604819D02*
X128404763Y-51652438D01*
X128404763Y-51652438D02*
X128452382Y-51700057D01*
X128452382Y-51700057D02*
X128500001Y-51795295D01*
X128500001Y-51795295D02*
X128500001Y-51890533D01*
X128500001Y-51890533D02*
X128452382Y-52033390D01*
X128452382Y-52033390D02*
X127880954Y-52604819D01*
X127880954Y-52604819D02*
X128500001Y-52604819D01*
X128928573Y-52509580D02*
X128976192Y-52557200D01*
X128976192Y-52557200D02*
X128928573Y-52604819D01*
X128928573Y-52604819D02*
X128880954Y-52557200D01*
X128880954Y-52557200D02*
X128928573Y-52509580D01*
X128928573Y-52509580D02*
X128928573Y-52604819D01*
X129309525Y-51604819D02*
X129976191Y-51604819D01*
X129976191Y-51604819D02*
X129547620Y-52604819D01*
X130357144Y-52604819D02*
X130357144Y-51938152D01*
X130357144Y-52033390D02*
X130404763Y-51985771D01*
X130404763Y-51985771D02*
X130500001Y-51938152D01*
X130500001Y-51938152D02*
X130642858Y-51938152D01*
X130642858Y-51938152D02*
X130738096Y-51985771D01*
X130738096Y-51985771D02*
X130785715Y-52081009D01*
X130785715Y-52081009D02*
X130785715Y-52604819D01*
X130785715Y-52081009D02*
X130833334Y-51985771D01*
X130833334Y-51985771D02*
X130928572Y-51938152D01*
X130928572Y-51938152D02*
X131071429Y-51938152D01*
X131071429Y-51938152D02*
X131166668Y-51985771D01*
X131166668Y-51985771D02*
X131214287Y-52081009D01*
X131214287Y-52081009D02*
X131214287Y-52604819D01*
X131690477Y-52604819D02*
X131690477Y-51938152D01*
X131690477Y-52033390D02*
X131738096Y-51985771D01*
X131738096Y-51985771D02*
X131833334Y-51938152D01*
X131833334Y-51938152D02*
X131976191Y-51938152D01*
X131976191Y-51938152D02*
X132071429Y-51985771D01*
X132071429Y-51985771D02*
X132119048Y-52081009D01*
X132119048Y-52081009D02*
X132119048Y-52604819D01*
X132119048Y-52081009D02*
X132166667Y-51985771D01*
X132166667Y-51985771D02*
X132261905Y-51938152D01*
X132261905Y-51938152D02*
X132404762Y-51938152D01*
X132404762Y-51938152D02*
X132500001Y-51985771D01*
X132500001Y-51985771D02*
X132547620Y-52081009D01*
X132547620Y-52081009D02*
X132547620Y-52604819D01*
X132785715Y-52700057D02*
X133547619Y-52700057D01*
X133785715Y-52604819D02*
X133785715Y-51604819D01*
X133785715Y-51604819D02*
X134119048Y-52319104D01*
X134119048Y-52319104D02*
X134452381Y-51604819D01*
X134452381Y-51604819D02*
X134452381Y-52604819D01*
X134880953Y-51700057D02*
X134928572Y-51652438D01*
X134928572Y-51652438D02*
X135023810Y-51604819D01*
X135023810Y-51604819D02*
X135261905Y-51604819D01*
X135261905Y-51604819D02*
X135357143Y-51652438D01*
X135357143Y-51652438D02*
X135404762Y-51700057D01*
X135404762Y-51700057D02*
X135452381Y-51795295D01*
X135452381Y-51795295D02*
X135452381Y-51890533D01*
X135452381Y-51890533D02*
X135404762Y-52033390D01*
X135404762Y-52033390D02*
X134833334Y-52604819D01*
X134833334Y-52604819D02*
X135452381Y-52604819D01*
X135880953Y-52509580D02*
X135928572Y-52557200D01*
X135928572Y-52557200D02*
X135880953Y-52604819D01*
X135880953Y-52604819D02*
X135833334Y-52557200D01*
X135833334Y-52557200D02*
X135880953Y-52509580D01*
X135880953Y-52509580D02*
X135880953Y-52604819D01*
X136833333Y-51604819D02*
X136357143Y-51604819D01*
X136357143Y-51604819D02*
X136309524Y-52081009D01*
X136309524Y-52081009D02*
X136357143Y-52033390D01*
X136357143Y-52033390D02*
X136452381Y-51985771D01*
X136452381Y-51985771D02*
X136690476Y-51985771D01*
X136690476Y-51985771D02*
X136785714Y-52033390D01*
X136785714Y-52033390D02*
X136833333Y-52081009D01*
X136833333Y-52081009D02*
X136880952Y-52176247D01*
X136880952Y-52176247D02*
X136880952Y-52414342D01*
X136880952Y-52414342D02*
X136833333Y-52509580D01*
X136833333Y-52509580D02*
X136785714Y-52557200D01*
X136785714Y-52557200D02*
X136690476Y-52604819D01*
X136690476Y-52604819D02*
X136452381Y-52604819D01*
X136452381Y-52604819D02*
X136357143Y-52557200D01*
X136357143Y-52557200D02*
X136309524Y-52509580D01*
X125666666Y-48954819D02*
X125333333Y-48478628D01*
X125095238Y-48954819D02*
X125095238Y-47954819D01*
X125095238Y-47954819D02*
X125476190Y-47954819D01*
X125476190Y-47954819D02*
X125571428Y-48002438D01*
X125571428Y-48002438D02*
X125619047Y-48050057D01*
X125619047Y-48050057D02*
X125666666Y-48145295D01*
X125666666Y-48145295D02*
X125666666Y-48288152D01*
X125666666Y-48288152D02*
X125619047Y-48383390D01*
X125619047Y-48383390D02*
X125571428Y-48431009D01*
X125571428Y-48431009D02*
X125476190Y-48478628D01*
X125476190Y-48478628D02*
X125095238Y-48478628D01*
X126095238Y-48431009D02*
X126428571Y-48431009D01*
X126571428Y-48954819D02*
X126095238Y-48954819D01*
X126095238Y-48954819D02*
X126095238Y-47954819D01*
X126095238Y-47954819D02*
X126571428Y-47954819D01*
X127333333Y-48431009D02*
X127000000Y-48431009D01*
X127000000Y-48954819D02*
X127000000Y-47954819D01*
X127000000Y-47954819D02*
X127476190Y-47954819D01*
X128000000Y-47954819D02*
X128000000Y-48192914D01*
X127761905Y-48097676D02*
X128000000Y-48192914D01*
X128000000Y-48192914D02*
X128238095Y-48097676D01*
X127857143Y-48383390D02*
X128000000Y-48192914D01*
X128000000Y-48192914D02*
X128142857Y-48383390D01*
X128761905Y-47954819D02*
X128761905Y-48192914D01*
X128523810Y-48097676D02*
X128761905Y-48192914D01*
X128761905Y-48192914D02*
X129000000Y-48097676D01*
X128619048Y-48383390D02*
X128761905Y-48192914D01*
X128761905Y-48192914D02*
X128904762Y-48383390D01*
X120309524Y-83454819D02*
X120928571Y-83454819D01*
X120928571Y-83454819D02*
X120595238Y-83835771D01*
X120595238Y-83835771D02*
X120738095Y-83835771D01*
X120738095Y-83835771D02*
X120833333Y-83883390D01*
X120833333Y-83883390D02*
X120880952Y-83931009D01*
X120880952Y-83931009D02*
X120928571Y-84026247D01*
X120928571Y-84026247D02*
X120928571Y-84264342D01*
X120928571Y-84264342D02*
X120880952Y-84359580D01*
X120880952Y-84359580D02*
X120833333Y-84407200D01*
X120833333Y-84407200D02*
X120738095Y-84454819D01*
X120738095Y-84454819D02*
X120452381Y-84454819D01*
X120452381Y-84454819D02*
X120357143Y-84407200D01*
X120357143Y-84407200D02*
X120309524Y-84359580D01*
X121404762Y-84454819D02*
X121595238Y-84454819D01*
X121595238Y-84454819D02*
X121690476Y-84407200D01*
X121690476Y-84407200D02*
X121738095Y-84359580D01*
X121738095Y-84359580D02*
X121833333Y-84216723D01*
X121833333Y-84216723D02*
X121880952Y-84026247D01*
X121880952Y-84026247D02*
X121880952Y-83645295D01*
X121880952Y-83645295D02*
X121833333Y-83550057D01*
X121833333Y-83550057D02*
X121785714Y-83502438D01*
X121785714Y-83502438D02*
X121690476Y-83454819D01*
X121690476Y-83454819D02*
X121500000Y-83454819D01*
X121500000Y-83454819D02*
X121404762Y-83502438D01*
X121404762Y-83502438D02*
X121357143Y-83550057D01*
X121357143Y-83550057D02*
X121309524Y-83645295D01*
X121309524Y-83645295D02*
X121309524Y-83883390D01*
X121309524Y-83883390D02*
X121357143Y-83978628D01*
X121357143Y-83978628D02*
X121404762Y-84026247D01*
X121404762Y-84026247D02*
X121500000Y-84073866D01*
X121500000Y-84073866D02*
X121690476Y-84073866D01*
X121690476Y-84073866D02*
X121785714Y-84026247D01*
X121785714Y-84026247D02*
X121833333Y-83978628D01*
X121833333Y-83978628D02*
X121880952Y-83883390D01*
X122500000Y-83454819D02*
X122595238Y-83454819D01*
X122595238Y-83454819D02*
X122690476Y-83502438D01*
X122690476Y-83502438D02*
X122738095Y-83550057D01*
X122738095Y-83550057D02*
X122785714Y-83645295D01*
X122785714Y-83645295D02*
X122833333Y-83835771D01*
X122833333Y-83835771D02*
X122833333Y-84073866D01*
X122833333Y-84073866D02*
X122785714Y-84264342D01*
X122785714Y-84264342D02*
X122738095Y-84359580D01*
X122738095Y-84359580D02*
X122690476Y-84407200D01*
X122690476Y-84407200D02*
X122595238Y-84454819D01*
X122595238Y-84454819D02*
X122500000Y-84454819D01*
X122500000Y-84454819D02*
X122404762Y-84407200D01*
X122404762Y-84407200D02*
X122357143Y-84359580D01*
X122357143Y-84359580D02*
X122309524Y-84264342D01*
X122309524Y-84264342D02*
X122261905Y-84073866D01*
X122261905Y-84073866D02*
X122261905Y-83835771D01*
X122261905Y-83835771D02*
X122309524Y-83645295D01*
X122309524Y-83645295D02*
X122357143Y-83550057D01*
X122357143Y-83550057D02*
X122404762Y-83502438D01*
X122404762Y-83502438D02*
X122500000Y-83454819D01*
X123261905Y-84454819D02*
X123261905Y-83454819D01*
X123357143Y-84073866D02*
X123642857Y-84454819D01*
X123642857Y-83788152D02*
X123261905Y-84169104D01*
D11*
X121933333Y-82681927D02*
X121800000Y-82491451D01*
X121704762Y-82681927D02*
X121704762Y-82281927D01*
X121704762Y-82281927D02*
X121857143Y-82281927D01*
X121857143Y-82281927D02*
X121895238Y-82300975D01*
X121895238Y-82300975D02*
X121914285Y-82320022D01*
X121914285Y-82320022D02*
X121933333Y-82358118D01*
X121933333Y-82358118D02*
X121933333Y-82415260D01*
X121933333Y-82415260D02*
X121914285Y-82453356D01*
X121914285Y-82453356D02*
X121895238Y-82472403D01*
X121895238Y-82472403D02*
X121857143Y-82491451D01*
X121857143Y-82491451D02*
X121704762Y-82491451D01*
X122085714Y-82320022D02*
X122104762Y-82300975D01*
X122104762Y-82300975D02*
X122142857Y-82281927D01*
X122142857Y-82281927D02*
X122238095Y-82281927D01*
X122238095Y-82281927D02*
X122276190Y-82300975D01*
X122276190Y-82300975D02*
X122295238Y-82320022D01*
X122295238Y-82320022D02*
X122314285Y-82358118D01*
X122314285Y-82358118D02*
X122314285Y-82396213D01*
X122314285Y-82396213D02*
X122295238Y-82453356D01*
X122295238Y-82453356D02*
X122066666Y-82681927D01*
X122066666Y-82681927D02*
X122314285Y-82681927D01*
D10*
X114952380Y-89954819D02*
X114380952Y-89954819D01*
X114666666Y-89954819D02*
X114666666Y-88954819D01*
X114666666Y-88954819D02*
X114571428Y-89097676D01*
X114571428Y-89097676D02*
X114476190Y-89192914D01*
X114476190Y-89192914D02*
X114380952Y-89240533D01*
X115571428Y-88954819D02*
X115666666Y-88954819D01*
X115666666Y-88954819D02*
X115761904Y-89002438D01*
X115761904Y-89002438D02*
X115809523Y-89050057D01*
X115809523Y-89050057D02*
X115857142Y-89145295D01*
X115857142Y-89145295D02*
X115904761Y-89335771D01*
X115904761Y-89335771D02*
X115904761Y-89573866D01*
X115904761Y-89573866D02*
X115857142Y-89764342D01*
X115857142Y-89764342D02*
X115809523Y-89859580D01*
X115809523Y-89859580D02*
X115761904Y-89907200D01*
X115761904Y-89907200D02*
X115666666Y-89954819D01*
X115666666Y-89954819D02*
X115571428Y-89954819D01*
X115571428Y-89954819D02*
X115476190Y-89907200D01*
X115476190Y-89907200D02*
X115428571Y-89859580D01*
X115428571Y-89859580D02*
X115380952Y-89764342D01*
X115380952Y-89764342D02*
X115333333Y-89573866D01*
X115333333Y-89573866D02*
X115333333Y-89335771D01*
X115333333Y-89335771D02*
X115380952Y-89145295D01*
X115380952Y-89145295D02*
X115428571Y-89050057D01*
X115428571Y-89050057D02*
X115476190Y-89002438D01*
X115476190Y-89002438D02*
X115571428Y-88954819D01*
X116523809Y-88954819D02*
X116619047Y-88954819D01*
X116619047Y-88954819D02*
X116714285Y-89002438D01*
X116714285Y-89002438D02*
X116761904Y-89050057D01*
X116761904Y-89050057D02*
X116809523Y-89145295D01*
X116809523Y-89145295D02*
X116857142Y-89335771D01*
X116857142Y-89335771D02*
X116857142Y-89573866D01*
X116857142Y-89573866D02*
X116809523Y-89764342D01*
X116809523Y-89764342D02*
X116761904Y-89859580D01*
X116761904Y-89859580D02*
X116714285Y-89907200D01*
X116714285Y-89907200D02*
X116619047Y-89954819D01*
X116619047Y-89954819D02*
X116523809Y-89954819D01*
X116523809Y-89954819D02*
X116428571Y-89907200D01*
X116428571Y-89907200D02*
X116380952Y-89859580D01*
X116380952Y-89859580D02*
X116333333Y-89764342D01*
X116333333Y-89764342D02*
X116285714Y-89573866D01*
X116285714Y-89573866D02*
X116285714Y-89335771D01*
X116285714Y-89335771D02*
X116333333Y-89145295D01*
X116333333Y-89145295D02*
X116380952Y-89050057D01*
X116380952Y-89050057D02*
X116428571Y-89002438D01*
X116428571Y-89002438D02*
X116523809Y-88954819D01*
X117285714Y-89288152D02*
X117285714Y-89954819D01*
X117285714Y-89383390D02*
X117333333Y-89335771D01*
X117333333Y-89335771D02*
X117428571Y-89288152D01*
X117428571Y-89288152D02*
X117571428Y-89288152D01*
X117571428Y-89288152D02*
X117666666Y-89335771D01*
X117666666Y-89335771D02*
X117714285Y-89431009D01*
X117714285Y-89431009D02*
X117714285Y-89954819D01*
X118523809Y-89431009D02*
X118190476Y-89431009D01*
X118190476Y-89954819D02*
X118190476Y-88954819D01*
X118190476Y-88954819D02*
X118666666Y-88954819D01*
D11*
X120208333Y-88143832D02*
X120189285Y-88162880D01*
X120189285Y-88162880D02*
X120132143Y-88181927D01*
X120132143Y-88181927D02*
X120094047Y-88181927D01*
X120094047Y-88181927D02*
X120036904Y-88162880D01*
X120036904Y-88162880D02*
X119998809Y-88124784D01*
X119998809Y-88124784D02*
X119979762Y-88086689D01*
X119979762Y-88086689D02*
X119960714Y-88010499D01*
X119960714Y-88010499D02*
X119960714Y-87953356D01*
X119960714Y-87953356D02*
X119979762Y-87877165D01*
X119979762Y-87877165D02*
X119998809Y-87839070D01*
X119998809Y-87839070D02*
X120036904Y-87800975D01*
X120036904Y-87800975D02*
X120094047Y-87781927D01*
X120094047Y-87781927D02*
X120132143Y-87781927D01*
X120132143Y-87781927D02*
X120189285Y-87800975D01*
X120189285Y-87800975D02*
X120208333Y-87820022D01*
X120360714Y-87820022D02*
X120379762Y-87800975D01*
X120379762Y-87800975D02*
X120417857Y-87781927D01*
X120417857Y-87781927D02*
X120513095Y-87781927D01*
X120513095Y-87781927D02*
X120551190Y-87800975D01*
X120551190Y-87800975D02*
X120570238Y-87820022D01*
X120570238Y-87820022D02*
X120589285Y-87858118D01*
X120589285Y-87858118D02*
X120589285Y-87896213D01*
X120589285Y-87896213D02*
X120570238Y-87953356D01*
X120570238Y-87953356D02*
X120341666Y-88181927D01*
X120341666Y-88181927D02*
X120589285Y-88181927D01*
D10*
X107952381Y-91954819D02*
X107952381Y-90954819D01*
X107952381Y-90954819D02*
X108285714Y-91669104D01*
X108285714Y-91669104D02*
X108619047Y-90954819D01*
X108619047Y-90954819D02*
X108619047Y-91954819D01*
X109047619Y-91669104D02*
X109523809Y-91669104D01*
X108952381Y-91954819D02*
X109285714Y-90954819D01*
X109285714Y-90954819D02*
X109619047Y-91954819D01*
X109857143Y-90954819D02*
X110523809Y-91954819D01*
X110523809Y-90954819D02*
X109857143Y-91954819D01*
X110952381Y-91954819D02*
X111142857Y-91954819D01*
X111142857Y-91954819D02*
X111238095Y-91907200D01*
X111238095Y-91907200D02*
X111285714Y-91859580D01*
X111285714Y-91859580D02*
X111380952Y-91716723D01*
X111380952Y-91716723D02*
X111428571Y-91526247D01*
X111428571Y-91526247D02*
X111428571Y-91145295D01*
X111428571Y-91145295D02*
X111380952Y-91050057D01*
X111380952Y-91050057D02*
X111333333Y-91002438D01*
X111333333Y-91002438D02*
X111238095Y-90954819D01*
X111238095Y-90954819D02*
X111047619Y-90954819D01*
X111047619Y-90954819D02*
X110952381Y-91002438D01*
X110952381Y-91002438D02*
X110904762Y-91050057D01*
X110904762Y-91050057D02*
X110857143Y-91145295D01*
X110857143Y-91145295D02*
X110857143Y-91383390D01*
X110857143Y-91383390D02*
X110904762Y-91478628D01*
X110904762Y-91478628D02*
X110952381Y-91526247D01*
X110952381Y-91526247D02*
X111047619Y-91573866D01*
X111047619Y-91573866D02*
X111238095Y-91573866D01*
X111238095Y-91573866D02*
X111333333Y-91526247D01*
X111333333Y-91526247D02*
X111380952Y-91478628D01*
X111380952Y-91478628D02*
X111428571Y-91383390D01*
X112000000Y-91383390D02*
X111904762Y-91335771D01*
X111904762Y-91335771D02*
X111857143Y-91288152D01*
X111857143Y-91288152D02*
X111809524Y-91192914D01*
X111809524Y-91192914D02*
X111809524Y-91145295D01*
X111809524Y-91145295D02*
X111857143Y-91050057D01*
X111857143Y-91050057D02*
X111904762Y-91002438D01*
X111904762Y-91002438D02*
X112000000Y-90954819D01*
X112000000Y-90954819D02*
X112190476Y-90954819D01*
X112190476Y-90954819D02*
X112285714Y-91002438D01*
X112285714Y-91002438D02*
X112333333Y-91050057D01*
X112333333Y-91050057D02*
X112380952Y-91145295D01*
X112380952Y-91145295D02*
X112380952Y-91192914D01*
X112380952Y-91192914D02*
X112333333Y-91288152D01*
X112333333Y-91288152D02*
X112285714Y-91335771D01*
X112285714Y-91335771D02*
X112190476Y-91383390D01*
X112190476Y-91383390D02*
X112000000Y-91383390D01*
X112000000Y-91383390D02*
X111904762Y-91431009D01*
X111904762Y-91431009D02*
X111857143Y-91478628D01*
X111857143Y-91478628D02*
X111809524Y-91573866D01*
X111809524Y-91573866D02*
X111809524Y-91764342D01*
X111809524Y-91764342D02*
X111857143Y-91859580D01*
X111857143Y-91859580D02*
X111904762Y-91907200D01*
X111904762Y-91907200D02*
X112000000Y-91954819D01*
X112000000Y-91954819D02*
X112190476Y-91954819D01*
X112190476Y-91954819D02*
X112285714Y-91907200D01*
X112285714Y-91907200D02*
X112333333Y-91859580D01*
X112333333Y-91859580D02*
X112380952Y-91764342D01*
X112380952Y-91764342D02*
X112380952Y-91573866D01*
X112380952Y-91573866D02*
X112333333Y-91478628D01*
X112333333Y-91478628D02*
X112285714Y-91431009D01*
X112285714Y-91431009D02*
X112190476Y-91383390D01*
X112714286Y-90954819D02*
X113333333Y-90954819D01*
X113333333Y-90954819D02*
X113000000Y-91335771D01*
X113000000Y-91335771D02*
X113142857Y-91335771D01*
X113142857Y-91335771D02*
X113238095Y-91383390D01*
X113238095Y-91383390D02*
X113285714Y-91431009D01*
X113285714Y-91431009D02*
X113333333Y-91526247D01*
X113333333Y-91526247D02*
X113333333Y-91764342D01*
X113333333Y-91764342D02*
X113285714Y-91859580D01*
X113285714Y-91859580D02*
X113238095Y-91907200D01*
X113238095Y-91907200D02*
X113142857Y-91954819D01*
X113142857Y-91954819D02*
X112857143Y-91954819D01*
X112857143Y-91954819D02*
X112761905Y-91907200D01*
X112761905Y-91907200D02*
X112714286Y-91859580D01*
X114238095Y-90954819D02*
X113761905Y-90954819D01*
X113761905Y-90954819D02*
X113714286Y-91431009D01*
X113714286Y-91431009D02*
X113761905Y-91383390D01*
X113761905Y-91383390D02*
X113857143Y-91335771D01*
X113857143Y-91335771D02*
X114095238Y-91335771D01*
X114095238Y-91335771D02*
X114190476Y-91383390D01*
X114190476Y-91383390D02*
X114238095Y-91431009D01*
X114238095Y-91431009D02*
X114285714Y-91526247D01*
X114285714Y-91526247D02*
X114285714Y-91764342D01*
X114285714Y-91764342D02*
X114238095Y-91859580D01*
X114238095Y-91859580D02*
X114190476Y-91907200D01*
X114190476Y-91907200D02*
X114095238Y-91954819D01*
X114095238Y-91954819D02*
X113857143Y-91954819D01*
X113857143Y-91954819D02*
X113761905Y-91907200D01*
X113761905Y-91907200D02*
X113714286Y-91859580D01*
X114619048Y-90954819D02*
X115285714Y-90954819D01*
X115285714Y-90954819D02*
X114857143Y-91954819D01*
X115619048Y-91669104D02*
X116095238Y-91669104D01*
X115523810Y-91954819D02*
X115857143Y-90954819D01*
X115857143Y-90954819D02*
X116190476Y-91954819D01*
D12*
X114841244Y-87821428D02*
X115448387Y-87821428D01*
X115448387Y-87821428D02*
X115519815Y-87785714D01*
X115519815Y-87785714D02*
X115555530Y-87750000D01*
X115555530Y-87750000D02*
X115591244Y-87678571D01*
X115591244Y-87678571D02*
X115591244Y-87535714D01*
X115591244Y-87535714D02*
X115555530Y-87464285D01*
X115555530Y-87464285D02*
X115519815Y-87428571D01*
X115519815Y-87428571D02*
X115448387Y-87392857D01*
X115448387Y-87392857D02*
X114841244Y-87392857D01*
X115591244Y-86642857D02*
X115591244Y-87071428D01*
X115591244Y-86857143D02*
X114841244Y-86857143D01*
X114841244Y-86857143D02*
X114948387Y-86928571D01*
X114948387Y-86928571D02*
X115019815Y-87000000D01*
X115019815Y-87000000D02*
X115055530Y-87071428D01*
D10*
X117892856Y-77531009D02*
X118035713Y-77578628D01*
X118035713Y-77578628D02*
X118083332Y-77626247D01*
X118083332Y-77626247D02*
X118130951Y-77721485D01*
X118130951Y-77721485D02*
X118130951Y-77864342D01*
X118130951Y-77864342D02*
X118083332Y-77959580D01*
X118083332Y-77959580D02*
X118035713Y-78007200D01*
X118035713Y-78007200D02*
X117940475Y-78054819D01*
X117940475Y-78054819D02*
X117559523Y-78054819D01*
X117559523Y-78054819D02*
X117559523Y-77054819D01*
X117559523Y-77054819D02*
X117892856Y-77054819D01*
X117892856Y-77054819D02*
X117988094Y-77102438D01*
X117988094Y-77102438D02*
X118035713Y-77150057D01*
X118035713Y-77150057D02*
X118083332Y-77245295D01*
X118083332Y-77245295D02*
X118083332Y-77340533D01*
X118083332Y-77340533D02*
X118035713Y-77435771D01*
X118035713Y-77435771D02*
X117988094Y-77483390D01*
X117988094Y-77483390D02*
X117892856Y-77531009D01*
X117892856Y-77531009D02*
X117559523Y-77531009D01*
X118988094Y-77388152D02*
X118988094Y-78054819D01*
X118559523Y-77388152D02*
X118559523Y-77911961D01*
X118559523Y-77911961D02*
X118607142Y-78007200D01*
X118607142Y-78007200D02*
X118702380Y-78054819D01*
X118702380Y-78054819D02*
X118845237Y-78054819D01*
X118845237Y-78054819D02*
X118940475Y-78007200D01*
X118940475Y-78007200D02*
X118988094Y-77959580D01*
X119321428Y-77388152D02*
X119702380Y-77388152D01*
X119464285Y-77054819D02*
X119464285Y-77911961D01*
X119464285Y-77911961D02*
X119511904Y-78007200D01*
X119511904Y-78007200D02*
X119607142Y-78054819D01*
X119607142Y-78054819D02*
X119702380Y-78054819D01*
X119892857Y-77388152D02*
X120273809Y-77388152D01*
X120035714Y-77054819D02*
X120035714Y-77911961D01*
X120035714Y-77911961D02*
X120083333Y-78007200D01*
X120083333Y-78007200D02*
X120178571Y-78054819D01*
X120178571Y-78054819D02*
X120273809Y-78054819D01*
X120750000Y-78054819D02*
X120654762Y-78007200D01*
X120654762Y-78007200D02*
X120607143Y-77959580D01*
X120607143Y-77959580D02*
X120559524Y-77864342D01*
X120559524Y-77864342D02*
X120559524Y-77578628D01*
X120559524Y-77578628D02*
X120607143Y-77483390D01*
X120607143Y-77483390D02*
X120654762Y-77435771D01*
X120654762Y-77435771D02*
X120750000Y-77388152D01*
X120750000Y-77388152D02*
X120892857Y-77388152D01*
X120892857Y-77388152D02*
X120988095Y-77435771D01*
X120988095Y-77435771D02*
X121035714Y-77483390D01*
X121035714Y-77483390D02*
X121083333Y-77578628D01*
X121083333Y-77578628D02*
X121083333Y-77864342D01*
X121083333Y-77864342D02*
X121035714Y-77959580D01*
X121035714Y-77959580D02*
X120988095Y-78007200D01*
X120988095Y-78007200D02*
X120892857Y-78054819D01*
X120892857Y-78054819D02*
X120750000Y-78054819D01*
X121511905Y-77388152D02*
X121511905Y-78054819D01*
X121511905Y-77483390D02*
X121559524Y-77435771D01*
X121559524Y-77435771D02*
X121654762Y-77388152D01*
X121654762Y-77388152D02*
X121797619Y-77388152D01*
X121797619Y-77388152D02*
X121892857Y-77435771D01*
X121892857Y-77435771D02*
X121940476Y-77531009D01*
X121940476Y-77531009D02*
X121940476Y-78054819D01*
X119416666Y-75154819D02*
X119416666Y-75869104D01*
X119416666Y-75869104D02*
X119369047Y-76011961D01*
X119369047Y-76011961D02*
X119273809Y-76107200D01*
X119273809Y-76107200D02*
X119130952Y-76154819D01*
X119130952Y-76154819D02*
X119035714Y-76154819D01*
X119797619Y-75154819D02*
X120416666Y-75154819D01*
X120416666Y-75154819D02*
X120083333Y-75535771D01*
X120083333Y-75535771D02*
X120226190Y-75535771D01*
X120226190Y-75535771D02*
X120321428Y-75583390D01*
X120321428Y-75583390D02*
X120369047Y-75631009D01*
X120369047Y-75631009D02*
X120416666Y-75726247D01*
X120416666Y-75726247D02*
X120416666Y-75964342D01*
X120416666Y-75964342D02*
X120369047Y-76059580D01*
X120369047Y-76059580D02*
X120321428Y-76107200D01*
X120321428Y-76107200D02*
X120226190Y-76154819D01*
X120226190Y-76154819D02*
X119940476Y-76154819D01*
X119940476Y-76154819D02*
X119845238Y-76107200D01*
X119845238Y-76107200D02*
X119797619Y-76059580D01*
X114833333Y-99107200D02*
X114976190Y-99154819D01*
X114976190Y-99154819D02*
X115214285Y-99154819D01*
X115214285Y-99154819D02*
X115309523Y-99107200D01*
X115309523Y-99107200D02*
X115357142Y-99059580D01*
X115357142Y-99059580D02*
X115404761Y-98964342D01*
X115404761Y-98964342D02*
X115404761Y-98869104D01*
X115404761Y-98869104D02*
X115357142Y-98773866D01*
X115357142Y-98773866D02*
X115309523Y-98726247D01*
X115309523Y-98726247D02*
X115214285Y-98678628D01*
X115214285Y-98678628D02*
X115023809Y-98631009D01*
X115023809Y-98631009D02*
X114928571Y-98583390D01*
X114928571Y-98583390D02*
X114880952Y-98535771D01*
X114880952Y-98535771D02*
X114833333Y-98440533D01*
X114833333Y-98440533D02*
X114833333Y-98345295D01*
X114833333Y-98345295D02*
X114880952Y-98250057D01*
X114880952Y-98250057D02*
X114928571Y-98202438D01*
X114928571Y-98202438D02*
X115023809Y-98154819D01*
X115023809Y-98154819D02*
X115261904Y-98154819D01*
X115261904Y-98154819D02*
X115404761Y-98202438D01*
X115833333Y-98488152D02*
X115833333Y-99488152D01*
X115833333Y-98535771D02*
X115928571Y-98488152D01*
X115928571Y-98488152D02*
X116119047Y-98488152D01*
X116119047Y-98488152D02*
X116214285Y-98535771D01*
X116214285Y-98535771D02*
X116261904Y-98583390D01*
X116261904Y-98583390D02*
X116309523Y-98678628D01*
X116309523Y-98678628D02*
X116309523Y-98964342D01*
X116309523Y-98964342D02*
X116261904Y-99059580D01*
X116261904Y-99059580D02*
X116214285Y-99107200D01*
X116214285Y-99107200D02*
X116119047Y-99154819D01*
X116119047Y-99154819D02*
X115928571Y-99154819D01*
X115928571Y-99154819D02*
X115833333Y-99107200D01*
X117119047Y-99107200D02*
X117023809Y-99154819D01*
X117023809Y-99154819D02*
X116833333Y-99154819D01*
X116833333Y-99154819D02*
X116738095Y-99107200D01*
X116738095Y-99107200D02*
X116690476Y-99011961D01*
X116690476Y-99011961D02*
X116690476Y-98631009D01*
X116690476Y-98631009D02*
X116738095Y-98535771D01*
X116738095Y-98535771D02*
X116833333Y-98488152D01*
X116833333Y-98488152D02*
X117023809Y-98488152D01*
X117023809Y-98488152D02*
X117119047Y-98535771D01*
X117119047Y-98535771D02*
X117166666Y-98631009D01*
X117166666Y-98631009D02*
X117166666Y-98726247D01*
X117166666Y-98726247D02*
X116690476Y-98821485D01*
X118023809Y-99154819D02*
X118023809Y-98631009D01*
X118023809Y-98631009D02*
X117976190Y-98535771D01*
X117976190Y-98535771D02*
X117880952Y-98488152D01*
X117880952Y-98488152D02*
X117690476Y-98488152D01*
X117690476Y-98488152D02*
X117595238Y-98535771D01*
X118023809Y-99107200D02*
X117928571Y-99154819D01*
X117928571Y-99154819D02*
X117690476Y-99154819D01*
X117690476Y-99154819D02*
X117595238Y-99107200D01*
X117595238Y-99107200D02*
X117547619Y-99011961D01*
X117547619Y-99011961D02*
X117547619Y-98916723D01*
X117547619Y-98916723D02*
X117595238Y-98821485D01*
X117595238Y-98821485D02*
X117690476Y-98773866D01*
X117690476Y-98773866D02*
X117928571Y-98773866D01*
X117928571Y-98773866D02*
X118023809Y-98726247D01*
X118500000Y-99154819D02*
X118500000Y-98154819D01*
X118595238Y-98773866D02*
X118880952Y-99154819D01*
X118880952Y-98488152D02*
X118500000Y-98869104D01*
X119690476Y-99107200D02*
X119595238Y-99154819D01*
X119595238Y-99154819D02*
X119404762Y-99154819D01*
X119404762Y-99154819D02*
X119309524Y-99107200D01*
X119309524Y-99107200D02*
X119261905Y-99011961D01*
X119261905Y-99011961D02*
X119261905Y-98631009D01*
X119261905Y-98631009D02*
X119309524Y-98535771D01*
X119309524Y-98535771D02*
X119404762Y-98488152D01*
X119404762Y-98488152D02*
X119595238Y-98488152D01*
X119595238Y-98488152D02*
X119690476Y-98535771D01*
X119690476Y-98535771D02*
X119738095Y-98631009D01*
X119738095Y-98631009D02*
X119738095Y-98726247D01*
X119738095Y-98726247D02*
X119261905Y-98821485D01*
X120166667Y-99154819D02*
X120166667Y-98488152D01*
X120166667Y-98678628D02*
X120214286Y-98583390D01*
X120214286Y-98583390D02*
X120261905Y-98535771D01*
X120261905Y-98535771D02*
X120357143Y-98488152D01*
X120357143Y-98488152D02*
X120452381Y-98488152D01*
X120738096Y-99107200D02*
X120833334Y-99154819D01*
X120833334Y-99154819D02*
X121023810Y-99154819D01*
X121023810Y-99154819D02*
X121119048Y-99107200D01*
X121119048Y-99107200D02*
X121166667Y-99011961D01*
X121166667Y-99011961D02*
X121166667Y-98964342D01*
X121166667Y-98964342D02*
X121119048Y-98869104D01*
X121119048Y-98869104D02*
X121023810Y-98821485D01*
X121023810Y-98821485D02*
X120880953Y-98821485D01*
X120880953Y-98821485D02*
X120785715Y-98773866D01*
X120785715Y-98773866D02*
X120738096Y-98678628D01*
X120738096Y-98678628D02*
X120738096Y-98631009D01*
X120738096Y-98631009D02*
X120785715Y-98535771D01*
X120785715Y-98535771D02*
X120880953Y-98488152D01*
X120880953Y-98488152D02*
X121023810Y-98488152D01*
X121023810Y-98488152D02*
X121119048Y-98535771D01*
X117666666Y-94354819D02*
X117666666Y-95069104D01*
X117666666Y-95069104D02*
X117619047Y-95211961D01*
X117619047Y-95211961D02*
X117523809Y-95307200D01*
X117523809Y-95307200D02*
X117380952Y-95354819D01*
X117380952Y-95354819D02*
X117285714Y-95354819D01*
X118095238Y-94450057D02*
X118142857Y-94402438D01*
X118142857Y-94402438D02*
X118238095Y-94354819D01*
X118238095Y-94354819D02*
X118476190Y-94354819D01*
X118476190Y-94354819D02*
X118571428Y-94402438D01*
X118571428Y-94402438D02*
X118619047Y-94450057D01*
X118619047Y-94450057D02*
X118666666Y-94545295D01*
X118666666Y-94545295D02*
X118666666Y-94640533D01*
X118666666Y-94640533D02*
X118619047Y-94783390D01*
X118619047Y-94783390D02*
X118047619Y-95354819D01*
X118047619Y-95354819D02*
X118666666Y-95354819D01*
X94344048Y-73613819D02*
X94344048Y-72613819D01*
X94344048Y-72613819D02*
X94725000Y-72613819D01*
X94725000Y-72613819D02*
X94820238Y-72661438D01*
X94820238Y-72661438D02*
X94867857Y-72709057D01*
X94867857Y-72709057D02*
X94915476Y-72804295D01*
X94915476Y-72804295D02*
X94915476Y-72947152D01*
X94915476Y-72947152D02*
X94867857Y-73042390D01*
X94867857Y-73042390D02*
X94820238Y-73090009D01*
X94820238Y-73090009D02*
X94725000Y-73137628D01*
X94725000Y-73137628D02*
X94344048Y-73137628D01*
X95344048Y-73613819D02*
X95344048Y-72947152D01*
X95344048Y-72613819D02*
X95296429Y-72661438D01*
X95296429Y-72661438D02*
X95344048Y-72709057D01*
X95344048Y-72709057D02*
X95391667Y-72661438D01*
X95391667Y-72661438D02*
X95344048Y-72613819D01*
X95344048Y-72613819D02*
X95344048Y-72709057D01*
X96248809Y-73566200D02*
X96153571Y-73613819D01*
X96153571Y-73613819D02*
X95963095Y-73613819D01*
X95963095Y-73613819D02*
X95867857Y-73566200D01*
X95867857Y-73566200D02*
X95820238Y-73518580D01*
X95820238Y-73518580D02*
X95772619Y-73423342D01*
X95772619Y-73423342D02*
X95772619Y-73137628D01*
X95772619Y-73137628D02*
X95820238Y-73042390D01*
X95820238Y-73042390D02*
X95867857Y-72994771D01*
X95867857Y-72994771D02*
X95963095Y-72947152D01*
X95963095Y-72947152D02*
X96153571Y-72947152D01*
X96153571Y-72947152D02*
X96248809Y-72994771D01*
X96820238Y-73613819D02*
X96725000Y-73566200D01*
X96725000Y-73566200D02*
X96677381Y-73518580D01*
X96677381Y-73518580D02*
X96629762Y-73423342D01*
X96629762Y-73423342D02*
X96629762Y-73137628D01*
X96629762Y-73137628D02*
X96677381Y-73042390D01*
X96677381Y-73042390D02*
X96725000Y-72994771D01*
X96725000Y-72994771D02*
X96820238Y-72947152D01*
X96820238Y-72947152D02*
X96963095Y-72947152D01*
X96963095Y-72947152D02*
X97058333Y-72994771D01*
X97058333Y-72994771D02*
X97105952Y-73042390D01*
X97105952Y-73042390D02*
X97153571Y-73137628D01*
X97153571Y-73137628D02*
X97153571Y-73423342D01*
X97153571Y-73423342D02*
X97105952Y-73518580D01*
X97105952Y-73518580D02*
X97058333Y-73566200D01*
X97058333Y-73566200D02*
X96963095Y-73613819D01*
X96963095Y-73613819D02*
X96820238Y-73613819D01*
X95010714Y-71169104D02*
X95486904Y-71169104D01*
X94915476Y-71454819D02*
X95248809Y-70454819D01*
X95248809Y-70454819D02*
X95582142Y-71454819D01*
X96439285Y-71454819D02*
X95867857Y-71454819D01*
X96153571Y-71454819D02*
X96153571Y-70454819D01*
X96153571Y-70454819D02*
X96058333Y-70597676D01*
X96058333Y-70597676D02*
X95963095Y-70692914D01*
X95963095Y-70692914D02*
X95867857Y-70740533D01*
X117166667Y-101104819D02*
X117166667Y-100104819D01*
X117166667Y-100104819D02*
X117500000Y-100819104D01*
X117500000Y-100819104D02*
X117833333Y-100104819D01*
X117833333Y-100104819D02*
X117833333Y-101104819D01*
X118452381Y-101104819D02*
X118357143Y-101057200D01*
X118357143Y-101057200D02*
X118309524Y-101009580D01*
X118309524Y-101009580D02*
X118261905Y-100914342D01*
X118261905Y-100914342D02*
X118261905Y-100628628D01*
X118261905Y-100628628D02*
X118309524Y-100533390D01*
X118309524Y-100533390D02*
X118357143Y-100485771D01*
X118357143Y-100485771D02*
X118452381Y-100438152D01*
X118452381Y-100438152D02*
X118595238Y-100438152D01*
X118595238Y-100438152D02*
X118690476Y-100485771D01*
X118690476Y-100485771D02*
X118738095Y-100533390D01*
X118738095Y-100533390D02*
X118785714Y-100628628D01*
X118785714Y-100628628D02*
X118785714Y-100914342D01*
X118785714Y-100914342D02*
X118738095Y-101009580D01*
X118738095Y-101009580D02*
X118690476Y-101057200D01*
X118690476Y-101057200D02*
X118595238Y-101104819D01*
X118595238Y-101104819D02*
X118452381Y-101104819D01*
X119642857Y-100438152D02*
X119642857Y-101104819D01*
X119214286Y-100438152D02*
X119214286Y-100961961D01*
X119214286Y-100961961D02*
X119261905Y-101057200D01*
X119261905Y-101057200D02*
X119357143Y-101104819D01*
X119357143Y-101104819D02*
X119500000Y-101104819D01*
X119500000Y-101104819D02*
X119595238Y-101057200D01*
X119595238Y-101057200D02*
X119642857Y-101009580D01*
X120119048Y-100438152D02*
X120119048Y-101104819D01*
X120119048Y-100533390D02*
X120166667Y-100485771D01*
X120166667Y-100485771D02*
X120261905Y-100438152D01*
X120261905Y-100438152D02*
X120404762Y-100438152D01*
X120404762Y-100438152D02*
X120500000Y-100485771D01*
X120500000Y-100485771D02*
X120547619Y-100581009D01*
X120547619Y-100581009D02*
X120547619Y-101104819D01*
X120880953Y-100438152D02*
X121261905Y-100438152D01*
X121023810Y-100104819D02*
X121023810Y-100961961D01*
X121023810Y-100961961D02*
X121071429Y-101057200D01*
X121071429Y-101057200D02*
X121166667Y-101104819D01*
X121166667Y-101104819D02*
X121261905Y-101104819D01*
X121595239Y-101104819D02*
X121595239Y-100438152D01*
X121595239Y-100104819D02*
X121547620Y-100152438D01*
X121547620Y-100152438D02*
X121595239Y-100200057D01*
X121595239Y-100200057D02*
X121642858Y-100152438D01*
X121642858Y-100152438D02*
X121595239Y-100104819D01*
X121595239Y-100104819D02*
X121595239Y-100200057D01*
X122071429Y-100438152D02*
X122071429Y-101104819D01*
X122071429Y-100533390D02*
X122119048Y-100485771D01*
X122119048Y-100485771D02*
X122214286Y-100438152D01*
X122214286Y-100438152D02*
X122357143Y-100438152D01*
X122357143Y-100438152D02*
X122452381Y-100485771D01*
X122452381Y-100485771D02*
X122500000Y-100581009D01*
X122500000Y-100581009D02*
X122500000Y-101104819D01*
X123404762Y-100438152D02*
X123404762Y-101247676D01*
X123404762Y-101247676D02*
X123357143Y-101342914D01*
X123357143Y-101342914D02*
X123309524Y-101390533D01*
X123309524Y-101390533D02*
X123214286Y-101438152D01*
X123214286Y-101438152D02*
X123071429Y-101438152D01*
X123071429Y-101438152D02*
X122976191Y-101390533D01*
X123404762Y-101057200D02*
X123309524Y-101104819D01*
X123309524Y-101104819D02*
X123119048Y-101104819D01*
X123119048Y-101104819D02*
X123023810Y-101057200D01*
X123023810Y-101057200D02*
X122976191Y-101009580D01*
X122976191Y-101009580D02*
X122928572Y-100914342D01*
X122928572Y-100914342D02*
X122928572Y-100628628D01*
X122928572Y-100628628D02*
X122976191Y-100533390D01*
X122976191Y-100533390D02*
X123023810Y-100485771D01*
X123023810Y-100485771D02*
X123119048Y-100438152D01*
X123119048Y-100438152D02*
X123309524Y-100438152D01*
X123309524Y-100438152D02*
X123404762Y-100485771D01*
X123880953Y-101104819D02*
X123880953Y-100104819D01*
X123880953Y-100581009D02*
X124452381Y-100581009D01*
X124452381Y-101104819D02*
X124452381Y-100104819D01*
X125071429Y-101104819D02*
X124976191Y-101057200D01*
X124976191Y-101057200D02*
X124928572Y-101009580D01*
X124928572Y-101009580D02*
X124880953Y-100914342D01*
X124880953Y-100914342D02*
X124880953Y-100628628D01*
X124880953Y-100628628D02*
X124928572Y-100533390D01*
X124928572Y-100533390D02*
X124976191Y-100485771D01*
X124976191Y-100485771D02*
X125071429Y-100438152D01*
X125071429Y-100438152D02*
X125214286Y-100438152D01*
X125214286Y-100438152D02*
X125309524Y-100485771D01*
X125309524Y-100485771D02*
X125357143Y-100533390D01*
X125357143Y-100533390D02*
X125404762Y-100628628D01*
X125404762Y-100628628D02*
X125404762Y-100914342D01*
X125404762Y-100914342D02*
X125357143Y-101009580D01*
X125357143Y-101009580D02*
X125309524Y-101057200D01*
X125309524Y-101057200D02*
X125214286Y-101104819D01*
X125214286Y-101104819D02*
X125071429Y-101104819D01*
X125976191Y-101104819D02*
X125880953Y-101057200D01*
X125880953Y-101057200D02*
X125833334Y-100961961D01*
X125833334Y-100961961D02*
X125833334Y-100104819D01*
X126738096Y-101057200D02*
X126642858Y-101104819D01*
X126642858Y-101104819D02*
X126452382Y-101104819D01*
X126452382Y-101104819D02*
X126357144Y-101057200D01*
X126357144Y-101057200D02*
X126309525Y-100961961D01*
X126309525Y-100961961D02*
X126309525Y-100581009D01*
X126309525Y-100581009D02*
X126357144Y-100485771D01*
X126357144Y-100485771D02*
X126452382Y-100438152D01*
X126452382Y-100438152D02*
X126642858Y-100438152D01*
X126642858Y-100438152D02*
X126738096Y-100485771D01*
X126738096Y-100485771D02*
X126785715Y-100581009D01*
X126785715Y-100581009D02*
X126785715Y-100676247D01*
X126785715Y-100676247D02*
X126309525Y-100771485D01*
X126976192Y-101200057D02*
X127738096Y-101200057D01*
X127928573Y-100200057D02*
X127976192Y-100152438D01*
X127976192Y-100152438D02*
X128071430Y-100104819D01*
X128071430Y-100104819D02*
X128309525Y-100104819D01*
X128309525Y-100104819D02*
X128404763Y-100152438D01*
X128404763Y-100152438D02*
X128452382Y-100200057D01*
X128452382Y-100200057D02*
X128500001Y-100295295D01*
X128500001Y-100295295D02*
X128500001Y-100390533D01*
X128500001Y-100390533D02*
X128452382Y-100533390D01*
X128452382Y-100533390D02*
X127880954Y-101104819D01*
X127880954Y-101104819D02*
X128500001Y-101104819D01*
X128928573Y-101009580D02*
X128976192Y-101057200D01*
X128976192Y-101057200D02*
X128928573Y-101104819D01*
X128928573Y-101104819D02*
X128880954Y-101057200D01*
X128880954Y-101057200D02*
X128928573Y-101009580D01*
X128928573Y-101009580D02*
X128928573Y-101104819D01*
X129309525Y-100104819D02*
X129976191Y-100104819D01*
X129976191Y-100104819D02*
X129547620Y-101104819D01*
X130357144Y-101104819D02*
X130357144Y-100438152D01*
X130357144Y-100533390D02*
X130404763Y-100485771D01*
X130404763Y-100485771D02*
X130500001Y-100438152D01*
X130500001Y-100438152D02*
X130642858Y-100438152D01*
X130642858Y-100438152D02*
X130738096Y-100485771D01*
X130738096Y-100485771D02*
X130785715Y-100581009D01*
X130785715Y-100581009D02*
X130785715Y-101104819D01*
X130785715Y-100581009D02*
X130833334Y-100485771D01*
X130833334Y-100485771D02*
X130928572Y-100438152D01*
X130928572Y-100438152D02*
X131071429Y-100438152D01*
X131071429Y-100438152D02*
X131166668Y-100485771D01*
X131166668Y-100485771D02*
X131214287Y-100581009D01*
X131214287Y-100581009D02*
X131214287Y-101104819D01*
X131690477Y-101104819D02*
X131690477Y-100438152D01*
X131690477Y-100533390D02*
X131738096Y-100485771D01*
X131738096Y-100485771D02*
X131833334Y-100438152D01*
X131833334Y-100438152D02*
X131976191Y-100438152D01*
X131976191Y-100438152D02*
X132071429Y-100485771D01*
X132071429Y-100485771D02*
X132119048Y-100581009D01*
X132119048Y-100581009D02*
X132119048Y-101104819D01*
X132119048Y-100581009D02*
X132166667Y-100485771D01*
X132166667Y-100485771D02*
X132261905Y-100438152D01*
X132261905Y-100438152D02*
X132404762Y-100438152D01*
X132404762Y-100438152D02*
X132500001Y-100485771D01*
X132500001Y-100485771D02*
X132547620Y-100581009D01*
X132547620Y-100581009D02*
X132547620Y-101104819D01*
X132785715Y-101200057D02*
X133547619Y-101200057D01*
X133785715Y-101104819D02*
X133785715Y-100104819D01*
X133785715Y-100104819D02*
X134119048Y-100819104D01*
X134119048Y-100819104D02*
X134452381Y-100104819D01*
X134452381Y-100104819D02*
X134452381Y-101104819D01*
X134880953Y-100200057D02*
X134928572Y-100152438D01*
X134928572Y-100152438D02*
X135023810Y-100104819D01*
X135023810Y-100104819D02*
X135261905Y-100104819D01*
X135261905Y-100104819D02*
X135357143Y-100152438D01*
X135357143Y-100152438D02*
X135404762Y-100200057D01*
X135404762Y-100200057D02*
X135452381Y-100295295D01*
X135452381Y-100295295D02*
X135452381Y-100390533D01*
X135452381Y-100390533D02*
X135404762Y-100533390D01*
X135404762Y-100533390D02*
X134833334Y-101104819D01*
X134833334Y-101104819D02*
X135452381Y-101104819D01*
X135880953Y-101009580D02*
X135928572Y-101057200D01*
X135928572Y-101057200D02*
X135880953Y-101104819D01*
X135880953Y-101104819D02*
X135833334Y-101057200D01*
X135833334Y-101057200D02*
X135880953Y-101009580D01*
X135880953Y-101009580D02*
X135880953Y-101104819D01*
X136833333Y-100104819D02*
X136357143Y-100104819D01*
X136357143Y-100104819D02*
X136309524Y-100581009D01*
X136309524Y-100581009D02*
X136357143Y-100533390D01*
X136357143Y-100533390D02*
X136452381Y-100485771D01*
X136452381Y-100485771D02*
X136690476Y-100485771D01*
X136690476Y-100485771D02*
X136785714Y-100533390D01*
X136785714Y-100533390D02*
X136833333Y-100581009D01*
X136833333Y-100581009D02*
X136880952Y-100676247D01*
X136880952Y-100676247D02*
X136880952Y-100914342D01*
X136880952Y-100914342D02*
X136833333Y-101009580D01*
X136833333Y-101009580D02*
X136785714Y-101057200D01*
X136785714Y-101057200D02*
X136690476Y-101104819D01*
X136690476Y-101104819D02*
X136452381Y-101104819D01*
X136452381Y-101104819D02*
X136357143Y-101057200D01*
X136357143Y-101057200D02*
X136309524Y-101009580D01*
X125666666Y-97454819D02*
X125333333Y-96978628D01*
X125095238Y-97454819D02*
X125095238Y-96454819D01*
X125095238Y-96454819D02*
X125476190Y-96454819D01*
X125476190Y-96454819D02*
X125571428Y-96502438D01*
X125571428Y-96502438D02*
X125619047Y-96550057D01*
X125619047Y-96550057D02*
X125666666Y-96645295D01*
X125666666Y-96645295D02*
X125666666Y-96788152D01*
X125666666Y-96788152D02*
X125619047Y-96883390D01*
X125619047Y-96883390D02*
X125571428Y-96931009D01*
X125571428Y-96931009D02*
X125476190Y-96978628D01*
X125476190Y-96978628D02*
X125095238Y-96978628D01*
X126095238Y-96931009D02*
X126428571Y-96931009D01*
X126571428Y-97454819D02*
X126095238Y-97454819D01*
X126095238Y-97454819D02*
X126095238Y-96454819D01*
X126095238Y-96454819D02*
X126571428Y-96454819D01*
X127333333Y-96931009D02*
X127000000Y-96931009D01*
X127000000Y-97454819D02*
X127000000Y-96454819D01*
X127000000Y-96454819D02*
X127476190Y-96454819D01*
X128000000Y-96454819D02*
X128000000Y-96692914D01*
X127761905Y-96597676D02*
X128000000Y-96692914D01*
X128000000Y-96692914D02*
X128238095Y-96597676D01*
X127857143Y-96883390D02*
X128000000Y-96692914D01*
X128000000Y-96692914D02*
X128142857Y-96883390D01*
X128761905Y-96454819D02*
X128761905Y-96692914D01*
X128523810Y-96597676D02*
X128761905Y-96692914D01*
X128761905Y-96692914D02*
X129000000Y-96597676D01*
X128619048Y-96883390D02*
X128761905Y-96692914D01*
X128761905Y-96692914D02*
X128904762Y-96883390D01*
X70166667Y-101104819D02*
X70166667Y-100104819D01*
X70166667Y-100104819D02*
X70500000Y-100819104D01*
X70500000Y-100819104D02*
X70833333Y-100104819D01*
X70833333Y-100104819D02*
X70833333Y-101104819D01*
X71452381Y-101104819D02*
X71357143Y-101057200D01*
X71357143Y-101057200D02*
X71309524Y-101009580D01*
X71309524Y-101009580D02*
X71261905Y-100914342D01*
X71261905Y-100914342D02*
X71261905Y-100628628D01*
X71261905Y-100628628D02*
X71309524Y-100533390D01*
X71309524Y-100533390D02*
X71357143Y-100485771D01*
X71357143Y-100485771D02*
X71452381Y-100438152D01*
X71452381Y-100438152D02*
X71595238Y-100438152D01*
X71595238Y-100438152D02*
X71690476Y-100485771D01*
X71690476Y-100485771D02*
X71738095Y-100533390D01*
X71738095Y-100533390D02*
X71785714Y-100628628D01*
X71785714Y-100628628D02*
X71785714Y-100914342D01*
X71785714Y-100914342D02*
X71738095Y-101009580D01*
X71738095Y-101009580D02*
X71690476Y-101057200D01*
X71690476Y-101057200D02*
X71595238Y-101104819D01*
X71595238Y-101104819D02*
X71452381Y-101104819D01*
X72642857Y-100438152D02*
X72642857Y-101104819D01*
X72214286Y-100438152D02*
X72214286Y-100961961D01*
X72214286Y-100961961D02*
X72261905Y-101057200D01*
X72261905Y-101057200D02*
X72357143Y-101104819D01*
X72357143Y-101104819D02*
X72500000Y-101104819D01*
X72500000Y-101104819D02*
X72595238Y-101057200D01*
X72595238Y-101057200D02*
X72642857Y-101009580D01*
X73119048Y-100438152D02*
X73119048Y-101104819D01*
X73119048Y-100533390D02*
X73166667Y-100485771D01*
X73166667Y-100485771D02*
X73261905Y-100438152D01*
X73261905Y-100438152D02*
X73404762Y-100438152D01*
X73404762Y-100438152D02*
X73500000Y-100485771D01*
X73500000Y-100485771D02*
X73547619Y-100581009D01*
X73547619Y-100581009D02*
X73547619Y-101104819D01*
X73880953Y-100438152D02*
X74261905Y-100438152D01*
X74023810Y-100104819D02*
X74023810Y-100961961D01*
X74023810Y-100961961D02*
X74071429Y-101057200D01*
X74071429Y-101057200D02*
X74166667Y-101104819D01*
X74166667Y-101104819D02*
X74261905Y-101104819D01*
X74595239Y-101104819D02*
X74595239Y-100438152D01*
X74595239Y-100104819D02*
X74547620Y-100152438D01*
X74547620Y-100152438D02*
X74595239Y-100200057D01*
X74595239Y-100200057D02*
X74642858Y-100152438D01*
X74642858Y-100152438D02*
X74595239Y-100104819D01*
X74595239Y-100104819D02*
X74595239Y-100200057D01*
X75071429Y-100438152D02*
X75071429Y-101104819D01*
X75071429Y-100533390D02*
X75119048Y-100485771D01*
X75119048Y-100485771D02*
X75214286Y-100438152D01*
X75214286Y-100438152D02*
X75357143Y-100438152D01*
X75357143Y-100438152D02*
X75452381Y-100485771D01*
X75452381Y-100485771D02*
X75500000Y-100581009D01*
X75500000Y-100581009D02*
X75500000Y-101104819D01*
X76404762Y-100438152D02*
X76404762Y-101247676D01*
X76404762Y-101247676D02*
X76357143Y-101342914D01*
X76357143Y-101342914D02*
X76309524Y-101390533D01*
X76309524Y-101390533D02*
X76214286Y-101438152D01*
X76214286Y-101438152D02*
X76071429Y-101438152D01*
X76071429Y-101438152D02*
X75976191Y-101390533D01*
X76404762Y-101057200D02*
X76309524Y-101104819D01*
X76309524Y-101104819D02*
X76119048Y-101104819D01*
X76119048Y-101104819D02*
X76023810Y-101057200D01*
X76023810Y-101057200D02*
X75976191Y-101009580D01*
X75976191Y-101009580D02*
X75928572Y-100914342D01*
X75928572Y-100914342D02*
X75928572Y-100628628D01*
X75928572Y-100628628D02*
X75976191Y-100533390D01*
X75976191Y-100533390D02*
X76023810Y-100485771D01*
X76023810Y-100485771D02*
X76119048Y-100438152D01*
X76119048Y-100438152D02*
X76309524Y-100438152D01*
X76309524Y-100438152D02*
X76404762Y-100485771D01*
X76880953Y-101104819D02*
X76880953Y-100104819D01*
X76880953Y-100581009D02*
X77452381Y-100581009D01*
X77452381Y-101104819D02*
X77452381Y-100104819D01*
X78071429Y-101104819D02*
X77976191Y-101057200D01*
X77976191Y-101057200D02*
X77928572Y-101009580D01*
X77928572Y-101009580D02*
X77880953Y-100914342D01*
X77880953Y-100914342D02*
X77880953Y-100628628D01*
X77880953Y-100628628D02*
X77928572Y-100533390D01*
X77928572Y-100533390D02*
X77976191Y-100485771D01*
X77976191Y-100485771D02*
X78071429Y-100438152D01*
X78071429Y-100438152D02*
X78214286Y-100438152D01*
X78214286Y-100438152D02*
X78309524Y-100485771D01*
X78309524Y-100485771D02*
X78357143Y-100533390D01*
X78357143Y-100533390D02*
X78404762Y-100628628D01*
X78404762Y-100628628D02*
X78404762Y-100914342D01*
X78404762Y-100914342D02*
X78357143Y-101009580D01*
X78357143Y-101009580D02*
X78309524Y-101057200D01*
X78309524Y-101057200D02*
X78214286Y-101104819D01*
X78214286Y-101104819D02*
X78071429Y-101104819D01*
X78976191Y-101104819D02*
X78880953Y-101057200D01*
X78880953Y-101057200D02*
X78833334Y-100961961D01*
X78833334Y-100961961D02*
X78833334Y-100104819D01*
X79738096Y-101057200D02*
X79642858Y-101104819D01*
X79642858Y-101104819D02*
X79452382Y-101104819D01*
X79452382Y-101104819D02*
X79357144Y-101057200D01*
X79357144Y-101057200D02*
X79309525Y-100961961D01*
X79309525Y-100961961D02*
X79309525Y-100581009D01*
X79309525Y-100581009D02*
X79357144Y-100485771D01*
X79357144Y-100485771D02*
X79452382Y-100438152D01*
X79452382Y-100438152D02*
X79642858Y-100438152D01*
X79642858Y-100438152D02*
X79738096Y-100485771D01*
X79738096Y-100485771D02*
X79785715Y-100581009D01*
X79785715Y-100581009D02*
X79785715Y-100676247D01*
X79785715Y-100676247D02*
X79309525Y-100771485D01*
X79976192Y-101200057D02*
X80738096Y-101200057D01*
X80928573Y-100200057D02*
X80976192Y-100152438D01*
X80976192Y-100152438D02*
X81071430Y-100104819D01*
X81071430Y-100104819D02*
X81309525Y-100104819D01*
X81309525Y-100104819D02*
X81404763Y-100152438D01*
X81404763Y-100152438D02*
X81452382Y-100200057D01*
X81452382Y-100200057D02*
X81500001Y-100295295D01*
X81500001Y-100295295D02*
X81500001Y-100390533D01*
X81500001Y-100390533D02*
X81452382Y-100533390D01*
X81452382Y-100533390D02*
X80880954Y-101104819D01*
X80880954Y-101104819D02*
X81500001Y-101104819D01*
X81928573Y-101009580D02*
X81976192Y-101057200D01*
X81976192Y-101057200D02*
X81928573Y-101104819D01*
X81928573Y-101104819D02*
X81880954Y-101057200D01*
X81880954Y-101057200D02*
X81928573Y-101009580D01*
X81928573Y-101009580D02*
X81928573Y-101104819D01*
X82309525Y-100104819D02*
X82976191Y-100104819D01*
X82976191Y-100104819D02*
X82547620Y-101104819D01*
X83357144Y-101104819D02*
X83357144Y-100438152D01*
X83357144Y-100533390D02*
X83404763Y-100485771D01*
X83404763Y-100485771D02*
X83500001Y-100438152D01*
X83500001Y-100438152D02*
X83642858Y-100438152D01*
X83642858Y-100438152D02*
X83738096Y-100485771D01*
X83738096Y-100485771D02*
X83785715Y-100581009D01*
X83785715Y-100581009D02*
X83785715Y-101104819D01*
X83785715Y-100581009D02*
X83833334Y-100485771D01*
X83833334Y-100485771D02*
X83928572Y-100438152D01*
X83928572Y-100438152D02*
X84071429Y-100438152D01*
X84071429Y-100438152D02*
X84166668Y-100485771D01*
X84166668Y-100485771D02*
X84214287Y-100581009D01*
X84214287Y-100581009D02*
X84214287Y-101104819D01*
X84690477Y-101104819D02*
X84690477Y-100438152D01*
X84690477Y-100533390D02*
X84738096Y-100485771D01*
X84738096Y-100485771D02*
X84833334Y-100438152D01*
X84833334Y-100438152D02*
X84976191Y-100438152D01*
X84976191Y-100438152D02*
X85071429Y-100485771D01*
X85071429Y-100485771D02*
X85119048Y-100581009D01*
X85119048Y-100581009D02*
X85119048Y-101104819D01*
X85119048Y-100581009D02*
X85166667Y-100485771D01*
X85166667Y-100485771D02*
X85261905Y-100438152D01*
X85261905Y-100438152D02*
X85404762Y-100438152D01*
X85404762Y-100438152D02*
X85500001Y-100485771D01*
X85500001Y-100485771D02*
X85547620Y-100581009D01*
X85547620Y-100581009D02*
X85547620Y-101104819D01*
X85785715Y-101200057D02*
X86547619Y-101200057D01*
X86785715Y-101104819D02*
X86785715Y-100104819D01*
X86785715Y-100104819D02*
X87119048Y-100819104D01*
X87119048Y-100819104D02*
X87452381Y-100104819D01*
X87452381Y-100104819D02*
X87452381Y-101104819D01*
X87880953Y-100200057D02*
X87928572Y-100152438D01*
X87928572Y-100152438D02*
X88023810Y-100104819D01*
X88023810Y-100104819D02*
X88261905Y-100104819D01*
X88261905Y-100104819D02*
X88357143Y-100152438D01*
X88357143Y-100152438D02*
X88404762Y-100200057D01*
X88404762Y-100200057D02*
X88452381Y-100295295D01*
X88452381Y-100295295D02*
X88452381Y-100390533D01*
X88452381Y-100390533D02*
X88404762Y-100533390D01*
X88404762Y-100533390D02*
X87833334Y-101104819D01*
X87833334Y-101104819D02*
X88452381Y-101104819D01*
X88880953Y-101009580D02*
X88928572Y-101057200D01*
X88928572Y-101057200D02*
X88880953Y-101104819D01*
X88880953Y-101104819D02*
X88833334Y-101057200D01*
X88833334Y-101057200D02*
X88880953Y-101009580D01*
X88880953Y-101009580D02*
X88880953Y-101104819D01*
X89833333Y-100104819D02*
X89357143Y-100104819D01*
X89357143Y-100104819D02*
X89309524Y-100581009D01*
X89309524Y-100581009D02*
X89357143Y-100533390D01*
X89357143Y-100533390D02*
X89452381Y-100485771D01*
X89452381Y-100485771D02*
X89690476Y-100485771D01*
X89690476Y-100485771D02*
X89785714Y-100533390D01*
X89785714Y-100533390D02*
X89833333Y-100581009D01*
X89833333Y-100581009D02*
X89880952Y-100676247D01*
X89880952Y-100676247D02*
X89880952Y-100914342D01*
X89880952Y-100914342D02*
X89833333Y-101009580D01*
X89833333Y-101009580D02*
X89785714Y-101057200D01*
X89785714Y-101057200D02*
X89690476Y-101104819D01*
X89690476Y-101104819D02*
X89452381Y-101104819D01*
X89452381Y-101104819D02*
X89357143Y-101057200D01*
X89357143Y-101057200D02*
X89309524Y-101009580D01*
X78666666Y-97454819D02*
X78333333Y-96978628D01*
X78095238Y-97454819D02*
X78095238Y-96454819D01*
X78095238Y-96454819D02*
X78476190Y-96454819D01*
X78476190Y-96454819D02*
X78571428Y-96502438D01*
X78571428Y-96502438D02*
X78619047Y-96550057D01*
X78619047Y-96550057D02*
X78666666Y-96645295D01*
X78666666Y-96645295D02*
X78666666Y-96788152D01*
X78666666Y-96788152D02*
X78619047Y-96883390D01*
X78619047Y-96883390D02*
X78571428Y-96931009D01*
X78571428Y-96931009D02*
X78476190Y-96978628D01*
X78476190Y-96978628D02*
X78095238Y-96978628D01*
X79095238Y-96931009D02*
X79428571Y-96931009D01*
X79571428Y-97454819D02*
X79095238Y-97454819D01*
X79095238Y-97454819D02*
X79095238Y-96454819D01*
X79095238Y-96454819D02*
X79571428Y-96454819D01*
X80333333Y-96931009D02*
X80000000Y-96931009D01*
X80000000Y-97454819D02*
X80000000Y-96454819D01*
X80000000Y-96454819D02*
X80476190Y-96454819D01*
X81000000Y-96454819D02*
X81000000Y-96692914D01*
X80761905Y-96597676D02*
X81000000Y-96692914D01*
X81000000Y-96692914D02*
X81238095Y-96597676D01*
X80857143Y-96883390D02*
X81000000Y-96692914D01*
X81000000Y-96692914D02*
X81142857Y-96883390D01*
X81761905Y-96454819D02*
X81761905Y-96692914D01*
X81523810Y-96597676D02*
X81761905Y-96692914D01*
X81761905Y-96692914D02*
X82000000Y-96597676D01*
X81619048Y-96883390D02*
X81761905Y-96692914D01*
X81761905Y-96692914D02*
X81904762Y-96883390D01*
X70166667Y-52604819D02*
X70166667Y-51604819D01*
X70166667Y-51604819D02*
X70500000Y-52319104D01*
X70500000Y-52319104D02*
X70833333Y-51604819D01*
X70833333Y-51604819D02*
X70833333Y-52604819D01*
X71452381Y-52604819D02*
X71357143Y-52557200D01*
X71357143Y-52557200D02*
X71309524Y-52509580D01*
X71309524Y-52509580D02*
X71261905Y-52414342D01*
X71261905Y-52414342D02*
X71261905Y-52128628D01*
X71261905Y-52128628D02*
X71309524Y-52033390D01*
X71309524Y-52033390D02*
X71357143Y-51985771D01*
X71357143Y-51985771D02*
X71452381Y-51938152D01*
X71452381Y-51938152D02*
X71595238Y-51938152D01*
X71595238Y-51938152D02*
X71690476Y-51985771D01*
X71690476Y-51985771D02*
X71738095Y-52033390D01*
X71738095Y-52033390D02*
X71785714Y-52128628D01*
X71785714Y-52128628D02*
X71785714Y-52414342D01*
X71785714Y-52414342D02*
X71738095Y-52509580D01*
X71738095Y-52509580D02*
X71690476Y-52557200D01*
X71690476Y-52557200D02*
X71595238Y-52604819D01*
X71595238Y-52604819D02*
X71452381Y-52604819D01*
X72642857Y-51938152D02*
X72642857Y-52604819D01*
X72214286Y-51938152D02*
X72214286Y-52461961D01*
X72214286Y-52461961D02*
X72261905Y-52557200D01*
X72261905Y-52557200D02*
X72357143Y-52604819D01*
X72357143Y-52604819D02*
X72500000Y-52604819D01*
X72500000Y-52604819D02*
X72595238Y-52557200D01*
X72595238Y-52557200D02*
X72642857Y-52509580D01*
X73119048Y-51938152D02*
X73119048Y-52604819D01*
X73119048Y-52033390D02*
X73166667Y-51985771D01*
X73166667Y-51985771D02*
X73261905Y-51938152D01*
X73261905Y-51938152D02*
X73404762Y-51938152D01*
X73404762Y-51938152D02*
X73500000Y-51985771D01*
X73500000Y-51985771D02*
X73547619Y-52081009D01*
X73547619Y-52081009D02*
X73547619Y-52604819D01*
X73880953Y-51938152D02*
X74261905Y-51938152D01*
X74023810Y-51604819D02*
X74023810Y-52461961D01*
X74023810Y-52461961D02*
X74071429Y-52557200D01*
X74071429Y-52557200D02*
X74166667Y-52604819D01*
X74166667Y-52604819D02*
X74261905Y-52604819D01*
X74595239Y-52604819D02*
X74595239Y-51938152D01*
X74595239Y-51604819D02*
X74547620Y-51652438D01*
X74547620Y-51652438D02*
X74595239Y-51700057D01*
X74595239Y-51700057D02*
X74642858Y-51652438D01*
X74642858Y-51652438D02*
X74595239Y-51604819D01*
X74595239Y-51604819D02*
X74595239Y-51700057D01*
X75071429Y-51938152D02*
X75071429Y-52604819D01*
X75071429Y-52033390D02*
X75119048Y-51985771D01*
X75119048Y-51985771D02*
X75214286Y-51938152D01*
X75214286Y-51938152D02*
X75357143Y-51938152D01*
X75357143Y-51938152D02*
X75452381Y-51985771D01*
X75452381Y-51985771D02*
X75500000Y-52081009D01*
X75500000Y-52081009D02*
X75500000Y-52604819D01*
X76404762Y-51938152D02*
X76404762Y-52747676D01*
X76404762Y-52747676D02*
X76357143Y-52842914D01*
X76357143Y-52842914D02*
X76309524Y-52890533D01*
X76309524Y-52890533D02*
X76214286Y-52938152D01*
X76214286Y-52938152D02*
X76071429Y-52938152D01*
X76071429Y-52938152D02*
X75976191Y-52890533D01*
X76404762Y-52557200D02*
X76309524Y-52604819D01*
X76309524Y-52604819D02*
X76119048Y-52604819D01*
X76119048Y-52604819D02*
X76023810Y-52557200D01*
X76023810Y-52557200D02*
X75976191Y-52509580D01*
X75976191Y-52509580D02*
X75928572Y-52414342D01*
X75928572Y-52414342D02*
X75928572Y-52128628D01*
X75928572Y-52128628D02*
X75976191Y-52033390D01*
X75976191Y-52033390D02*
X76023810Y-51985771D01*
X76023810Y-51985771D02*
X76119048Y-51938152D01*
X76119048Y-51938152D02*
X76309524Y-51938152D01*
X76309524Y-51938152D02*
X76404762Y-51985771D01*
X76880953Y-52604819D02*
X76880953Y-51604819D01*
X76880953Y-52081009D02*
X77452381Y-52081009D01*
X77452381Y-52604819D02*
X77452381Y-51604819D01*
X78071429Y-52604819D02*
X77976191Y-52557200D01*
X77976191Y-52557200D02*
X77928572Y-52509580D01*
X77928572Y-52509580D02*
X77880953Y-52414342D01*
X77880953Y-52414342D02*
X77880953Y-52128628D01*
X77880953Y-52128628D02*
X77928572Y-52033390D01*
X77928572Y-52033390D02*
X77976191Y-51985771D01*
X77976191Y-51985771D02*
X78071429Y-51938152D01*
X78071429Y-51938152D02*
X78214286Y-51938152D01*
X78214286Y-51938152D02*
X78309524Y-51985771D01*
X78309524Y-51985771D02*
X78357143Y-52033390D01*
X78357143Y-52033390D02*
X78404762Y-52128628D01*
X78404762Y-52128628D02*
X78404762Y-52414342D01*
X78404762Y-52414342D02*
X78357143Y-52509580D01*
X78357143Y-52509580D02*
X78309524Y-52557200D01*
X78309524Y-52557200D02*
X78214286Y-52604819D01*
X78214286Y-52604819D02*
X78071429Y-52604819D01*
X78976191Y-52604819D02*
X78880953Y-52557200D01*
X78880953Y-52557200D02*
X78833334Y-52461961D01*
X78833334Y-52461961D02*
X78833334Y-51604819D01*
X79738096Y-52557200D02*
X79642858Y-52604819D01*
X79642858Y-52604819D02*
X79452382Y-52604819D01*
X79452382Y-52604819D02*
X79357144Y-52557200D01*
X79357144Y-52557200D02*
X79309525Y-52461961D01*
X79309525Y-52461961D02*
X79309525Y-52081009D01*
X79309525Y-52081009D02*
X79357144Y-51985771D01*
X79357144Y-51985771D02*
X79452382Y-51938152D01*
X79452382Y-51938152D02*
X79642858Y-51938152D01*
X79642858Y-51938152D02*
X79738096Y-51985771D01*
X79738096Y-51985771D02*
X79785715Y-52081009D01*
X79785715Y-52081009D02*
X79785715Y-52176247D01*
X79785715Y-52176247D02*
X79309525Y-52271485D01*
X79976192Y-52700057D02*
X80738096Y-52700057D01*
X80928573Y-51700057D02*
X80976192Y-51652438D01*
X80976192Y-51652438D02*
X81071430Y-51604819D01*
X81071430Y-51604819D02*
X81309525Y-51604819D01*
X81309525Y-51604819D02*
X81404763Y-51652438D01*
X81404763Y-51652438D02*
X81452382Y-51700057D01*
X81452382Y-51700057D02*
X81500001Y-51795295D01*
X81500001Y-51795295D02*
X81500001Y-51890533D01*
X81500001Y-51890533D02*
X81452382Y-52033390D01*
X81452382Y-52033390D02*
X80880954Y-52604819D01*
X80880954Y-52604819D02*
X81500001Y-52604819D01*
X81928573Y-52509580D02*
X81976192Y-52557200D01*
X81976192Y-52557200D02*
X81928573Y-52604819D01*
X81928573Y-52604819D02*
X81880954Y-52557200D01*
X81880954Y-52557200D02*
X81928573Y-52509580D01*
X81928573Y-52509580D02*
X81928573Y-52604819D01*
X82309525Y-51604819D02*
X82976191Y-51604819D01*
X82976191Y-51604819D02*
X82547620Y-52604819D01*
X83357144Y-52604819D02*
X83357144Y-51938152D01*
X83357144Y-52033390D02*
X83404763Y-51985771D01*
X83404763Y-51985771D02*
X83500001Y-51938152D01*
X83500001Y-51938152D02*
X83642858Y-51938152D01*
X83642858Y-51938152D02*
X83738096Y-51985771D01*
X83738096Y-51985771D02*
X83785715Y-52081009D01*
X83785715Y-52081009D02*
X83785715Y-52604819D01*
X83785715Y-52081009D02*
X83833334Y-51985771D01*
X83833334Y-51985771D02*
X83928572Y-51938152D01*
X83928572Y-51938152D02*
X84071429Y-51938152D01*
X84071429Y-51938152D02*
X84166668Y-51985771D01*
X84166668Y-51985771D02*
X84214287Y-52081009D01*
X84214287Y-52081009D02*
X84214287Y-52604819D01*
X84690477Y-52604819D02*
X84690477Y-51938152D01*
X84690477Y-52033390D02*
X84738096Y-51985771D01*
X84738096Y-51985771D02*
X84833334Y-51938152D01*
X84833334Y-51938152D02*
X84976191Y-51938152D01*
X84976191Y-51938152D02*
X85071429Y-51985771D01*
X85071429Y-51985771D02*
X85119048Y-52081009D01*
X85119048Y-52081009D02*
X85119048Y-52604819D01*
X85119048Y-52081009D02*
X85166667Y-51985771D01*
X85166667Y-51985771D02*
X85261905Y-51938152D01*
X85261905Y-51938152D02*
X85404762Y-51938152D01*
X85404762Y-51938152D02*
X85500001Y-51985771D01*
X85500001Y-51985771D02*
X85547620Y-52081009D01*
X85547620Y-52081009D02*
X85547620Y-52604819D01*
X85785715Y-52700057D02*
X86547619Y-52700057D01*
X86785715Y-52604819D02*
X86785715Y-51604819D01*
X86785715Y-51604819D02*
X87119048Y-52319104D01*
X87119048Y-52319104D02*
X87452381Y-51604819D01*
X87452381Y-51604819D02*
X87452381Y-52604819D01*
X87880953Y-51700057D02*
X87928572Y-51652438D01*
X87928572Y-51652438D02*
X88023810Y-51604819D01*
X88023810Y-51604819D02*
X88261905Y-51604819D01*
X88261905Y-51604819D02*
X88357143Y-51652438D01*
X88357143Y-51652438D02*
X88404762Y-51700057D01*
X88404762Y-51700057D02*
X88452381Y-51795295D01*
X88452381Y-51795295D02*
X88452381Y-51890533D01*
X88452381Y-51890533D02*
X88404762Y-52033390D01*
X88404762Y-52033390D02*
X87833334Y-52604819D01*
X87833334Y-52604819D02*
X88452381Y-52604819D01*
X88880953Y-52509580D02*
X88928572Y-52557200D01*
X88928572Y-52557200D02*
X88880953Y-52604819D01*
X88880953Y-52604819D02*
X88833334Y-52557200D01*
X88833334Y-52557200D02*
X88880953Y-52509580D01*
X88880953Y-52509580D02*
X88880953Y-52604819D01*
X89833333Y-51604819D02*
X89357143Y-51604819D01*
X89357143Y-51604819D02*
X89309524Y-52081009D01*
X89309524Y-52081009D02*
X89357143Y-52033390D01*
X89357143Y-52033390D02*
X89452381Y-51985771D01*
X89452381Y-51985771D02*
X89690476Y-51985771D01*
X89690476Y-51985771D02*
X89785714Y-52033390D01*
X89785714Y-52033390D02*
X89833333Y-52081009D01*
X89833333Y-52081009D02*
X89880952Y-52176247D01*
X89880952Y-52176247D02*
X89880952Y-52414342D01*
X89880952Y-52414342D02*
X89833333Y-52509580D01*
X89833333Y-52509580D02*
X89785714Y-52557200D01*
X89785714Y-52557200D02*
X89690476Y-52604819D01*
X89690476Y-52604819D02*
X89452381Y-52604819D01*
X89452381Y-52604819D02*
X89357143Y-52557200D01*
X89357143Y-52557200D02*
X89309524Y-52509580D01*
X78666666Y-48954819D02*
X78333333Y-48478628D01*
X78095238Y-48954819D02*
X78095238Y-47954819D01*
X78095238Y-47954819D02*
X78476190Y-47954819D01*
X78476190Y-47954819D02*
X78571428Y-48002438D01*
X78571428Y-48002438D02*
X78619047Y-48050057D01*
X78619047Y-48050057D02*
X78666666Y-48145295D01*
X78666666Y-48145295D02*
X78666666Y-48288152D01*
X78666666Y-48288152D02*
X78619047Y-48383390D01*
X78619047Y-48383390D02*
X78571428Y-48431009D01*
X78571428Y-48431009D02*
X78476190Y-48478628D01*
X78476190Y-48478628D02*
X78095238Y-48478628D01*
X79095238Y-48431009D02*
X79428571Y-48431009D01*
X79571428Y-48954819D02*
X79095238Y-48954819D01*
X79095238Y-48954819D02*
X79095238Y-47954819D01*
X79095238Y-47954819D02*
X79571428Y-47954819D01*
X80333333Y-48431009D02*
X80000000Y-48431009D01*
X80000000Y-48954819D02*
X80000000Y-47954819D01*
X80000000Y-47954819D02*
X80476190Y-47954819D01*
X81000000Y-47954819D02*
X81000000Y-48192914D01*
X80761905Y-48097676D02*
X81000000Y-48192914D01*
X81000000Y-48192914D02*
X81238095Y-48097676D01*
X80857143Y-48383390D02*
X81000000Y-48192914D01*
X81000000Y-48192914D02*
X81142857Y-48383390D01*
X81761905Y-47954819D02*
X81761905Y-48192914D01*
X81523810Y-48097676D02*
X81761905Y-48192914D01*
X81761905Y-48192914D02*
X82000000Y-48097676D01*
X81619048Y-48383390D02*
X81761905Y-48192914D01*
X81761905Y-48192914D02*
X81904762Y-48383390D01*
X121452381Y-92454819D02*
X121452381Y-91454819D01*
X121452381Y-91454819D02*
X121785714Y-92169104D01*
X121785714Y-92169104D02*
X122119047Y-91454819D01*
X122119047Y-91454819D02*
X122119047Y-92454819D01*
X122547619Y-92169104D02*
X123023809Y-92169104D01*
X122452381Y-92454819D02*
X122785714Y-91454819D01*
X122785714Y-91454819D02*
X123119047Y-92454819D01*
X123357143Y-91454819D02*
X124023809Y-92454819D01*
X124023809Y-91454819D02*
X123357143Y-92454819D01*
X124452381Y-92454819D02*
X124642857Y-92454819D01*
X124642857Y-92454819D02*
X124738095Y-92407200D01*
X124738095Y-92407200D02*
X124785714Y-92359580D01*
X124785714Y-92359580D02*
X124880952Y-92216723D01*
X124880952Y-92216723D02*
X124928571Y-92026247D01*
X124928571Y-92026247D02*
X124928571Y-91645295D01*
X124928571Y-91645295D02*
X124880952Y-91550057D01*
X124880952Y-91550057D02*
X124833333Y-91502438D01*
X124833333Y-91502438D02*
X124738095Y-91454819D01*
X124738095Y-91454819D02*
X124547619Y-91454819D01*
X124547619Y-91454819D02*
X124452381Y-91502438D01*
X124452381Y-91502438D02*
X124404762Y-91550057D01*
X124404762Y-91550057D02*
X124357143Y-91645295D01*
X124357143Y-91645295D02*
X124357143Y-91883390D01*
X124357143Y-91883390D02*
X124404762Y-91978628D01*
X124404762Y-91978628D02*
X124452381Y-92026247D01*
X124452381Y-92026247D02*
X124547619Y-92073866D01*
X124547619Y-92073866D02*
X124738095Y-92073866D01*
X124738095Y-92073866D02*
X124833333Y-92026247D01*
X124833333Y-92026247D02*
X124880952Y-91978628D01*
X124880952Y-91978628D02*
X124928571Y-91883390D01*
X125500000Y-91883390D02*
X125404762Y-91835771D01*
X125404762Y-91835771D02*
X125357143Y-91788152D01*
X125357143Y-91788152D02*
X125309524Y-91692914D01*
X125309524Y-91692914D02*
X125309524Y-91645295D01*
X125309524Y-91645295D02*
X125357143Y-91550057D01*
X125357143Y-91550057D02*
X125404762Y-91502438D01*
X125404762Y-91502438D02*
X125500000Y-91454819D01*
X125500000Y-91454819D02*
X125690476Y-91454819D01*
X125690476Y-91454819D02*
X125785714Y-91502438D01*
X125785714Y-91502438D02*
X125833333Y-91550057D01*
X125833333Y-91550057D02*
X125880952Y-91645295D01*
X125880952Y-91645295D02*
X125880952Y-91692914D01*
X125880952Y-91692914D02*
X125833333Y-91788152D01*
X125833333Y-91788152D02*
X125785714Y-91835771D01*
X125785714Y-91835771D02*
X125690476Y-91883390D01*
X125690476Y-91883390D02*
X125500000Y-91883390D01*
X125500000Y-91883390D02*
X125404762Y-91931009D01*
X125404762Y-91931009D02*
X125357143Y-91978628D01*
X125357143Y-91978628D02*
X125309524Y-92073866D01*
X125309524Y-92073866D02*
X125309524Y-92264342D01*
X125309524Y-92264342D02*
X125357143Y-92359580D01*
X125357143Y-92359580D02*
X125404762Y-92407200D01*
X125404762Y-92407200D02*
X125500000Y-92454819D01*
X125500000Y-92454819D02*
X125690476Y-92454819D01*
X125690476Y-92454819D02*
X125785714Y-92407200D01*
X125785714Y-92407200D02*
X125833333Y-92359580D01*
X125833333Y-92359580D02*
X125880952Y-92264342D01*
X125880952Y-92264342D02*
X125880952Y-92073866D01*
X125880952Y-92073866D02*
X125833333Y-91978628D01*
X125833333Y-91978628D02*
X125785714Y-91931009D01*
X125785714Y-91931009D02*
X125690476Y-91883390D01*
X126214286Y-91454819D02*
X126833333Y-91454819D01*
X126833333Y-91454819D02*
X126500000Y-91835771D01*
X126500000Y-91835771D02*
X126642857Y-91835771D01*
X126642857Y-91835771D02*
X126738095Y-91883390D01*
X126738095Y-91883390D02*
X126785714Y-91931009D01*
X126785714Y-91931009D02*
X126833333Y-92026247D01*
X126833333Y-92026247D02*
X126833333Y-92264342D01*
X126833333Y-92264342D02*
X126785714Y-92359580D01*
X126785714Y-92359580D02*
X126738095Y-92407200D01*
X126738095Y-92407200D02*
X126642857Y-92454819D01*
X126642857Y-92454819D02*
X126357143Y-92454819D01*
X126357143Y-92454819D02*
X126261905Y-92407200D01*
X126261905Y-92407200D02*
X126214286Y-92359580D01*
X127738095Y-91454819D02*
X127261905Y-91454819D01*
X127261905Y-91454819D02*
X127214286Y-91931009D01*
X127214286Y-91931009D02*
X127261905Y-91883390D01*
X127261905Y-91883390D02*
X127357143Y-91835771D01*
X127357143Y-91835771D02*
X127595238Y-91835771D01*
X127595238Y-91835771D02*
X127690476Y-91883390D01*
X127690476Y-91883390D02*
X127738095Y-91931009D01*
X127738095Y-91931009D02*
X127785714Y-92026247D01*
X127785714Y-92026247D02*
X127785714Y-92264342D01*
X127785714Y-92264342D02*
X127738095Y-92359580D01*
X127738095Y-92359580D02*
X127690476Y-92407200D01*
X127690476Y-92407200D02*
X127595238Y-92454819D01*
X127595238Y-92454819D02*
X127357143Y-92454819D01*
X127357143Y-92454819D02*
X127261905Y-92407200D01*
X127261905Y-92407200D02*
X127214286Y-92359580D01*
X128119048Y-91454819D02*
X128785714Y-91454819D01*
X128785714Y-91454819D02*
X128357143Y-92454819D01*
X129119048Y-92169104D02*
X129595238Y-92169104D01*
X129023810Y-92454819D02*
X129357143Y-91454819D01*
X129357143Y-91454819D02*
X129690476Y-92454819D01*
D12*
X123591244Y-87821428D02*
X124198387Y-87821428D01*
X124198387Y-87821428D02*
X124269815Y-87785714D01*
X124269815Y-87785714D02*
X124305530Y-87750000D01*
X124305530Y-87750000D02*
X124341244Y-87678571D01*
X124341244Y-87678571D02*
X124341244Y-87535714D01*
X124341244Y-87535714D02*
X124305530Y-87464285D01*
X124305530Y-87464285D02*
X124269815Y-87428571D01*
X124269815Y-87428571D02*
X124198387Y-87392857D01*
X124198387Y-87392857D02*
X123591244Y-87392857D01*
X123662672Y-87071428D02*
X123626958Y-87035714D01*
X123626958Y-87035714D02*
X123591244Y-86964286D01*
X123591244Y-86964286D02*
X123591244Y-86785714D01*
X123591244Y-86785714D02*
X123626958Y-86714286D01*
X123626958Y-86714286D02*
X123662672Y-86678571D01*
X123662672Y-86678571D02*
X123734101Y-86642857D01*
X123734101Y-86642857D02*
X123805530Y-86642857D01*
X123805530Y-86642857D02*
X123912672Y-86678571D01*
X123912672Y-86678571D02*
X124341244Y-87107143D01*
X124341244Y-87107143D02*
X124341244Y-86642857D01*
D10*
X111104819Y-52547619D02*
X111104819Y-53119047D01*
X111104819Y-52833333D02*
X110104819Y-52833333D01*
X110104819Y-52833333D02*
X110247676Y-52928571D01*
X110247676Y-52928571D02*
X110342914Y-53023809D01*
X110342914Y-53023809D02*
X110390533Y-53119047D01*
X110104819Y-51928571D02*
X110104819Y-51833333D01*
X110104819Y-51833333D02*
X110152438Y-51738095D01*
X110152438Y-51738095D02*
X110200057Y-51690476D01*
X110200057Y-51690476D02*
X110295295Y-51642857D01*
X110295295Y-51642857D02*
X110485771Y-51595238D01*
X110485771Y-51595238D02*
X110723866Y-51595238D01*
X110723866Y-51595238D02*
X110914342Y-51642857D01*
X110914342Y-51642857D02*
X111009580Y-51690476D01*
X111009580Y-51690476D02*
X111057200Y-51738095D01*
X111057200Y-51738095D02*
X111104819Y-51833333D01*
X111104819Y-51833333D02*
X111104819Y-51928571D01*
X111104819Y-51928571D02*
X111057200Y-52023809D01*
X111057200Y-52023809D02*
X111009580Y-52071428D01*
X111009580Y-52071428D02*
X110914342Y-52119047D01*
X110914342Y-52119047D02*
X110723866Y-52166666D01*
X110723866Y-52166666D02*
X110485771Y-52166666D01*
X110485771Y-52166666D02*
X110295295Y-52119047D01*
X110295295Y-52119047D02*
X110200057Y-52071428D01*
X110200057Y-52071428D02*
X110152438Y-52023809D01*
X110152438Y-52023809D02*
X110104819Y-51928571D01*
X110104819Y-50976190D02*
X110104819Y-50880952D01*
X110104819Y-50880952D02*
X110152438Y-50785714D01*
X110152438Y-50785714D02*
X110200057Y-50738095D01*
X110200057Y-50738095D02*
X110295295Y-50690476D01*
X110295295Y-50690476D02*
X110485771Y-50642857D01*
X110485771Y-50642857D02*
X110723866Y-50642857D01*
X110723866Y-50642857D02*
X110914342Y-50690476D01*
X110914342Y-50690476D02*
X111009580Y-50738095D01*
X111009580Y-50738095D02*
X111057200Y-50785714D01*
X111057200Y-50785714D02*
X111104819Y-50880952D01*
X111104819Y-50880952D02*
X111104819Y-50976190D01*
X111104819Y-50976190D02*
X111057200Y-51071428D01*
X111057200Y-51071428D02*
X111009580Y-51119047D01*
X111009580Y-51119047D02*
X110914342Y-51166666D01*
X110914342Y-51166666D02*
X110723866Y-51214285D01*
X110723866Y-51214285D02*
X110485771Y-51214285D01*
X110485771Y-51214285D02*
X110295295Y-51166666D01*
X110295295Y-51166666D02*
X110200057Y-51119047D01*
X110200057Y-51119047D02*
X110152438Y-51071428D01*
X110152438Y-51071428D02*
X110104819Y-50976190D01*
X110438152Y-49785714D02*
X111104819Y-49785714D01*
X110438152Y-50214285D02*
X110961961Y-50214285D01*
X110961961Y-50214285D02*
X111057200Y-50166666D01*
X111057200Y-50166666D02*
X111104819Y-50071428D01*
X111104819Y-50071428D02*
X111104819Y-49928571D01*
X111104819Y-49928571D02*
X111057200Y-49833333D01*
X111057200Y-49833333D02*
X111009580Y-49785714D01*
X110581009Y-48976190D02*
X110581009Y-49309523D01*
X111104819Y-49309523D02*
X110104819Y-49309523D01*
X110104819Y-49309523D02*
X110104819Y-48833333D01*
X115359580Y-51166666D02*
X115407200Y-51214285D01*
X115407200Y-51214285D02*
X115454819Y-51357142D01*
X115454819Y-51357142D02*
X115454819Y-51452380D01*
X115454819Y-51452380D02*
X115407200Y-51595237D01*
X115407200Y-51595237D02*
X115311961Y-51690475D01*
X115311961Y-51690475D02*
X115216723Y-51738094D01*
X115216723Y-51738094D02*
X115026247Y-51785713D01*
X115026247Y-51785713D02*
X114883390Y-51785713D01*
X114883390Y-51785713D02*
X114692914Y-51738094D01*
X114692914Y-51738094D02*
X114597676Y-51690475D01*
X114597676Y-51690475D02*
X114502438Y-51595237D01*
X114502438Y-51595237D02*
X114454819Y-51452380D01*
X114454819Y-51452380D02*
X114454819Y-51357142D01*
X114454819Y-51357142D02*
X114502438Y-51214285D01*
X114502438Y-51214285D02*
X114550057Y-51166666D01*
X114454819Y-50261904D02*
X114454819Y-50738094D01*
X114454819Y-50738094D02*
X114931009Y-50785713D01*
X114931009Y-50785713D02*
X114883390Y-50738094D01*
X114883390Y-50738094D02*
X114835771Y-50642856D01*
X114835771Y-50642856D02*
X114835771Y-50404761D01*
X114835771Y-50404761D02*
X114883390Y-50309523D01*
X114883390Y-50309523D02*
X114931009Y-50261904D01*
X114931009Y-50261904D02*
X115026247Y-50214285D01*
X115026247Y-50214285D02*
X115264342Y-50214285D01*
X115264342Y-50214285D02*
X115359580Y-50261904D01*
X115359580Y-50261904D02*
X115407200Y-50309523D01*
X115407200Y-50309523D02*
X115454819Y-50404761D01*
X115454819Y-50404761D02*
X115454819Y-50642856D01*
X115454819Y-50642856D02*
X115407200Y-50738094D01*
X115407200Y-50738094D02*
X115359580Y-50785713D01*
X107328571Y-84774819D02*
X106757143Y-84774819D01*
X107042857Y-84774819D02*
X107042857Y-83774819D01*
X107042857Y-83774819D02*
X106947619Y-83917676D01*
X106947619Y-83917676D02*
X106852381Y-84012914D01*
X106852381Y-84012914D02*
X106757143Y-84060533D01*
X107947619Y-83774819D02*
X108042857Y-83774819D01*
X108042857Y-83774819D02*
X108138095Y-83822438D01*
X108138095Y-83822438D02*
X108185714Y-83870057D01*
X108185714Y-83870057D02*
X108233333Y-83965295D01*
X108233333Y-83965295D02*
X108280952Y-84155771D01*
X108280952Y-84155771D02*
X108280952Y-84393866D01*
X108280952Y-84393866D02*
X108233333Y-84584342D01*
X108233333Y-84584342D02*
X108185714Y-84679580D01*
X108185714Y-84679580D02*
X108138095Y-84727200D01*
X108138095Y-84727200D02*
X108042857Y-84774819D01*
X108042857Y-84774819D02*
X107947619Y-84774819D01*
X107947619Y-84774819D02*
X107852381Y-84727200D01*
X107852381Y-84727200D02*
X107804762Y-84679580D01*
X107804762Y-84679580D02*
X107757143Y-84584342D01*
X107757143Y-84584342D02*
X107709524Y-84393866D01*
X107709524Y-84393866D02*
X107709524Y-84155771D01*
X107709524Y-84155771D02*
X107757143Y-83965295D01*
X107757143Y-83965295D02*
X107804762Y-83870057D01*
X107804762Y-83870057D02*
X107852381Y-83822438D01*
X107852381Y-83822438D02*
X107947619Y-83774819D01*
X109138095Y-84108152D02*
X109138095Y-84774819D01*
X108709524Y-84108152D02*
X108709524Y-84631961D01*
X108709524Y-84631961D02*
X108757143Y-84727200D01*
X108757143Y-84727200D02*
X108852381Y-84774819D01*
X108852381Y-84774819D02*
X108995238Y-84774819D01*
X108995238Y-84774819D02*
X109090476Y-84727200D01*
X109090476Y-84727200D02*
X109138095Y-84679580D01*
X109947619Y-84251009D02*
X109614286Y-84251009D01*
X109614286Y-84774819D02*
X109614286Y-83774819D01*
X109614286Y-83774819D02*
X110090476Y-83774819D01*
D13*
X111366666Y-86179530D02*
X111342857Y-86203340D01*
X111342857Y-86203340D02*
X111271428Y-86227149D01*
X111271428Y-86227149D02*
X111223809Y-86227149D01*
X111223809Y-86227149D02*
X111152381Y-86203340D01*
X111152381Y-86203340D02*
X111104762Y-86155720D01*
X111104762Y-86155720D02*
X111080952Y-86108101D01*
X111080952Y-86108101D02*
X111057143Y-86012863D01*
X111057143Y-86012863D02*
X111057143Y-85941435D01*
X111057143Y-85941435D02*
X111080952Y-85846197D01*
X111080952Y-85846197D02*
X111104762Y-85798578D01*
X111104762Y-85798578D02*
X111152381Y-85750959D01*
X111152381Y-85750959D02*
X111223809Y-85727149D01*
X111223809Y-85727149D02*
X111271428Y-85727149D01*
X111271428Y-85727149D02*
X111342857Y-85750959D01*
X111342857Y-85750959D02*
X111366666Y-85774768D01*
X111533333Y-85727149D02*
X111842857Y-85727149D01*
X111842857Y-85727149D02*
X111676190Y-85917625D01*
X111676190Y-85917625D02*
X111747619Y-85917625D01*
X111747619Y-85917625D02*
X111795238Y-85941435D01*
X111795238Y-85941435D02*
X111819047Y-85965244D01*
X111819047Y-85965244D02*
X111842857Y-86012863D01*
X111842857Y-86012863D02*
X111842857Y-86131911D01*
X111842857Y-86131911D02*
X111819047Y-86179530D01*
X111819047Y-86179530D02*
X111795238Y-86203340D01*
X111795238Y-86203340D02*
X111747619Y-86227149D01*
X111747619Y-86227149D02*
X111604762Y-86227149D01*
X111604762Y-86227149D02*
X111557143Y-86203340D01*
X111557143Y-86203340D02*
X111533333Y-86179530D01*
D10*
X106852380Y-89954819D02*
X106280952Y-89954819D01*
X106566666Y-89954819D02*
X106566666Y-88954819D01*
X106566666Y-88954819D02*
X106471428Y-89097676D01*
X106471428Y-89097676D02*
X106376190Y-89192914D01*
X106376190Y-89192914D02*
X106280952Y-89240533D01*
X107471428Y-88954819D02*
X107566666Y-88954819D01*
X107566666Y-88954819D02*
X107661904Y-89002438D01*
X107661904Y-89002438D02*
X107709523Y-89050057D01*
X107709523Y-89050057D02*
X107757142Y-89145295D01*
X107757142Y-89145295D02*
X107804761Y-89335771D01*
X107804761Y-89335771D02*
X107804761Y-89573866D01*
X107804761Y-89573866D02*
X107757142Y-89764342D01*
X107757142Y-89764342D02*
X107709523Y-89859580D01*
X107709523Y-89859580D02*
X107661904Y-89907200D01*
X107661904Y-89907200D02*
X107566666Y-89954819D01*
X107566666Y-89954819D02*
X107471428Y-89954819D01*
X107471428Y-89954819D02*
X107376190Y-89907200D01*
X107376190Y-89907200D02*
X107328571Y-89859580D01*
X107328571Y-89859580D02*
X107280952Y-89764342D01*
X107280952Y-89764342D02*
X107233333Y-89573866D01*
X107233333Y-89573866D02*
X107233333Y-89335771D01*
X107233333Y-89335771D02*
X107280952Y-89145295D01*
X107280952Y-89145295D02*
X107328571Y-89050057D01*
X107328571Y-89050057D02*
X107376190Y-89002438D01*
X107376190Y-89002438D02*
X107471428Y-88954819D01*
X108423809Y-88954819D02*
X108519047Y-88954819D01*
X108519047Y-88954819D02*
X108614285Y-89002438D01*
X108614285Y-89002438D02*
X108661904Y-89050057D01*
X108661904Y-89050057D02*
X108709523Y-89145295D01*
X108709523Y-89145295D02*
X108757142Y-89335771D01*
X108757142Y-89335771D02*
X108757142Y-89573866D01*
X108757142Y-89573866D02*
X108709523Y-89764342D01*
X108709523Y-89764342D02*
X108661904Y-89859580D01*
X108661904Y-89859580D02*
X108614285Y-89907200D01*
X108614285Y-89907200D02*
X108519047Y-89954819D01*
X108519047Y-89954819D02*
X108423809Y-89954819D01*
X108423809Y-89954819D02*
X108328571Y-89907200D01*
X108328571Y-89907200D02*
X108280952Y-89859580D01*
X108280952Y-89859580D02*
X108233333Y-89764342D01*
X108233333Y-89764342D02*
X108185714Y-89573866D01*
X108185714Y-89573866D02*
X108185714Y-89335771D01*
X108185714Y-89335771D02*
X108233333Y-89145295D01*
X108233333Y-89145295D02*
X108280952Y-89050057D01*
X108280952Y-89050057D02*
X108328571Y-89002438D01*
X108328571Y-89002438D02*
X108423809Y-88954819D01*
X109185714Y-89288152D02*
X109185714Y-89954819D01*
X109185714Y-89383390D02*
X109233333Y-89335771D01*
X109233333Y-89335771D02*
X109328571Y-89288152D01*
X109328571Y-89288152D02*
X109471428Y-89288152D01*
X109471428Y-89288152D02*
X109566666Y-89335771D01*
X109566666Y-89335771D02*
X109614285Y-89431009D01*
X109614285Y-89431009D02*
X109614285Y-89954819D01*
X110423809Y-89431009D02*
X110090476Y-89431009D01*
X110090476Y-89954819D02*
X110090476Y-88954819D01*
X110090476Y-88954819D02*
X110566666Y-88954819D01*
D11*
X111558333Y-88143832D02*
X111539285Y-88162880D01*
X111539285Y-88162880D02*
X111482143Y-88181927D01*
X111482143Y-88181927D02*
X111444047Y-88181927D01*
X111444047Y-88181927D02*
X111386904Y-88162880D01*
X111386904Y-88162880D02*
X111348809Y-88124784D01*
X111348809Y-88124784D02*
X111329762Y-88086689D01*
X111329762Y-88086689D02*
X111310714Y-88010499D01*
X111310714Y-88010499D02*
X111310714Y-87953356D01*
X111310714Y-87953356D02*
X111329762Y-87877165D01*
X111329762Y-87877165D02*
X111348809Y-87839070D01*
X111348809Y-87839070D02*
X111386904Y-87800975D01*
X111386904Y-87800975D02*
X111444047Y-87781927D01*
X111444047Y-87781927D02*
X111482143Y-87781927D01*
X111482143Y-87781927D02*
X111539285Y-87800975D01*
X111539285Y-87800975D02*
X111558333Y-87820022D01*
X111939285Y-88181927D02*
X111710714Y-88181927D01*
X111825000Y-88181927D02*
X111825000Y-87781927D01*
X111825000Y-87781927D02*
X111786904Y-87839070D01*
X111786904Y-87839070D02*
X111748809Y-87877165D01*
X111748809Y-87877165D02*
X111710714Y-87896213D01*
D10*
X116028571Y-84774819D02*
X115457143Y-84774819D01*
X115742857Y-84774819D02*
X115742857Y-83774819D01*
X115742857Y-83774819D02*
X115647619Y-83917676D01*
X115647619Y-83917676D02*
X115552381Y-84012914D01*
X115552381Y-84012914D02*
X115457143Y-84060533D01*
X116647619Y-83774819D02*
X116742857Y-83774819D01*
X116742857Y-83774819D02*
X116838095Y-83822438D01*
X116838095Y-83822438D02*
X116885714Y-83870057D01*
X116885714Y-83870057D02*
X116933333Y-83965295D01*
X116933333Y-83965295D02*
X116980952Y-84155771D01*
X116980952Y-84155771D02*
X116980952Y-84393866D01*
X116980952Y-84393866D02*
X116933333Y-84584342D01*
X116933333Y-84584342D02*
X116885714Y-84679580D01*
X116885714Y-84679580D02*
X116838095Y-84727200D01*
X116838095Y-84727200D02*
X116742857Y-84774819D01*
X116742857Y-84774819D02*
X116647619Y-84774819D01*
X116647619Y-84774819D02*
X116552381Y-84727200D01*
X116552381Y-84727200D02*
X116504762Y-84679580D01*
X116504762Y-84679580D02*
X116457143Y-84584342D01*
X116457143Y-84584342D02*
X116409524Y-84393866D01*
X116409524Y-84393866D02*
X116409524Y-84155771D01*
X116409524Y-84155771D02*
X116457143Y-83965295D01*
X116457143Y-83965295D02*
X116504762Y-83870057D01*
X116504762Y-83870057D02*
X116552381Y-83822438D01*
X116552381Y-83822438D02*
X116647619Y-83774819D01*
X117838095Y-84108152D02*
X117838095Y-84774819D01*
X117409524Y-84108152D02*
X117409524Y-84631961D01*
X117409524Y-84631961D02*
X117457143Y-84727200D01*
X117457143Y-84727200D02*
X117552381Y-84774819D01*
X117552381Y-84774819D02*
X117695238Y-84774819D01*
X117695238Y-84774819D02*
X117790476Y-84727200D01*
X117790476Y-84727200D02*
X117838095Y-84679580D01*
X118647619Y-84251009D02*
X118314286Y-84251009D01*
X118314286Y-84774819D02*
X118314286Y-83774819D01*
X118314286Y-83774819D02*
X118790476Y-83774819D01*
D13*
X119966666Y-86179530D02*
X119942857Y-86203340D01*
X119942857Y-86203340D02*
X119871428Y-86227149D01*
X119871428Y-86227149D02*
X119823809Y-86227149D01*
X119823809Y-86227149D02*
X119752381Y-86203340D01*
X119752381Y-86203340D02*
X119704762Y-86155720D01*
X119704762Y-86155720D02*
X119680952Y-86108101D01*
X119680952Y-86108101D02*
X119657143Y-86012863D01*
X119657143Y-86012863D02*
X119657143Y-85941435D01*
X119657143Y-85941435D02*
X119680952Y-85846197D01*
X119680952Y-85846197D02*
X119704762Y-85798578D01*
X119704762Y-85798578D02*
X119752381Y-85750959D01*
X119752381Y-85750959D02*
X119823809Y-85727149D01*
X119823809Y-85727149D02*
X119871428Y-85727149D01*
X119871428Y-85727149D02*
X119942857Y-85750959D01*
X119942857Y-85750959D02*
X119966666Y-85774768D01*
X120395238Y-85893816D02*
X120395238Y-86227149D01*
X120276190Y-85703340D02*
X120157143Y-86060482D01*
X120157143Y-86060482D02*
X120466666Y-86060482D01*
%TO.C,R1*%
D14*
X112700000Y-82087500D02*
X114300000Y-82087500D01*
X114300000Y-82912500D01*
X112700000Y-82912500D01*
X112700000Y-82087500D01*
%TO.C,R2*%
X121200000Y-82087500D02*
X122800000Y-82087500D01*
X122800000Y-82912500D01*
X121200000Y-82912500D01*
X121200000Y-82087500D01*
%TO.C,C2*%
X119475000Y-87600000D02*
X121075000Y-87600000D01*
X121075000Y-88400000D01*
X119475000Y-88400000D01*
X119475000Y-87600000D01*
%TO.C,U1*%
X116750000Y-86500000D02*
X116750000Y-88750000D01*
X113750000Y-88750000D01*
X113750000Y-85750000D01*
X116000000Y-85750000D01*
X116750000Y-86500000D01*
%TO.C,J3*%
X117875000Y-70650000D02*
X118500000Y-71650000D01*
X118500000Y-71650000D02*
X119125000Y-70650000D01*
X116050000Y-70650000D02*
X123450000Y-70650000D01*
X123450000Y-76400000D01*
X116050000Y-76400000D01*
X116050000Y-70650000D01*
%TO.C,J2*%
X112925000Y-95100000D02*
X113125000Y-94900000D01*
X112925000Y-96900000D02*
X112925000Y-95100000D01*
X113125000Y-94300000D02*
X114625000Y-94300000D01*
X113125000Y-94900000D02*
X113125000Y-94300000D01*
X113125000Y-97100000D02*
X112925000Y-96900000D01*
X114625000Y-93400000D02*
X114625000Y-97100000D01*
X114625000Y-93400000D02*
X121375000Y-93400000D01*
X114625000Y-97100000D02*
X113125000Y-97100000D01*
X114625000Y-97100000D02*
X121375000Y-97100000D01*
X115625000Y-93400000D02*
X116125000Y-94107107D01*
X116125000Y-94107107D02*
X116625000Y-93400000D01*
X121375000Y-93400000D02*
X121375000Y-97100000D01*
X121375000Y-97100000D02*
X122875000Y-97100000D01*
X122875000Y-94300000D02*
X121375000Y-94300000D01*
X122875000Y-94900000D02*
X122875000Y-94300000D01*
X122875000Y-97100000D02*
X123075000Y-96900000D01*
X123075000Y-95100000D02*
X122875000Y-94900000D01*
X123075000Y-96900000D02*
X123075000Y-95100000D01*
X115975000Y-95725000D02*
X116275000Y-95725000D01*
X116275000Y-96325000D01*
X115975000Y-96325000D01*
X115975000Y-95725000D01*
X117225000Y-95725000D02*
X117525000Y-95725000D01*
X117525000Y-96325000D01*
X117225000Y-96325000D01*
X117225000Y-95725000D01*
X118475000Y-95725000D02*
X118775000Y-95725000D01*
X118775000Y-96325000D01*
X118475000Y-96325000D01*
X118475000Y-95725000D01*
X119725000Y-95725000D02*
X120025000Y-95725000D01*
X120025000Y-96325000D01*
X119725000Y-96325000D01*
X119725000Y-95725000D01*
%TO.C,A1*%
D15*
X85225000Y-45500000D02*
X106225000Y-45500000D01*
X85225000Y-46800000D02*
X86525000Y-45500000D01*
X85225000Y-96500000D02*
X85225000Y-45500000D01*
X106225000Y-45500000D02*
X106225000Y-96500000D01*
X106225000Y-96500000D02*
X85225000Y-96500000D01*
D14*
%TO.C,U2*%
X125500000Y-86500000D02*
X125500000Y-88750000D01*
X122500000Y-88750000D01*
X122500000Y-85750000D01*
X124750000Y-85750000D01*
X125500000Y-86500000D01*
%TO.C,C5*%
X111700000Y-48700000D02*
X111700000Y-54300000D01*
X112700000Y-47700000D02*
X111700000Y-48700000D01*
X116330000Y-48295162D02*
X116330000Y-48925162D01*
X116645000Y-48610162D02*
X116015000Y-48610162D01*
X117300000Y-47700000D02*
X112700000Y-47700000D01*
X117300000Y-47700000D02*
X118300000Y-48700000D01*
X118300000Y-48700000D02*
X118300000Y-54300000D01*
X118300000Y-54300000D02*
X111700000Y-54300000D01*
X118150000Y-51000000D02*
G75*
G02*
X111850000Y-51000000I-3150000J0D01*
G01*
X111850000Y-51000000D02*
G75*
G02*
X118150000Y-51000000I3150000J0D01*
G01*
%TO.C,C3*%
X110450000Y-85375000D02*
X112450000Y-85375000D01*
X112450000Y-86625000D01*
X110450000Y-86625000D01*
X110450000Y-85375000D01*
%TO.C,C1*%
X110825000Y-87600000D02*
X112425000Y-87600000D01*
X112425000Y-88400000D01*
X110825000Y-88400000D01*
X110825000Y-87600000D01*
%TO.C,C4*%
X119050000Y-85375000D02*
X121050000Y-85375000D01*
X121050000Y-86625000D01*
X119050000Y-86625000D01*
X119050000Y-85375000D01*
%TD*%
M02*
