%TF.GenerationSoftware,KiCad,Pcbnew,10.0.3*%
%TF.CreationDate,2026-07-13T00:47:25-06:00*%
%TF.ProjectId,punbox,70756e62-6f78-42e6-9b69-6361645f7063,0*%
%TF.SameCoordinates,Original*%
%TF.FileFunction,Other,Comment*%
%FSLAX46Y46*%
G04 Gerber Fmt 4.6, Leading zero omitted, Abs format (unit mm)*
G04 Created by KiCad (PCBNEW 10.0.3) date 2026-07-13 00:47:25*
%MOMM*%
%LPD*%
G01*
G04 APERTURE LIST*
%ADD10C,0.150000*%
G04 APERTURE END LIST*
D10*
X81824997Y-41159580D02*
X81777378Y-41207200D01*
X81777378Y-41207200D02*
X81634521Y-41254819D01*
X81634521Y-41254819D02*
X81539283Y-41254819D01*
X81539283Y-41254819D02*
X81396426Y-41207200D01*
X81396426Y-41207200D02*
X81301188Y-41111961D01*
X81301188Y-41111961D02*
X81253569Y-41016723D01*
X81253569Y-41016723D02*
X81205950Y-40826247D01*
X81205950Y-40826247D02*
X81205950Y-40683390D01*
X81205950Y-40683390D02*
X81253569Y-40492914D01*
X81253569Y-40492914D02*
X81301188Y-40397676D01*
X81301188Y-40397676D02*
X81396426Y-40302438D01*
X81396426Y-40302438D02*
X81539283Y-40254819D01*
X81539283Y-40254819D02*
X81634521Y-40254819D01*
X81634521Y-40254819D02*
X81777378Y-40302438D01*
X81777378Y-40302438D02*
X81824997Y-40350057D01*
X82396426Y-41254819D02*
X82301188Y-41207200D01*
X82301188Y-41207200D02*
X82253569Y-41159580D01*
X82253569Y-41159580D02*
X82205950Y-41064342D01*
X82205950Y-41064342D02*
X82205950Y-40778628D01*
X82205950Y-40778628D02*
X82253569Y-40683390D01*
X82253569Y-40683390D02*
X82301188Y-40635771D01*
X82301188Y-40635771D02*
X82396426Y-40588152D01*
X82396426Y-40588152D02*
X82539283Y-40588152D01*
X82539283Y-40588152D02*
X82634521Y-40635771D01*
X82634521Y-40635771D02*
X82682140Y-40683390D01*
X82682140Y-40683390D02*
X82729759Y-40778628D01*
X82729759Y-40778628D02*
X82729759Y-41064342D01*
X82729759Y-41064342D02*
X82682140Y-41159580D01*
X82682140Y-41159580D02*
X82634521Y-41207200D01*
X82634521Y-41207200D02*
X82539283Y-41254819D01*
X82539283Y-41254819D02*
X82396426Y-41254819D01*
X83158331Y-40588152D02*
X83158331Y-41588152D01*
X83158331Y-40635771D02*
X83253569Y-40588152D01*
X83253569Y-40588152D02*
X83444045Y-40588152D01*
X83444045Y-40588152D02*
X83539283Y-40635771D01*
X83539283Y-40635771D02*
X83586902Y-40683390D01*
X83586902Y-40683390D02*
X83634521Y-40778628D01*
X83634521Y-40778628D02*
X83634521Y-41064342D01*
X83634521Y-41064342D02*
X83586902Y-41159580D01*
X83586902Y-41159580D02*
X83539283Y-41207200D01*
X83539283Y-41207200D02*
X83444045Y-41254819D01*
X83444045Y-41254819D02*
X83253569Y-41254819D01*
X83253569Y-41254819D02*
X83158331Y-41207200D01*
X84063093Y-40588152D02*
X84063093Y-41588152D01*
X84063093Y-40635771D02*
X84158331Y-40588152D01*
X84158331Y-40588152D02*
X84348807Y-40588152D01*
X84348807Y-40588152D02*
X84444045Y-40635771D01*
X84444045Y-40635771D02*
X84491664Y-40683390D01*
X84491664Y-40683390D02*
X84539283Y-40778628D01*
X84539283Y-40778628D02*
X84539283Y-41064342D01*
X84539283Y-41064342D02*
X84491664Y-41159580D01*
X84491664Y-41159580D02*
X84444045Y-41207200D01*
X84444045Y-41207200D02*
X84348807Y-41254819D01*
X84348807Y-41254819D02*
X84158331Y-41254819D01*
X84158331Y-41254819D02*
X84063093Y-41207200D01*
X85348807Y-41207200D02*
X85253569Y-41254819D01*
X85253569Y-41254819D02*
X85063093Y-41254819D01*
X85063093Y-41254819D02*
X84967855Y-41207200D01*
X84967855Y-41207200D02*
X84920236Y-41111961D01*
X84920236Y-41111961D02*
X84920236Y-40731009D01*
X84920236Y-40731009D02*
X84967855Y-40635771D01*
X84967855Y-40635771D02*
X85063093Y-40588152D01*
X85063093Y-40588152D02*
X85253569Y-40588152D01*
X85253569Y-40588152D02*
X85348807Y-40635771D01*
X85348807Y-40635771D02*
X85396426Y-40731009D01*
X85396426Y-40731009D02*
X85396426Y-40826247D01*
X85396426Y-40826247D02*
X84920236Y-40921485D01*
X85824998Y-41254819D02*
X85824998Y-40588152D01*
X85824998Y-40778628D02*
X85872617Y-40683390D01*
X85872617Y-40683390D02*
X85920236Y-40635771D01*
X85920236Y-40635771D02*
X86015474Y-40588152D01*
X86015474Y-40588152D02*
X86110712Y-40588152D01*
X87205951Y-41254819D02*
X87205951Y-40254819D01*
X87777379Y-41254819D02*
X87348808Y-40683390D01*
X87777379Y-40254819D02*
X87205951Y-40826247D01*
X88586903Y-41207200D02*
X88491665Y-41254819D01*
X88491665Y-41254819D02*
X88301189Y-41254819D01*
X88301189Y-41254819D02*
X88205951Y-41207200D01*
X88205951Y-41207200D02*
X88158332Y-41111961D01*
X88158332Y-41111961D02*
X88158332Y-40731009D01*
X88158332Y-40731009D02*
X88205951Y-40635771D01*
X88205951Y-40635771D02*
X88301189Y-40588152D01*
X88301189Y-40588152D02*
X88491665Y-40588152D01*
X88491665Y-40588152D02*
X88586903Y-40635771D01*
X88586903Y-40635771D02*
X88634522Y-40731009D01*
X88634522Y-40731009D02*
X88634522Y-40826247D01*
X88634522Y-40826247D02*
X88158332Y-40921485D01*
X89444046Y-41207200D02*
X89348808Y-41254819D01*
X89348808Y-41254819D02*
X89158332Y-41254819D01*
X89158332Y-41254819D02*
X89063094Y-41207200D01*
X89063094Y-41207200D02*
X89015475Y-41111961D01*
X89015475Y-41111961D02*
X89015475Y-40731009D01*
X89015475Y-40731009D02*
X89063094Y-40635771D01*
X89063094Y-40635771D02*
X89158332Y-40588152D01*
X89158332Y-40588152D02*
X89348808Y-40588152D01*
X89348808Y-40588152D02*
X89444046Y-40635771D01*
X89444046Y-40635771D02*
X89491665Y-40731009D01*
X89491665Y-40731009D02*
X89491665Y-40826247D01*
X89491665Y-40826247D02*
X89015475Y-40921485D01*
X89920237Y-40588152D02*
X89920237Y-41588152D01*
X89920237Y-40635771D02*
X90015475Y-40588152D01*
X90015475Y-40588152D02*
X90205951Y-40588152D01*
X90205951Y-40588152D02*
X90301189Y-40635771D01*
X90301189Y-40635771D02*
X90348808Y-40683390D01*
X90348808Y-40683390D02*
X90396427Y-40778628D01*
X90396427Y-40778628D02*
X90396427Y-41064342D01*
X90396427Y-41064342D02*
X90348808Y-41159580D01*
X90348808Y-41159580D02*
X90301189Y-41207200D01*
X90301189Y-41207200D02*
X90205951Y-41254819D01*
X90205951Y-41254819D02*
X90015475Y-41254819D01*
X90015475Y-41254819D02*
X89920237Y-41207200D01*
X90967856Y-41254819D02*
X90872618Y-41207200D01*
X90872618Y-41207200D02*
X90824999Y-41159580D01*
X90824999Y-41159580D02*
X90777380Y-41064342D01*
X90777380Y-41064342D02*
X90777380Y-40778628D01*
X90777380Y-40778628D02*
X90824999Y-40683390D01*
X90824999Y-40683390D02*
X90872618Y-40635771D01*
X90872618Y-40635771D02*
X90967856Y-40588152D01*
X90967856Y-40588152D02*
X91110713Y-40588152D01*
X91110713Y-40588152D02*
X91205951Y-40635771D01*
X91205951Y-40635771D02*
X91253570Y-40683390D01*
X91253570Y-40683390D02*
X91301189Y-40778628D01*
X91301189Y-40778628D02*
X91301189Y-41064342D01*
X91301189Y-41064342D02*
X91253570Y-41159580D01*
X91253570Y-41159580D02*
X91205951Y-41207200D01*
X91205951Y-41207200D02*
X91110713Y-41254819D01*
X91110713Y-41254819D02*
X90967856Y-41254819D01*
X92158332Y-40588152D02*
X92158332Y-41254819D01*
X91729761Y-40588152D02*
X91729761Y-41111961D01*
X91729761Y-41111961D02*
X91777380Y-41207200D01*
X91777380Y-41207200D02*
X91872618Y-41254819D01*
X91872618Y-41254819D02*
X92015475Y-41254819D01*
X92015475Y-41254819D02*
X92110713Y-41207200D01*
X92110713Y-41207200D02*
X92158332Y-41159580D01*
X92491666Y-40588152D02*
X92872618Y-40588152D01*
X92634523Y-40254819D02*
X92634523Y-41111961D01*
X92634523Y-41111961D02*
X92682142Y-41207200D01*
X92682142Y-41207200D02*
X92777380Y-41254819D01*
X92777380Y-41254819D02*
X92872618Y-41254819D01*
X93158333Y-41207200D02*
X93253571Y-41254819D01*
X93253571Y-41254819D02*
X93444047Y-41254819D01*
X93444047Y-41254819D02*
X93539285Y-41207200D01*
X93539285Y-41207200D02*
X93586904Y-41111961D01*
X93586904Y-41111961D02*
X93586904Y-41064342D01*
X93586904Y-41064342D02*
X93539285Y-40969104D01*
X93539285Y-40969104D02*
X93444047Y-40921485D01*
X93444047Y-40921485D02*
X93301190Y-40921485D01*
X93301190Y-40921485D02*
X93205952Y-40873866D01*
X93205952Y-40873866D02*
X93158333Y-40778628D01*
X93158333Y-40778628D02*
X93158333Y-40731009D01*
X93158333Y-40731009D02*
X93205952Y-40635771D01*
X93205952Y-40635771D02*
X93301190Y-40588152D01*
X93301190Y-40588152D02*
X93444047Y-40588152D01*
X93444047Y-40588152D02*
X93539285Y-40635771D01*
X94729762Y-41207200D02*
X94825000Y-41254819D01*
X94825000Y-41254819D02*
X95015476Y-41254819D01*
X95015476Y-41254819D02*
X95110714Y-41207200D01*
X95110714Y-41207200D02*
X95158333Y-41111961D01*
X95158333Y-41111961D02*
X95158333Y-41064342D01*
X95158333Y-41064342D02*
X95110714Y-40969104D01*
X95110714Y-40969104D02*
X95015476Y-40921485D01*
X95015476Y-40921485D02*
X94872619Y-40921485D01*
X94872619Y-40921485D02*
X94777381Y-40873866D01*
X94777381Y-40873866D02*
X94729762Y-40778628D01*
X94729762Y-40778628D02*
X94729762Y-40731009D01*
X94729762Y-40731009D02*
X94777381Y-40635771D01*
X94777381Y-40635771D02*
X94872619Y-40588152D01*
X94872619Y-40588152D02*
X95015476Y-40588152D01*
X95015476Y-40588152D02*
X95110714Y-40635771D01*
X95586905Y-41254819D02*
X95586905Y-40254819D01*
X96015476Y-41254819D02*
X96015476Y-40731009D01*
X96015476Y-40731009D02*
X95967857Y-40635771D01*
X95967857Y-40635771D02*
X95872619Y-40588152D01*
X95872619Y-40588152D02*
X95729762Y-40588152D01*
X95729762Y-40588152D02*
X95634524Y-40635771D01*
X95634524Y-40635771D02*
X95586905Y-40683390D01*
X96634524Y-41254819D02*
X96539286Y-41207200D01*
X96539286Y-41207200D02*
X96491667Y-41159580D01*
X96491667Y-41159580D02*
X96444048Y-41064342D01*
X96444048Y-41064342D02*
X96444048Y-40778628D01*
X96444048Y-40778628D02*
X96491667Y-40683390D01*
X96491667Y-40683390D02*
X96539286Y-40635771D01*
X96539286Y-40635771D02*
X96634524Y-40588152D01*
X96634524Y-40588152D02*
X96777381Y-40588152D01*
X96777381Y-40588152D02*
X96872619Y-40635771D01*
X96872619Y-40635771D02*
X96920238Y-40683390D01*
X96920238Y-40683390D02*
X96967857Y-40778628D01*
X96967857Y-40778628D02*
X96967857Y-41064342D01*
X96967857Y-41064342D02*
X96920238Y-41159580D01*
X96920238Y-41159580D02*
X96872619Y-41207200D01*
X96872619Y-41207200D02*
X96777381Y-41254819D01*
X96777381Y-41254819D02*
X96634524Y-41254819D01*
X97301191Y-40588152D02*
X97491667Y-41254819D01*
X97491667Y-41254819D02*
X97682143Y-40778628D01*
X97682143Y-40778628D02*
X97872619Y-41254819D01*
X97872619Y-41254819D02*
X98063095Y-40588152D01*
X98444048Y-40588152D02*
X98444048Y-41254819D01*
X98444048Y-40683390D02*
X98491667Y-40635771D01*
X98491667Y-40635771D02*
X98586905Y-40588152D01*
X98586905Y-40588152D02*
X98729762Y-40588152D01*
X98729762Y-40588152D02*
X98825000Y-40635771D01*
X98825000Y-40635771D02*
X98872619Y-40731009D01*
X98872619Y-40731009D02*
X98872619Y-41254819D01*
X100253572Y-41254819D02*
X100158334Y-41207200D01*
X100158334Y-41207200D02*
X100110715Y-41159580D01*
X100110715Y-41159580D02*
X100063096Y-41064342D01*
X100063096Y-41064342D02*
X100063096Y-40778628D01*
X100063096Y-40778628D02*
X100110715Y-40683390D01*
X100110715Y-40683390D02*
X100158334Y-40635771D01*
X100158334Y-40635771D02*
X100253572Y-40588152D01*
X100253572Y-40588152D02*
X100396429Y-40588152D01*
X100396429Y-40588152D02*
X100491667Y-40635771D01*
X100491667Y-40635771D02*
X100539286Y-40683390D01*
X100539286Y-40683390D02*
X100586905Y-40778628D01*
X100586905Y-40778628D02*
X100586905Y-41064342D01*
X100586905Y-41064342D02*
X100539286Y-41159580D01*
X100539286Y-41159580D02*
X100491667Y-41207200D01*
X100491667Y-41207200D02*
X100396429Y-41254819D01*
X100396429Y-41254819D02*
X100253572Y-41254819D01*
X101015477Y-40588152D02*
X101015477Y-41254819D01*
X101015477Y-40683390D02*
X101063096Y-40635771D01*
X101063096Y-40635771D02*
X101158334Y-40588152D01*
X101158334Y-40588152D02*
X101301191Y-40588152D01*
X101301191Y-40588152D02*
X101396429Y-40635771D01*
X101396429Y-40635771D02*
X101444048Y-40731009D01*
X101444048Y-40731009D02*
X101444048Y-41254819D01*
X102682144Y-41254819D02*
X102682144Y-40254819D01*
X102682144Y-40254819D02*
X102920239Y-40254819D01*
X102920239Y-40254819D02*
X103063096Y-40302438D01*
X103063096Y-40302438D02*
X103158334Y-40397676D01*
X103158334Y-40397676D02*
X103205953Y-40492914D01*
X103205953Y-40492914D02*
X103253572Y-40683390D01*
X103253572Y-40683390D02*
X103253572Y-40826247D01*
X103253572Y-40826247D02*
X103205953Y-41016723D01*
X103205953Y-41016723D02*
X103158334Y-41111961D01*
X103158334Y-41111961D02*
X103063096Y-41207200D01*
X103063096Y-41207200D02*
X102920239Y-41254819D01*
X102920239Y-41254819D02*
X102682144Y-41254819D01*
X103586906Y-40588152D02*
X103777382Y-41254819D01*
X103777382Y-41254819D02*
X103967858Y-40778628D01*
X103967858Y-40778628D02*
X104158334Y-41254819D01*
X104158334Y-41254819D02*
X104348810Y-40588152D01*
X105158334Y-40588152D02*
X105158334Y-41397676D01*
X105158334Y-41397676D02*
X105110715Y-41492914D01*
X105110715Y-41492914D02*
X105063096Y-41540533D01*
X105063096Y-41540533D02*
X104967858Y-41588152D01*
X104967858Y-41588152D02*
X104825001Y-41588152D01*
X104825001Y-41588152D02*
X104729763Y-41540533D01*
X105158334Y-41207200D02*
X105063096Y-41254819D01*
X105063096Y-41254819D02*
X104872620Y-41254819D01*
X104872620Y-41254819D02*
X104777382Y-41207200D01*
X104777382Y-41207200D02*
X104729763Y-41159580D01*
X104729763Y-41159580D02*
X104682144Y-41064342D01*
X104682144Y-41064342D02*
X104682144Y-40778628D01*
X104682144Y-40778628D02*
X104729763Y-40683390D01*
X104729763Y-40683390D02*
X104777382Y-40635771D01*
X104777382Y-40635771D02*
X104872620Y-40588152D01*
X104872620Y-40588152D02*
X105063096Y-40588152D01*
X105063096Y-40588152D02*
X105158334Y-40635771D01*
X105586906Y-41207200D02*
X105682144Y-41254819D01*
X105682144Y-41254819D02*
X105872620Y-41254819D01*
X105872620Y-41254819D02*
X105967858Y-41207200D01*
X105967858Y-41207200D02*
X106015477Y-41111961D01*
X106015477Y-41111961D02*
X106015477Y-41064342D01*
X106015477Y-41064342D02*
X105967858Y-40969104D01*
X105967858Y-40969104D02*
X105872620Y-40921485D01*
X105872620Y-40921485D02*
X105729763Y-40921485D01*
X105729763Y-40921485D02*
X105634525Y-40873866D01*
X105634525Y-40873866D02*
X105586906Y-40778628D01*
X105586906Y-40778628D02*
X105586906Y-40731009D01*
X105586906Y-40731009D02*
X105634525Y-40635771D01*
X105634525Y-40635771D02*
X105729763Y-40588152D01*
X105729763Y-40588152D02*
X105872620Y-40588152D01*
X105872620Y-40588152D02*
X105967858Y-40635771D01*
X107348811Y-41254819D02*
X107253573Y-41207200D01*
X107253573Y-41207200D02*
X107205954Y-41111961D01*
X107205954Y-41111961D02*
X107205954Y-40254819D01*
X108158335Y-41254819D02*
X108158335Y-40731009D01*
X108158335Y-40731009D02*
X108110716Y-40635771D01*
X108110716Y-40635771D02*
X108015478Y-40588152D01*
X108015478Y-40588152D02*
X107825002Y-40588152D01*
X107825002Y-40588152D02*
X107729764Y-40635771D01*
X108158335Y-41207200D02*
X108063097Y-41254819D01*
X108063097Y-41254819D02*
X107825002Y-41254819D01*
X107825002Y-41254819D02*
X107729764Y-41207200D01*
X107729764Y-41207200D02*
X107682145Y-41111961D01*
X107682145Y-41111961D02*
X107682145Y-41016723D01*
X107682145Y-41016723D02*
X107729764Y-40921485D01*
X107729764Y-40921485D02*
X107825002Y-40873866D01*
X107825002Y-40873866D02*
X108063097Y-40873866D01*
X108063097Y-40873866D02*
X108158335Y-40826247D01*
X108539288Y-40588152D02*
X108777383Y-41254819D01*
X109015478Y-40588152D02*
X108777383Y-41254819D01*
X108777383Y-41254819D02*
X108682145Y-41492914D01*
X108682145Y-41492914D02*
X108634526Y-41540533D01*
X108634526Y-41540533D02*
X108539288Y-41588152D01*
X109777383Y-41207200D02*
X109682145Y-41254819D01*
X109682145Y-41254819D02*
X109491669Y-41254819D01*
X109491669Y-41254819D02*
X109396431Y-41207200D01*
X109396431Y-41207200D02*
X109348812Y-41111961D01*
X109348812Y-41111961D02*
X109348812Y-40731009D01*
X109348812Y-40731009D02*
X109396431Y-40635771D01*
X109396431Y-40635771D02*
X109491669Y-40588152D01*
X109491669Y-40588152D02*
X109682145Y-40588152D01*
X109682145Y-40588152D02*
X109777383Y-40635771D01*
X109777383Y-40635771D02*
X109825002Y-40731009D01*
X109825002Y-40731009D02*
X109825002Y-40826247D01*
X109825002Y-40826247D02*
X109348812Y-40921485D01*
X110253574Y-41254819D02*
X110253574Y-40588152D01*
X110253574Y-40778628D02*
X110301193Y-40683390D01*
X110301193Y-40683390D02*
X110348812Y-40635771D01*
X110348812Y-40635771D02*
X110444050Y-40588152D01*
X110444050Y-40588152D02*
X110539288Y-40588152D01*
%TO.C,REF\u002A\u002A*%
X129700000Y-48500000D02*
G75*
G02*
X124300000Y-48500000I-2700000J0D01*
G01*
X124300000Y-48500000D02*
G75*
G02*
X129700000Y-48500000I2700000J0D01*
G01*
X129700000Y-97000000D02*
G75*
G02*
X124300000Y-97000000I-2700000J0D01*
G01*
X124300000Y-97000000D02*
G75*
G02*
X129700000Y-97000000I2700000J0D01*
G01*
X82700000Y-97000000D02*
G75*
G02*
X77300000Y-97000000I-2700000J0D01*
G01*
X77300000Y-97000000D02*
G75*
G02*
X82700000Y-97000000I2700000J0D01*
G01*
X82700000Y-48500000D02*
G75*
G02*
X77300000Y-48500000I-2700000J0D01*
G01*
X77300000Y-48500000D02*
G75*
G02*
X82700000Y-48500000I2700000J0D01*
G01*
%TD*%
M02*
