%TF.GenerationSoftware,KiCad,Pcbnew,10.0.3*%
%TF.CreationDate,2026-07-13T00:47:25-06:00*%
%TF.ProjectId,punbox,70756e62-6f78-42e6-9b69-6361645f7063,0*%
%TF.SameCoordinates,Original*%
%TF.FileFunction,Soldermask,Bot*%
%TF.FilePolarity,Negative*%
%FSLAX46Y46*%
G04 Gerber Fmt 4.6, Leading zero omitted, Abs format (unit mm)*
G04 Created by KiCad (PCBNEW 10.0.3) date 2026-07-13 00:47:25*
%MOMM*%
%LPD*%
G01*
G04 APERTURE LIST*
G04 Aperture macros list*
%AMRoundRect*
0 Rectangle with rounded corners*
0 $1 Rounding radius*
0 $2 $3 $4 $5 $6 $7 $8 $9 X,Y pos of 4 corners*
0 Add a 4 corners polygon primitive as box body*
4,1,4,$2,$3,$4,$5,$6,$7,$8,$9,$2,$3,0*
0 Add four circle primitives for the rounded corners*
1,1,$1+$1,$2,$3*
1,1,$1+$1,$4,$5*
1,1,$1+$1,$6,$7*
1,1,$1+$1,$8,$9*
0 Add four rect primitives between the rounded corners*
20,1,$1+$1,$2,$3,$4,$5,0*
20,1,$1+$1,$4,$5,$6,$7,0*
20,1,$1+$1,$6,$7,$8,$9,0*
20,1,$1+$1,$8,$9,$2,$3,0*%
G04 Aperture macros list end*
%ADD10C,2.700000*%
%ADD11RoundRect,0.250000X-0.600000X-0.750000X0.600000X-0.750000X0.600000X0.750000X-0.600000X0.750000X0*%
%ADD12O,1.700000X2.000000*%
%ADD13O,1.800000X1.800000*%
%ADD14O,1.500000X1.500000*%
%ADD15O,1.700000X1.700000*%
%ADD16R,1.700000X1.700000*%
G04 APERTURE END LIST*
D10*
%TO.C,REF\u002A\u002A*%
X127000000Y-48500000D03*
%TD*%
D11*
%TO.C,J3*%
X118500000Y-73000000D03*
D12*
X121000000Y-73000000D03*
%TD*%
D13*
%TO.C,A1*%
X93000000Y-47000000D03*
D14*
X93300000Y-50030000D03*
X98150000Y-50030000D03*
D13*
X98450000Y-47000000D03*
D15*
X86835000Y-46870000D03*
X86835000Y-49410000D03*
D16*
X86835000Y-51950000D03*
D15*
X86835000Y-54490000D03*
X86835000Y-57030000D03*
X86835000Y-59570000D03*
X86835000Y-62110000D03*
D16*
X86835000Y-64650000D03*
D15*
X86835000Y-67190000D03*
X86835000Y-69730000D03*
X86835000Y-72270000D03*
X86835000Y-74810000D03*
D16*
X86835000Y-77350000D03*
D15*
X86835000Y-79890000D03*
X86835000Y-82430000D03*
X86835000Y-84970000D03*
X86835000Y-87510000D03*
D16*
X86835000Y-90050000D03*
D15*
X86835000Y-92590000D03*
X86835000Y-95130000D03*
X104615000Y-95130000D03*
X104615000Y-92590000D03*
D16*
X104615000Y-90050000D03*
D15*
X104615000Y-87510000D03*
X104615000Y-84970000D03*
X104615000Y-82430000D03*
X104615000Y-79890000D03*
D16*
X104615000Y-77350000D03*
D15*
X104615000Y-74810000D03*
X104615000Y-72270000D03*
X104615000Y-69730000D03*
X104615000Y-67190000D03*
D16*
X104615000Y-64650000D03*
D15*
X104615000Y-62110000D03*
X104615000Y-59570000D03*
X104615000Y-57030000D03*
X104615000Y-54490000D03*
D16*
X104615000Y-51950000D03*
D15*
X104615000Y-49410000D03*
X104615000Y-46870000D03*
X93185000Y-94900000D03*
D16*
X95725000Y-94900000D03*
D15*
X98265000Y-94900000D03*
%TD*%
D10*
%TO.C,REF\u002A\u002A*%
X127000000Y-97000000D03*
%TD*%
%TO.C,REF\u002A\u002A*%
X80000000Y-97000000D03*
%TD*%
%TO.C,REF\u002A\u002A*%
X80000000Y-48500000D03*
%TD*%
M02*
